<?xml version="1.0" encoding="utf-8"?>
<!-- Generator: Adobe Illustrator 25.0.1, SVG Export Plug-In . SVG Version: 6.00 Build 0)  -->
<svg version="1.1" id="Layer_1" xmlns="http://www.w3.org/2000/svg" xmlns:xlink="http://www.w3.org/1999/xlink" x="0px" y="0px"
	 viewBox="0 0 39 129" style="enable-background:new 0 0 39 129;" xml:space="preserve">
<style type="text/css">
	.st0{fill:none;stroke:#A94044;stroke-width:0.5;stroke-miterlimit:10;}
</style>
<g>
	<path class="st0" d="M0.43-0.43c0,11.67,35.93,38.46,35.93,64.8c0,25.14-35.93,53.13-35.93,64.79"/>
	<path class="st0" d="M0.43-0.43c0,10.61,32.66,40.86,32.66,64.81c0,22.85-32.66,54.18-32.66,64.79"/>
	<path class="st0" d="M0.43-0.43c0,9.55,29.4,43.26,29.4,64.82c0,20.57-29.4,55.24-29.4,64.78"/>
	<path class="st0" d="M0.43-0.43c0,8.49,26.13,45.66,26.13,64.82c0,18.28-26.13,56.29-26.13,64.78"/>
	<path class="st0" d="M0.43-0.43C0.43,7,23.3,47.64,23.3,64.4c0,16-22.87,57.35-22.87,64.77"/>
	<path class="st0" d="M0.43-0.43c0,6.36,19.6,50.46,19.6,64.83c0,13.71-19.6,58.4-19.6,64.77"/>
	<path class="st0" d="M0.43-0.43c0,5.3,16.33,52.86,16.33,64.84c0,11.43-16.33,59.46-16.33,64.76"/>
	<path class="st0" d="M0.43-0.43c0,4.24,13.07,55.26,13.07,64.84c0,9.14-13.07,60.51-13.07,64.76"/>
	<path class="st0" d="M0.43-0.43c0,3.18,9.8,57.66,9.8,64.85c0,6.86-9.8,61.57-9.8,64.75"/>
	<path class="st0" d="M0.43-0.43c0,2.12,6.53,60.06,6.53,64.85c0,4.57-6.53,62.62-6.53,64.75"/>
	<path class="st0" d="M0.43-0.43c0,1.06,3.27,62.46,3.27,64.86c0,2.29-3.27,63.68-3.27,64.74"/>
	<line class="st0" x1="0.43" y1="-0.43" x2="0.43" y2="129.17"/>
</g>
</svg>
