<?xml version="1.0" encoding="utf-8"?>
<!-- Generator: Adobe Illustrator 25.0.1, SVG Export Plug-In . SVG Version: 6.00 Build 0)  -->
<svg version="1.1" id="Layer_1" xmlns="http://www.w3.org/2000/svg" xmlns:xlink="http://www.w3.org/1999/xlink" x="0px" y="0px"
	 viewBox="0 0 15 129" style="enable-background:new 0 0 15 129;" xml:space="preserve">
<style type="text/css">
	.st0{fill:none;stroke:#61544A;stroke-width:0.5;stroke-miterlimit:10;}
</style>
<g>
	<g>
		<path class="st0" d="M0.43,129.4c0-26.56,11.61-29.06,11.61-64.91c0-35.85-11.61-38.35-11.61-64.91"/>
		<path class="st0" d="M0.43,129.4c0-21.25,9.29-36.23,9.29-64.91S0.43,20.83,0.43-0.43"/>
		<path class="st0" d="M0.43,129.4c0-15.94,6.96-43.4,6.96-64.91c0-21.51-6.96-48.98-6.96-64.91"/>
		<path class="st0" d="M0.43,129.4c0-10.63,4.64-50.57,4.64-64.91S0.43,10.2,0.43-0.43"/>
		<path class="st0" d="M0.43,129.4c0-5.31,2.32-57.74,2.32-64.91c0-7.17-2.32-59.6-2.32-64.91"/>
		<line class="st0" x1="0.43" y1="129.4" x2="0.43" y2="-0.43"/>
	</g>
</g>
</svg>
