<?xml version="1.0" encoding="utf-8"?>
<!-- Generator: Adobe Illustrator 25.0.1, SVG Export Plug-In . SVG Version: 6.00 Build 0)  -->
<svg version="1.1" id="Layer_1" xmlns="http://www.w3.org/2000/svg" xmlns:xlink="http://www.w3.org/1999/xlink" x="0px" y="0px"
	 viewBox="0 0 20 129" style="enable-background:new 0 0 20 129;" xml:space="preserve">
<style type="text/css">
	.st0{fill:none;stroke:#61544A;stroke-width:0.5;stroke-miterlimit:10;}
</style>
<g>
	<path class="st0" d="M0.43,129.4c0-26.56,16.25-29.06,16.25-64.91c0-35.85-16.25-38.35-16.25-64.91"/>
	<path class="st0" d="M0.43,129.4c0-22.77,13.93-34.18,13.93-64.91c0-30.73-13.93-42.15-13.93-64.91"/>
	<path class="st0" d="M0.43,129.4c0-18.97,11.61-39.31,11.61-64.91c0-25.61-11.61-45.94-11.61-64.91"/>
	<path class="st0" d="M0.43,129.4c0-15.18,9.29-44.43,9.29-64.91S0.43,14.75,0.43-0.43"/>
	<path class="st0" d="M0.43,129.4c0-11.38,6.96-49.55,6.96-64.91c0-15.36-6.96-53.53-6.96-64.91"/>
	<path class="st0" d="M0.43,129.4c0-7.59,4.64-54.67,4.64-64.91S0.43,7.16,0.43-0.43"/>
	<path class="st0" d="M0.43,129.4c0-3.79,2.32-59.79,2.32-64.91c0-5.12-2.32-61.12-2.32-64.91"/>
	<line class="st0" x1="0.43" y1="129.4" x2="0.43" y2="-0.43"/>
</g>
</svg>
