<?xml version="1.0" encoding="utf-8"?>
<!-- Generator: Adobe Illustrator 25.0.1, SVG Export Plug-In . SVG Version: 6.00 Build 0)  -->
<svg version="1.1" id="Layer_1" xmlns="http://www.w3.org/2000/svg" xmlns:xlink="http://www.w3.org/1999/xlink" x="0px" y="0px"
	 viewBox="0 0 84 129" style="enable-background:new 0 0 84 129;" xml:space="preserve">
<style type="text/css">
	.st0{fill:none;stroke:#61544A;stroke-width:0.5;stroke-miterlimit:10;}
</style>
<g>
	<path class="st0" d="M0.43,129.4c0-26.56,81.81-29.06,81.81-64.91S0.43,26.14,0.43-0.43"/>
	<path class="st0" d="M0.43-0.43c0,25.5,78.53,30.5,78.53,64.91S0.43,103.9,0.43,129.4"/>
	<path class="st0" d="M0.43-0.43c0,24.44,75.26,31.93,75.26,64.91S0.43,104.96,0.43,129.4"/>
	<path class="st0" d="M0.43-0.43c0,23.38,71.99,33.37,71.99,64.91S0.43,106.03,0.43,129.4"/>
	<path class="st0" d="M0.43-0.43c0,22.31,68.72,34.8,68.72,64.91S0.43,107.09,0.43,129.4"/>
	<path class="st0" d="M0.43-0.43c0,21.25,65.45,36.23,65.45,64.91S0.43,108.15,0.43,129.4"/>
	<path class="st0" d="M0.43-0.43c0,20.19,62.17,37.67,62.17,64.91S0.43,109.21,0.43,129.4"/>
	<path class="st0" d="M0.43-0.43c0,19.13,58.9,39.1,58.9,64.91s-58.9,45.79-58.9,64.91"/>
	<path class="st0" d="M0.43-0.43c0,18.06,55.63,40.54,55.63,64.91S0.43,111.34,0.43,129.4"/>
	<path class="st0" d="M0.43-0.43c0,17,52.36,41.97,52.36,64.91S0.43,112.4,0.43,129.4"/>
	<path class="st0" d="M0.43-0.43c0,15.94,49.08,43.4,49.08,64.91S0.43,113.46,0.43,129.4"/>
	<path class="st0" d="M0.43-0.43c0,14.88,45.81,44.84,45.81,64.91S0.43,114.53,0.43,129.4"/>
	<path class="st0" d="M0.43-0.43c0,13.81,42.54,46.27,42.54,64.91S0.43,115.59,0.43,129.4"/>
	<path class="st0" d="M0.43-0.43c0,12.75,39.27,47.71,39.27,64.91S0.43,116.65,0.43,129.4"/>
	<path class="st0" d="M0.43-0.43c0,11.69,36,49.14,36,64.91s-36,53.23-36,64.91"/>
	<path class="st0" d="M0.43-0.43c0,10.63,32.72,50.57,32.72,64.91S0.43,118.78,0.43,129.4"/>
	<path class="st0" d="M0.43-0.43c0,9.56,29.45,52.01,29.45,64.91S0.43,119.84,0.43,129.4"/>
	<path class="st0" d="M0.43-0.43c0,8.5,26.18,53.44,26.18,64.91S0.43,120.9,0.43,129.4"/>
	<path class="st0" d="M0.43-0.43c0,7.44,22.91,54.88,22.91,64.91S0.43,121.96,0.43,129.4"/>
	<path class="st0" d="M0.43-0.43c0,6.38,19.63,56.31,19.63,64.91S0.43,123.03,0.43,129.4"/>
	<path class="st0" d="M0.43-0.43c0,5.31,16.36,57.74,16.36,64.91c0,7.17-16.36,59.6-16.36,64.91"/>
	<path class="st0" d="M0.43-0.43c0,4.25,13.09,59.18,13.09,64.91c0,5.74-13.09,60.66-13.09,64.91"/>
	<path class="st0" d="M0.43-0.43c0,3.19,9.82,60.61,9.82,64.91c0,4.3-9.82,61.73-9.82,64.91"/>
	<path class="st0" d="M0.43-0.43c0,2.13,6.54,62.05,6.54,64.91s-6.54,62.79-6.54,64.91"/>
	<path class="st0" d="M0.43-0.43c0,1.06,3.27,63.48,3.27,64.91s-3.27,63.85-3.27,64.91"/>
	<line class="st0" x1="0.43" y1="-0.43" x2="0.43" y2="129.4"/>
</g>
</svg>
