<?xml version="1.0" encoding="utf-8"?>
<!-- Generator: Adobe Illustrator 25.0.1, SVG Export Plug-In . SVG Version: 6.00 Build 0)  -->
<svg version="1.1" id="Layer_1" xmlns="http://www.w3.org/2000/svg" xmlns:xlink="http://www.w3.org/1999/xlink" x="0px" y="0px"
	 viewBox="0 0 13 129" style="enable-background:new 0 0 13 129;" xml:space="preserve">
<style type="text/css">
	.st0{fill:none;stroke:#C1771E;stroke-width:0.5;stroke-miterlimit:10;}
</style>
<g>
	<g>
		<path class="st0" d="M0.43,129.17c0-26.52,9.87-29.01,9.87-64.8c0-35.79-9.87-38.28-9.87-64.8"/>
		<path class="st0" d="M0.43,129.17c0-21.21,7.9-36.17,7.9-64.8c0-28.63-7.9-43.59-7.9-64.8"/>
		<path class="st0" d="M0.43,129.17c0-15.91,5.92-43.33,5.92-64.8c0-21.47-5.92-48.89-5.92-64.8"/>
		<path class="st0" d="M0.43,129.17c0-10.61,3.95-50.48,3.95-64.8c0-14.32-3.95-54.19-3.95-64.8"/>
		<path class="st0" d="M0.43,129.17c0-5.3,1.97-57.64,1.97-64.8c0-7.16-1.97-59.5-1.97-64.8"/>
		<line class="st0" x1="0.43" y1="129.17" x2="0.43" y2="-0.43"/>
	</g>
</g>
</svg>
