<?xml version="1.0" encoding="utf-8"?>
<!-- Generator: Adobe Illustrator 25.0.1, SVG Export Plug-In . SVG Version: 6.00 Build 0)  -->
<svg version="1.1" id="Layer_1" xmlns="http://www.w3.org/2000/svg" xmlns:xlink="http://www.w3.org/1999/xlink" x="0px" y="0px"
	 viewBox="0 0 43 129" style="enable-background:new 0 0 43 129;" xml:space="preserve">
<style type="text/css">
	.st0{fill:none;stroke:#C1771E;stroke-width:0.5;stroke-miterlimit:10;}
</style>
<g>
	<path class="st0" d="M0.43-0.43c0,13.79,41.02,37.15,41.02,64.8s-41.02,51.01-41.02,64.8"/>
	<path class="st0" d="M0.43-0.43c0,12.73,37.86,39.28,37.86,64.8s-37.86,52.07-37.86,64.8"/>
	<path class="st0" d="M0.43-0.43c0,11.67,34.71,41.4,34.71,64.8s-34.71,53.13-34.71,64.8"/>
	<path class="st0" d="M0.43-0.43c0,10.61,31.55,43.53,31.55,64.8s-31.55,54.19-31.55,64.8"/>
	<path class="st0" d="M0.43-0.43c0,9.55,28.4,45.66,28.4,64.8s-28.4,55.25-28.4,64.8"/>
	<path class="st0" d="M0.43-0.43c0,8.49,25.24,47.78,25.24,64.8s-25.24,56.31-25.24,64.8"/>
	<path class="st0" d="M0.43-0.43c0,7.42,22.09,49.91,22.09,64.8s-22.09,57.37-22.09,64.8"/>
	<path class="st0" d="M0.43-0.43c0,6.36,18.93,52.04,18.93,64.8s-18.93,58.44-18.93,64.8"/>
	<path class="st0" d="M0.43-0.43c0,5.3,15.78,54.17,15.78,64.8s-15.78,59.5-15.78,64.8"/>
	<path class="st0" d="M0.43-0.43c0,4.24,12.62,56.29,12.62,64.8s-12.62,60.56-12.62,64.8"/>
	<path class="st0" d="M0.43-0.43c0,3.18,9.47,58.42,9.47,64.8s-9.47,61.62-9.47,64.8"/>
	<path class="st0" d="M0.43-0.43c0,2.12,6.31,60.55,6.31,64.8s-6.31,62.68-6.31,64.8"/>
	<path class="st0" d="M0.43-0.43c0,1.06,3.16,62.67,3.16,64.8c0,2.13-3.16,63.74-3.16,64.8"/>
	<line class="st0" x1="0.43" y1="-0.43" x2="0.43" y2="129.17"/>
</g>
</svg>
