<?xml version="1.0" encoding="utf-8"?>
<!-- Generator: Adobe Illustrator 25.0.1, SVG Export Plug-In . SVG Version: 6.00 Build 0)  -->
<svg version="1.1" id="Layer_1" xmlns="http://www.w3.org/2000/svg" xmlns:xlink="http://www.w3.org/1999/xlink" x="0px" y="0px"
	 viewBox="0 0 24 129" style="enable-background:new 0 0 24 129;" xml:space="preserve">
<style type="text/css">
	.st0{fill:none;stroke:#29415E;stroke-width:0.5;stroke-miterlimit:10;}
</style>
<g>
	<g>
		<path class="st0" d="M0.43,129c0-26.48,21.67-28.97,21.67-64.71c0-35.74-21.67-38.23-21.67-64.71"/>
		<path class="st0" d="M0.43,129c0-23.17,18.96-33.44,18.96-64.71S0.43,22.75,0.43-0.43"/>
		<path class="st0" d="M0.43,129c0-19.86,16.25-37.91,16.25-64.71S0.43,19.44,0.43-0.43"/>
		<path class="st0" d="M0.43,129c0-16.55,13.54-42.38,13.54-64.71S0.43,16.13,0.43-0.43"/>
		<path class="st0" d="M0.43,129c0-13.24,10.84-46.84,10.84-64.71c0-17.87-10.84-51.47-10.84-64.71"/>
		<path class="st0" d="M0.43,129c0-9.93,8.13-51.31,8.13-64.71S0.43,9.5,0.43-0.43"/>
		<path class="st0" d="M0.43,129c0-6.62,5.42-55.78,5.42-64.71S0.43,6.19,0.43-0.43"/>
		<path class="st0" d="M0.43,129c0-3.31,2.71-60.25,2.71-64.71S0.43,2.88,0.43-0.43"/>
		<line class="st0" x1="0.43" y1="129" x2="0.43" y2="-0.43"/>
	</g>
</g>
</svg>
