<?xml version="1.0" encoding="utf-8"?>
<!-- Generator: Adobe Illustrator 25.0.1, SVG Export Plug-In . SVG Version: 6.00 Build 0)  -->
<svg version="1.1" id="Layer_1" xmlns="http://www.w3.org/2000/svg" xmlns:xlink="http://www.w3.org/1999/xlink" x="0px" y="0px"
	 viewBox="0 0 77 129" style="enable-background:new 0 0 77 129;" xml:space="preserve">
<style type="text/css">
	.st0{fill:none;stroke:#A94044;stroke-width:0.5;stroke-miterlimit:10;}
</style>
<g>
	<path class="st0" d="M0.43-0.43c0,24.4,75.13,31.87,75.13,64.8s-75.13,40.4-75.13,64.8"/>
	<path class="st0" d="M0.43-0.43c0,23.33,71.86,33.31,71.86,64.8s-71.86,41.46-71.86,64.8"/>
	<path class="st0" d="M0.43-0.43c0,22.27,68.6,34.74,68.6,64.8s-68.6,42.53-68.6,64.8"/>
	<path class="st0" d="M0.43-0.43c0,21.21,65.33,36.17,65.33,64.8s-65.33,43.59-65.33,64.8"/>
	<path class="st0" d="M0.43-0.43c0,20.15,62.06,37.6,62.06,64.8s-62.06,44.65-62.06,64.8"/>
	<path class="st0" d="M0.43-0.43c0,19.09,58.8,39.03,58.8,64.8s-58.8,45.71-58.8,64.8"/>
	<path class="st0" d="M0.43-0.43c0,18.03,55.53,40.46,55.53,64.8s-55.53,46.77-55.53,64.8"/>
	<path class="st0" d="M0.43-0.43c0,16.97,52.26,41.9,52.26,64.8S0.43,112.2,0.43,129.17"/>
	<path class="st0" d="M0.43-0.43c0,15.91,49,43.33,49,64.8s-49,48.89-49,64.8"/>
	<path class="st0" d="M0.43-0.43c0,14.85,45.73,44.76,45.73,64.8s-45.73,49.95-45.73,64.8"/>
	<path class="st0" d="M0.43-0.43c0,13.79,42.46,46.19,42.46,64.8s-42.46,51.01-42.46,64.8"/>
	<path class="st0" d="M0.43-0.43c0,12.73,39.2,47.62,39.2,64.8s-39.2,52.07-39.2,64.8"/>
	<path class="st0" d="M0.43-0.43c0,11.67,35.93,49.05,35.93,64.8s-35.93,53.13-35.93,64.8"/>
	<path class="st0" d="M0.43-0.43c0,10.61,32.66,50.48,32.66,64.8s-32.66,54.19-32.66,64.8"/>
	<path class="st0" d="M0.43-0.43c0,9.55,29.4,51.92,29.4,64.8s-29.4,55.25-29.4,64.8"/>
	<path class="st0" d="M0.43-0.43c0,8.49,26.13,53.35,26.13,64.8s-26.13,56.31-26.13,64.8"/>
	<path class="st0" d="M0.43-0.43C0.43,7,23.3,54.35,23.3,64.37s-22.87,57.37-22.87,64.8"/>
	<path class="st0" d="M0.43-0.43c0,6.36,19.6,56.21,19.6,64.8s-19.6,58.44-19.6,64.8"/>
	<path class="st0" d="M0.43-0.43c0,5.3,16.33,57.64,16.33,64.8s-16.33,59.5-16.33,64.8"/>
	<path class="st0" d="M0.43-0.43c0,4.24,13.07,59.07,13.07,64.8s-13.07,60.56-13.07,64.8"/>
	<path class="st0" d="M0.43-0.43c0,3.18,9.8,60.5,9.8,64.8s-9.8,61.62-9.8,64.8"/>
	<path class="st0" d="M0.43-0.43c0,2.12,6.53,61.94,6.53,64.8s-6.53,62.68-6.53,64.8"/>
	<path class="st0" d="M0.43-0.43c0,1.06,3.27,63.37,3.27,64.8c0,1.43-3.27,63.74-3.27,64.8"/>
	<line class="st0" x1="0.43" y1="-0.43" x2="0.43" y2="129.17"/>
</g>
</svg>
