<?xml version="1.0" encoding="utf-8"?>
<!-- Generator: Adobe Illustrator 25.0.1, SVG Export Plug-In . SVG Version: 6.00 Build 0)  -->
<svg version="1.1" id="Layer_1" xmlns="http://www.w3.org/2000/svg" xmlns:xlink="http://www.w3.org/1999/xlink" x="0px" y="0px"
	 viewBox="0 0 99 129" style="enable-background:new 0 0 99 129;" xml:space="preserve">
<style type="text/css">
	.st0{fill:none;stroke:#A94044;stroke-width:0.5;stroke-miterlimit:10;}
</style>
<g>
	<path class="st0" d="M0.43,129.17c0-26.52,96.42-29.01,96.42-64.8S0.43,26.09,0.43-0.43"/>
	<path class="st0" d="M0.43-0.43c0,25.66,93.31,30.17,93.31,64.8s-93.31,39.14-93.31,64.8"/>
	<path class="st0" d="M0.43-0.43c0,24.81,90.2,31.32,90.2,64.8s-90.2,39.99-90.2,64.8"/>
	<path class="st0" d="M0.43-0.43c0,23.95,87.09,32.47,87.09,64.8s-87.09,40.85-87.09,64.8"/>
	<path class="st0" d="M0.43-0.43c0,23.1,83.97,33.63,83.97,64.8s-83.97,41.7-83.97,64.8"/>
	<path class="st0" d="M0.43-0.43c0,22.24,80.86,34.78,80.86,64.8s-80.86,42.56-80.86,64.8"/>
	<path class="st0" d="M0.43-0.43c0,21.38,77.75,35.94,77.75,64.8s-77.75,43.41-77.75,64.8"/>
	<path class="st0" d="M0.43-0.43c0,20.53,74.64,37.09,74.64,64.8s-74.64,44.27-74.64,64.8"/>
	<path class="st0" d="M0.43-0.43c0,19.67,71.53,38.25,71.53,64.8S0.43,109.5,0.43,129.17"/>
	<path class="st0" d="M0.43-0.43c0,18.82,68.42,39.4,68.42,64.8s-68.42,45.98-68.42,64.8"/>
	<path class="st0" d="M0.43-0.43c0,17.96,65.31,40.56,65.31,64.8s-65.31,46.84-65.31,64.8"/>
	<path class="st0" d="M0.43-0.43c0,17.11,62.2,41.71,62.2,64.8s-62.2,47.69-62.2,64.8"/>
	<path class="st0" d="M0.43-0.43c0,16.25,59.09,42.86,59.09,64.8s-59.09,48.55-59.09,64.8"/>
	<path class="st0" d="M0.43-0.43c0,15.4,55.98,44.02,55.98,64.8s-55.98,49.4-55.98,64.8"/>
	<path class="st0" d="M0.43-0.43c0,14.54,52.87,45.17,52.87,64.8s-52.87,50.26-52.87,64.8"/>
	<path class="st0" d="M0.43-0.43c0,13.69,49.76,46.33,49.76,64.8s-49.76,51.11-49.76,64.8"/>
	<path class="st0" d="M0.43-0.43c0,12.83,46.65,47.48,46.65,64.8s-46.65,51.97-46.65,64.8"/>
	<path class="st0" d="M0.43-0.43c0,11.98,43.54,48.64,43.54,64.8S0.43,117.2,0.43,129.17"/>
	<path class="st0" d="M0.43-0.43c0,11.12,40.43,49.79,40.43,64.8s-40.43,53.68-40.43,64.8"/>
	<path class="st0" d="M0.43-0.43c0,10.26,37.32,50.95,37.32,64.8s-37.32,54.53-37.32,64.8"/>
	<path class="st0" d="M0.43-0.43c0,9.41,34.21,52.1,34.21,64.8s-34.21,55.39-34.21,64.8"/>
	<path class="st0" d="M0.43-0.43c0,8.55,31.1,53.25,31.1,64.8s-31.1,56.25-31.1,64.8"/>
	<path class="st0" d="M0.43-0.43c0,7.7,27.99,54.41,27.99,64.8s-27.99,57.1-27.99,64.8"/>
	<path class="st0" d="M0.43-0.43c0,6.84,24.88,55.56,24.88,64.8s-24.88,57.96-24.88,64.8"/>
	<path class="st0" d="M0.43-0.43c0,5.99,21.77,56.72,21.77,64.8s-21.77,58.81-21.77,64.8"/>
	<path class="st0" d="M0.43-0.43c0,5.13,18.66,57.87,18.66,64.8s-18.66,59.67-18.66,64.8"/>
	<path class="st0" d="M0.43-0.43c0,4.28,15.55,59.03,15.55,64.8S0.43,124.9,0.43,129.17"/>
	<path class="st0" d="M0.43-0.43c0,3.42,12.44,60.18,12.44,64.8s-12.44,61.38-12.44,64.8"/>
	<path class="st0" d="M0.43-0.43c0,2.57,9.33,61.34,9.33,64.8c0,3.46-9.33,62.23-9.33,64.8"/>
	<path class="st0" d="M0.43-0.43c0,1.71,6.22,62.49,6.22,64.8c0,2.31-6.22,63.09-6.22,64.8"/>
	<path class="st0" d="M0.43-0.43c0,0.86,3.11,63.64,3.11,64.8s-3.11,63.94-3.11,64.8"/>
	<line class="st0" x1="0.43" y1="-0.43" x2="0.43" y2="129.17"/>
</g>
</svg>
