<?xml version="1.0" encoding="utf-8"?>
<!-- Generator: Adobe Illustrator 25.0.1, SVG Export Plug-In . SVG Version: 6.00 Build 0)  -->
<svg version="1.1" id="Layer_1" xmlns="http://www.w3.org/2000/svg" xmlns:xlink="http://www.w3.org/1999/xlink" x="0px" y="0px"
	 viewBox="0 0 14 129" style="enable-background:new 0 0 14 129;" xml:space="preserve">
<style type="text/css">
	.st0{fill:none;stroke:#61544A;stroke-width:0.5;stroke-miterlimit:10;}
</style>
<g>
	<g>
		<path class="st0" d="M0.43,130.07c0-26.7,11.03-29.21,11.03-65.25S0.43,26.27,0.43-0.43"/>
		<path class="st0" d="M0.43,130.07c0-21.36,8.82-36.42,8.82-65.25S0.43,20.93,0.43-0.43"/>
		<path class="st0" d="M0.43,130.07c0-16.02,6.62-43.63,6.62-65.25c0-21.62-6.62-49.23-6.62-65.25"/>
		<path class="st0" d="M0.43,130.07c0-10.68,4.41-50.83,4.41-65.25S0.43,10.25,0.43-0.43"/>
		<path class="st0" d="M0.43,130.07c0-5.34,2.21-58.04,2.21-65.25c0-7.21-2.21-59.91-2.21-65.25"/>
		<line class="st0" x1="0.43" y1="130.07" x2="0.43" y2="-0.43"/>
	</g>
</g>
</svg>
