<?xml version="1.0" encoding="utf-8"?>
<!-- Generator: Adobe Illustrator 25.0.1, SVG Export Plug-In . SVG Version: 6.00 Build 0)  -->
<svg version="1.1" id="Layer_1" xmlns="http://www.w3.org/2000/svg" xmlns:xlink="http://www.w3.org/1999/xlink" x="0px" y="0px"
	 viewBox="0 0 25 129" style="enable-background:new 0 0 25 129;" xml:space="preserve">
<style type="text/css">
	.st0{fill:none;stroke:#61544A;stroke-width:0.5;stroke-miterlimit:10;}
</style>
<g>
	<g>
		<path class="st0" d="M0.43,130.07c0-26.7,21.85-29.21,21.85-65.25S0.43,26.27,0.43-0.43"/>
		<path class="st0" d="M0.43,130.07c0-23.36,19.12-33.72,19.12-65.25S0.43,22.94,0.43-0.43"/>
		<path class="st0" d="M0.43,130.07c0-20.02,16.39-38.22,16.39-65.25c0-27.03-16.39-45.22-16.39-65.25"/>
		<path class="st0" d="M0.43,130.07c0-16.69,13.66-42.72,13.66-65.25S0.43,16.26,0.43-0.43"/>
		<path class="st0" d="M0.43,130.07c0-13.35,10.92-47.23,10.92-65.25S0.43,12.92,0.43-0.43"/>
		<path class="st0" d="M0.43,130.07c0-10.01,8.19-51.73,8.19-65.25c0-13.51-8.19-55.23-8.19-65.25"/>
		<path class="st0" d="M0.43,130.07c0-6.67,5.46-56.24,5.46-65.25c0-9.01-5.46-58.57-5.46-65.25"/>
		<path class="st0" d="M0.43,130.07c0-3.34,2.73-60.74,2.73-65.25c0-4.5-2.73-61.91-2.73-65.25"/>
		<line class="st0" x1="0.43" y1="130.07" x2="0.43" y2="-0.43"/>
	</g>
</g>
</svg>
