<?xml version="1.0" encoding="utf-8"?>
<!-- Generator: Adobe Illustrator 25.0.1, SVG Export Plug-In . SVG Version: 6.00 Build 0)  -->
<svg version="1.1" id="Layer_1" xmlns="http://www.w3.org/2000/svg" xmlns:xlink="http://www.w3.org/1999/xlink" x="0px" y="0px"
	 viewBox="0 0 21 129" style="enable-background:new 0 0 21 129;" xml:space="preserve">
<style type="text/css">
	.st0{fill:none;stroke:#578E8A;stroke-width:0.5;stroke-miterlimit:10;}
</style>
<g>
	<g>
		<path class="st0" d="M0.43,129.17c0-26.52,18.99-29.01,18.99-64.8S0.43,26.09,0.43-0.43"/>
		<path class="st0" d="M0.43,129.17c0-23.2,16.61-33.49,16.61-64.8S0.43,22.78,0.43-0.43"/>
		<path class="st0" d="M0.43,129.17c0-19.89,14.24-37.96,14.24-64.8c0-26.84-14.24-44.91-14.24-64.8"/>
		<path class="st0" d="M0.43,129.17c0-16.57,11.87-42.43,11.87-64.8S0.43,16.15,0.43-0.43"/>
		<path class="st0" d="M0.43,129.17c0-13.26,9.49-46.91,9.49-64.8c0-17.89-9.49-51.54-9.49-64.8"/>
		<path class="st0" d="M0.43,129.17c0-9.94,7.12-51.38,7.12-64.8S0.43,9.52,0.43-0.43"/>
		<path class="st0" d="M0.43,129.17c0-6.63,4.75-55.85,4.75-64.8S0.43,6.2,0.43-0.43"/>
		<path class="st0" d="M0.43,129.17c0-3.31,2.37-60.33,2.37-64.8c0-4.47-2.37-61.48-2.37-64.8"/>
		<line class="st0" x1="0.43" y1="129.17" x2="0.43" y2="-0.43"/>
	</g>
</g>
</svg>
