<?xml version="1.0" encoding="utf-8"?>
<!-- Generator: Adobe Illustrator 25.0.1, SVG Export Plug-In . SVG Version: 6.00 Build 0)  -->
<svg version="1.1" xmlns="http://www.w3.org/2000/svg" xmlns:xlink="http://www.w3.org/1999/xlink" x="0px" y="0px"
	 viewBox="0 0 1280 997" style="enable-background:new 0 0 1280 997;" xml:space="preserve">
<style type="text/css">
	.education{fill:none;stroke:#9C8CA8;stroke-width:0.75;stroke-miterlimit:10;}
	.st1{fill:none;stroke:#61544A;stroke-width:0.75;stroke-miterlimit:10;}
	.st2{fill:none;stroke:#29415E;stroke-width:0.75;stroke-miterlimit:10;}
	.disease{fill:none;stroke:#C1771E;stroke-width:0.75;stroke-miterlimit:10;}
	.st4{fill:none;stroke:#C1771E;stroke-width:0.75;stroke-miterlimit:10;stroke-dasharray:1,2;}
	.st5{fill:none;stroke:#4D6B40;stroke-width:0.75;stroke-miterlimit:10;}
	.obesity{fill:none;stroke:#A94044;stroke-width:0.75;stroke-miterlimit:10;}
	.obesity{fill:none;stroke:#A94044;stroke-width:0.75;stroke-miterlimit:10;stroke-dasharray:1,2;}
	.st8{fill:none;stroke:#61544A;stroke-width:0.75;stroke-miterlimit:10;stroke-dasharray:1,2;}
	.st9{fill:none;stroke:#578E8A;stroke-width:0.75;stroke-miterlimit:10;}
	.america{fill:none;stroke:#578E8A;stroke-width:0.75;stroke-miterlimit:10;stroke-dasharray:1,2;}
</style>
<g id="grotesque">
<g id="education">
	<g>
		<path class="education" d="M853.5,215.5C861.32,19.83,963.02-2.86,1043.57,44.66c46.74,27.33,86.51,78.22,97.26,132.45
			c10.04,50.5,19.4,93.22,28.25,129.76c45.31,185,74.6,203.91,92.18,287.04c9.19,43.45,15.77,103.23,18.4,211.6"/>
		<path class="education" d="M853.5,215.5C860.32,16.44,962.59-7.43,1043.92,39.71c47.22,27.19,87.49,78.27,98.34,132.74
			c10.14,50.81,19.6,93.72,28.51,130.36c45.86,186.78,75.41,204.84,92.33,288.59c8.81,43.61,14.64,104.11,16.53,214.11"/>
		<path class="education" d="M853.5,215.5C859.31,13.05,962.17-12,1044.26,34.77c47.7,27.06,88.47,78.33,99.41,133.03
			c10.23,51.12,19.79,94.21,28.78,130.95c46.42,188.57,76.23,205.77,92.47,290.13c8.42,43.76,13.5,104.98,14.66,216.62"/>
		<path class="education" d="M853.5,215.5C858.3,9.65,961.74-16.58,1044.61,29.83c48.19,26.92,89.46,78.39,100.48,133.32
			c10.32,51.43,19.99,94.71,29.05,131.54c46.97,190.35,77.17,206.68,92.61,291.68c8.11,43.9,12.36,105.85,12.8,219.13"/>
		<path class="education" d="M1279.54,805.5c-0.96,92.87-47.31,152.35-107.16,174.7c-82.99,31-191.83-9.27-242.31-130.08
			c-16.66-39.97-26.97-88.7-27.96-146.53c-1.43-84.63-18.15-87.75-31.38-151.33c-10.76-51.03-19.74-139.8-17.22-336.76"/>
		<path class="education" d="M1279.58,805.51c-1.67,91.5-48.1,149.91-107.63,171.47c-82.56,29.9-190.12-10.84-240-130.9
			c-16.48-39.88-26.68-88.41-27.73-145.88c-1.48-83.91-17.9-87.53-31.3-150.63c-10.91-51.36-20.82-139.59-19.4-334.06"/>
		<path class="education" d="M1279.62,805.51c-2.39,90.12-48.88,147.47-108.11,168.24c-82.13,28.8-188.4-12.41-237.69-131.72
			c-16.31-39.79-26.4-88.11-27.51-145.24c-1.53-83.2-17.74-87.29-31.23-149.93c-11.13-51.67-21.9-139.38-21.58-331.36"/>
		<path class="education" d="M1279.66,805.51c-3.1,88.75-49.67,145.03-108.58,165c-81.7,27.69-186.69-13.98-235.38-132.55
			c-16.13-39.7-26.12-87.81-27.28-144.59c-1.59-82.48-17.58-87.05-31.16-149.22c-11.35-51.98-22.98-139.17-23.76-328.66"/>
		<path class="education" id="education_mouse" d="M1170.64,967.29c-81.26,26.59-185.24-15.44-233.07-133.37c-16.05-39.58-25.83-87.51-27.05-143.94
			c-1.64-81.77-17.43-86.8-31.08-148.52c-11.57-52.29-24.06-138.96-25.94-325.96C862.33,23.23,963.33,1.91,1043.22,49.6
			c46.19,27.57,85.52,78.16,96.19,132.16c9.95,50.19,19.2,92.72,27.98,129.17c44.76,183.21,73.79,202.98,92.04,285.5
			c9.41,42.55,16.65,100.33,20.09,203.61c0-0.05,0-0.1,0-0.14c0-0.05,0-0.11,0-0.16c0-0.06,0-0.12,0-0.18
			c-0.56-109.51-4.8-170.05-12.77-213.18c-15.44-85-45.64-101.33-92.61-291.68c-9.06-36.84-18.73-80.11-29.05-131.54
			c-11.02-54.93-52.29-106.4-100.48-133.32C961.74-16.58,858.3,9.65,853.5,215.5c-2.52,196.97,6.47,285.73,17.22,336.76
			c13.23,63.58,29.95,66.71,31.38,151.33c0.99,57.83,11.3,106.56,27.96,146.53c50.48,120.81,159.32,161.09,242.31,130.08
			c58.81-21.97,104.58-79.78,107.07-169.9c0-0.05,0-0.09,0.01-0.14c0-0.05,0.01-0.09,0.01-0.14c0-0.02,0-0.04,0-0.05
			C1274.28,894.77,1228.24,948.44,1170.64,967.29z"/>
	</g>
</g>
<g id="lifestyle">
	<path class="lifestyle" d="M853.5,215.5C868.38,43.59,965.75,29.54,1041.15,79.25c43.21,28.49,79.62,77.82,89.77,130.41
		c9.39,48.33,17.89,89.78,26.36,125.61c40.82,172.66,69.03,197.43,91.19,276.24c11.92,42.41,23.72,97.13,31.47,194.03"/>
	<path class="lifestyle" d="M853.5,215.5C867.37,40.2,965.34,24.93,1041.49,74.31c43.71,28.34,80.61,77.88,90.84,130.7
		c9.48,48.64,18.1,90.27,26.63,126.2c41.42,174.43,69.81,198.35,91.33,277.78c11.53,42.55,22.58,98,29.6,196.54"/>
	<path class="lifestyle" d="M853.5,215.5C866.36,36.81,964.94,20.33,1041.84,69.37c44.2,28.19,81.59,77.93,91.91,130.99
		c9.58,48.95,18.31,90.77,26.9,126.79c42.02,176.21,70.6,199.28,91.47,279.32c11.13,42.7,21.45,98.87,27.73,199.05"/>
	<path class="lifestyle" d="M853.5,215.5C865.35,33.41,964.54,15.73,1042.18,64.43c44.7,28.03,82.57,77.99,92.98,131.29
		c9.67,49.26,18.52,91.26,27.17,127.39c42.63,177.98,71.39,200.2,91.61,280.87c10.74,42.85,20.31,99.74,25.87,201.56"/>
	<path class="lifestyle" d="M853.5,215.5C864.35,30.02,964.14,11.12,1042.53,59.48c45.2,27.88,83.56,78.05,94.05,131.58
		c9.76,49.57,18.73,91.75,27.44,127.98c43.23,179.75,72.19,201.13,91.76,282.41c10.35,43,19.18,100.62,24,204.07"/>
	<path class="lifestyle" d="M853.5,215.5C863.34,26.62,963.73,6.51,1042.88,54.54c45.69,27.73,84.54,78.1,95.12,131.87
		c9.86,49.88,18.93,92.25,27.71,128.58c43.84,181.52,72.99,202.05,91.9,283.96c9.96,43.15,18.04,101.49,22.13,206.58"/>
	<path class="lifestyle" d="M853.5,215.5C862.33,23.23,963.33,1.91,1043.22,49.6c46.19,27.57,85.52,78.16,96.19,132.16
		c9.95,50.19,19.2,92.72,27.98,129.17c44.76,183.21,73.79,202.98,92.04,285.5c9.58,43.3,16.91,102.36,20.26,209.09"/>
	<path class="lifestyle" d="M1279.7,805.52c-3.82,87.37-50.45,142.59-109.05,161.77c-81.26,26.59-185.24-15.44-233.07-133.37
		c-16.05-39.58-25.83-87.51-27.05-143.94c-1.64-81.77-17.43-86.8-31.08-148.52c-11.57-52.29-24.06-138.96-25.94-325.96"/>
	<path class="lifestyle" d="M1279.74,805.52c-4.53,86-51.24,140.15-109.52,158.53c-80.83,25.49-183.58-16.99-230.76-134.19
		c-15.89-39.48-25.55-87.21-26.82-143.3c-1.69-81.05-17.28-86.56-31.01-147.81C869.83,486.15,856.48,400,853.5,215.5"/>
	<path class="lifestyle" d="M1279.78,805.52c-5.24,84.63-52.02,137.71-110,155.3c-80.4,24.39-181.91-18.54-228.45-135.01
		c-15.74-39.38-25.27-86.92-26.59-142.65c-1.74-80.34-17.13-86.32-30.93-147.11c-12.02-52.92-26.22-138.55-30.3-320.56"/>
	<path class="lifestyle" d="M1279.81,805.53c-5.96,83.25-52.81,135.27-110.47,152.07c-79.97,23.28-180.25-20.1-226.14-135.83
		c-15.58-39.29-24.98-86.62-26.37-142.01c-1.8-79.62-16.98-86.08-30.86-146.41c-12.24-53.23-27.3-138.34-32.48-317.86"/>
	<path class="lifestyle" d="M1279.85,805.53c-6.67,81.88-53.59,132.84-110.94,148.83c-79.53,22.18-178.58-21.65-223.83-136.65
		c-15.42-39.19-24.7-86.32-26.14-141.36c-1.85-78.91-16.84-85.84-30.78-145.7c-12.47-53.54-28.38-138.13-34.66-315.15"/>
	<path class="lifestyle" d="M1279.89,805.54c-7.38,80.51-54.37,130.4-111.41,145.6c-79.1,21.08-176.91-23.2-221.52-137.47
		c-15.27-39.09-24.42-86.02-25.91-140.71c-1.9-78.19-16.7-85.59-30.71-145c-12.7-53.85-29.46-137.92-36.83-312.45"/>
	<path class="lifestyle" d="M1279.93,805.54c-8.1,79.13-55.16,127.96-111.89,142.36c-78.67,19.98-175.24-24.76-219.22-138.29
		c-15.11-39-24.13-85.72-25.68-140.07c-1.95-77.48-16.57-85.35-30.63-144.29c-12.92-54.17-30.54-137.71-39.01-309.75"/>
	<path class="lifestyle" id="lifestyle_mouse" d="M1279.59,808.55c-0.01,0.04-0.01,0.07-0.02,0.11c-0.01,0.04-0.01,0.08-0.02,0.11
		c-0.01,0.04-0.01,0.07-0.02,0.11c-0.01,0.04-0.01,0.08-0.02,0.12c-9.8,75.7-56.34,122.26-111.91,135.67
		c-78.24,18.87-173.57-26.32-216.91-139.11c-14.95-38.9-23.85-85.43-25.46-139.42c-2.01-76.76-16.44-85.1-30.56-143.59
		c-13.16-54.48-31.62-137.51-41.19-307.05C869.38,46.99,966.15,34.14,1040.8,84.19c42.72,28.64,78.64,77.76,88.7,130.12
		c9.3,48.02,17.69,89.29,26.1,125.01c40.22,170.89,68.25,196.51,91.05,274.69c12.13,41.62,24.47,94.62,32.94,187.21
		c-0.01-0.06-0.01-0.12-0.02-0.19c0-0.05-0.01-0.09-0.01-0.14c0-0.06-0.01-0.11-0.01-0.17c0-0.05-0.01-0.1-0.01-0.16
		c0-0.06-0.01-0.12-0.01-0.17c0-0.05,0-0.1-0.01-0.15c-3.43-103.42-10.68-161.25-20.09-203.83
		c-18.25-82.52-47.28-102.29-92.04-285.5c-8.77-36.45-18.03-78.98-27.98-129.17c-10.67-54-50.01-104.59-96.19-132.16
		C963.33,1.91,862.33,23.23,853.5,215.5c1.88,186.99,14.37,273.66,25.94,325.96c13.65,61.71,29.44,66.75,31.08,148.52
		c1.22,56.43,11,104.37,27.05,143.94c47.83,117.92,151.81,159.96,233.07,133.37c57.64-18.86,103.71-72.6,108.83-157.51
		c0-0.04,0.01-0.09,0.01-0.13c0-0.04,0.01-0.08,0.01-0.12c0-0.04,0.01-0.08,0.01-0.12c0-0.03,0.01-0.06,0.01-0.09
		c0-0.03,0.01-0.05,0.01-0.08c0.03-0.25,0.05-0.51,0.08-0.76C1279.6,808.5,1279.6,808.53,1279.59,808.55z"/>
</g>
<g id="science">
	<g>
		<path class="science" d="M853.5,215.5c21.93-148.15,115.07-153.78,185.22-101.65c39.74,29.53,72.74,77.42,82.28,128.38
			c8.73,46.15,16.45,86.32,24.48,121.45c36.66,160.24,63.67,190.98,90.19,265.43c14.75,41.39,31.66,91.02,44.54,176.46"/>
		<path class="science" d="M853.5,215.5c20.92-151.54,114.66-158.37,185.57-106.59c40.24,29.38,73.72,77.48,83.35,128.67
			c8.83,46.46,16.65,86.82,24.75,122.04c37.25,162.01,64.42,191.9,90.33,266.97c14.34,41.53,30.53,91.89,42.67,178.97"/>
		<path class="science" d="M853.5,215.5c19.91-154.93,114.26-162.97,185.91-111.54c40.73,29.24,74.71,77.54,84.42,128.96
			c8.92,46.77,16.86,87.31,25.02,122.64c37.84,163.79,65.18,192.82,90.48,268.52c13.93,41.68,29.39,92.77,40.8,181.48"/>
		<path class="science" d="M853.5,215.5c18.9-158.33,113.86-167.57,186.26-116.48c41.23,29.09,75.69,77.59,85.49,129.25
			c9.01,47.08,17.07,87.8,25.29,123.23c38.43,165.56,65.94,193.74,90.62,270.06c13.52,41.82,28.26,93.64,38.94,183.99"/>
		<path class="science" d="M853.5,215.5C871.4,53.78,966.95,43.34,1040.11,94.08c41.72,28.94,76.67,77.65,86.56,129.54
			c9.11,47.39,17.27,88.3,25.56,123.83c39.03,167.34,66.71,194.67,90.76,271.61c13.12,41.97,27.12,94.51,37.07,186.5"/>
		<path class="science" d="M853.5,215.5C870.39,50.38,966.55,38.74,1040.45,89.14c42.22,28.79,77.66,77.71,87.63,129.83
			c9.2,47.71,17.48,88.79,25.83,124.42c39.62,169.11,67.48,195.59,90.9,273.15c12.72,42.11,25.99,95.38,35.2,189.01"/>
		<path class="science" d="M853.5,215.5C869.38,46.99,966.15,34.14,1040.8,84.19c42.71,28.64,78.64,77.76,88.7,130.12
			c9.3,48.02,17.69,89.29,26.1,125.01c40.22,170.89,68.25,196.51,91.05,274.69c12.32,42.26,24.85,96.26,33.33,191.52"/>
		<path class="science" d="M1279.97,805.54c-8.81,77.76-55.94,125.52-112.36,139.13c-78.24,18.87-173.57-26.32-216.91-139.11
			c-14.95-38.9-23.85-85.43-25.46-139.42c-2-76.76-16.44-85.1-30.56-143.59c-13.15-54.48-31.62-137.51-41.19-307.05"/>
		<path class="science" d="M1280.01,805.55c-9.52,76.39-56.73,123.08-112.83,135.9c-77.8,17.77-171.89-27.87-214.6-139.93
			c-14.79-38.81-23.57-85.13-25.23-138.78c-2.06-76.05-16.31-84.86-30.48-142.89c-13.39-54.79-32.7-137.3-43.37-304.35"/>
		<path class="science" d="M1280.05,805.55c-10.24,75.01-57.51,120.64-113.3,132.66c-77.37,16.67-170.22-29.43-212.29-140.75
			c-14.63-38.71-23.4-84.83-25-138.13c-2.27-75.33-16.18-84.61-30.41-142.18c-13.62-55.1-33.78-137.09-45.55-301.65"/>
		<path class="science" d="M1280.09,805.55c-10.95,73.64-58.3,118.2-113.78,129.43c-76.94,15.57-168.54-30.99-209.98-141.57
			c-14.47-38.62-23.12-84.53-24.77-137.48c-2.33-74.61-16.06-84.37-30.33-141.48c-13.86-55.41-34.86-136.88-47.73-298.95"/>
		<path class="science" d="M1280.13,805.56c-11.66,72.27-59.08,115.76-114.25,126.19c-76.51,14.46-166.86-32.55-207.67-142.39
			c-14.31-38.53-22.84-84.23-24.55-136.84c-2.39-73.9-15.93-84.12-30.26-140.77c-14.09-55.73-35.94-136.67-49.91-296.25"/>
		<path class="science" d="M1280.17,805.56c-12.38,70.89-59.87,113.32-114.72,122.96c-76.07,13.36-165.18-34.11-205.36-143.21
			c-14.15-38.43-22.57-83.93-24.32-136.19c-2.45-73.18-15.82-83.88-30.19-140.07c-14.33-56.04-37.02-136.47-52.09-293.55"/>
		<path class="science" d="M1280.21,805.56c-13.09,69.52-60.65,110.88-115.19,119.73c-75.64,12.26-163.5-35.67-203.05-144.03
			c-13.99-38.34-22.29-83.63-24.09-135.55c-2.51-72.47-15.7-83.63-30.11-139.37C893.2,450,869.67,370.09,853.5,215.5"/>
		<path class="science" d="M1280.25,805.57c-13.81,68.14-61.44,108.44-115.67,116.49c-75.21,11.16-161.82-37.23-200.74-144.85
			c-13.83-38.24-22.01-83.33-23.86-134.9c-2.57-71.75-15.59-83.38-30.04-138.66c-14.81-56.66-39.18-136.05-56.44-288.15"/>
		<path class="science" id="science_mouse" d="M1164.15,918.83c-74.77,10.05-160.14-38.79-198.43-145.67c-13.67-38.15-21.74-83.04-23.64-134.25
			c-2.63-71.04-15.48-83.13-29.96-137.96c-15.05-56.97-40.26-135.84-58.62-285.45v0c22.93-144.75,115.47-149.19,184.88-96.71
			c39.25,29.67,71.76,77.37,81.21,128.09c8.64,45.84,16.24,85.83,24.22,120.86c36.07,158.46,62.92,190.06,90.05,263.89
			c14.95,40.69,32.32,88.86,45.85,170.62l0,0c-0.01-0.04-0.01-0.09-0.02-0.13c-0.01-0.04-0.01-0.08-0.02-0.12
			c-0.02-0.16-0.04-0.32-0.05-0.48c-0.01-0.05-0.01-0.1-0.02-0.15c-8.47-92.67-20.82-145.7-32.96-187.33
			c-22.79-78.18-50.83-103.81-91.05-274.69c-8.41-35.73-16.8-77-26.1-125.01c-10.06-52.36-45.99-101.48-88.7-130.12
			C966.15,34.14,869.38,46.99,853.5,215.5c9.57,169.55,28.04,252.57,41.19,307.05c14.12,58.49,28.55,66.83,30.56,143.59
			c1.61,54,10.51,100.52,25.46,139.42c43.34,112.79,138.67,157.98,216.91,139.11c55.57-13.41,102.1-59.97,111.91-135.67
			c0.01-0.04,0.01-0.08,0.02-0.12c0.01-0.04,0.01-0.07,0.02-0.11c0.01-0.04,0.01-0.08,0.02-0.11c0.01-0.04,0.01-0.07,0.02-0.11
			c0.01-0.04,0.01-0.07,0.02-0.11c0.01-0.04,0.01-0.07,0.02-0.11c0.01-0.05,0.02-0.1,0.03-0.15
			C1264.48,873.35,1217.35,911.67,1164.15,918.83z"/>
	</g>
</g>
<g id="medicine_solid">
	<g>
		<path class="medicine" d="M853.5,215.5c72.3,21.57,136.77,74.33,167.91,145.46c15.81,35.96,23.58,74.58,28.77,113.83
			c4.06,30.63,6.84,61.48,11.05,91.76c10.02,70.82,30.49,142.58,83.08,188.24c37.87,32.66,88.43,47.41,137.9,50.96"/>
		<path class="medicine" d="M853.5,215.5c71.29,18.17,136.35,69.75,168.25,140.52c16.29,35.82,24.56,74.64,29.84,114.12
			c4.16,30.94,6.97,61.98,11.32,92.36c10.41,72.63,31.04,143.7,83.22,189.78c37.32,32.95,87.29,48.28,136.03,53.47"/>
		<path class="medicine" d="M853.5,215.5c70.29,14.78,135.75,65.26,168.6,135.58c16.69,35.73,25.54,74.7,30.91,114.41
			c4.25,31.25,7.13,62.48,11.59,92.95c10.89,74.42,31.66,144.74,83.37,191.33c36.82,33.18,86.16,49.15,134.16,55.98"/>
		<path class="medicine" d="M853.5,215.5c69.28,11.39,135.27,60.71,168.95,130.63c17.15,35.61,26.53,74.75,31.98,114.7
			c4.34,31.56,7.3,62.98,11.86,93.54c11.36,76.22,32.28,145.77,83.51,192.87c36.32,33.4,85.02,50.03,132.29,58.49"/>
		<path class="medicine" d="M853.5,215.5c68.27,7.99,134.8,56.17,169.29,125.69c17.61,35.49,27.51,74.81,33.05,114.99
			c4.44,31.87,7.47,63.48,12.13,94.14c11.84,78.02,32.91,146.8,83.65,194.41c35.83,33.62,83.89,50.9,130.43,61"/>
		<path class="medicine" d="M853.5,215.5c67.26,4.6,134.33,51.62,169.64,120.75c18.07,35.37,28.49,74.87,34.12,115.29
			c4.53,32.18,7.65,63.98,12.39,94.73c12.33,79.81,33.53,147.83,83.79,195.96c35.33,33.83,82.75,51.77,128.56,63.51"/>
		<path class="medicine" d="M853.5,215.5c66.26,1.2,133.86,47.08,169.99,115.81c18.53,35.25,29.48,74.92,35.19,115.58
			c4.62,32.49,7.82,64.48,12.66,95.33c12.81,81.61,34.15,148.85,83.93,197.5c34.84,34.04,81.62,52.64,126.69,66.02"/>
		<path class="medicine" d="M853.5,215.5c65.25-2.19,133.39,42.53,170.33,110.86c18.99,35.13,30.46,74.98,36.26,115.87
			c4.72,32.8,8,64.98,12.93,95.92c13.3,83.4,34.77,149.87,84.08,199.04c34.35,34.26,80.48,53.51,124.83,68.53"/>
		<path class="medicine" d="M853.5,215.5c64.24-5.59,132.93,37.98,170.68,105.92c19.45,35.01,31.44,75.04,37.33,116.16
			c4.81,33.11,8.18,65.48,13.2,96.51c13.8,85.2,35.39,150.88,84.22,200.59c33.85,34.46,79.35,54.39,122.96,71.04"/>
		<path class="medicine" d="M853.5,215.5c62.23-12.37,132.01,28.89,171.37,96.04c20.38,34.76,33.41,75.15,39.48,116.74
			c5,33.73,8.54,66.48,13.74,97.7c14.79,88.79,36.64,152.9,84.5,203.68c32.87,34.87,77.08,56.13,119.22,76.06"/>
		<path class="medicine" d="M853.5,215.5c61.22-15.77,131.55,24.34,171.72,91.1c20.85,34.64,34.39,75.21,40.55,117.03
			c5.09,34.04,8.72,66.98,14.01,98.29c15.29,90.58,37.27,153.91,84.65,205.22c32.38,35.07,75.94,57,117.36,78.57"/>
		<path class="medicine" d="M853.5,215.5c60.21-19.16,131.09,19.8,172.06,86.15c21.32,34.52,35.38,75.26,41.62,117.32
			c5.19,34.35,8.91,67.48,14.28,98.89c15.79,92.38,37.89,154.91,84.79,206.76c31.89,35.27,74.81,57.88,115.49,81.08"/>
		<path class="medicine" d="M853.5,215.5c59.2-22.56,130.64,15.25,172.41,81.21c21.78,34.4,36.36,75.32,42.69,117.61
			c5.28,34.66,9.09,67.98,14.54,99.48c16.3,94.17,38.52,155.91,84.93,208.31c31.41,35.46,73.67,58.75,113.62,83.59"/>
		<path class="medicine" d="M853.5,215.5c58.2-25.95,130.19,10.7,172.76,76.27c22.25,34.28,37.34,75.38,43.76,117.9
			c5.37,34.97,9.28,68.47,14.81,100.08c16.81,95.97,39.15,156.9,85.07,209.85c30.92,35.65,72.54,59.62,111.76,86.1"/>
		<path class="medicine" d="M853.5,215.5c57.19-29.35,129.74,6.15,173.1,71.33c22.73,34.16,38.33,75.44,44.83,118.19
			c5.47,35.28,9.47,68.97,15.08,100.67c17.32,97.76,39.78,157.89,85.21,211.4c30.44,35.84,71.4,60.49,109.89,88.61"/>
		<path class="medicine" d="M853.5,215.5c56.18-32.74,129.3,1.6,173.45,66.38c23.2,34.04,39.31,75.49,45.9,118.49
			c5.56,35.59,9.65,69.47,15.35,101.26c17.83,99.55,40.41,158.88,85.36,212.94c29.96,36.03,70.26,61.37,108.02,91.12"/>
		<path class="medicine" d="M853.5,215.5c55.17-36.13,128.85-2.95,173.8,61.44c23.67,33.92,40.29,75.55,46.97,118.78
			c5.65,35.91,9.84,69.97,15.62,101.86c18.35,101.34,41.05,159.87,85.5,214.48c29.48,36.21,69.13,62.24,106.15,93.63"/>
		<path class="medicine" d="M853.5,215.5c54.17-39.53,128.41-7.5,174.14,56.5c24.15,33.79,41.28,75.61,48.04,119.07
			c5.75,36.22,10.04,70.46,15.89,102.45c18.87,103.14,41.68,160.85,85.64,216.03c29,36.4,67.99,63.11,104.29,96.14"/>
		<path class="medicine" d="M853.5,215.5c52.15-46.32,127.54-16.61,174.83,46.62c25.1,33.55,43.24,75.72,50.18,119.65
			c5.93,36.84,10.42,71.46,16.42,103.64c19.91,106.72,42.96,162.8,85.93,219.11c28.04,36.75,65.72,64.85,100.55,101.16"/>
		<path class="medicine" d="M853.5,215.5c51.14-49.71,127.1-21.16,175.18,41.67c25.58,33.42,44.23,75.78,51.25,119.94
			c6.03,37.15,10.61,71.96,16.69,104.23c20.44,108.51,43.6,163.77,86.07,220.66c27.57,36.93,64.59,65.73,98.69,103.67"/>
		<path class="medicine" d="M853.5,215.5c50.14-53.11,126.67-25.71,175.53,36.73c26.05,33.3,45.21,75.83,52.32,120.23
			c6.12,37.46,10.81,72.45,16.96,104.83c20.97,110.3,44.24,164.74,86.21,222.2c27.1,37.1,63.45,66.6,96.82,106.18"/>
		<path class="medicine" d="M853.5,215.5c49.13-56.5,126.24-30.27,175.87,31.79c26.53,33.17,46.19,75.89,53.39,120.52
			c6.21,37.77,11,72.95,17.23,105.42c21.5,112.09,44.89,165.71,86.35,223.75c26.63,37.27,62.32,67.47,94.95,108.69"/>
		<path class="medicine" d="M853.5,215.5c48.12-59.89,125.81-34.83,176.22,26.85c27.01,33.05,47.18,75.95,54.46,120.81
			c6.31,38.08,11.2,73.45,17.5,106.01c22.03,113.88,45.54,166.67,86.49,225.29c26.16,37.44,61.18,68.34,93.08,111.2"/>
		<path class="medicine" d="M853.5,215.5c47.11-63.29,125.38-39.39,176.57,21.9c27.49,32.92,48.16,76,55.53,121.1
			c6.4,38.39,11.39,73.94,17.77,106.61c22.57,115.67,46.19,167.63,86.64,226.83c25.69,37.61,60.05,69.22,91.22,113.71"/>
		<path class="medicine" d="M853.5,215.5c46.11-66.68,124.95-43.95,176.91,16.96c27.98,32.8,49.14,76.06,56.6,121.39
			c6.49,38.7,11.59,74.44,18.04,107.2c23.11,117.46,46.85,168.59,86.78,228.38c25.23,37.78,58.91,70.09,89.35,116.22"/>
		<path class="medicine" d="M853.5,215.5c45.1-70.08,124.53-48.51,177.26,12.02c28.46,32.67,50.12,76.12,57.67,121.69
			c6.59,39.01,11.79,74.94,18.31,107.79c23.65,119.25,47.51,169.54,86.92,229.92c24.77,37.94,57.78,70.96,87.48,118.73"/>
		<path class="medicine" d="M853.5,215.5c44.09-73.47,124.11-53.07,177.6,7.08c28.94,32.54,51.11,76.17,58.74,121.98
			c6.68,39.32,11.99,75.43,18.57,108.39c24.19,121.03,48.17,170.5,87.06,231.47c24.31,38.1,56.64,71.83,85.62,121.24"/>
		<path class="medicine" d="M853.5,215.5c42.08-80.26,123.26-62.2,178.3-2.81c29.91,32.28,53.07,76.29,60.88,122.56
			c6.87,39.94,12.38,76.42,19.11,109.58c25.28,124.61,49.5,172.39,87.35,234.55c23.39,38.42,54.37,73.58,81.88,126.26"/>
		<path class="medicine" d="M853.5,215.5c41.07-83.65,122.84-66.76,178.64-7.75c30.4,32.15,54.06,76.34,61.95,122.85
			c6.96,40.25,12.58,76.92,19.38,110.17c25.83,126.39,50.17,173.34,87.49,236.1c22.94,38.58,53.24,74.45,80.01,128.77"/>
		<path class="medicine" d="M853.5,215.5c40.06-87.05,122.43-71.33,178.99-12.69c30.89,32.02,55.04,76.4,63.02,123.14
			c7.05,40.56,12.78,77.42,19.65,110.76c26.38,128.18,50.84,174.28,87.63,237.64c22.49,38.73,52.1,75.32,78.15,131.28"/>
		<path class="medicine" d="M853.5,215.5c39.05-90.44,122.01-75.9,179.34-17.63c31.37,31.89,56.02,76.46,64.09,123.43
			c7.15,40.87,12.98,77.91,19.92,111.36c26.94,129.97,51.52,175.22,87.77,239.18c22.04,38.89,50.96,76.19,76.28,133.79"/>
		<path class="medicine" d="M853.5,215.5c38.05-93.84,121.6-80.47,179.68-22.58c31.86,31.76,57.01,76.51,65.16,123.72
			c7.24,41.18,13.19,78.41,20.19,111.95c27.49,131.75,52.21,176.16,87.92,240.73c21.59,39.04,49.83,77.07,74.41,136.3"/>
		<path class="medicine" d="M853.5,215.5c37.04-97.23,121.18-85.04,180.03-27.52c32.35,31.62,57.99,76.57,66.23,124.01
			c7.33,41.49,13.39,78.9,20.45,112.54c28.05,133.53,52.89,177.1,88.06,242.27c21.15,39.19,48.69,77.94,72.54,138.81"/>
		<path class="medicine" d="M853.5,215.5c36.03-100.63,120.77-89.61,180.37-32.46c32.84,31.49,58.97,76.63,67.3,124.3
			c7.43,41.81,13.59,79.4,20.72,113.14c28.61,135.32,53.58,178.03,88.2,243.82c20.7,39.34,47.56,78.81,70.68,141.32"/>
		<path class="medicine" d="M853.5,215.5c35.02-104.02,120.36-94.19,180.72-37.4c33.33,31.36,59.96,76.68,68.37,124.59
			c7.52,42.12,13.79,79.89,20.99,113.73c29.17,137.1,54.27,178.96,88.34,245.36c20.26,39.49,46.42,79.68,68.81,143.83"/>
		<path class="medicine" d="M853.5,215.5c34.02-107.41,119.95-98.76,181.07-42.35c33.82,31.22,60.94,76.74,69.44,124.89
			c7.61,42.43,13.99,80.39,21.26,114.33c29.74,138.88,54.97,179.89,88.49,246.9c19.83,39.64,45.29,80.55,66.94,146.34"/>
		<path class="medicine" d="M853.5,215.5c32-114.2,119.13-107.92,181.76-52.23c34.8,30.95,62.91,76.85,71.58,125.47
			c7.8,43.05,14.4,81.38,21.8,115.51c30.87,142.45,56.38,181.75,88.77,249.99c18.96,39.94,43.02,82.3,63.21,151.36"/>
		<path class="medicine" d="M853.5,215.5C884.5,97.9,972.22,103,1035.61,158.33c35.3,30.81,63.89,76.91,72.65,125.76
			c7.89,43.36,14.6,81.87,22.07,116.11c31.44,144.23,57.09,182.68,88.91,251.54c18.53,40.08,41.88,83.17,61.34,153.87"/>
		<path class="medicine" d="M853.5,215.5c29.99-120.99,118.31-117.08,182.45-62.11c35.79,30.67,64.87,76.97,73.72,126.05
			c7.99,43.67,14.81,82.37,22.33,116.7c32.01,146.01,57.8,183.6,89.05,253.08c18.1,40.23,40.75,84.04,59.47,156.38"/>
		<path class="medicine" d="M853.5,215.5c28.98-124.39,117.9-121.66,182.8-67.06c36.28,30.53,65.86,77.03,74.79,126.34
			c8.08,43.98,15.01,82.86,22.6,117.29c32.59,147.79,58.52,184.53,89.2,254.62c17.67,40.37,39.61,84.92,57.61,158.89"/>
		<path class="medicine" d="M853.5,215.5c27.97-127.78,117.5-126.25,183.14-72c36.77,30.39,66.84,77.08,75.86,126.63
			c8.17,44.29,15.22,83.36,22.87,117.89c33.16,149.57,59.24,185.45,89.34,256.17c17.25,40.52,38.48,85.79,55.74,161.4"/>
		<path class="medicine" d="M853.5,215.5c26.96-131.17,117.09-130.83,183.49-76.94c37.27,30.25,67.82,77.14,76.93,126.92
			c8.27,44.6,15.42,83.85,23.14,118.48c33.74,151.35,59.97,186.38,89.48,257.71c16.82,40.66,37.34,86.66,53.87,163.91"/>
		<path class="medicine" d="M853.5,215.5c25.96-134.57,116.68-135.42,183.84-81.88c37.76,30.11,68.81,77.2,78,127.21
			c8.36,44.91,15.62,84.35,23.41,119.08c34.32,153.13,60.7,187.3,89.62,259.25c16.4,40.81,36.21,87.53,52.01,166.42"/>
		<path class="medicine" d="M853.5,215.5c24.95-137.96,116.28-140.01,184.18-86.83c38.26,29.96,69.79,77.25,79.07,127.5
			c8.45,45.22,15.83,84.84,23.68,119.67c34.9,154.91,61.44,188.22,89.77,260.8c15.99,40.95,35.07,88.41,50.14,168.93"/>
		<path class="medicine" d="M853.5,215.5c23.94-141.36,115.87-144.6,184.53-91.77c38.75,29.82,70.77,77.31,80.14,127.79
			c8.55,45.53,16.04,85.33,23.95,120.26c35.49,156.68,62.18,189.14,89.91,262.34c15.57,41.1,33.94,89.28,48.27,171.44"/>
		<path class="medicine" d="M1280.33,805.57c-15.23,65.4-63.01,103.57-116.61,110.02c-74.34,8.95-158.45-40.35-196.12-146.49
			c-13.51-38.06-21.46-82.74-23.41-133.61c-2.69-70.32-15.37-82.88-29.89-137.25c-15.3-57.28-41.34-135.63-60.8-282.74"/>
		<path class="medicine" d="M1280.37,805.58c-15.95,64.02-63.79,101.13-117.08,106.79c-73.91,7.85-156.76-41.92-193.81-147.31
			c-13.34-37.96-21.18-82.44-23.18-132.96c-2.75-69.61-15.26-82.64-29.81-136.55c-15.54-57.6-42.42-135.43-62.98-280.04"/>
		<path class="medicine" d="M1280.41,805.58c-16.66,62.65-64.57,98.69-117.56,103.56c-73.48,6.75-155.08-43.48-191.5-148.13
			c-13.18-37.87-20.9-82.14-22.95-132.31c-2.81-68.89-15.16-82.39-29.74-135.85c-15.79-57.91-43.5-135.22-65.16-277.34"/>
		<path class="medicine" d="M1280.44,805.59c-17.37,61.28-65.36,96.25-118.03,100.32c-73.04,5.64-153.39-45.05-189.19-148.95
			c-13.02-37.78-20.63-81.84-22.73-131.67c-2.87-68.18-15.06-82.14-29.66-135.14c-16.04-58.22-44.58-135.01-67.34-274.64"/>
		<path class="medicine" d="M1280.48,805.59c-18.09,59.9-66.14,93.81-118.5,97.09c-72.61,4.54-151.7-46.61-186.88-149.77
			c-12.85-37.69-20.35-81.54-22.5-131.02c-2.93-67.46-14.96-81.88-29.59-134.44c-16.29-58.53-45.66-134.8-69.52-271.94"/>
		<path class="medicine" d="M1280.52,805.59c-18.8,58.53-66.93,91.37-118.97,93.85c-72.18,3.44-150-48.18-184.57-150.59
			c-12.69-37.6-20.07-81.24-22.27-130.38c-2.99-66.74-14.86-81.63-29.51-133.73c-16.54-58.84-46.74-134.59-71.69-269.24"/>
		<path class="medicine" d="M1280.56,805.6c-19.51,57.16-67.71,88.93-119.45,90.62c-71.75,2.34-148.31-49.75-182.26-151.42
			c-12.52-37.5-19.79-80.95-22.04-129.73c-3.05-66.03-14.77-81.38-29.44-133.03c-16.8-59.15-47.82-134.39-73.87-266.54"/>
		<path class="medicine" d="M1280.6,805.6c-20.23,55.78-68.5,86.49-119.92,87.39c-71.31,1.23-146.61-51.31-179.95-152.24
			c-12.36-37.41-19.51-80.65-21.82-129.08c-3.1-65.31-14.68-81.13-29.36-132.33c-17.06-59.45-48.9-134.18-76.05-263.84"/>
		<path class="medicine" d="M1280.64,805.6c-20.94,54.41-69.28,84.05-120.39,84.15c-70.88,0.13-144.91-52.88-177.64-153.06
			c-12.19-37.32-19.23-80.35-21.59-128.44c-3.16-64.6-14.59-80.88-29.29-131.62c-17.32-59.76-49.98-133.97-78.23-261.14"/>
		<path class="medicine" d="M1280.72,805.61c-22.37,51.66-70.85,79.17-121.34,77.68c-70.02-2.07-141.51-56.02-173.02-154.7
			c-11.86-37.14-18.68-79.75-21.13-127.15c-3.27-63.17-14.41-80.37-29.14-130.22c-17.84-60.38-52.14-133.55-82.59-255.74"/>
		<path class="medicine" d="M1280.76,805.61c-23.08,50.29-71.64,76.74-121.81,74.45c-69.58-3.18-139.81-57.59-170.71-155.52
			c-11.69-37.05-18.4-79.45-20.9-126.5c-3.33-62.45-14.33-80.12-29.07-129.51c-18.1-60.69-53.22-133.35-84.77-253.03"/>
		<path class="medicine" d="M1280.8,805.62c-23.8,48.91-72.42,74.3-122.28,71.22c-69.15-4.28-138.1-59.17-168.4-156.34
			c-11.52-36.96-18.12-79.15-20.68-125.85c-3.39-61.74-14.25-79.86-28.99-128.81c-18.37-60.99-54.3-133.14-86.95-250.33"/>
		<path class="medicine" d="M1280.84,805.62c-24.51,47.54-73.21,71.86-122.75,67.98c-68.72-5.38-136.39-60.74-166.09-157.16
			c-11.36-36.87-17.84-78.86-20.45-125.21c-3.44-61.02-14.17-79.61-28.92-128.1c-18.64-61.3-55.38-132.93-89.13-247.63"/>
		<path class="medicine" d="M1280.88,805.62c-25.22,46.17-73.99,69.42-123.23,64.75c-68.28-6.48-134.69-62.31-163.78-157.98
			c-11.19-36.78-17.56-78.56-20.22-124.56c-3.5-60.31-14.09-79.35-28.84-127.4c-18.91-61.6-56.46-132.72-91.3-244.93"/>
		<path class="medicine" d="M1280.92,805.63c-25.94,44.79-74.78,66.98-123.7,61.51c-67.85-7.59-132.97-63.89-161.47-158.8
			c-11.02-36.69-17.27-78.26-19.99-123.92c-3.55-59.59-14.02-79.09-28.77-126.7c-19.19-61.91-57.54-132.51-93.48-242.23"/>
		<path class="medicine" d="M1280.96,805.63c-26.65,43.42-75.56,64.54-124.17,58.28c-67.42-8.69-131.26-65.46-159.16-159.62
			c-10.85-36.6-16.99-77.96-19.77-123.27c-3.6-58.88-13.94-78.84-28.69-125.99c-19.46-62.21-58.62-132.31-95.66-239.53"/>
		<path class="medicine" d="M1281,805.63c-27.36,42.05-76.34,62.1-124.64,55.04c-66.99-9.79-129.55-67.04-156.85-160.44
			c-10.67-36.51-16.71-77.66-19.54-122.62c-3.66-58.16-13.87-78.58-28.62-125.29c-19.74-62.51-59.7-132.1-97.84-236.83"/>
		<path class="medicine" d="M1281.04,805.64c-28.08,40.67-77.13,59.66-125.12,51.81c-66.55-10.9-127.83-68.61-154.54-161.26
			c-10.5-36.43-16.43-77.36-19.31-121.98c-3.71-57.44-13.8-78.32-28.54-124.58C933.5,386.81,892.74,317.74,853.5,215.5"/>
		<path class="medicine" d="M1281.11,805.65c-29.5,37.93-78.7,54.78-126.06,45.34c-65.69-13.1-124.39-71.77-149.92-162.9
			c-10.16-36.25-15.87-76.77-18.86-120.68c-3.82-56.01-13.66-77.8-28.39-123.18c-20.59-63.42-62.94-131.47-104.38-228.73"/>
		<path class="medicine" d="M1281.15,805.65c-30.22,36.55-79.48,52.34-126.53,42.11c-65.26-14.2-122.67-73.34-147.61-163.72
			c-9.98-36.16-15.58-76.47-18.63-120.04c-3.87-55.3-13.6-77.54-28.32-122.47c-20.88-63.72-64.02-131.26-106.56-226.03"/>
		<path class="medicine" d="M1281.19,805.65c-30.93,35.18-80.27,49.91-127.01,38.87c-64.82-15.31-120.94-74.92-145.3-164.54
			c-9.81-36.07-15.3-76.17-18.4-119.39c-3.92-54.58-13.53-77.28-28.24-121.77c-21.17-64.02-65.1-131.06-108.73-223.33"/>
		<path class="medicine" d="M1281.23,805.66c-31.65,33.8-81.05,47.47-127.48,35.64c-64.39-16.41-119.22-76.5-142.99-165.36
			c-9.63-35.99-15.02-75.87-18.17-118.75c-3.97-53.87-13.47-77.02-28.17-121.06c-21.46-64.31-66.18-130.85-110.91-220.62"/>
		<path class="medicine" d="M1281.27,805.66c-32.36,32.43-81.84,45.03-127.95,32.41c-63.96-17.51-117.49-78.08-140.68-166.18
			c-9.45-35.9-14.73-75.57-17.95-118.1c-4.02-53.15-13.41-76.76-28.1-120.36c-21.76-64.61-67.26-130.64-113.09-217.92"/>
		<path class="medicine" d="M1281.31,805.66c-33.07,31.06-82.62,42.59-128.42,29.17c-63.53-18.61-115.75-79.66-138.37-167
			c-9.27-35.81-14.45-75.27-17.72-117.45c-4.07-52.44-13.35-76.5-28.02-119.66c-22.06-64.91-68.34-130.43-115.27-215.22"/>
		<path class="medicine" d="M1281.35,805.67c-33.79,29.68-83.41,40.15-128.9,25.94c-63.09-19.72-114.02-81.24-136.06-167.82
			c-9.1-35.73-14.16-74.98-17.49-116.81c-4.12-51.72-13.29-76.23-27.95-118.95c-22.36-65.2-69.42-130.22-117.45-212.52"/>
		<path class="medicine" d="M1281.39,805.67c-34.5,28.31-84.19,37.71-129.37,22.7c-62.66-20.82-112.29-82.82-133.75-168.64
			c-8.92-35.64-13.88-74.68-17.26-116.16c-4.16-51.01-13.24-75.97-27.87-118.25c-22.67-65.49-70.5-130.02-119.63-209.82"/>
		<path class="medicine" d="M1281.43,805.67c-35.21,26.94-84.98,35.27-129.84,19.47c-62.23-21.92-110.55-84.4-131.44-169.46
			c-8.73-35.55-13.59-74.38-17.04-115.52c-4.21-50.29-13.18-75.71-27.8-117.54c-22.98-65.79-71.58-129.81-121.81-207.12"/>
		<path class="medicine" d="M1281.51,805.68c-36.64,24.19-86.54,30.39-130.79,13c-61.36-24.13-107.06-87.57-126.82-171.11
			c-8.37-35.38-13.02-73.78-16.58-114.22c-4.31-48.86-13.08-75.18-27.65-116.14c-23.61-66.36-73.74-129.39-126.16-201.72"/>
		<path class="medicine" d="M1281.55,805.68c-37.35,22.82-87.33,27.95-131.26,9.77c-60.93-25.23-105.32-89.15-124.52-171.93
			c-8.19-35.29-12.73-73.48-16.35-113.58c-4.35-48.15-13.03-74.91-27.57-115.43c-23.93-66.65-74.82-129.18-128.34-199.02"/>
		<path class="medicine" d="M1281.59,805.69c-38.07,21.44-88.11,25.51-131.73,6.53c-60.5-26.33-103.57-90.73-122.21-172.75
			c-8-35.21-12.44-73.19-16.13-112.93c-4.4-47.43-12.98-74.64-27.5-114.73c-24.25-66.94-75.9-128.98-130.52-196.32"/>
		<path class="medicine" d="M1281.63,805.69c-38.78,20.07-88.9,23.08-132.2,3.3c-60.06-27.43-101.82-92.32-119.9-173.57
			c-7.81-35.12-12.15-72.89-15.9-112.29c-4.44-46.72-12.93-74.38-27.42-114.02c-24.57-67.22-76.98-128.77-132.7-193.62"/>
		<path class="medicine" d="M1281.67,805.69c-39.5,18.7-89.68,20.64-132.68,0.07c-59.63-28.54-100.07-93.9-117.59-174.39
			c-7.63-35.04-11.86-72.59-15.67-111.64c-4.48-46-12.88-74.11-27.35-113.32c-24.9-67.51-78.06-128.56-134.88-190.92"/>
		<path class="medicine" d="M1281.7,805.7c-40.21,17.32-90.47,18.2-133.15-3.17c-59.2-29.64-98.31-95.48-115.28-175.21
			c-7.44-34.95-11.57-72.29-15.44-110.99c-4.53-45.29-12.84-73.84-27.27-112.62c-25.24-67.79-79.14-128.35-137.06-188.21"/>
		<path class="medicine" d="M1281.74,805.7c-40.92,15.95-91.25,15.76-133.62-6.4c-58.77-30.74-96.56-97.07-112.97-176.03
			c-7.25-34.87-11.28-72-15.22-110.35c-4.57-44.58-12.79-73.57-27.2-111.91c-25.57-68.07-80.22-128.14-139.24-185.51"/>
		<path class="medicine" d="M1281.78,805.71c-41.64,14.57-92.04,13.32-134.09-9.64c-58.33-31.84-94.8-98.65-110.66-176.85
			c-7.05-34.78-10.99-71.7-14.99-109.7c-4.61-43.86-12.75-73.3-27.13-111.21c-25.92-68.35-81.3-127.94-141.42-182.81"/>
		<path class="medicine" d="M1281.82,805.71c-42.35,13.2-92.82,10.88-134.57-12.87c-57.9-32.95-93.03-100.24-108.35-177.67
			c-6.86-34.7-10.7-71.4-14.76-109.05c-4.65-43.15-12.71-73.03-27.05-110.5c-26.26-68.62-82.38-127.73-143.6-180.11"/>
		<path class="medicine" d="M1281.9,805.72c-43.78,10.45-94.39,6-135.51-19.34c-57.04-35.15-89.5-103.41-103.73-179.31
			c-6.47-34.53-10.11-70.81-14.3-107.76c-4.73-41.72-12.63-72.48-26.9-109.1C974.49,321.04,916.92,262.9,853.5,215.5"/>
		<path class="medicine" d="M1281.94,805.72c-44.49,9.08-95.18,3.56-135.98-22.57c-56.6-36.25-87.73-104.99-101.42-180.13
			c-6.27-34.45-9.82-70.51-14.08-107.12c-4.77-41.01-12.59-72.21-26.83-108.39c-27.32-69.44-85.62-127.1-150.13-172.01"/>
		<path class="medicine" d="M1281.98,805.72c-45.2,7.71-95.96,1.12-136.46-25.81c-56.17-37.36-85.96-106.57-99.11-180.95
			c-6.08-34.36-9.52-70.21-13.85-106.47c-4.81-40.29-12.55-71.94-26.75-107.69c-27.68-69.7-86.7-126.9-152.31-169.31"/>
		<path class="medicine" d="M1282.02,805.73c-45.92,6.33-96.74-1.32-136.93-29.04c-55.74-38.46-84.18-108.16-96.8-181.77
			c-5.87-34.28-9.23-69.91-13.62-105.82c-4.84-39.58-12.52-71.66-26.68-106.99c-28.05-69.97-87.78-126.69-154.49-166.61"/>
		<path class="medicine" d="M1282.06,805.73c-46.63,4.96-97.53-3.75-137.4-32.27c-55.31-39.56-82.4-109.74-94.49-182.59
			c-5.67-34.19-8.93-69.62-13.39-105.18c-4.88-38.87-12.48-71.39-26.6-106.28c-28.42-70.23-88.85-126.48-156.67-163.91"/>
		<path class="medicine" d="M1282.1,805.73c-47.34,3.59-98.31-6.19-137.87-35.51c-54.87-40.66-80.62-111.33-92.18-183.41
			c-5.47-34.11-8.63-69.32-13.17-104.53c-4.92-38.15-12.45-71.11-26.53-105.58c-28.8-70.49-89.93-126.27-158.85-161.21"/>
		<path class="medicine" d="M1282.14,805.74c-48.06,2.21-99.1-8.63-138.35-38.74c-54.44-41.77-78.84-112.91-89.87-184.23
			c-5.26-34.02-8.27-69.03-12.94-103.89c-4.89-37.45-12.41-70.83-26.45-104.87c-29.18-70.75-91.01-126.06-161.03-158.5"/>
		<path class="medicine" d="M1282.18,805.74c-48.77,0.84-99.88-11.07-138.82-41.98c-54.01-42.87-77.05-114.49-87.56-185.05
			c-5.05-33.94-7.99-68.74-12.71-103.24c-4.94-36.73-12.38-70.56-26.38-104.17c-29.57-71-92.09-125.86-163.2-155.8"/>
		<path class="medicine" d="M1282.22,805.74c-49.49-0.53-100.67-13.51-139.29-45.21c-53.57-43.97-75.18-116.09-85.25-185.87
			c-4.81-33.86-7.71-68.44-12.48-102.59c-4.99-36.02-12.4-70.25-26.3-103.47c-30.08-71.2-93.17-125.65-165.38-153.1"/>
	</g>
</g>
<g id="medicine_dotted">
	<path class="medicine" d="M1282.26,805.75c-50.2-1.91-101.45-15.95-139.76-48.45c-53.14-45.07-73.47-117.66-82.94-186.69
		s-11.25-140.57-38.49-204.71c-30.36-71.5-94.25-125.44-167.56-150.4"/>
	<path class="medicine" d="M853.5,215.5c63.23-8.98,132.46,33.44,171.02,100.98c19.92,34.88,32.43,75.09,38.4,116.45
		c4.91,33.42,8.36,65.98,13.47,97.11c14.29,86.99,36.02,151.89,84.36,202.13c33.36,34.67,78.21,55.26,121.09,73.55"/>
	<path class="medicine" d="M853.5,215.5c53.16-42.92,127.97-12.05,174.49,51.56c24.62,33.67,42.26,75.66,49.11,119.36
		c5.84,36.53,10.23,70.96,16.16,103.04c19.39,104.93,42.32,161.83,85.78,217.57c28.52,36.58,66.86,63.98,102.42,98.65"/>
	<path class="medicine" d="M853.5,215.5c43.08-76.87,123.68-57.63,177.95,2.13c29.43,32.41,52.09,76.23,59.81,122.27
		c6.77,39.63,12.19,75.93,18.84,108.98c24.74,122.82,48.83,171.45,87.21,233.01c23.85,38.26,55.51,72.7,83.75,123.75"/>
	<path class="medicine" d="M853.5,215.5c33.01-110.81,119.54-103.34,181.41-47.29c34.31,31.08,61.92,76.8,70.51,125.18
		c7.71,42.74,14.2,80.88,21.53,114.92c30.3,140.67,55.67,180.82,88.63,248.45c19.39,39.79,44.15,81.43,65.08,148.85"/>
	<path class="medicine" d="M853.5,215.5c22.93-144.75,115.47-149.19,184.88-96.71c39.25,29.67,71.76,77.37,81.21,128.09
		c8.64,45.84,16.24,85.83,24.22,120.86c36.07,158.46,62.92,190.06,90.05,263.89c15.16,41.24,32.8,90.15,46.4,173.95"/>
	<path class="medicine" d="M1280.29,805.57c-14.52,66.77-62.22,106.01-116.14,113.26c-74.77,10.05-160.14-38.79-198.43-145.67
		c-13.67-38.15-21.74-83.04-23.64-134.25c-2.63-71.04-15.48-83.13-29.96-137.96c-15.05-56.97-40.26-135.84-58.62-285.45"/>
	<path class="medicine" d="M1280.68,805.61c-21.66,53.04-70.07,81.61-120.86,80.92c-70.45-0.97-143.21-54.45-175.33-153.88
		c-12.03-37.23-18.96-80.05-21.36-127.79c-3.22-63.88-14.5-80.62-29.22-130.92c-17.58-60.07-51.06-133.76-80.41-258.44"/>
	<path class="medicine" d="M1281.07,805.64c-28.79,39.3-77.91,57.22-125.59,48.58c-66.12-12-126.11-70.19-152.23-162.08
		c-10.33-36.34-16.15-77.07-19.08-121.33c-3.76-56.73-13.73-78.06-28.47-123.88c-20.3-63.12-61.86-131.68-102.2-231.43"/>
	<path class="medicine" d="M1281.47,805.68c-35.93,25.56-85.76,32.83-130.31,16.24c-61.8-23.02-108.81-85.99-129.13-170.29
		c-8.55-35.47-13.3-74.08-16.81-114.87c-4.26-49.58-13.13-75.44-27.72-116.84c-23.29-66.08-72.66-129.6-123.99-204.42"/>
	<path class="medicine" d="M1281.86,805.71c-43.06,11.83-93.61,8.44-135.04-16.1c-57.47-34.05-91.27-101.82-106.04-178.49
		c-6.67-34.61-10.41-71.1-14.53-108.41c-4.69-42.43-12.67-72.76-26.98-109.8c-26.61-68.89-83.46-127.52-145.77-177.41"/>
	<path class="medicine" id="medicine_mouse" d="M1279.71,808.03c0.01-0.03,0.02-0.06,0.03-0.1c0.01-0.03,0.02-0.06,0.03-0.09c0.01-0.03,0.02-0.06,0.03-0.09
		c0.01-0.03,0.02-0.06,0.03-0.09c0.01-0.03,0.02-0.06,0.03-0.09c0.01-0.03,0.02-0.06,0.03-0.09c0.01-0.03,0.02-0.06,0.03-0.08
		c0.01-0.03,0.02-0.06,0.03-0.08c0.01-0.03,0.02-0.05,0.03-0.08c0.01-0.03,0.02-0.05,0.04-0.08c0.01-0.03,0.02-0.05,0.04-0.08
		c0.01-0.02,0.03-0.05,0.04-0.07c0.01-0.02,0.03-0.05,0.04-0.07c0.01-0.02,0.03-0.05,0.04-0.07c0.01-0.02,0.03-0.04,0.04-0.07
		c0.01-0.02,0.03-0.04,0.04-0.07c0.01-0.02,0.03-0.04,0.04-0.06c0.01-0.02,0.03-0.04,0.04-0.06c0.01-0.02,0.03-0.04,0.05-0.06
		c0.01-0.02,0.03-0.04,0.04-0.06c0.02-0.02,0.03-0.04,0.05-0.06c0.02-0.02,0.03-0.03,0.05-0.05c0.02-0.02,0.03-0.03,0.05-0.05
		c0.02-0.02,0.03-0.03,0.05-0.05c0.02-0.02,0.03-0.03,0.05-0.05c0.02-0.02,0.04-0.03,0.05-0.04c0.02-0.01,0.04-0.03,0.05-0.04
		c0.02-0.01,0.04-0.03,0.05-0.04c0.02-0.01,0.04-0.03,0.06-0.04c0.02-0.01,0.04-0.02,0.06-0.04c0.02-0.01,0.04-0.02,0.06-0.03
		c0.02-0.01,0.04-0.02,0.06-0.03c0.02-0.01,0.04-0.02,0.06-0.03c0.02-0.01,0.04-0.02,0.06-0.03c0.02-0.01,0.04-0.02,0.06-0.03
		c0.02-0.01,0.04-0.02,0.06-0.02c0.02-0.01,0.04-0.01,0.06-0.02c0.02-0.01,0.04-0.01,0.07-0.02c0.02-0.01,0.04-0.01,0.07-0.02
		c0.02-0.01,0.04-0.01,0.07-0.02c0.02,0,0.05-0.01,0.07-0.01c0.02,0,0.05-0.01,0.07-0.01c0.02,0,0.05-0.01,0.07-0.01
		c0.02,0,0.05,0,0.07-0.01c0.02,0,0.05,0,0.07,0c0.02,0,0.05,0,0.07,0c0.02,0,0.05,0,0.07,0c0.03,0,0.05,0,0.08,0
		c0.03,0,0.07,0,0.1,0l-2.55-3.51c-13.53-81.76-30.9-129.93-45.85-170.62c-27.13-73.82-53.98-105.43-90.05-263.89
		c-7.97-35.03-15.57-75.02-24.22-120.86c-9.45-50.72-41.97-98.41-81.21-128.09C968.97,66.31,876.44,70.75,853.5,215.5v0
		c18.36,149.6,43.57,228.47,58.62,285.45c14.49,54.83,27.33,66.92,29.96,137.96c1.9,51.22,9.97,96.1,23.64,134.25
		c38.29,106.88,123.65,155.73,198.43,145.67c53.22-7.16,100.36-45.5,115.54-110.7C1279.69,808.1,1279.7,808.06,1279.71,808.03z"/>
</g>
<g id="problems">
	<g>
		<path class="problems" d="M427.51,471.43c0.24-12.97,0.58-25.54,0.9-37.72c6.3-240.28,39.31-327.05,175.57-374.54
			C734.49,13.52,836.38,25.2,851.4,179.97c1.15,11.1,1.86,22.93,2.1,35.53"/>
		<path class="problems" d="M427.5,471.46c0.16-13.04,0.41-25.68,0.67-37.93c5.11-242.65,37.64-329.17,174.31-376.91
			C734.4,10.43,837.15,22.28,851.62,179.45c1.09,11.26,1.72,23.27,1.88,36.05"/>
		<path class="problems" d="M427.5,471.48c0.08-13.12,0.22-25.82,0.43-38.13c3.6-245.01,35.98-331.3,173.06-379.29
			C734.31,7.33,837.93,19.37,851.84,178.92c1.02,11.42,1.58,23.61,1.66,36.58"/>
		<path class="problems" d="M853.5,215.5c-0.07,7.66-0.14,15.03-0.23,22.14c-0.95,157.55-8.06,180.64-48.26,188.72
			c-23.39,4.69-58.02,4.26-109.23,22.32c-135.64,47.9-253.61,281.11-266.93,64.03c-0.79-12.25-1.25-25.95-1.35-41.22"/>
		<path class="problems" d="M853.5,215.5c-0.14,7.51-0.3,14.74-0.47,21.7c-1.71,154.79-9.52,177.49-49.84,185.66
			c-23.43,4.74-57.87,4.49-108.62,22.47c-134.67,47.88-250.94,278.53-265.5,66.26c-0.82-11.92-1.39-25.26-1.57-40.14"/>
		<path class="problems" d="M853.5,215.5c-0.22,7.36-0.46,14.44-0.71,21.27c-2.46,152.03-10.98,174.34-51.42,182.61
			c-23.46,4.78-57.73,4.72-108.01,22.63c-133.7,47.85-248.62,275.96-264.07,68.49c-0.86-11.59-1.52-24.57-1.78-39.06"/>
		<path class="problems" d="M853.5,215.5c-0.3,7.21-0.62,14.15-0.95,20.84c-3.21,149.28-12.44,171.19-53.01,179.55
			c-23.49,4.83-57.59,4.94-107.4,22.79C559.41,486.5,445.86,712.07,429.51,509.4c-0.91-11.26-1.66-23.87-2-37.98"/>
		<path class="problems" id="problems_mouse" d="M797.72,412.4c-23.53,4.87-57.45,5.17-106.79,22.94c-131.76,47.8-243.95,270.82-261.21,72.95
			c-0.95-10.92-1.8-23.17-2.21-36.89l0,0c0.32-12.9,0.75-25.4,1.13-37.52c7.49-237.91,40.97-324.92,176.83-372.16
			C734.58,16.62,835.6,28.12,851.18,180.49c1.22,10.93,2,22.58,2.32,35c0,0,0,0,0-0.01c-0.08-12.96-0.64-25.14-1.66-36.56
			C837.93,19.37,734.31,7.33,600.99,54.06c-137.08,47.98-169.46,134.28-173.06,379.29c-0.21,12.31-0.35,25.01-0.43,38.13l0,0
			c0,0,0,0,0,0l0,0c0.1,15.27,0.56,28.97,1.35,41.22c13.32,217.08,131.29-16.13,266.93-64.03c51.21-18.06,85.84-17.62,109.23-22.32
			c40.2-8.07,47.3-31.17,48.26-188.72c0.09-7.1,0.17-14.47,0.23-22.12c0,0,0,0,0,0c-0.38,7.05-0.78,13.85-1.19,20.4
			C848.34,382.42,838.41,403.95,797.72,412.4z"/>
	</g>
</g>
<g id="children">
	<path class="children" d="M427.51,471.33c0.63-12.6,1.44-24.83,2.07-36.7c12.16-228.42,47.62-316.4,181.85-362.65
		C734.93,29,832.51,39.79,850.3,182.58c1.49,10.28,2.56,21.24,3.21,32.92"/>
	<path class="children" d="M427.51,471.35c0.56-12.68,1.26-24.97,1.83-36.9c11-230.8,45.96-318.53,180.6-365.03
		c124.9-43.51,223.34-32.54,240.57,112.65c1.42,10.44,2.42,21.58,2.99,33.44"/>
	<path class="children" d="M427.51,471.37c0.48-12.75,1.09-25.11,1.6-37.11c9.84-233.17,44.29-320.66,179.34-367.41
		c126.3-44.04,225.6-32.9,242.28,114.68c1.35,10.61,2.28,21.92,2.77,33.96"/>
	<path class="children" d="M427.51,471.39c0.4-12.82,0.92-25.26,1.37-37.31c8.67-235.54,42.63-322.79,178.08-369.78
		c127.71-44.58,227.87-33.26,244,116.72c1.29,10.77,2.14,22.25,2.54,34.49"/>
	<path class="children" d="M427.51,471.41c0.32-12.9,0.75-25.4,1.13-37.52c7.49-237.91,40.97-324.92,176.83-372.16
		C734.58,16.62,835.6,28.12,851.18,180.49c1.22,10.93,2,22.59,2.32,35.01"/>
	<path class="children" d="M853.5,215.5c-0.38,7.05-0.78,13.85-1.19,20.41c-3.97,146.52-13.9,168.04-54.59,176.5
		c-23.53,4.87-57.45,5.17-106.79,22.94c-131.76,47.8-243.95,270.82-261.21,72.95c-0.95-10.93-1.8-23.18-2.21-36.9"/>
	<path class="children" d="M853.5,215.5c-0.46,6.9-0.94,13.56-1.43,19.97c-4.72,143.76-15.36,164.89-56.17,173.44
		c-23.56,4.92-57.31,5.4-106.18,23.1c-130.8,47.78-241.6,268.24-259.78,75.18c-1-10.59-1.94-22.49-2.43-35.83"/>
	<path class="children" d="M853.5,215.5c-0.54,6.75-1.1,13.26-1.67,19.54c-5.48,141-16.82,161.74-57.76,170.39
		c-23.6,4.96-57.17,5.63-105.57,23.26c-129.83,47.75-239.24,265.65-258.35,77.41c-1.04-10.26-2.07-21.79-2.64-34.75"/>
	<path class="children" d="M853.5,215.5c-0.62,6.6-1.26,12.97-1.91,19.11c-6.23,138.24-18.28,158.59-59.34,167.34
		c-23.63,5.01-57.03,5.86-104.96,23.41C558.43,473.08,450.43,688.41,430.37,505c-1.09-9.93-2.21-21.1-2.86-33.67"/>
	<path class="children" id="children_mouse" d="M851.35,234.17c-6.99,135.49-19.74,155.44-60.92,164.28c-23.66,5.05-56.92,5.99-104.35,23.57
		C558.09,469.47,451.6,682.47,430.59,503.9c-1.13-9.6-2.35-20.4-3.07-32.59l0,0c0,0,0,0,0,0l0,0c0.71-12.53,1.61-24.68,2.3-36.5
		c13.3-226.04,49.28-314.27,183.11-360.28c122.1-42.43,218.81-31.82,237.15,108.57c1.55,10.11,2.7,20.89,3.42,32.38c0,0,0,0,0,0.01
		c0,0,0,0,0,0c-0.32-12.41-1.1-24.07-2.32-35C835.6,28.12,734.58,16.62,605.47,61.74C469.61,108.98,436.13,195.98,428.64,433.9
		c-0.38,12.12-0.82,24.62-1.13,37.52l0,0c0.42,13.72,1.26,25.97,2.21,36.89c17.26,197.87,129.44-25.15,261.21-72.95
		c49.34-17.77,83.26-18.07,106.79-22.94c40.69-8.46,50.62-29.98,54.59-176.5c0.41-6.55,0.81-13.34,1.19-20.4c0,0,0,0,0,0
		c0,0,0,0,0,0c0,0,0,0,0,0C852.8,221.96,852.08,228.17,851.35,234.17z"/>
</g>
<g id="disease_solid">
	<path class="disease" d="M427.55,470.82c2.46-10.9,5.26-21.51,7.44-32c36.08-173.31,86.05-266.81,210.75-307.99
		c91.39-30.19,168.95-23.92,199.49,63.78c3.01,6.51,5.77,13.47,8.27,20.89"/>
	<path class="disease" d="M427.55,470.84c2.38-10.98,5.1-21.66,7.21-32.21c35.16-175.71,84.39-268.95,209.49-310.37
		c92.8-30.72,171.21-24.28,201.2,65.81c2.95,6.67,5.63,13.81,8.05,21.42"/>
	<path class="disease" d="M427.55,470.87c2.3-11.05,4.94-21.8,6.98-32.41c34.23-178.11,82.72-271.09,208.24-312.74
		c94.2-31.26,173.48-24.64,202.91,67.85c2.88,6.84,5.49,14.14,7.83,21.94"/>
	<path class="disease" d="M427.55,470.89c2.22-11.13,4.77-21.95,6.74-32.62c33.28-180.52,81.06-273.23,206.98-315.12
		c95.6-31.8,175.75-24.99,204.62,69.89c2.81,7,5.35,14.48,7.61,22.46"/>
	<path class="disease" d="M427.55,470.91c2.14-11.2,4.61-22.09,6.51-32.82c32.33-182.92,79.39-275.37,205.72-317.5
		c97-32.34,178.01-25.35,206.34,71.92c2.75,7.16,5.21,14.82,7.39,22.99"/>
	<path class="disease" d="M427.55,470.93c2.06-11.27,4.45-22.24,6.27-33.03c31.36-185.32,77.72-277.51,204.47-319.87
		c98.4-32.89,180.28-25.71,208.05,73.96c2.68,7.33,5.07,15.16,7.17,23.51"/>
	<path class="disease" d="M427.54,470.95c1.98-11.35,4.28-22.38,6.04-33.23C463.96,250,509.64,158.07,636.8,115.47
		c99.8-33.43,182.55-26.07,209.76,75.99c2.61,7.49,4.93,15.5,6.95,24.03"/>
	<path class="disease" d="M427.54,470.98c1.9-11.42,4.12-22.52,5.81-33.43c29.39-190.13,74.39-281.8,201.95-324.63
		c101.2-33.97,184.81-26.43,211.47,78.03c2.55,7.66,4.8,15.83,6.73,24.55"/>
	<path class="disease" d="M427.54,471c1.83-11.49,3.96-22.67,5.57-33.64c28.39-192.53,72.72-283.95,200.7-327
		C736.41,75.84,820.89,83.56,847,190.42c2.48,7.82,4.66,16.17,6.51,25.08"/>
	<path class="disease" d="M427.54,471.04c1.67-11.64,3.62-22.96,5.11-34.05c26.35-197.33,69.39-288.24,198.19-331.76
		c105.4-35.61,191.61-27.51,216.61,84.14c2.35,8.15,4.38,16.85,6.07,26.12"/>
	<path class="disease" d="M427.54,471.06c1.59-11.72,3.46-23.1,4.87-34.25c25.32-199.73,67.72-290.39,196.93-334.13
		c106.8-36.16,193.88-27.87,218.32,86.18c2.28,8.31,4.24,17.19,5.85,26.64"/>
	<path class="disease" d="M427.53,471.08c1.51-11.79,3.29-23.25,4.64-34.45c24.27-202.13,66.05-292.54,195.67-336.51
		c108.2-36.71,196.14-28.23,220.03,88.21c2.22,8.47,4.1,17.52,5.63,27.17"/>
	<path class="disease" d="M427.53,471.11c1.43-11.86,3.13-23.39,4.4-34.66c23.22-204.53,64.38-294.68,194.42-338.89
		c109.59-37.25,198.41-28.59,221.74,90.25c2.15,8.64,3.96,17.86,5.41,27.69"/>
	<path class="disease" d="M427.53,471.13c1.35-11.94,2.96-23.54,4.17-34.86C453.86,229.34,494.42,139.43,624.86,95
		c110.99-37.8,200.68-28.95,223.45,92.28c2.08,8.8,3.82,18.2,5.19,28.21"/>
	<path class="disease" d="M427.53,471.15c1.27-12.01,2.79-23.68,3.94-35.07c21.08-209.32,61.05-298.98,191.9-343.64
		c112.39-38.35,202.94-29.3,225.17,94.32c2.02,8.97,3.68,18.54,4.97,28.74"/>
	<path class="disease" d="M427.53,471.17c1.19-12.08,2.62-23.82,3.7-35.27c20-211.72,59.38-301.13,190.65-346.02
		c113.79-38.91,205.21-29.66,226.88,96.36c1.95,9.13,3.54,18.87,4.75,29.26"/>
	<path class="disease" d="M427.52,471.19c1.11-12.16,2.45-23.97,3.47-35.48c18.9-214.11,57.71-303.28,189.39-348.39
		c115.19-39.46,207.47-30.02,228.59,98.39c1.88,9.29,3.4,19.21,4.53,29.78"/>
	<path class="disease" d="M427.52,471.22c1.03-12.23,2.28-24.11,3.24-35.68c17.8-216.5,56.04-305.43,188.13-350.77
		C735.48,44.76,828.63,54.38,849.2,185.2c1.82,9.46,3.26,19.55,4.31,30.3"/>
	<path class="disease" d="M427.52,471.26c0.87-12.38,1.95-24.4,2.77-36.09c15.57-221.27,52.7-309.74,185.62-355.52
		c119.38-41.12,214.27-31.1,233.73,104.5c1.69,9.79,2.98,20.23,3.87,31.35"/>
	<path class="disease" d="M427.52,471.28c0.79-12.45,1.78-24.54,2.53-36.29C444.49,211.33,481,122.85,614.42,77.09
		c120.69-41.9,216.54-31.46,235.44,106.54c1.62,9.95,2.84,20.56,3.65,31.87"/>
	<path class="disease" d="M427.52,471.3c0.71-12.53,1.61-24.68,2.3-36.5c13.3-226.04,49.28-314.27,183.11-360.28
		c122.1-42.43,218.81-31.82,237.15,108.57c1.55,10.11,2.7,20.9,3.43,32.39"/>
	<path class="disease" d="M853.5,215.5c-0.7,6.45-1.42,12.67-2.15,18.67c-6.99,135.49-19.74,155.44-60.92,164.28
		c-23.66,5.05-56.92,5.99-104.35,23.57C558.09,469.47,451.6,682.47,430.59,503.9c-1.13-9.6-2.35-20.4-3.07-32.59"/>
	<path class="disease" d="M853.5,215.5c-0.78,6.3-1.58,12.38-2.39,18.24c-7.74,132.73-21.21,152.29-62.51,161.23
		c-23.7,5.1-56.78,6.21-103.75,23.73c-127.03,47.39-232.08,257.84-254.06,84.1c-1.17-9.27-2.49-19.71-3.29-31.51"/>
	<path class="disease" d="M853.5,215.5c-0.86,6.15-1.74,12.08-2.63,17.81c-8.5,129.97-22.67,149.14-64.09,158.17
		c-23.73,5.14-56.65,6.43-103.14,23.88c-126.07,47.34-229.66,255.21-252.63,86.33c-1.22-8.95-2.62-19.02-3.5-30.43"/>
	<path class="disease" d="M853.5,215.5c-0.94,6-1.89,11.79-2.87,17.38c-9.25,127.21-24.13,145.99-65.67,155.12
		c-23.76,5.19-56.51,6.64-102.53,24.04c-125.11,47.29-227.23,252.58-251.19,88.56c-1.26-8.62-2.76-18.32-3.72-29.35"/>
	<path class="disease" d="M853.5,215.5c-1.1,5.7-2.21,11.2-3.35,16.51c-10.76,121.7-27.05,139.69-68.84,149.01
		c-23.83,5.28-56.23,7.08-101.31,24.35c-123.2,47.2-222.31,247.26-248.33,93.02c-1.34-7.97-3.03-16.94-4.15-27.19"/>
	<path class="disease" d="M853.5,215.5c-1.18,5.55-2.37,10.9-3.59,16.08c-11.51,118.94-28.51,136.54-70.42,145.95
		c-23.87,5.32-56.1,7.3-100.7,24.51c-122.24,47.15-219.83,244.58-246.9,95.25c-1.39-7.64-3.17-16.24-4.36-26.12"/>
	<path class="disease" d="M853.5,215.5c-1.26,5.39-2.53,10.61-3.83,15.65c-12.27,116.18-29.97,133.39-72.01,142.9
		c-23.9,5.37-55.96,7.52-100.09,24.67c-121.28,47.1-217.31,241.88-245.47,97.48c-1.43-7.32-3.31-15.55-4.58-25.04"/>
	<path class="disease" d="M853.5,215.5c-1.34,5.24-2.69,10.31-4.07,15.21C836.41,344.14,818,360.96,775.85,370.56
		c-23.93,5.41-55.82,7.75-99.48,24.82c-120.32,47.06-214.78,239.16-244.04,99.71c-1.47-7-3.45-14.85-4.79-23.96"/>
	<path class="disease" d="M853.5,215.5c-1.42,5.09-2.85,10.02-4.31,14.78c-13.78,110.67-32.9,127.09-75.17,136.79
		c-23.97,5.46-55.68,7.97-98.87,24.98c-119.36,47.01-212.22,236.41-242.61,101.94c-1.51-6.68-3.58-14.16-5.01-22.88"/>
	<path class="disease" d="M853.5,215.5c-1.49,4.94-3.01,9.72-4.54,14.35c-14.53,107.91-34.36,123.94-76.76,133.74
		c-24,5.5-55.54,8.19-98.26,25.14c-118.4,46.97-209.63,233.62-241.18,104.17c-1.55-6.36-3.72-13.47-5.22-21.8"/>
	<path class="disease" d="M853.5,215.5c-1.57,4.79-3.17,9.43-4.78,13.92c-15.29,105.15-35.82,120.79-78.34,130.68
		c-24.04,5.55-55.41,8.41-97.65,25.29c-117.44,46.93-207.01,230.81-239.75,106.4c-1.59-6.04-3.86-12.77-5.44-20.72"/>
	<path class="disease" d="M853.5,215.5c-1.65,4.64-3.33,9.13-5.02,13.48c-16.04,102.39-37.28,117.64-79.92,127.63
		c-24.07,5.59-55.27,8.63-97.04,25.45C555.03,428.94,467.15,610,433.19,490.69c-1.63-5.73-4-12.08-5.65-19.64"/>
	<path class="disease" d="M853.5,215.5c-1.73,4.49-3.49,8.84-5.26,13.05c-16.79,99.64-38.74,114.49-81.51,124.57
		c-24.1,5.63-55.13,8.86-96.44,25.6c-115.52,46.84-201.68,225.04-236.89,110.86c-1.67-5.42-4.13-11.39-5.87-18.56"/>
	<path class="disease" d="M853.5,215.5c-1.89,4.19-3.81,8.25-5.74,12.18c-18.3,94.12-41.66,108.19-84.67,118.47
		c-24.17,5.72-54.85,9.3-95.22,25.92c-113.6,46.76-196.23,219.04-234.03,115.32c-1.75-4.81-4.41-10-6.3-16.4"/>
	<path class="disease" d="M853.5,215.5c-1.97,4.04-3.97,7.95-5.98,11.75c-19.06,91.36-43.12,105.04-86.26,115.41
		c-24.21,5.77-54.71,9.53-94.61,26.07c-112.64,46.73-193.46,215.94-232.6,117.55c-1.79-4.51-4.55-9.3-6.51-15.33"/>
	<path class="disease" d="M853.5,215.5c-2.05,3.89-4.13,7.66-6.22,11.32c-19.81,88.6-44.59,101.89-87.84,112.36
		c-24.24,5.81-54.57,9.75-94,26.23c-111.68,46.69-190.67,212.74-231.17,119.78c-1.84-4.22-4.68-8.61-6.73-14.25"/>
	<path class="disease" d="M853.5,215.5c-2.13,3.73-4.28,7.36-6.46,10.89c-20.57,85.85-46.05,98.74-89.42,109.3
		c-24.27,5.86-54.44,9.97-93.39,26.39c-110.72,46.65-187.87,209.45-229.74,122.01c-1.88-3.93-4.82-7.92-6.95-13.17"/>
	<path class="disease" d="M853.5,215.5c-2.21,3.58-4.44,7.07-6.7,10.45c-21.32,83.09-47.51,95.59-91.01,106.25
		c-24.31,5.9-54.3,10.2-92.78,26.54C553.26,405.36,472,570,434.71,482.99c-2.58-3.23-4.96-7.22-7.16-12.09"/>
	<path class="disease" d="M853.5,215.5c-2.29,3.43-4.6,6.77-6.94,10.02c-22.08,80.33-48.97,92.44-92.59,103.19
		c-24.34,5.95-54.16,10.42-92.17,26.7C553,402,468,565,434.93,481.89c-2.64-2.89-5.1-6.53-7.38-11.01"/>
	<path class="disease" d="M853.5,215.5c-2.37,3.28-4.76,6.48-7.18,9.59c-22.83,77.57-50.43,89.29-94.17,100.14
		c-24.37,5.99-54.02,10.65-91.56,26.86c-107.84,46.55-197.19,207.6-225.44,128.7c-2.71-2.56-5.23-5.84-7.59-9.93"/>
	<path class="disease" d="M853.5,215.5c-2.45,3.13-4.92,6.18-7.42,9.16c-23.59,74.81-51.89,86.14-95.76,97.09
		c-24.41,6.04-53.88,10.88-90.95,27.01C552.5,395.27,464.13,553.82,435.36,479.69c-2.78-2.23-5.37-5.14-7.81-8.85"/>
	<path class="disease" d="M853.5,215.5c-2.53,2.98-5.08,5.89-7.66,8.72c-24.34,72.06-53.35,82.99-97.34,94.03
		c-24.44,6.08-53.74,11.1-90.34,27.17c-105.91,46.48-193.3,202.53-222.58,133.16c-2.84-1.89-5.51-4.45-8.02-7.77"/>
	<path class="disease" id="disease_mouse" d="M853.5,215.5C853.5,215.5,853.5,215.5,853.5,215.5c-2.61,2.83-5.24,5.59-7.9,8.29
		c-25.09,69.3-54.81,79.84-98.92,90.98c-24.48,6.13-53.6,11.33-89.74,27.33c-104.95,46.45-191.35,200-221.15,135.39
		c-2.91-1.56-5.64-3.75-8.23-6.69l-0.01,0c0,0,0-0.01,0-0.01c0,0,0,0,0,0l0,0c0,0,0-0.01,0-0.01l0,0c0,0,0-0.01,0-0.01c0,0,0,0,0,0
		l0,0c0,0,0-0.01,0-0.01l0,0c0,0,0-0.01,0-0.01c0,0,0,0,0,0l0,0c0,0,0-0.01,0-0.01l0,0c0,0,0-0.01,0-0.01c0,0,0,0,0,0l0,0
		c0,0,0-0.01,0-0.01l0,0c0,0,0-0.01,0-0.01c0,0,0,0,0,0l0,0c0,0,0-0.01,0-0.01l-0.01,0c0,0,0-0.01,0-0.01c0,0,0,0,0,0l0,0
		c0-0.01,0-0.01,0-0.02l-0.01,0c0,0,0-0.01,0-0.01c0,0,0,0,0,0l0,0c0-0.01,0-0.01,0-0.02l-0.01,0c0,0,0-0.01,0-0.01c0,0,0,0,0,0l0,0
		c0-0.01,0-0.01,0-0.02l-0.01,0c0,0,0-0.01,0-0.01c0,0,0,0,0,0l0,0c0-0.01,0-0.01,0.01-0.02l-0.01,0c0,0,0-0.01,0-0.01c0,0,0,0,0,0
		l0,0c0-0.01,0-0.01,0.01-0.02l-0.01,0c0,0,0-0.01,0-0.01c0,0,0,0,0,0l0,0c0-0.01,0-0.01,0.01-0.02l-0.01,0c0,0,0,0,0-0.01
		c0,0,0,0,0,0l0,0c0-0.01,0-0.01,0.01-0.02l-0.01,0c0,0,0,0,0-0.01c0,0,0,0,0,0l0,0c0-0.01,0-0.01,0.01-0.02l-0.01,0c0,0,0,0,0-0.01
		c0-0.01,0-0.01,0.01-0.02l-0.01,0c0,0,0,0,0-0.01l0,0c0,0,0,0,0,0c0-0.01,0.01-0.01,0.01-0.02l-0.01,0.01c0,0,0,0,0-0.01l0,0
		c0,0,0,0,0,0c0-0.01,0.01-0.01,0.01-0.02l-0.01,0.01c0,0,0,0,0-0.01l0,0c0,0,0,0,0,0c0-0.01,0.01-0.01,0.01-0.02l-0.01,0.01
		c0,0,0,0,0-0.01l0,0c0,0,0,0,0,0c0-0.01,0.01-0.01,0.01-0.02l-0.01,0.01c0,0,0,0,0-0.01l0,0c0,0,0,0,0,0
		c0-0.01,0.01-0.01,0.01-0.02l-0.01,0.01c0,0,0,0,0,0l0,0c0,0,0,0,0,0c0-0.01,0.01-0.01,0.01-0.02l-0.01,0.01c0,0,0,0,0,0l0,0
		c0,0,0,0,0,0c0-0.01,0.01-0.01,0.01-0.02l-0.01,0.01c0,0,0,0,0,0l0,0c0,0,0,0,0,0c0-0.01,0.01-0.01,0.01-0.02l-0.01,0.01
		c0,0,0,0,0,0l0,0c0,0,0,0,0,0c0-0.01,0.01-0.02,0.01-0.02l-0.01,0.01c0,0,0,0,0,0l0,0c0,0,0,0,0,0c0-0.01,0.01-0.02,0.01-0.02
		l-0.01,0.01c0,0,0,0,0,0l0,0c0,0,0,0,0,0c0-0.01,0.01-0.02,0.01-0.02l-0.01,0.01c0,0,0,0,0,0l0,0c0,0,0,0,0,0
		c0-0.01,0.01-0.02,0.01-0.02l-0.01,0.01c0,0,0,0,0,0l0,0c0,0,0,0,0,0c0-0.01,0.01-0.02,0.01-0.02l-0.01,0.01c0,0,0,0,0,0l0,0
		c0,0,0,0,0-0.01c0-0.01,0.01-0.02,0.01-0.02l-0.01,0.01c0,0,0,0,0,0l0,0c0,0,0,0,0-0.01c0-0.01,0.01-0.02,0.01-0.02l-0.02,0.01
		c0,0,0,0,0,0l0,0c0,0,0,0,0-0.01c0-0.01,0.01-0.02,0.01-0.02l-0.02,0.01c0.06-0.1,0.12-0.21,0.18-0.31
		c2.48-10.49,5.25-20.71,7.45-30.83c36.99-170.91,87.72-264.67,212.01-305.61c89.99-29.65,166.68-23.56,197.78,61.74
		C848.09,201.47,850.93,208.25,853.5,215.5C853.5,215.49,853.5,215.49,853.5,215.5C853.5,215.49,853.5,215.49,853.5,215.5
		c0-0.01,0-0.01,0-0.01c0,0,0,0,0-0.01c-0.72-11.49-1.87-22.27-3.42-32.38C831.73,42.71,735.02,32.1,612.93,74.53
		C479.1,120.54,443.12,208.77,429.82,434.81c-0.7,11.81-1.59,23.97-2.3,36.5l0,0c0,0,0,0,0,0l0,0c0.73,12.18,1.94,22.99,3.07,32.59
		c21.01,178.58,127.5-34.43,255.49-81.87c47.43-17.58,80.69-18.52,104.35-23.57c41.18-8.84,53.93-28.79,60.92-164.28
		C852.08,228.17,852.8,221.96,853.5,215.5C853.5,215.51,853.5,215.51,853.5,215.5C853.5,215.5,853.5,215.5,853.5,215.5
		C853.5,215.5,853.5,215.5,853.5,215.5C853.5,215.5,853.5,215.5,853.5,215.5C853.5,215.5,853.5,215.5,853.5,215.5
		C853.5,215.5,853.5,215.5,853.5,215.5C853.5,215.5,853.5,215.5,853.5,215.5L853.5,215.5z"/>
</g>
<g id="disease_dotted">
	<path class="disease" d="M427.54,471.02c1.75-11.57,3.79-22.81,5.34-33.84c27.38-194.93,71.06-286.09,199.44-329.38
		c104-35.06,189.34-27.15,214.9,82.1c2.41,7.98,4.52,16.51,6.29,25.6"/>
	<path class="disease" d="M427.52,471.24c0.95-12.31,2.12-24.26,3-35.88c16.69-218.89,54.37-307.59,186.88-353.15
		c117.98-40.56,212.01-30.74,232.01,102.47c1.75,9.62,3.12,19.89,4.09,30.83"/>
	<path class="disease" d="M853.5,215.5c-1.02,5.85-2.05,11.49-3.11,16.94c-10,124.46-25.59,142.84-67.26,152.06
		c-23.8,5.23-56.37,6.86-101.92,24.2c-124.16,47.25-224.78,249.93-249.76,90.79c-1.3-8.29-2.9-17.63-3.93-28.27"/>
	<path class="disease" d="M853.5,215.5c-1.81,4.34-3.65,8.54-5.5,12.62c-17.55,96.88-40.2,111.34-83.09,121.52
		c-24.14,5.68-54.99,9.08-95.83,25.76c-114.56,46.8-198.97,222.07-235.46,113.09c-1.71-5.11-4.27-10.69-6.08-17.48"/>
</g>
<g id="obesity_solid">
	<path class="obesity" d="M427.61,470.17c4.84-8.69,9.67-17.33,14.45-25.88C500.03,340.78,577.78,240.76,690.5,207.6
		c49.17-14.54,100.96-13.14,148.13,2.69c5,1.59,9.96,3.33,14.87,5.21"/>
	<path class="obesity" d="M427.61,470.19c4.76-8.76,9.54-17.46,14.22-26.08c57.4-105.7,134.06-205.66,247.18-239.07
		c50.58-15.07,103.23-13.5,149.84,4.73c4.94,1.75,9.82,3.67,14.65,5.74"/>
	<path class="obesity" d="M427.6,470.21c4.68-8.84,9.4-17.59,13.99-26.29c56.82-107.9,132.4-207.79,245.93-241.45
		c51.98-15.61,105.49-13.86,151.56,6.76c4.87,1.92,9.68,4.01,14.43,6.26"/>
	<path class="obesity" d="M427.6,470.23c4.6-8.91,9.27-17.72,13.75-26.49c56.24-110.11,130.81-209.66,244.67-243.82
		c53.42-16.03,107.76-14.22,153.27,8.8c4.8,2.08,9.54,4.34,14.21,6.78"/>
	<path class="obesity" d="M427.6,470.25c4.52-8.99,9.14-17.85,13.52-26.69c55.64-112.34,129.17-211.74,243.41-246.2
		c54.83-16.54,110.02-14.58,154.98,10.83c4.74,2.25,9.4,4.68,13.99,7.3"/>
	<path class="obesity" d="M427.6,470.28c4.44-9.06,9-17.98,13.29-26.9C495.92,328.8,568.4,229.55,683.04,194.8
		c56.24-17.05,112.29-14.94,156.69,12.87c4.67,2.41,9.26,5.02,13.77,7.83"/>
	<path class="obesity" d="M427.6,470.3c4.37-9.13,8.86-18.11,13.05-27.1c54.42-116.84,125.87-215.91,240.9-250.95
		c57.65-17.56,114.56-15.3,158.4,14.91c4.6,2.57,9.12,5.36,13.55,8.35"/>
	<path class="obesity" d="M427.6,470.32c4.29-9.21,8.73-18.25,12.82-27.31c53.8-119.1,124.22-218.01,239.65-253.33
		c59.06-18.07,116.82-15.66,160.12,16.94c4.54,2.74,8.98,5.7,13.33,8.87"/>
	<path class="obesity" d="M427.59,470.34c4.21-9.28,8.59-18.38,12.58-27.51c53.16-121.38,122.57-220.1,238.39-255.71
		c60.47-18.59,119.09-16.02,161.83,18.98c4.47,2.9,8.84,6.03,13.11,9.39"/>
	<path class="obesity" d="M427.59,470.39c4.05-9.43,8.3-18.66,12.12-27.92c51.86-125.97,119.26-224.3,235.88-260.46
		c63.29-19.62,123.62-16.73,165.25,23.05c4.34,3.23,8.57,6.71,12.67,10.44"/>
	<path class="obesity" d="M427.59,470.41c3.97-9.5,8.16-18.8,11.88-28.12C490.66,314,557.08,215.87,674.09,179.45
		c64.69-20.14,125.89-17.09,166.96,25.09c4.27,3.39,8.43,7.05,12.45,10.96"/>
	<path class="obesity" d="M427.59,470.43c3.89-9.58,8.02-18.94,11.65-28.33c50.51-130.6,115.95-228.52,233.36-265.21
		c66.1-20.66,128.15-17.45,168.68,27.12c4.21,3.56,8.29,7.38,12.23,11.49"/>
	<path class="obesity" d="M427.59,470.45c3.81-9.65,7.87-19.08,11.42-28.53c49.81-132.93,114.29-230.63,232.11-267.59
		c67.51-21.18,130.42-17.81,170.39,29.16c4.14,3.72,8.15,7.72,12.01,12.01"/>
	<path class="obesity" d="M427.58,470.47c3.73-9.72,7.73-19.22,11.18-28.74c49.11-135.26,112.64-232.74,230.85-269.97
		c68.92-21.7,132.69-18.17,172.1,31.2c4.07,3.89,8.01,8.06,11.79,12.53"/>
	<path class="obesity" d="M427.58,470.49c3.65-9.8,7.58-19.36,10.95-28.94c48.39-137.6,110.98-234.86,229.59-272.34
		c70.32-22.22,134.95-18.53,173.81,33.23c4.01,4.05,7.87,8.4,11.57,13.05"/>
	<path class="obesity" d="M427.58,470.52c3.57-9.87,7.43-19.5,10.71-29.15c47.66-139.95,109.32-236.98,228.34-274.72
		c71.73-22.75,137.22-18.89,175.52,35.27c3.94,4.21,7.73,8.74,11.35,13.58"/>
	<path class="obesity" d="M427.58,470.54c3.49-9.94,7.28-19.64,10.48-29.35c46.91-142.31,107.66-239.1,227.08-277.1
		c73.14-23.27,139.49-19.25,177.23,37.31c3.87,4.38,7.59,9.07,11.13,14.1"/>
	<path class="obesity" d="M427.58,470.56c3.41-10.02,7.13-19.78,10.25-29.55c46.16-144.67,106-241.22,225.83-279.47
		c74.54-23.8,141.75-19.61,178.95,39.34c3.81,4.54,7.45,9.41,10.91,14.62"/>
	<path class="obesity" d="M427.57,470.6c3.25-10.17,6.83-20.07,9.78-29.96c44.6-149.41,102.68-245.47,223.31-284.23
		c77.36-24.85,146.28-20.33,182.37,43.41c3.68,4.87,7.17,10.09,10.47,15.67"/>
	<path class="obesity" d="M427.57,470.63c3.17-10.24,6.67-20.21,9.55-30.17c43.81-151.78,101.02-247.6,222.06-286.6
		c78.76-25.38,148.55-20.68,184.08,45.45c3.61,5.03,7.03,10.43,10.25,16.19"/>
	<path class="obesity" d="M427.57,470.65c3.1-10.31,6.52-20.36,9.31-30.37c43-154.16,99.36-249.73,220.8-288.98
		c80.17-25.91,150.82-21.04,185.79,47.49c3.54,5.2,6.89,10.76,10.03,16.71"/>
	<path class="obesity" d="M427.57,470.67c3.02-10.39,6.36-20.5,9.08-30.57c42.18-156.55,97.7-251.86,219.54-291.36
		c81.57-26.44,153.08-21.4,187.51,49.52c3.48,5.36,6.75,11.1,9.81,17.24"/>
	<path class="obesity" d="M427.57,470.69c2.94-10.46,6.21-20.64,8.84-30.78c41.35-158.93,96.04-253.99,218.29-293.73
		c82.97-26.97,155.35-21.76,189.22,51.56c3.41,5.52,6.61,11.44,9.59,17.76"/>
	<path class="obesity" d="M427.56,470.71c2.86-10.53,6.05-20.79,8.61-30.98c40.5-161.33,94.37-256.12,217.03-296.11
		c84.38-27.51,157.62-22.12,190.93,53.6c3.34,5.69,6.47,11.78,9.37,18.28"/>
	<path class="obesity" d="M427.56,470.74c2.78-10.61,5.89-20.93,8.38-31.19c39.64-163.72,92.71-258.26,215.77-298.49
		c85.78-28.04,159.88-22.48,192.64,55.63c3.28,5.85,6.33,12.12,9.15,18.8"/>
	<path class="obesity" d="M427.56,470.76c2.7-10.68,5.74-21.08,8.14-31.39c38.77-166.11,91.05-260.39,214.52-300.86
		c87.19-28.57,162.15-22.84,194.35,57.67c3.21,6.02,6.19,12.45,8.93,19.33"/>
	<path class="obesity" d="M427.56,470.78c2.62-10.76,5.58-21.22,7.91-31.6c37.89-168.51,89.38-262.53,213.26-303.24
		c88.59-29.11,164.42-23.2,196.06,59.7c3.14,6.18,6.05,12.79,8.71,19.85"/>
	<path class="obesity" d="M853.5,215.5c-2.69,2.68-5.4,5.29-8.14,7.86c-25.85,66.54-56.27,76.69-100.51,87.92
		c-24.51,6.17-53.46,11.56-89.13,27.48c-103.98,46.43-189.41,197.46-219.72,137.62c-2.97-1.22-5.78-3.06-8.45-5.62"/>
	<path class="obesity" d="M853.5,215.5c-2.77,2.53-5.56,5-8.38,7.42c-26.6,63.78-57.74,73.54-102.09,84.87
		c-24.54,6.22-53.32,11.79-88.52,27.64c-103.02,46.4-187.46,194.93-218.29,139.85c-3.04-0.89-5.92-2.37-8.67-4.54"/>
	<path class="obesity" d="M853.5,215.5c-2.84,2.38-5.72,4.7-8.62,6.99c-27.36,61.03-59.2,70.39-103.67,81.81
		c-24.58,6.26-53.18,12.01-87.91,27.8c-102.05,46.37-185.52,192.39-216.86,142.08c-3.11-0.55-6.06-1.67-8.88-3.46"/>
	<path class="obesity" d="M853.5,215.5c-2.92,2.23-5.88,4.41-8.86,6.56c-28.11,58.27-60.66,67.24-105.25,78.76
		c-24.61,6.31-53.04,12.24-87.3,27.95C551,375.12,468.52,518.63,436.66,473.08c-3.17-0.22-6.19-0.98-9.1-2.38"/>
	<path class="obesity" d="M853.5,215.5c-3,2.07-6.04,4.11-9.1,6.13c-28.87,55.51-62.12,64.09-106.84,75.7
		c-24.65,6.35-52.9,12.47-86.69,28.11c-100.12,46.33-181.63,187.32-214,146.54c-3.24,0.11-6.33-0.29-9.31-1.3"/>
	<path class="obesity" d="M853.5,215.5c-3.08,1.92-6.2,3.82-9.34,5.69c-29.62,52.75-63.58,60.94-108.42,72.65
		c-24.68,6.4-52.75,12.7-86.08,28.27c-99.15,46.3-179.68,184.79-212.57,148.77c-3.3,0.45-6.47,0.41-9.53-0.22"/>
	<path class="obesity" d="M853.5,215.5c-3.16,1.77-6.36,3.52-9.58,5.26c-30.38,49.99-65.04,57.79-110,69.6
		c-24.71,6.44-52.61,12.93-85.47,28.42c-98.19,46.28-177.74,182.25-211.14,151c-3.37,0.78-6.61,1.1-9.74,0.86"/>
	<path class="obesity" d="M853.5,215.5c-3.24,1.62-6.52,3.23-9.82,4.83c-31.13,47.24-66.5,54.64-111.59,66.54
		c-24.75,6.49-52.47,13.16-84.86,28.58c-97.22,46.27-175.79,179.72-209.71,153.23c-3.44,1.12-6.74,1.8-9.96,1.94"/>
	<path class="obesity" d="M853.5,215.5c-3.32,1.47-6.67,2.93-10.06,4.4c-31.88,44.48-67.96,51.49-113.17,63.49
		c-24.78,6.53-52.33,13.4-84.25,28.74c-96.25,46.25-173.84,177.18-208.28,155.46c-3.5,1.45-6.88,2.49-10.17,3.02"/>
	<path class="obesity" d="M853.5,215.5c-3.48,1.17-6.99,2.34-10.54,3.53c-33.39,38.96-70.89,45.19-116.34,57.38
		c-24.85,6.62-52.05,13.86-83.03,29.05c-94.31,46.22-169.95,172.11-205.42,159.92c-3.64,2.12-7.16,3.88-10.6,5.17"/>
	<path class="obesity" d="M853.5,215.5c-3.56,1.02-7.15,2.05-10.78,3.1c-34.15,36.2-72.35,42.04-117.92,54.32
		c-24.88,6.67-51.9,14.09-82.43,29.2c-93.34,46.21-168.01,169.58-203.99,162.15c-3.7,2.45-7.29,4.57-10.82,6.25"/>
	<path class="obesity" d="M853.5,215.5c-3.64,0.87-7.31,1.75-11.02,2.67c-34.9,33.45-73.81,38.89-119.5,51.27
		c-24.92,6.71-51.76,14.33-81.82,29.36c-92.36,46.2-166.06,167.04-202.56,164.38c-3.77,2.79-7.43,5.26-11.03,7.33"/>
	<path class="obesity" d="M853.5,215.5c-3.72,0.72-7.47,1.46-11.26,2.23c-35.66,30.69-75.27,35.74-121.09,48.22
		c-24.95,6.75-51.62,14.56-81.21,29.52c-91.39,46.19-164.12,164.51-201.12,166.61c-3.83,3.12-7.57,5.96-11.25,8.41"/>
	<path class="obesity" d="M853.5,215.5c-3.8,0.57-7.63,1.16-11.49,1.8c-36.41,27.93-76.73,32.59-122.67,45.16
		c-24.98,6.8-51.47,14.8-80.6,29.67c-90.42,46.18-162.17,161.97-199.69,168.84c-3.9,3.46-7.71,6.65-11.46,9.49"/>
	<path class="obesity" d="M853.5,215.5c-3.88,0.41-7.79,0.87-11.73,1.37c-37.17,25.17-78.19,29.44-124.25,42.11
		c-25.02,6.84-51.33,15.03-79.99,29.83c-89.44,46.18-160.23,159.44-198.26,171.07c-3.97,3.79-7.84,7.35-11.68,10.57"/>
	<path class="obesity" d="M853.5,215.5c-3.96,0.26-7.95,0.57-11.97,0.93c-37.92,22.42-79.65,26.29-125.84,39.05
		c-25.05,6.89-51.18,15.27-79.38,29.99c-88.46,46.18-158.28,156.9-196.83,173.3c-4.03,4.12-7.98,8.04-11.89,11.65"/>
	<path class="obesity" d="M853.5,215.5c-4.04,0.11-8.11,0.28-12.21,0.5c-38.67,19.66-81.12,23.14-127.42,36
		c-25.09,6.93-51.04,15.51-78.77,30.14C547.61,328.32,486,426,439.7,457.68c-5,3.42-8.12,8.73-12.11,12.73"/>
	<path class="obesity" d="M853.5,215.5c-4.12-0.04-8.27-0.02-12.45,0.07c-39.43,16.9-82.58,19.99-129,32.94
		c-25.12,6.98-50.89,15.74-78.16,30.3C547.38,324.99,482,423,439.91,456.58c-4.96,3.96-8.26,9.43-12.32,13.81"/>
	<path class="obesity" d="M853.5,215.5c-4.27-0.34-8.59-0.61-12.93-0.8c-40.94,11.38-85.5,13.69-132.17,26.84
		c-25.19,7.07-50.6,16.22-76.94,30.61c-84.54,46.19-153.98,143.14-191.11,182.22c-4.79,5.04-8.53,10.81-12.75,15.96"/>
	<path class="obesity" d="M853.5,215.5c-4.35-0.49-8.75-0.9-13.17-1.23c-41.69,8.63-86.96,10.54-133.75,23.78
		c-25.22,7.11-50.46,16.46-76.33,30.77c-83.56,46.2-151.71,141.24-189.68,184.45c-4.79,5.45-8.67,11.51-12.97,17.04"/>
	<path class="obesity" d="M853.5,215.5c-4.43-0.64-8.91-1.2-13.41-1.66c-42.45,5.87-88.42,7.39-135.34,20.73
		c-25.26,7.16-50.31,16.7-75.73,30.93c-82.57,46.21-149.41,139.26-188.25,186.68c-4.79,5.85-8.8,12.2-13.18,18.12"/>
	<path class="obesity" d="M853.5,215.5c-4.51-0.79-9.07-1.49-13.65-2.09c-43.2,3.11-89.88,4.24-136.92,17.67
		c-25.29,7.2-50.16,16.94-75.12,31.08C546.23,308.39,480.74,399.37,441,451.07c-4.8,6.24-8.94,12.9-13.4,19.2"/>
	<path class="obesity" d="M853.5,215.5c-4.59-0.94-9.22-1.79-13.89-2.53c-43.96,0.35-91.34,1.09-138.5,14.62
		c-25.32,7.25-50.01,17.18-74.51,31.24c-80.59,46.25-144.74,135.1-185.39,191.14c-4.81,6.63-9.08,13.59-13.61,20.28"/>
	<path class="obesity" d="M853.5,215.5c-4.67-1.1-9.38-2.08-14.13-2.96c-44.71-2.4-92.8-2.06-140.09,11.56
		c-25.36,7.29-49.86,17.43-73.9,31.4C545.79,301.77,483,388.44,441.43,448.87c-4.82,7-9.22,14.28-13.83,21.36"/>
	<path class="obesity" d="M853.5,215.5c-4.75-1.25-9.54-2.38-14.37-3.39c-45.46-5.16-94.27-5.21-141.67,8.51
		c-25.39,7.34-49.71,17.67-73.29,31.55c-78.6,46.29-140.04,130.75-182.53,195.6c-4.83,7.38-9.35,14.98-14.04,22.44"/>
	<path class="obesity" d="M853.5,215.5c-4.83-1.4-9.7-2.67-14.61-3.82c-46.22-7.92-95.73-8.36-143.25,5.45
		c-25.43,7.38-49.54,17.95-72.68,31.71c-77.54,46.43-137.68,128.51-181.1,197.83c-4.85,7.74-9.49,15.67-14.26,23.52"/>
	<path class="obesity" d="M853.5,215.5c-4.91-1.55-9.86-2.97-14.85-4.26c-46.97-10.68-97.19-11.51-144.84,2.4
		c-25.46,7.43-49.4,18.17-72.07,31.87c-76.57,46.41-135.33,126.24-179.67,200.06c-4.87,8.11-9.63,16.36-14.47,24.59"/>
</g>
<g id="obesity_dotted">
	<path class="obesity" d="M853.5,215.5c-4.99-1.7-10.02-3.26-15.09-4.69c-47.73-13.44-98.65-14.66-146.42-0.65
		c-112.31,32.92-191.16,132.97-249.7,234.32c-4.89,8.47-9.77,17.06-14.69,25.67"/>
	<path class="obesity" d="M427.59,470.36c4.13-9.35,8.45-18.52,12.35-27.72c52.52-123.67,120.91-222.2,237.13-258.08
		c61.88-19.1,121.36-16.37,163.54,21.02c4.41,3.07,8.7,6.37,12.89,9.92"/>
	<path class="obesity" d="M427.57,470.58c3.33-10.09,6.98-19.93,10.01-29.76c45.39-147.04,104.34-243.35,224.57-281.85
		c75.95-24.32,144.02-19.97,180.66,41.38c3.74,4.7,7.31,9.75,10.69,15.14"/>
	<path class="obesity" d="M427.56,470.8c2.54-10.83,5.42-21.37,7.68-31.8c36.99-170.91,87.72-264.67,212.01-305.61
		c89.99-29.65,166.68-23.56,197.78,61.74c3.08,6.34,5.91,13.13,8.49,20.37"/>
	<path class="obesity" d="M853.5,215.5c-2.61,2.83-5.24,5.59-7.9,8.29c-25.09,69.3-54.81,79.84-98.92,90.98
		c-24.48,6.13-53.6,11.33-89.74,27.33c-104.95,46.45-191.35,200-221.15,135.39c-2.91-1.56-5.65-3.75-8.24-6.69"/>
	<path class="obesity" d="M853.5,215.5c-3.4,1.32-6.83,2.64-10.3,3.96c-32.64,41.72-69.43,48.34-114.75,60.43
		c-24.82,6.58-52.19,13.63-83.64,28.89c-95.28,46.23-171.9,174.65-206.85,157.69c-3.57,1.78-7.02,3.18-10.39,4.1"/>
	<path class="obesity" d="M853.5,215.5c-4.19-0.19-8.43-0.31-12.69-0.36c-40.18,14.14-84.04,16.84-130.59,29.89
		c-25.15,7.02-50.75,15.98-77.55,30.46c-85.52,46.19-156.19,144.95-192.54,179.99c-4.79,4.61-8.39,10.12-12.54,14.88"/>
	<path class="obesity" id="obesity_mouse" d="M853.5,215.5L853.5,215.5C853.5,215.5,853.5,215.5,853.5,215.5C853.5,215.5,853.5,215.5,853.5,215.5
		C853.5,215.5,853.5,215.5,853.5,215.5C853.5,215.5,853.5,215.5,853.5,215.5C853.5,215.5,853.5,215.5,853.5,215.5
		C853.5,215.5,853.5,215.5,853.5,215.5C853.5,215.5,853.5,215.5,853.5,215.5C853.5,215.5,853.5,215.5,853.5,215.5
		C853.5,215.5,853.5,215.5,853.5,215.5C853.5,215.5,853.5,215.5,853.5,215.5c-2.57-7.25-5.41-14.03-8.49-20.37
		c-31.1-85.3-107.79-91.39-197.78-61.74C522.95,174.33,472.22,268.09,435.23,439c-2.19,10.12-4.96,20.34-7.45,30.83
		c-0.06,0.1-0.12,0.21-0.18,0.31l0.02-0.01c0,0.01-0.01,0.02-0.01,0.02c0,0,0,0,0,0.01l0,0c0,0,0,0,0,0l0.02-0.01
		c0,0.01-0.01,0.02-0.01,0.02c0,0,0,0,0,0.01l0,0c0,0,0,0,0,0l0.01-0.01c0,0.01-0.01,0.02-0.01,0.02c0,0,0,0,0,0.01l0,0c0,0,0,0,0,0
		l0.01-0.01c0,0.01-0.01,0.02-0.01,0.02c0,0,0,0,0,0l0,0c0,0,0,0,0,0l0.01-0.01c0,0.01-0.01,0.02-0.01,0.02c0,0,0,0,0,0l0,0
		c0,0,0,0,0,0l0.01-0.01c0,0.01-0.01,0.02-0.01,0.02c0,0,0,0,0,0l0,0c0,0,0,0,0,0l0.01-0.01c0,0.01-0.01,0.02-0.01,0.02c0,0,0,0,0,0
		l0,0c0,0,0,0,0,0l0.01-0.01c0,0.01-0.01,0.02-0.01,0.02c0,0,0,0,0,0l0,0c0,0,0,0,0,0l0.01-0.01c0,0.01-0.01,0.01-0.01,0.02
		c0,0,0,0,0,0l0,0c0,0,0,0,0,0l0.01-0.01c0,0.01-0.01,0.01-0.01,0.02c0,0,0,0,0,0l0,0c0,0,0,0,0,0l0.01-0.01
		c0,0.01-0.01,0.01-0.01,0.02c0,0,0,0,0,0l0,0c0,0,0,0,0,0l0.01-0.01c0,0.01-0.01,0.01-0.01,0.02c0,0,0,0,0,0l0,0c0,0,0,0,0,0.01
		l0.01-0.01c0,0.01-0.01,0.01-0.01,0.02c0,0,0,0,0,0l0,0c0,0,0,0,0,0.01l0.01-0.01c0,0.01-0.01,0.01-0.01,0.02c0,0,0,0,0,0l0,0
		c0,0,0,0,0,0.01l0.01-0.01c0,0.01-0.01,0.01-0.01,0.02c0,0,0,0,0,0l0,0c0,0,0,0,0,0.01l0.01-0.01c0,0.01-0.01,0.01-0.01,0.02
		c0,0,0,0,0,0l0,0c0,0,0,0,0,0.01l0.01,0c0,0.01,0,0.01-0.01,0.02c0,0,0,0,0,0l0,0c0,0,0,0,0,0.01l0.01,0c0,0.01,0,0.01-0.01,0.02
		l0,0c0,0,0,0,0,0c0,0,0,0,0,0.01l0.01,0c0,0.01,0,0.01-0.01,0.02l0,0c0,0,0,0,0,0c0,0,0,0,0,0.01l0.01,0c0,0.01,0,0.01-0.01,0.02
		l0,0c0,0,0,0,0,0c0,0,0,0.01,0,0.01l0.01,0c0,0.01,0,0.01-0.01,0.02l0,0c0,0,0,0,0,0c0,0,0,0.01,0,0.01l0.01,0
		c0,0.01,0,0.01-0.01,0.02l0,0c0,0,0,0,0,0c0,0,0,0.01,0,0.01l0.01,0c0,0.01,0,0.01,0,0.02l0,0c0,0,0,0,0,0c0,0,0,0.01,0,0.01
		l0.01,0c0,0.01,0,0.01,0,0.02l0,0c0,0,0,0,0,0c0,0,0,0.01,0,0.01l0.01,0c0,0.01,0,0.01,0,0.02l0,0c0,0,0,0,0,0c0,0,0,0.01,0,0.01
		l0.01,0c0,0,0,0.01,0,0.01l0,0c0,0,0,0,0,0c0,0,0,0.01,0,0.01l0,0c0,0,0,0.01,0,0.01l0,0c0,0,0,0,0,0c0,0,0,0.01,0,0.01l0,0
		c0,0,0,0.01,0,0.01l0,0c0,0,0,0,0,0c0,0,0,0.01,0,0.01l0,0c0,0,0,0.01,0,0.01l0,0c0,0,0,0,0,0c0,0,0,0.01,0,0.01l0,0
		c0,0,0,0.01,0,0.01l0,0c0,0,0,0,0,0c0,0,0,0.01,0,0.01l0.01,0c2.59,2.94,5.32,5.13,8.23,6.69c29.8,64.6,116.21-88.94,221.15-135.39
		c36.14-16,65.26-21.2,89.74-27.33c44.11-11.13,73.83-21.68,98.92-90.98C848.26,221.09,850.9,218.33,853.5,215.5
		C853.5,215.5,853.5,215.5,853.5,215.5z"/>
</g>
<g id="food_solid">
	<g>
		<path class="food" d="M-1.98,561.02c21.33,15.55,44.08,30.86,68.89,44.14c53.09,28.42,117.01,44.41,176.57,33.36
			c16.46-3.06,32.49-8.17,47.75-15.62c53.15-25.77,88.31-73.86,118.58-123.56c6.21-9.97,12.1-19.8,17.8-29.15"/>
		<path class="food" d="M-1.91,561.16c20.69,13.71,43.23,28.35,68.2,41.46c52.62,27.62,116.26,43.85,176.45,32.75
			c16.47-3.05,32.47-8.16,47.72-15.47c53.89-25.86,89.42-73.76,119.43-122.13c6.32-9.75,12.17-19.09,17.71-27.54"/>
		<path class="food" d="M-1.83,561.29c20.05,11.87,42.38,25.85,67.51,38.78c52.15,26.84,115.51,43.29,176.34,32.14
			c16.48-3.03,32.46-8.12,47.69-15.33c54.66-25.88,90.54-73.66,120.28-120.7c6.43-9.52,12.24-18.39,17.62-25.92"/>
		<path class="food" d="M-1.76,561.43c19.42,10.03,41.53,23.35,66.82,36.1c51.67,26.06,114.76,42.74,176.23,31.53
			c16.49-3.02,32.44-8.08,47.66-15.18c55.43-25.89,91.66-73.57,121.12-119.27c6.54-9.3,12.32-17.69,17.52-24.3"/>
		<path class="food" d="M-1.68,561.56c18.78,8.18,40.68,20.85,66.14,33.43c51.18,25.29,114.01,42.18,176.11,30.92
			c16.5-3.01,32.43-8.04,47.63-15.04c56.2-25.91,92.78-73.47,121.97-117.84c6.65-9.08,12.39-16.98,17.43-22.69"/>
		<path class="food" d="M-1.61,561.7c18.15,6.34,39.83,18.35,65.45,30.75c50.69,24.53,113.25,41.62,176,30.31
			c16.5-3,32.42-7.99,47.6-14.9c56.98-25.91,93.9-73.38,122.82-116.41c6.76-8.85,12.46-16.28,17.34-21.07"/>
		<path class="food" d="M-1.53,561.83c17.51,4.5,38.97,15.85,64.76,28.07c50.19,23.77,112.5,41.06,175.88,29.7
			c16.51-2.99,32.41-7.95,47.57-14.75c57.76-25.92,95.02-73.28,123.66-114.98c6.87-8.63,12.53-15.58,17.24-19.45"/>
		<path class="food" d="M-1.46,561.97c16.88,2.65,38.11,13.36,64.08,25.39c49.69,23.03,111.75,40.5,175.77,29.09
			c16.52-2.97,32.4-7.91,47.54-14.61c58.54-25.92,96.13-73.18,124.51-113.55c6.98-8.41,12.6-14.87,17.15-17.84"/>
		<path class="food" d="M-1.38,562.11c16.24,0.81,37.25,10.87,63.39,22.71c49.18,22.29,111,39.95,175.65,28.48
			c16.53-2.96,32.4-7.86,47.51-14.46c59.32-25.92,97.25-73.09,125.36-112.11c7.09-8.19,12.67-14.17,17.06-16.22"/>
		<path class="food" d="M-1.23,562.38c14.97-2.88,35.52,5.9,62.02,17.36c48.15,20.83,109.49,38.83,175.42,27.26
			c16.55-2.94,32.38-7.76,47.45-14.18c60.89-25.91,99.49-72.89,127.05-109.25c7.31-7.74,12.81-12.76,16.87-12.99"/>
		<path class="food" d="M-1.16,562.51c14.33-4.72,34.66,3.42,61.33,14.68c47.63,20.12,108.74,38.27,175.31,26.65
			c16.55-2.92,32.37-7.71,47.42-14.03c61.67-25.9,100.61-72.8,127.89-107.82c7.42-7.52,12.88-12.06,16.78-11.37"/>
		<path class="food" d="M-1.08,562.65c13.7-6.56,33.79,0.94,60.64,12c47.11,19.41,107.99,37.72,175.19,26.04
			c16.56-2.91,32.37-7.66,47.39-13.89c62.46-25.88,101.73-72.7,128.74-106.39c7.53-7.29,12.96-11.36,16.68-9.75"/>
		<path class="food" d="M-1,562.78c13.06-8.41,32.92-1.54,59.96,9.33c46.58,18.71,107.24,37.16,175.08,25.43
			c16.57-2.9,32.36-7.61,47.36-13.74c63.25-25.86,102.84-72.61,129.59-104.96c7.64-7.07,13.03-10.65,16.59-8.13"/>
		<path class="food" d="M-0.93,562.92c12.42-10.25,32.04-4.01,59.27,6.65c46.04,18.02,106.49,36.6,174.96,24.82
			c16.58-2.89,32.36-7.56,47.33-13.6c64.05-25.83,103.96-72.51,130.43-103.53c7.75-6.85,13.1-9.95,16.5-6.52"/>
		<path class="food" d="M-0.85,563.06c11.79-12.09,31.17-6.47,58.58,3.97c45.5,17.33,105.74,36.04,174.85,24.21
			c16.59-2.87,32.35-7.51,47.3-13.46c64.84-25.81,105.08-72.41,131.28-102.1c7.86-6.62,13.17-9.25,16.4-4.9"/>
		<path class="food" d="M-0.78,563.19c11.15-13.94,30.29-8.94,57.9,1.29c44.96,16.66,104.98,35.49,174.73,23.6
			c16.6-2.86,32.35-7.45,47.27-13.31c65.64-25.77,106.2-72.32,132.13-100.67c7.97-6.4,13.24-8.54,16.31-3.28"/>
		<path class="food" d="M-0.7,563.33c10.52-15.78,29.41-11.39,57.21-1.39c44.42,15.99,104.23,34.93,174.62,22.99
			c16.6-2.85,32.34-7.4,47.24-13.17c66.43-25.74,107.32-72.22,132.97-99.23c8.08-6.18,13.31-7.84,16.22-1.67"/>
		<path class="food" d="M-0.63,563.46c9.88-17.62,28.53-13.85,56.52-4.06c43.87,15.33,103.48,34.37,174.5,22.38
			c16.61-2.84,32.34-7.34,47.21-13.02c67.23-25.7,108.43-72.13,133.82-97.8c8.19-5.96,13.38-7.14,16.12-0.05"/>
		<path class="food" d="M427.54,470.98c-2.13,12.3-4.35,26.53-7.31,41.76c-14,60.98-38.79,134.84-110.08,171.82
			c-20.16,10.41-43.37,17.66-69.94,21.19c-83.95,11.17-153.16-10.68-196.22-56.71c-21.28-22.9-36.27-51.66-44.46-85.32"/>
		<path class="food" d="M427.55,470.9c-2.49,12.11-5.06,25.97-8.32,40.72c-15.57,60.03-41.32,131.45-110.81,167.36
			c-19.97,10.27-42.8,17.36-68.72,20.82c-81.32,10.85-149.68-10.4-193.48-54.69c-21.6-22-37.35-49.54-46.85-81.65"/>
		<path class="food" d="M427.55,470.86c-2.67,12.01-5.41,25.68-8.83,40.19c-16.36,59.56-42.59,129.75-111.17,165.13
			c-19.87,10.2-42.51,17.21-68.11,20.63c-80,10.69-147.94-10.27-192.1-53.68C25.58,621.6,9.45,594.66-0.7,563.33"/>
		<path class="food" d="M427.55,470.82c-2.84,11.92-5.77,25.4-9.33,39.67c-17.15,59.09-43.86,128.05-111.54,162.9
			c-19.78,10.13-42.23,17.06-67.49,20.45c-78.69,10.52-146.2-10.13-190.73-52.67c-21.92-21.1-38.43-47.43-49.24-77.98"/>
		<path class="food" d="M427.56,470.78c-3.02,11.82-6.12,25.12-9.83,39.15c-17.94,58.61-45.12,126.35-111.9,160.67
			c-19.68,10.06-41.94,16.91-66.88,20.26c-77.37,10.36-144.46-9.99-189.35-51.65c-22.08-20.65-38.97-46.37-50.44-76.15"/>
		<path class="food" d="M427.56,470.74c-3.2,11.72-6.48,24.83-10.34,38.62c-18.73,58.14-46.39,124.65-112.27,158.44
			c-19.58,9.99-41.66,16.77-66.27,20.07c-76.06,10.2-142.72-9.86-187.98-50.64c-22.24-20.2-39.51-45.31-51.64-74.32"/>
		<path class="food" d="M427.56,470.7c-3.38,11.63-6.83,24.55-10.84,38.1c-19.52,57.67-47.65,122.96-112.63,156.21
			c-19.49,9.92-41.37,16.62-65.66,19.89c-74.74,10.04-140.98-9.72-186.61-49.63C29.42,615.52,11.78,591.02-1,562.78"/>
		<path class="food" d="M427.57,470.66c-3.55,11.53-7.19,24.26-11.35,37.58c-20.3,57.19-48.92,121.26-113,153.98
			c-19.39,9.85-41.09,16.47-65.05,19.7c-73.42,9.88-139.24-9.58-185.23-48.62C30.38,614,12.36,590.11-1.08,562.65"/>
		<path class="food" d="M427.57,470.62c-3.73,11.43-7.54,23.98-11.85,37.05c-21.09,56.72-50.19,119.56-113.36,151.75
			c-19.3,9.78-40.8,16.32-64.43,19.51c-72.11,9.72-137.5-9.44-183.86-47.61c-22.73-18.85-41.13-42.13-55.22-68.82"/>
		<path class="food" d="M427.57,470.58c-3.91,11.34-7.89,23.7-12.35,36.53c-21.88,56.25-51.45,117.86-113.73,149.52
			c-19.2,9.71-40.52,16.17-63.82,19.33c-70.79,9.56-135.76-9.31-182.48-46.6c-22.89-18.4-41.67-41.07-56.42-66.98"/>
		<path class="food" d="M427.58,470.5c-4.27,11.14-8.6,23.13-13.36,35.48c-23.46,55.3-53.99,114.47-114.46,145.06
			c-19.01,9.57-39.94,15.88-62.6,18.95c-68.16,9.24-132.28-9.03-179.74-44.58c-23.21-17.5-42.75-38.95-58.81-63.32"/>
		<path class="food" d="M427.58,470.46c-4.44,11.04-8.96,22.85-13.87,34.96c-24.24,54.83-55.25,112.77-114.82,142.83
			c-18.92,9.5-39.66,15.73-61.99,18.77c-66.84,9.08-130.55-8.89-178.36-43.57c-23.37-17.05-43.29-37.89-60.01-61.48"/>
		<path class="food" d="M427.59,470.42c-4.62,10.95-9.31,22.56-14.37,34.43c-25.03,54.35-56.52,111.07-115.19,140.6
			c-18.82,9.43-39.37,15.58-61.37,18.58c-65.53,8.92-128.81-8.76-176.99-42.56c-23.53-16.6-43.83-36.83-61.2-59.65"/>
		<path class="food" d="M427.59,470.38c-4.8,10.85-9.67,22.28-14.87,33.91c-25.82,53.88-57.78,109.37-115.55,138.37
			c-18.72,9.37-39.09,15.43-60.76,18.39c-64.21,8.76-127.07-8.62-175.61-41.55c-23.69-16.15-44.37-35.77-62.4-57.82"/>
		<path class="food" d="M427.59,470.34c-4.98,10.75-10.02,22-15.38,33.39c-26.61,53.41-59.05,107.67-115.92,136.14
			c-18.63,9.3-38.8,15.28-60.15,18.21c-62.89,8.6-125.33-8.48-174.24-40.54C38.06,601.85,17,582.83-1.68,561.56"/>
		<path class="food" d="M427.6,470.3c-5.15,10.66-10.38,21.71-15.88,32.86c-27.4,52.93-60.32,105.98-116.28,133.91
			c-18.53,9.23-38.52,15.14-59.54,18.02c-61.58,8.44-123.59-8.35-172.87-39.52c-24.01-15.25-45.45-33.66-64.79-54.15"/>
		<path class="food" d="M427.6,470.26c-5.33,10.56-10.73,21.43-16.38,32.34c-28.19,52.46-61.58,104.28-116.64,131.68
			c-18.44,9.16-38.23,14.99-58.93,17.83c-60.26,8.28-121.85-8.21-171.49-38.51c-24.17-14.8-45.99-32.6-65.98-52.32"/>
		<path class="food" d="M427.6,470.22c-5.51,10.46-11.09,21.15-16.89,31.82c-28.97,51.99-62.85,102.58-117.01,129.45
			c-18.34,9.09-37.95,14.84-58.31,17.65c-58.95,8.12-120.11-8.07-170.12-37.5c-24.33-14.35-46.53-31.54-67.18-50.48"/>
		<path class="food" d="M427.61,470.19c-5.69,10.37-11.44,20.86-17.39,31.29c-29.76,51.51-64.11,100.88-117.37,127.22
			c-18.25,9.02-37.66,14.69-57.7,17.46c-57.63,7.96-118.37-7.93-168.74-36.49c-24.49-13.9-47.07-30.48-68.38-48.65"/>
		<path class="food" id="food_mouse" d="M411.52,469.38c-25.11,24.34-66.63,70.72-134.66,96.37c-14.85,5.6-30.56,10.06-47.18,12.88
			c-71.66,12.04-131.07-7.09-174.39-21.77c-28.19-9.55-46.59-12.72-55.83,6.74l0.08,0.14c8.19,33.65,23.18,62.42,44.46,85.32
			c43.06,46.03,112.27,67.88,196.22,56.71c26.57-3.54,49.78-10.78,69.94-21.19c71.29-36.98,96.08-110.84,110.08-171.82
			c2.97-15.23,5.18-29.46,7.31-41.76l0-0.04C424.97,462.94,419.82,463.64,411.52,469.38z"/>
	</g>
</g>
<g id="food_dotted">
	<path class="food" d="M427.61,470.15c-5.87,10.27-11.8,20.58-17.9,30.77c-30.55,51.04-65.38,99.18-117.74,124.99
		c-70,34.5-155.95,19.17-224.46-18.21c-24.65-13.45-47.61-29.42-69.57-46.82"/>
	<path class="food" d="M-1.31,562.24c15.6-1.03,36.39,8.38,62.7,20.04c48.67,21.55,110.25,39.39,175.54,27.87
		c16.54-2.95,32.39-7.81,47.48-14.32c60.1-25.92,98.37-72.99,126.2-110.68c7.2-7.96,12.74-13.47,16.96-14.6"/>
	<path class="food" d="M-0.55,563.6c9.25-19.46,27.65-16.29,55.84-6.74c43.32,14.68,102.73,33.81,174.39,21.77
		c16.62-2.83,32.34-7.28,47.18-12.88c68.03-25.65,109.55-72.03,134.66-96.37c8.3-5.73,13.45-6.43,16.03,1.57"/>
	<path class="food" d="M427.55,470.94c-2.31,12.21-4.7,26.25-7.82,41.24c-14.79,60.51-40.06,133.14-110.44,169.59
		c-20.06,10.34-43.09,17.51-69.33,21.01c-82.64,11.01-151.42-10.54-194.85-55.7c-21.44-22.45-36.81-50.6-45.66-83.48"/>
	<path class="food" d="M427.58,470.54c-4.09,11.24-8.25,23.41-12.86,36.01C392.05,562.32,362,622.71,300.63,653.84
		c-19.11,9.64-40.23,16.03-63.21,19.14c-69.47,9.4-134.02-9.17-181.11-45.59c-23.05-17.95-42.21-40.01-57.61-65.15"/>
</g>
<g id="america_solid">
	<g>
		<path class="america" d="M-0.48,563.74c8.61-21.31,26.76-18.73,55.15-9.42c42.77,14.04,101.98,33.25,174.27,21.16
			c16.63-2.81,32.33-7.23,47.15-12.74c68.84-25.6,110.67-71.93,135.51-94.94c8.41-5.51,13.52-5.73,15.94,3.18"/>
		<path class="america" d="M-0.4,563.87c7.97-23.15,25.88-21.17,54.46-12.1c42.21,13.4,101.22,32.7,174.16,20.55
			c16.64-2.8,32.33-7.17,47.12-12.59c69.64-25.55,111.79-71.84,136.36-93.51c8.52-5.29,13.59-5.03,15.84,4.8"/>
		<path class="america" d="M-0.33,564.01c7.34-24.99,24.99-23.6,53.77-14.78C95.1,562,153.92,581.37,227.49,569.17
			c16.65-2.79,32.33-7.11,47.09-12.45c70.45-25.49,112.91-71.74,137.2-92.08c8.63-5.06,13.67-4.32,15.75,6.42"/>
		<path class="america" d="M-0.25,564.14c6.7-26.84,24.1-26.03,53.09-17.45c41.1,12.15,99.72,31.58,173.93,19.33
			c16.65-2.78,32.32-7.05,47.06-12.3c71.25-25.42,114.03-71.65,138.05-90.65c8.74-4.84,13.74-3.62,15.66,8.03"/>
		<path class="america" d="M-0.18,564.28c6.07-28.68,23.21-28.44,52.4-20.13c40.54,11.54,98.97,31.02,173.81,18.72
			c16.66-2.76,32.32-6.98,47.03-12.16c72.06-25.35,115.14-71.55,138.9-89.22c8.85-4.62,13.81-2.91,15.56,9.65"/>
		<path class="america" d="M-0.1,564.41c5.43-30.52,22.32-30.85,51.71-22.81c39.97,10.94,98.22,30.47,173.7,18.11
			c16.67-2.75,32.32-6.92,47-12.02c72.87-25.28,116.26-71.45,139.74-87.79c8.96-4.4,13.88-2.21,15.47,11.27"/>
		<path class="america" d="M-0.03,564.55C4.77,532.18,21.4,531.3,51,539.06c39.41,10.34,97.46,29.91,173.58,17.5
			c16.68-2.74,32.32-6.86,46.97-11.87c73.68-25.2,117.38-71.36,140.59-86.36c9.07-4.17,13.95-1.51,15.37,12.89"/>
		<path class="america" d="M0.05,564.69c4.16-34.21,20.53-35.65,50.34-28.16c38.85,9.75,96.71,29.35,173.47,16.89
			c16.69-2.73,32.32-6.8,46.94-11.73c74.49-25.12,118.5-71.26,141.43-84.92c9.18-3.95,14.02-0.8,15.28,14.5"/>
		<path class="america" d="M0.12,564.82c3.52-36.05,19.64-38.03,49.65-30.84c38.29,9.17,95.96,28.79,173.35,16.28
			c16.7-2.71,32.32-6.73,46.91-11.58c75.31-25.03,119.62-71.16,142.28-83.49c9.29-3.73,14.09-0.1,15.19,16.12"/>
		<path class="america" d="M0.27,565.09c2.25-39.74,17.85-42.78,48.28-36.2c37.17,8.04,94.46,27.68,173.13,15.06
			c16.71-2.69,32.31-6.6,46.86-11.3c76.94-24.84,121.85-70.97,143.97-80.63c9.51-3.28,14.23,1.31,15,19.35"/>
		<path class="america" d="M0.35,565.23c1.62-41.58,16.95-45.13,47.59-38.88c36.61,7.48,93.71,27.12,173.01,14.45
			c16.72-2.68,32.32-6.51,46.83-11.15c77.8-24.59,122.97-70.88,144.82-79.2c9.62-3.06,14.31,2.01,14.91,20.97"/>
		<path class="america" d="M0.42,565.36c0.98-43.43,16.05-47.48,46.91-41.55c36.05,6.93,92.95,26.56,172.9,13.84
			c16.73-2.67,32.31-6.45,46.8-11.01c78.59-24.55,124.09-70.78,145.67-77.77c9.73-2.83,14.38,2.71,14.81,22.59"/>
		<path class="america" d="M427.5,471.46c0,13.47-0.09,29.94-1.27,48.04c-4.54,66.66-23.6,155.22-105.7,198.58
			c-21.3,11.25-46.8,19.43-77.29,23.44C143.5,754.61,69.21,729.2,30.54,672.68C11.19,644.39,0.75,608.31,0.42,565.36"/>
		<path class="america" d="M427.51,471.42c-0.18,13.37-0.45,29.65-1.77,47.52c-5.33,66.19-24.86,153.52-106.07,196.35
			c-21.21,11.18-46.51,19.29-76.67,23.25c-98.43,12.93-172.29-12.19-211.34-67.83C12.14,642.87,1.33,607.4,0.35,565.23"/>
		<path class="america" d="M427.51,471.34c-0.53,13.18-1.16,29.09-2.78,46.47c-6.9,65.24-27.4,150.12-106.8,191.89
			c-21.02,11.04-45.94,18.99-75.45,22.88c-95.8,12.61-168.81-11.91-208.59-65.81c-19.83-26.94-31.41-61.2-33.7-101.82"/>
		<path class="america" d="M427.52,471.3c-0.71,13.08-1.51,28.8-3.28,45.95c-7.69,64.77-28.66,148.43-107.16,189.66
			c-20.92,10.97-45.66,18.84-74.84,22.69c-94.48,12.45-167.07-11.78-207.22-64.8c-19.99-26.49-31.95-60.14-34.89-99.98"/>
		<path class="america" d="M427.52,471.26c-0.89,12.98-1.87,28.52-3.79,45.43c-8.48,64.29-29.93,146.73-107.53,187.43
			c-20.83,10.9-45.37,18.69-74.23,22.5c-93.17,12.29-165.34-11.64-205.84-63.78c-20.15-26.05-32.49-59.08-36.09-98.15"/>
		<path class="america" d="M427.52,471.22c-1.07,12.89-2.22,28.24-4.29,44.9c-9.27,63.82-31.2,145.03-107.89,185.2
			c-20.73,10.83-45.08,18.54-73.61,22.32c-91.85,12.13-163.6-11.5-204.47-62.77c-20.31-25.6-33.03-58.02-37.29-96.32"/>
		<path class="america" d="M427.53,471.18c-1.24,12.79-2.58,27.95-4.79,44.38c-10.06,63.35-32.46,143.33-108.26,182.97
			c-20.64,10.76-44.8,18.4-73,22.13C150.94,732.63,79.62,709.3,38.38,658.9C17.9,633.75,4.81,601.94-0.1,564.41"/>
		<path class="america" d="M427.53,471.14c-1.42,12.69-2.93,27.67-5.3,43.86c-10.84,62.87-33.73,141.63-108.62,180.74
			c-20.54,10.69-44.51,18.25-72.39,21.94C152,729.49,81.1,706.45,39.5,656.93c-20.64-24.7-34.11-55.9-39.68-92.65"/>
		<path class="america" d="M427.53,471.1c-1.6,12.6-3.28,27.38-5.8,43.33c-11.63,62.4-34.99,139.94-108.99,178.51
			c-20.44,10.62-44.23,18.1-71.78,21.76c-87.9,11.65-158.38-11.09-200.35-59.74c-20.8-24.25-34.65-54.84-40.87-90.82"/>
		<path class="america" d="M427.54,471.06c-1.78,12.5-3.64,27.1-6.31,42.81c-12.42,61.93-36.26,138.24-109.35,176.28
			c-20.35,10.55-43.94,17.95-71.17,21.57c-86.59,11.49-156.64-10.95-198.97-58.73c-20.96-23.8-35.19-53.78-42.07-88.98"/>
		<path class="america" d="M427.54,471.02c-1.95,12.4-3.99,26.82-6.81,42.29c-13.21,61.45-37.53,136.54-109.72,174.05
			c-20.25,10.48-43.66,17.8-70.55,21.38c-85.27,11.33-154.9-10.82-197.6-57.72C21.74,627.67,7.13,598.3-0.4,563.87"/>
		<path class="america" id="america_mouse_1" d="M55.28,556.86c43.32,14.68,102.73,33.81,174.39,21.77c16.62-2.83,32.34-7.28,47.18-12.88
			c68.03-25.65,109.55-72.03,134.66-96.37c8.24-5.69,13.37-6.41,15.97,1.4c-0.53-19.31-5.18-24.7-14.79-21.9
			c-21.58,6.99-67.07,53.21-145.67,77.77c-14.48,4.55-30.07,8.34-46.8,11.01c-79.94,12.72-136.85-6.91-172.9-13.84
			c-29.9-5.75-44.98-2.11-46.78,37.66C10.12,544.4,28.18,547.67,55.28,556.86z"/>
		<path class="america" id="america_mouse_2" d="M420.23,512.74c-14,60.98-38.79,134.84-110.08,171.82c-20.16,10.41-43.37,17.66-69.94,21.19
			c-83.95,11.17-153.16-10.68-196.22-56.71c-20.51-22.07-35.16-49.61-43.53-81.71c0.62,42.07,11.03,77.48,30.08,105.34
			c38.68,56.51,112.96,81.93,212.71,68.84c30.49-4,55.98-12.19,77.29-23.44c82.11-43.36,101.17-131.92,105.7-198.58
			c1.17-18.11,1.27-34.58,1.27-48.04c0-0.07,0-0.14-0.01-0.21C425.38,483.49,423.17,497.62,420.23,512.74z"/>
	</g>
</g>
<g id="america_dotted">
	<path class="america" d="M0.2,564.96c2.89-37.9,18.74-40.41,48.97-33.52c37.73,8.6,95.21,28.24,173.24,15.67
		c16.7-2.7,32.31-6.67,46.88-11.44c76.12-24.94,120.74-71.07,143.13-82.06c9.4-3.5,14.16,0.6,15.09,17.74"/>
	<path class="america" d="M427.51,471.38c-0.35,13.27-0.8,29.37-2.28,47C419.12,584.09,399.1,670.2,318.8,712.5
		c-21.11,11.11-46.23,19.14-76.06,23.06c-97.12,12.77-170.55-12.05-209.96-66.82C13.1,641.35,1.91,606.49,0.27,565.09"/>
</g>
</g>
</svg>
