<?xml version="1.0" encoding="utf-8"?>
<!-- Generator: Adobe Illustrator 25.0.1, SVG Export Plug-In . SVG Version: 6.00 Build 0)  -->
<svg version="1.1" id="Layer_1" xmlns="http://www.w3.org/2000/svg" xmlns:xlink="http://www.w3.org/1999/xlink" x="0px" y="0px"
	 viewBox="0 0 17 129" style="enable-background:new 0 0 17 129;" xml:space="preserve">
<style type="text/css">
	.st0{fill:none;stroke:#C1771E;stroke-width:0.5;stroke-miterlimit:10;}
</style>
<g>
	<path class="st0" d="M0.43,129.17c0-26.52,13.9-29.01,13.9-64.8S0.43,26.09,0.43-0.43"/>
	<path class="st0" d="M0.43,129.17c0-22.73,11.92-34.12,11.92-64.8c0-30.68-11.92-42.07-11.92-64.8"/>
	<path class="st0" d="M0.43,129.17c0-18.94,9.93-39.24,9.93-64.8S0.43,18.51,0.43-0.43"/>
	<path class="st0" d="M0.43,129.17c0-15.15,7.95-44.35,7.95-64.8c0-20.45-7.95-49.65-7.95-64.8"/>
	<path class="st0" d="M0.43,129.17c0-11.36,5.96-49.46,5.96-64.8S0.43,10.94,0.43-0.43"/>
	<path class="st0" d="M0.43,129.17c0-7.58,3.97-54.57,3.97-64.8c0-10.23-3.97-57.22-3.97-64.8"/>
	<path class="st0" d="M0.43,129.17c0-3.79,1.99-59.69,1.99-64.8c0-5.11-1.99-61.01-1.99-64.8"/>
	<line class="st0" x1="0.43" y1="129.17" x2="0.43" y2="-0.43"/>
</g>
</svg>
