<?xml version="1.0" encoding="utf-8"?>
<!-- Generator: Adobe Illustrator 25.0.1, SVG Export Plug-In . SVG Version: 6.00 Build 0)  -->
<svg version="1.1" id="Layer_1" xmlns="http://www.w3.org/2000/svg" xmlns:xlink="http://www.w3.org/1999/xlink" x="0px" y="0px"
	 viewBox="0 0 15 129" style="enable-background:new 0 0 15 129;" xml:space="preserve">
<style type="text/css">
	.st0{fill:none;stroke:#61544A;stroke-width:0.5;stroke-miterlimit:10;}
</style>
<g>
	<g>
		<path class="st0" d="M0.43,129.17c0-26.52,11.59-29.01,11.59-64.8S0.43,26.09,0.43-0.43"/>
		<path class="st0" d="M0.43,129.17c0-21.21,9.27-36.17,9.27-64.8S0.43,20.79,0.43-0.43"/>
		<path class="st0" d="M0.43,129.17c0-15.91,6.95-43.33,6.95-64.8S0.43,15.48,0.43-0.43"/>
		<path class="st0" d="M0.43,129.17c0-10.61,4.63-50.48,4.63-64.8S0.43,10.18,0.43-0.43"/>
		<path class="st0" d="M0.43,129.17c0-5.3,2.32-57.64,2.32-64.8c0-7.16-2.32-59.5-2.32-64.8"/>
		<line class="st0" x1="0.43" y1="129.17" x2="0.43" y2="-0.43"/>
	</g>
</g>
</svg>
