<?xml version="1.0" encoding="utf-8"?>
<!-- Generator: Adobe Illustrator 25.0.1, SVG Export Plug-In . SVG Version: 6.00 Build 0)  -->
<svg version="1.1" id="Layer_1" xmlns="http://www.w3.org/2000/svg" xmlns:xlink="http://www.w3.org/1999/xlink" x="0px" y="0px"
	 viewBox="0 0 24 129" style="enable-background:new 0 0 24 129;" xml:space="preserve">
<style type="text/css">
	.st0{fill:none;stroke:#61544A;stroke-width:0.5;stroke-miterlimit:10;}
</style>
<g>
	<g>
		<path class="st0" d="M0.43,129.17c0-26.52,21.7-29.01,21.7-64.8c0-35.79-21.7-38.28-21.7-64.8"/>
		<path class="st0" d="M0.43,129.17c0-23.2,18.99-33.49,18.99-64.8S0.43,22.78,0.43-0.43"/>
		<path class="st0" d="M0.43,129.17c0-19.89,16.28-37.96,16.28-64.8c0-26.84-16.28-44.91-16.28-64.8"/>
		<path class="st0" d="M0.43,129.17c0-16.57,13.56-42.43,13.56-64.8c0-22.37-13.56-48.23-13.56-64.8"/>
		<path class="st0" d="M0.43,129.17c0-13.26,10.85-46.91,10.85-64.8c0-17.89-10.85-51.54-10.85-64.8"/>
		<path class="st0" d="M0.43,129.17c0-9.94,8.14-51.38,8.14-64.8c0-13.42-8.14-54.86-8.14-64.8"/>
		<path class="st0" d="M0.43,129.17c0-6.63,5.43-55.85,5.43-64.8c0-8.95-5.43-58.17-5.43-64.8"/>
		<path class="st0" d="M0.43,129.17c0-3.31,2.71-60.33,2.71-64.8c0-4.47-2.71-61.48-2.71-64.8"/>
		<line class="st0" x1="0.43" y1="129.17" x2="0.43" y2="-0.43"/>
	</g>
</g>
</svg>
