<?xml version="1.0" encoding="utf-8"?>
<!-- Generator: Adobe Illustrator 25.0.1, SVG Export Plug-In . SVG Version: 6.00 Build 0)  -->
<svg version="1.1" id="Layer_1" xmlns="http://www.w3.org/2000/svg" xmlns:xlink="http://www.w3.org/1999/xlink" x="0px" y="0px"
	 viewBox="0 0 11 129" style="enable-background:new 0 0 11 129;" xml:space="preserve">
<style type="text/css">
	.st0{fill:none;stroke:#A94044;stroke-width:0.5;stroke-miterlimit:10;}
</style>
<g>
	<g>
		<path class="st0" d="M0.43,129.17c0-26.52,8.17-29.01,8.17-64.8c0-35.79-8.17-38.28-8.17-64.8"/>
		<path class="st0" d="M0.43,129.17c0-19.89,6.12-37.96,6.12-64.8c0-26.84-6.12-44.91-6.12-64.8"/>
		<path class="st0" d="M0.43,129.17c0-13.26,4.08-46.91,4.08-64.8c0-17.89-4.08-51.54-4.08-64.8"/>
		<path class="st0" d="M0.43,129.17c0-6.63,2.04-55.85,2.04-64.8S0.43,6.2,0.43-0.43"/>
		<line class="st0" x1="0.43" y1="129.17" x2="0.43" y2="-0.43"/>
	</g>
</g>
</svg>
