<?xml version="1.0" encoding="utf-8"?>
<!-- Generator: Adobe Illustrator 25.0.1, SVG Export Plug-In . SVG Version: 6.00 Build 0)  -->
<svg version="1.1" id="Layer_1" xmlns="http://www.w3.org/2000/svg" xmlns:xlink="http://www.w3.org/1999/xlink" x="0px" y="0px"
	 viewBox="0 0 18 129" style="enable-background:new 0 0 18 129;" xml:space="preserve">
<style type="text/css">
	.st0{fill:none;stroke:#9C8CA8;stroke-width:0.5;stroke-miterlimit:10;}
</style>
<g>
	<path class="st0" d="M0.43,129.17c0-26.52,16.22-29.01,16.22-64.8c0-35.79-16.22-38.28-16.22-64.8"/>
	<path class="st0" d="M0.43,129.17c0-22.73,13.9-34.12,13.9-64.8S0.43,22.3,0.43-0.43"/>
	<path class="st0" d="M0.43,129.17c0-18.94,11.59-39.24,11.59-64.8S0.43,18.51,0.43-0.43"/>
	<path class="st0" d="M0.43,129.17c0-15.15,9.27-44.35,9.27-64.8c0-20.45-9.27-49.65-9.27-64.8"/>
	<path class="st0" d="M0.43,129.17c0-11.36,6.95-49.46,6.95-64.8S0.43,10.94,0.43-0.43"/>
	<path class="st0" d="M0.43,129.17c0-7.58,4.63-54.57,4.63-64.8S0.43,7.15,0.43-0.43"/>
	<path class="st0" d="M0.43,129.17c0-3.79,2.32-59.69,2.32-64.8S0.43,3.36,0.43-0.43"/>
	<line class="st0" x1="0.43" y1="129.17" x2="0.43" y2="-0.43"/>
</g>
</svg>
