<?xml version="1.0" encoding="utf-8"?>
<!-- Generator: Adobe Illustrator 25.0.1, SVG Export Plug-In . SVG Version: 6.00 Build 0)  -->
<svg version="1.1" id="Layer_1" xmlns="http://www.w3.org/2000/svg" xmlns:xlink="http://www.w3.org/1999/xlink" x="0px" y="0px"
	 viewBox="0 0 248 133" style="enable-background:new 0 0 248 133;" xml:space="preserve">
<style type="text/css">
	.st0{fill:none;stroke:#61544A;stroke-width:0.75;stroke-miterlimit:10;stroke-dasharray:1,2;}
	.st1{fill:none;stroke:#61544A;stroke-width:0.75;stroke-miterlimit:10;}
	.st2{fill:none;stroke:#9C8CA8;stroke-width:0.75;stroke-miterlimit:10;}
	.st3{fill:none;stroke:#4D6B40;stroke-width:0.75;stroke-miterlimit:10;}
	.st4{fill:none;stroke:#4D6B40;stroke-width:0.75;stroke-miterlimit:10;stroke-dasharray:1,2;}
	.st5{fill:none;stroke:#C1771E;stroke-width:0.75;stroke-miterlimit:10;}
	.st6{fill:none;stroke:#C1771E;stroke-width:0.75;stroke-miterlimit:10;stroke-dasharray:1,2;}
	.st7{fill:none;stroke:#A94044;stroke-width:0.75;stroke-miterlimit:10;}
	.st8{fill:none;stroke:#A94044;stroke-width:0.75;stroke-miterlimit:10;stroke-dasharray:1,2;}
	.st9{fill:none;stroke:#A94044;stroke-width:0.75;stroke-miterlimit:10;stroke-dasharray:0.9972,1.9945;}
	.st10{fill:none;stroke:#29415E;stroke-width:0.75;stroke-miterlimit:10;}
</style>
<path class="st0" d="M245.66,35.49c-3.4-10.32-9.65-17.59-16.88-22.8c-27.87-20.07-81.08-4.76-120.35,25.38
	C66.31,70.38,29.98,79.56,9.31,115.2c-2.75,4.73-5.35,9.76-7.52,15.42"/>
<path class="st1" d="M245.66,35.49c-3.61-9.83-9.86-16.71-17.15-21.58c-28.07-18.74-80.57-3.26-119.67,26.42
	C67.06,72.05,30.88,81.38,9.62,115.74c-2.83,4.58-5.54,9.42-7.82,14.87"/>
<path class="st1" d="M245.66,35.49c-3.82-9.33-10.07-15.83-17.43-20.36c-28.26-17.41-80.06-1.76-118.98,27.47
	C67.82,73.71,31.77,83.2,9.93,116.28C7,120.71,4.19,125.36,1.8,130.6"/>
<path class="st1" d="M245.66,35.49c-4.03-8.84-10.28-14.95-17.7-19.14c-28.45-16.08-79.55-0.27-118.29,28.51
	c-41.09,30.52-77.01,40.15-99.43,71.96c-3.02,4.28-5.93,8.74-8.43,13.77"/>
<path class="st1" d="M245.66,35.49c-4.25-8.34-10.49-14.07-17.97-17.92c-28.63-14.75-79.03,1.23-117.6,29.56
	c-40.75,29.92-76.54,39.7-99.54,70.24c-3.11,4.13-6.12,8.4-8.73,13.22"/>
<path class="st1" d="M245.66,35.49c-4.46-7.85-10.7-13.19-18.24-16.7C198.6,5.36,148.9,21.52,110.5,49.39
	C70.1,78.72,34.43,88.64,10.86,117.92c-3.2,3.97-6.31,8.06-9.03,12.67"/>
<path class="st1" d="M245.66,35.49c-4.67-7.36-10.91-12.31-18.52-15.48c-29-12.11-78.01,4.23-116.23,31.65
	c-40.06,28.74-75.62,38.8-99.75,66.8c-3.29,3.82-6.5,7.72-9.34,12.12"/>
<path class="st1" d="M245.66,35.49c-4.88-6.86-11.12-11.43-18.79-14.26c-29.19-10.79-77.5,5.73-115.54,32.69
	C71.61,82.06,36.17,92.26,11.48,119c-3.39,3.67-6.7,7.38-9.64,11.57"/>
<path class="st1" d="M245.66,35.49c-5.1-6.37-11.33-10.55-19.06-13.04c-29.37-9.47-76.98,7.23-114.86,33.74
	c-39.37,27.55-74.71,37.87-99.96,63.36c-3.48,3.51-6.89,7.04-9.94,11.02"/>
<path class="st1" d="M245.66,35.49c-5.31-5.87-11.54-9.67-19.33-11.82c-29.55-8.15-76.47,8.74-114.17,34.78
	C73.14,85.41,37.89,95.86,12.09,120.09c-3.57,3.36-7.08,6.7-10.25,10.47"/>
</svg>
