<?xml version="1.0" encoding="utf-8"?>
<!-- Generator: Adobe Illustrator 25.0.1, SVG Export Plug-In . SVG Version: 6.00 Build 0)  -->
<svg version="1.1" xmlns="http://www.w3.org/2000/svg" xmlns:xlink="http://www.w3.org/1999/xlink" x="0px" y="0px"
	 viewBox="0 0 1280 886" style="enable-background:new 0 0 1280 886;" xml:space="preserve">
<style type="text/css">
	.st0{fill:none;stroke:#9C8CA8;stroke-width:0.75;stroke-miterlimit:10;}
	.science{fill:none;stroke:#29415E;stroke-width:0.75;stroke-miterlimit:10;}
	.st2{fill:none;stroke:#C1771E;stroke-width:0.75;stroke-miterlimit:10;}
	.st3{fill:none;stroke:#C1771E;stroke-width:0.75;stroke-miterlimit:10;stroke-dasharray:1,2;}
	.food{fill:none;stroke:#61544A;stroke-width:0.75;stroke-miterlimit:10;}
	.food{fill:none;stroke:#61544A;stroke-width:0.75;stroke-miterlimit:10;stroke-dasharray:1,2;}
	.problems{fill:none;stroke:#4D6B40;stroke-width:0.75;stroke-miterlimit:10;}
	.obesity{fill:none;stroke:#A94044;stroke-width:0.75;stroke-miterlimit:10;}
	.obesity{fill:none;stroke:#A94044;stroke-width:0.75;stroke-miterlimit:10;stroke-dasharray:1,2;}
	.america{fill:none;stroke:#578E8A;stroke-width:0.75;stroke-miterlimit:10;}
</style>
<g id="grotesque">
	<g id="education">
		<g>
			<g>
				<path class="education" d="M1280.5,500.56c-4.13-35.81-14.11-63.94-31.07-81.82c-38.81-40.91-112.72-28.8-230.83,56.26
					c-14.72,10.6-28.7,18.84-41.76,25.82c-67.19,35.89-107.24,35.45-120,131.23c-1.16,8.67-2.47,18.07-3.3,28.36"/>
				<path class="education" d="M1280.5,500.55c-3.5-37.46-13.1-66.96-29.88-85.99c-38.35-43.48-113.07-32.68-233.29,54.58
					c-14.87,10.79-28.92,19.21-42.05,26.27c-67.85,36.8-108.31,36.04-119.15,135.55c-0.98,9-2.01,18.78-2.6,29.49"/>
				<path class="education" d="M1280.5,500.53c-2.86-39.1-12.1-69.99-28.7-90.17c-37.9-46.06-113.56-36.74-235.75,52.89
					c-15.03,10.95-29.15,19.54-42.34,26.72c-68.59,37.57-109.38,36.65-118.3,139.87c-0.81,9.33-1.54,19.49-1.89,30.61"/>
				<path class="education" d="M1280.5,500.52c-2.22-40.75-11.1-73.02-27.52-94.34c-37.45-48.64-113.86-40.53-238.21,51.2
					c-15.16,11.15-29.39,19.88-42.63,27.17c-69.33,38.33-110.45,37.29-117.45,144.19c-0.63,9.67-1.08,20.2-1.19,31.74"/>
				<path class="education" d="M853.51,660.48c0.38,12.35,1.61,24.29,3.67,35.73c14.36,80.8,70.04,136.25,157.55,128.81
					c36.06-3.12,77.42-16.84,123.47-43.65c79.78-46.46,122.06-77.57,136.56-167.37c4.89-30.3,6.79-67.17,5.74-113.47"/>
				<path class="education" d="M853.52,660.46c0.61,12,2.07,23.6,4.27,34.71c15.59,78.41,70.9,132.13,157.12,124.46
					c35.77-3.29,76.62-16.98,121.98-43.41c78.56-45.78,120.44-76.93,136.03-164.66c5.29-29.78,7.9-65.85,7.57-111.02"/>
				<path class="education" d="M853.53,660.44c0.83,11.65,2.51,22.91,4.88,33.69c16.73,76.03,71.77,128.19,156.69,120.11
					c35.49-3.38,75.82-17.11,120.5-43.17c77.34-45.1,118.83-76.29,135.5-161.95c5.69-29.27,9.01-64.52,9.4-108.57"/>
				<path class="education" d="M853.54,660.42c1.06,11.31,2.95,22.22,5.49,32.67c17.87,73.65,72.63,124.13,156.26,115.77
					c35.2-3.52,75.02-17.25,119.01-42.93c76.12-44.43,117.24-75.66,134.98-159.25c6.1-28.75,10.11-63.2,11.23-106.12"/>
				<path class="education" id="education_mouse" d="M1280.5,500.52c-2.22-40.75-11.1-73.02-27.52-94.34c-37.45-48.64-113.86-40.53-238.21,51.2
					c-15.16,11.15-29.39,19.88-42.63,27.17c-69.33,38.33-110.45,37.29-117.45,144.19c-0.63,9.67-1.08,20.2-1.19,31.74l0.01,0
					c0,0,0,0,0,0l-0.01,0c0.38,12.35,1.61,24.29,3.67,35.73c14.36,80.8,70.04,136.25,157.55,128.81
					c36.06-3.12,77.42-16.84,123.47-43.65c79.78-46.46,122.06-77.57,136.56-167.37C1279.65,583.68,1281.55,546.81,1280.5,500.52z
					M1280.5,500.98l-0.02,0.01c0,0,0,0,0,0l-0.03,0.01L1280.5,500.98c-0.01,0.01-0.01,0.01-0.02,0.01c0,0,0,0.01,0,0.01l0.02-0.01
					c0,0-0.01,0-0.01,0l0.01,0c-0.01,0-0.01,0.01-0.02,0.01c0,0,0,0.01,0,0.01l0.02-0.01c-0.01,0-0.02,0.01-0.02,0.01
					c-1.85,41.6-6.54,75.09-13.03,103.23c-18.79,81.51-59.55,112.79-134.45,156.54c-43.31,25.3-82.61,39.02-117.53,42.68
					c-82.34,8.64-136.83-40.15-155.83-111.42c-2.7-10.13-4.8-20.69-6.09-31.65l0.01,0c0,0,0,0,0,0l-0.01,0
					c1.08-9.88,2.68-18.89,4.01-27.24c14.67-92.03,54.38-91.82,120.85-126.91c13-6.86,26.89-14.94,41.47-25.36
					c116-82.87,189.1-96.29,228.37-57.95c17.13,16.73,27.48,43.48,32.25,77.64l0,0c0,0,0,0,0,0c0,0,0,0,0,0l0,0c0,0,0,0.01,0,0.01
					c0,0,0,0,0,0l0,0c0,0,0,0,0,0c0,0,0,0,0,0l0,0c0,0,0,0.01,0,0.01c0,0,0,0,0,0l0,0c0,0,0,0,0,0c0,0,0,0,0,0l0,0c0,0,0,0.01,0,0.01
					c0,0,0,0,0,0l0,0c0,0,0,0,0,0c0,0,0,0,0,0l0,0c0,0,0,0.01,0,0.01c0,0,0,0,0,0l0,0c0,0,0,0,0,0c0,0,0,0,0,0l0,0c0,0,0,0.01,0,0.01
					c-0.91-2.95-1.87-5.8-2.89-8.59c1.02,2.79,1.99,5.65,2.89,8.59l0,0c0,0,0,0,0,0c0,0,0,0,0,0l0,0c0,0,0,0.01,0,0.01c0,0,0,0,0,0
					l0,0c0,0,0,0,0,0c0,0,0,0,0,0l0,0c0,0,0,0.01,0,0.01c0,0,0,0,0,0l0,0c0,0,0,0,0,0c0,0,0,0,0,0l0,0c0,0,0,0.01,0,0.01c0,0,0,0,0,0
					l0,0c0,0,0,0,0,0c0,0,0,0,0,0l0,0c0,0,0,0.01,0,0.01c0,0,0,0,0,0l0,0c0,0,0,0,0,0c0,0,0,0,0,0l0,0c0,0,0,0.01,0,0.01c0,0,0,0,0,0
					l0,0c0,0,0,0,0,0c0,0,0,0,0,0l0,0c0,0,0,0.01,0,0.01c0,0,0,0,0,0l0,0c0,0,0,0,0,0.01c0,0,0,0,0,0l0,0c0,0,0,0.01,0,0.01
					c0,0,0,0,0,0l0.01,0c0,0,0,0,0,0.01c0,0,0,0,0,0l0,0c0,0,0,0.01,0,0.01c0,0,0,0,0,0l0.01,0c0,0,0,0,0,0.01c0,0,0,0,0,0l0,0
					c0,0,0,0.01,0,0.01l0.01,0c0,0,0,0,0,0.01c0,0,0,0,0,0l-0.01,0c0,0,0,0.01,0,0.01l0.01,0c0,0,0,0,0,0.01
					c-0.21-0.14-0.42-0.27-0.63-0.4c0.21,0.14,0.43,0.27,0.64,0.4l-0.01,0c0,0,0,0,0,0.01l0.01,0c0,0,0,0.01,0,0.01c0,0,0,0,0,0
					l-0.01,0c0,0,0,0,0,0.01l0.01,0c0,0,0,0.01-0.01,0.01c0,0,0,0,0.01,0l-0.01,0c0,0,0,0,0,0.01l0.01,0c0,0,0,0.01-0.01,0.01
					c0,0,0,0,0.01,0l-0.01,0c0,0,0,0,0,0.01l0.01-0.01c0,0-0.01,0.01-0.01,0.01c0,0,0.01,0,0.01,0l-0.01,0c0,0,0,0,0,0c0,0,0,0,0,0
					l0.02-0.01c0,0-0.01,0.01-0.01,0.01c0,0,0.01,0,0.01,0l-0.02,0.01c0,0,0,0,0,0c0,0,0,0,0,0l0,0l0.02-0.01c0,0-0.01,0.01-0.01,0.01
					c0,0,0.01,0,0.01,0l-0.02,0.01c0,0,0,0,0,0l0,0l0.02-0.01c-0.01,0.01-0.01,0.01-0.02,0.01c0.01,0,0.01,0,0.02,0l-0.02,0.01
					c0,0,0,0,0,0l-0.01,0l0.03-0.01c-0.01,0.01-0.01,0.01-0.02,0.02c0,0,0,0,0,0c0,0,0,0,0,0c0,0,0,0,0,0c0.01,0,0.01,0,0.02,0
					l-0.03,0.01l0.01,0c0,0,0,0,0,0l0.02-0.01c-0.01,0.01-0.02,0.01-0.03,0.02c0,0,0.01,0,0.01-0.01c0,0,0,0,0,0
					c0.01,0,0.01,0,0.02-0.01l-0.02,0.01c0,0,0,0,0,0l-0.02,0.01l0.04-0.01c-0.01,0-0.01,0.01-0.02,0.01c0,0,0,0,0,0.01
					C1280.49,500.98,1280.49,500.98,1280.5,500.98z"/>
			</g>
		</g>
	</g>
	<g id="science">
		<g>
			<path class="science" d="M1280.5,500.64c-7.32-27.56-19.22-48.83-36.99-60.94c-41.27-28.12-111.01-9.48-218.53,64.69
				c-14.01,9.67-27.55,17.13-40.31,23.55c-63.55,31.94-102.13,32.95-124.24,109.63c-2.04,7.09-4.77,14.5-6.83,22.74"/>
			<path class="science" d="M1280.5,500.63c-6.69-29.21-18.19-51.85-35.8-65.11c-40.75-30.67-111.34-13.33-220.99,63.01
				c-14.15,9.85-27.78,17.48-40.6,24C918.82,555.24,880,555.9,859.71,636.48c-1.86,7.4-4.31,15.21-6.12,23.86"/>
			<path class="science" d="M1280.5,500.61c-6.05-30.86-17.16-54.87-34.62-69.29c-40.24-33.23-111.68-17.19-223.45,61.32
				c-14.3,10.04-28.01,17.82-40.89,24.46c-65.01,33.51-104.11,33.85-122.55,118.27c-1.68,7.71-3.85,15.93-5.42,24.99"/>
			<path class="science" d="M1280.5,500.6c-5.41-32.51-16.14-57.89-33.44-73.46c-39.75-35.79-112.02-21.06-225.91,59.63
				c-14.44,10.23-28.24,18.16-41.18,24.91c-65.74,34.3-105.14,34.35-121.7,122.59c-1.51,8.03-3.39,16.64-4.71,26.11"/>
			<path class="science" d="M1280.5,500.58c-4.77-34.16-15.12-60.91-32.25-77.64c-39.27-38.35-112.37-24.93-228.37,57.95
				c-14.58,10.42-28.47,18.5-41.47,25.36c-66.46,35.1-106.18,34.89-120.85,126.91c-1.33,8.35-2.93,17.35-4.01,27.24"/>
			<path class="science" d="M853.55,660.4c1.29,10.96,3.39,21.52,6.09,31.65c19,71.27,73.49,120.06,155.83,111.42
				c34.91-3.66,74.21-17.38,117.53-42.68c74.9-43.75,115.66-75.03,134.45-156.54c6.51-28.24,11.22-61.87,13.05-103.68"/>
			<path class="science" d="M853.56,660.38c1.52,10.61,3.83,20.83,6.7,30.63c20.13,68.88,74.35,115.99,155.4,107.07
				c34.62-3.81,73.41-17.52,116.04-42.44c73.68-43.07,114.09-74.41,133.92-153.83c6.93-27.73,12.33-60.55,14.88-101.23"/>
			<path class="science" d="M853.57,660.36c1.75,10.26,4.27,20.14,7.3,29.62c21.26,66.49,75.22,111.92,154.97,102.73
				c34.34-3.96,72.61-17.65,114.56-42.2c72.46-42.39,112.54-73.79,133.39-151.12c7.34-27.22,13.43-59.22,16.71-98.78"/>
			<path class="science" d="M853.58,660.34c1.97,9.92,4.71,19.44,7.91,28.6c22.38,64.09,76.08,107.84,154.54,98.38
				c34.05-4.1,71.81-17.79,113.07-41.96c71.24-41.72,111-73.18,132.87-148.41c7.77-26.72,14.54-57.89,18.53-96.33"/>
			<path class="science" d="M853.59,660.32c2.2,9.57,5.15,18.75,8.51,27.58c23.5,61.69,76.94,103.76,154.11,94.03
				c33.76-4.25,71.01-17.93,111.59-41.71c70.02-41.04,109.48-72.57,132.34-145.7c8.19-26.22,15.65-56.57,20.36-93.88"/>
			<path class="science" id="science_mouse" d="M1280.44,501.04c-5.43,36.01-13.53,65.42-22.13,91.04c-23.83,71.03-63.01,102.63-131.81,143
				c-39.9,23.41-76.63,37.07-110.1,41.47c-75.88,9.98-129.07-30.4-153.68-89.69c-3.53-8.51-6.69-17.34-9.12-26.56l0.01-0.01
				c0,0,0,0,0,0l-0.01,0c2.3-7.82,5.31-14.82,7.53-21.61c23.9-72.76,62.27-74.16,125.09-105.31c12.71-6.3,26.15-13.62,40.02-23.1
				c105.39-72.01,174.27-91.94,216.07-66.38c17.91,10.95,30.21,30.84,38.17,56.76c0,0,0-0.01,0-0.01l0,0c0,0,0,0,0,0c0,0,0,0,0,0l0,0
				c0,0,0,0,0,0c0,0,0-0.01,0-0.01l0,0c0,0,0,0,0,0c0,0,0,0,0,0l0,0c0,0,0,0,0,0c0,0,0-0.01,0-0.01l0,0c0,0,0,0,0,0c0,0,0,0,0,0l0,0
				c0,0,0,0,0,0c0,0,0-0.01,0-0.01l0,0c0,0,0,0,0,0c0,0,0,0,0,0l0,0c0,0,0,0,0,0c0,0,0-0.01,0-0.01l0,0c0,0,0,0,0,0c0,0,0,0,0,0l0,0
				c-4.77-34.16-15.12-60.91-32.25-77.64c-39.27-38.35-112.37-24.93-228.37,57.95c-14.58,10.42-28.47,18.5-41.47,25.36
				c-66.46,35.1-106.18,34.89-120.85,126.91c-1.33,8.35-2.93,17.35-4.01,27.24l0.01,0c0,0,0,0,0,0l-0.01,0
				c1.29,10.96,3.39,21.52,6.09,31.65c19,71.27,73.49,120.06,155.83,111.42c34.91-3.66,74.21-17.38,117.53-42.68
				c74.9-43.75,115.66-75.03,134.45-156.54c6.49-28.14,11.18-61.64,13.03-103.23C1280.47,501.03,1280.45,501.03,1280.44,501.04z"/>
		</g>
	</g>
	<g id="medicine_solid">
		<g>
			<path class="medicine" d="M1280.5,500.8c-13.71-11.08-29.87-18.38-48.83-19.18c-47.19-2.01-107.92,28.76-193.94,81.55
				c-12.63,7.75-25.22,13.76-37.42,19.02c-56.16,24.22-96.3,29.71-132.73,66.44c-4.18,4.21-9.39,7.37-13.88,11.48"/>
			<path class="medicine" d="M1280.5,500.79c-13.07-12.73-28.79-21.46-47.64-23.36c-46.57-4.7-108.21,24.96-196.4,79.87
				c-12.76,7.95-25.45,14.09-37.71,19.47c-56.91,24.98-96.42,30.1-131.88,70.76c-3.92,4.5-8.93,8.08-13.18,12.61"/>
			<path class="medicine" d="M1280.5,500.77c-12.43-14.38-27.71-24.53-46.46-27.53c-45.95-7.37-108.5,21.16-198.86,78.18
				c-12.9,8.14-25.69,14.43-38,19.92c-57.65,25.74-96.65,30.43-131.03,75.08c-3.68,4.78-8.46,8.79-12.47,13.73"/>
			<path class="medicine" d="M1280.5,500.75c-11.79-16.03-26.64-27.59-45.27-31.71c-45.32-10.02-108.8,17.35-201.32,76.49
				c-13.04,8.33-25.92,14.76-38.29,20.38c-58.4,26.5-97.01,30.72-130.18,79.4c-3.45,5.06-8,9.51-11.77,14.86"/>
			<path class="medicine" d="M1280.5,500.74c-11.15-17.67-25.56-30.64-44.09-35.89c-44.71-12.65-109.1,13.54-203.78,74.81
				c-13.18,8.53-26.16,15.1-38.58,20.83c-59.14,27.27-97.47,30.99-129.33,83.72c-3.23,5.34-7.54,10.22-11.06,15.98"/>
			<path class="medicine" d="M1280.5,500.72c-10.51-19.32-24.49-33.69-42.91-40.06c-44.1-15.26-109.41,9.72-206.24,73.12
				c-13.31,8.72-26.39,15.44-38.87,21.28c-59.88,28.04-98.05,31.27-128.49,88.04c-3.01,5.62-7.08,10.93-10.36,17.11"/>
			<path class="medicine" d="M1280.5,500.71c-9.88-20.97-23.42-36.73-41.72-44.24c-43.5-17.85-109.72,5.89-208.7,71.44
				c-13.45,8.91-26.62,15.78-39.16,21.74c-60.61,28.82-98.72,31.55-127.64,92.36c-2.81,5.9-6.62,11.65-9.65,18.23"/>
			<path class="medicine" d="M1280.5,500.69c-9.24-22.62-22.36-39.76-40.54-48.41c-42.92-20.43-110.03,2.06-211.15,69.75
				c-13.59,9.1-26.85,16.12-39.45,22.19c-61.35,29.59-99.48,31.85-126.79,96.67c-2.61,6.19-6.16,12.36-8.95,19.36"/>
			<path class="medicine" d="M1280.5,500.68c-8.6-24.27-21.31-42.79-39.35-52.59c-42.36-23-110.35-1.78-213.61,68.06
				c-13.73,9.29-27.09,16.45-39.74,22.64c-62.09,30.37-100.3,32.19-125.94,100.99c-2.42,6.49-5.7,13.07-8.24,20.49"/>
			<path class="medicine" d="M853.6,660.3c2.43,9.22,5.59,18.05,9.12,26.56c24.61,59.29,77.8,99.67,153.68,89.69
				c33.47-4.4,70.2-18.06,110.1-41.47c68.8-40.36,107.99-71.97,131.81-143c8.63-25.72,16.75-55.24,22.19-91.43"/>
			<path class="medicine" d="M853.62,660.26c2.89,8.53,6.46,16.66,10.33,24.53c26.81,54.47,79.52,91.49,152.81,80.99
				c32.9-4.71,68.6-18.33,107.13-40.99c66.36-39.01,105.05-70.76,130.76-137.58c9.51-24.72,18.97-52.59,25.84-86.53"/>
			<path class="medicine" d="M853.63,660.24c3.11,8.18,6.9,15.96,10.94,23.51c27.9,52.06,80.38,87.39,152.38,76.65
				c32.61-4.86,67.8-18.47,105.64-40.74c65.14-38.33,103.61-70.16,130.23-134.87c9.97-24.23,20.08-51.26,27.67-84.08"/>
			<path class="medicine" d="M853.64,660.22c3.34,7.83,7.33,15.27,11.54,22.49c28.98,49.65,81.24,83.28,151.95,72.3
				c32.32-5.02,66.99-18.6,104.16-40.5c63.92-37.65,102.2-69.55,129.71-132.16c10.43-23.73,21.18-49.94,29.5-81.63"/>
			<path class="medicine" d="M853.65,660.2c3.57,7.49,7.76,14.57,12.15,21.47c30.04,47.24,82.11,79.18,151.52,67.96
				c32.03-5.18,66.19-18.74,102.67-40.26c62.7-36.97,100.81-68.95,129.18-129.45c10.89-23.24,22.29-48.61,31.32-79.18"/>
			<path class="medicine" d="M853.66,660.18c3.8,7.14,8.19,13.87,12.76,20.45c31.1,44.83,82.97,75.07,151.09,63.61
				c31.74-5.34,65.39-18.87,101.19-40.02c61.48-36.3,99.45-68.33,128.65-126.75c11.37-22.74,23.4-47.29,33.15-76.73"/>
			<path class="medicine" d="M853.67,660.16c4.02,6.79,8.62,13.18,13.36,19.43c32.14,42.42,83.83,70.95,150.66,59.26
				c31.46-5.5,64.59-19.01,99.7-39.77c60.26-35.62,98.11-67.72,128.12-124.04c11.85-22.24,24.5-45.96,34.98-74.28"/>
			<path class="medicine" d="M853.68,660.14c4.25,6.44,9.05,12.48,13.97,18.42c33.18,40.02,84.68,66.83,150.23,54.92
				c31.17-5.67,63.78-19.15,98.22-39.53c59.04-34.94,96.79-67.09,127.6-121.33c12.35-21.74,25.61-44.64,36.81-71.84"/>
			<path class="medicine" d="M853.69,660.12c4.48,6.1,9.47,11.79,14.57,17.4c34.2,37.62,85.54,62.7,149.8,50.57
				c30.88-5.83,62.98-19.28,96.73-39.29c57.82-34.26,95.5-66.45,127.07-118.62c12.85-21.23,26.72-43.31,38.63-69.39"/>
			<path class="medicine" d="M853.7,660.1c4.71,5.75,9.9,11.09,15.18,16.38c35.21,35.23,86.4,58.57,149.36,46.22
				c30.59-6,62.18-19.42,95.25-39.05c56.6-33.59,94.24-65.8,126.54-115.91c13.36-20.72,27.82-41.98,40.46-66.94"/>
			<path class="medicine" id="medicine_mouse" d="M1280.36,501.08c-13.32,23.72-28.31,44.1-42.14,64.23c-33.02,48.06-70.64,80.3-126.02,113.2
				c-32.39,19.25-63.46,32.63-93.76,38.8c-61.68,12.56-112.73-9.02-148.93-41.88c-5.46-4.96-10.85-9.95-15.78-15.36l-0.01,0
				c0,0,0,0,0.01,0c0,0,0,0,0,0l0.01,0c0,0,0.01,0,0.01-0.01c0,0,0,0-0.01-0.01l-0.01,0c0,0,0,0,0.01,0c0,0,0,0,0,0l0.02-0.01
				c0,0,0,0,0,0c0,0-0.01,0-0.01-0.01l-0.01,0c0,0,0,0,0.01,0c0,0,0,0,0,0l0.02-0.01c0,0-0.01-0.01-0.01-0.01l-0.01,0c0,0,0,0,0.01,0
				c0,0,0,0,0,0l0.03-0.01c0,0-0.01-0.01-0.01-0.01c0,0,0,0-0.01,0l0.01,0c0,0,0,0,0,0l0.03-0.01c0,0-0.01,0-0.01-0.01
				c0,0,0,0-0.01,0l0.01,0c0,0,0,0,0,0l0.03-0.01c0,0-0.01,0-0.01-0.01c0,0,0,0-0.01,0l0.01,0c0,0,0,0,0,0l0.03-0.01
				c0,0-0.01,0-0.01-0.01c0,0,0,0-0.01,0l0,0c0,0,0,0,0,0l0.03-0.01c-0.01,0-0.01,0-0.02-0.01c0,0,0,0-0.01,0l0,0c0,0,0,0,0,0
				l0.03-0.01c-0.01,0-0.01,0-0.02-0.01c0,0,0,0-0.01,0l0,0c0,0,0,0,0,0l0.04-0.01c-0.01,0-0.01,0-0.02,0c0,0,0,0-0.01,0l0,0
				c0,0,0,0,0,0l0.04-0.01c-0.01,0-0.01,0-0.02,0c0,0,0,0-0.01,0l0,0c0,0,0,0,0,0l0.04-0.02c-0.01,0-0.02,0-0.03,0l0.41-0.15
				c4.61-3.5,9.78-6.19,14.06-9.96c37.28-32.87,78.16-38.66,133.58-62.12c12.15-5.14,24.64-11.01,37.14-18.57
				c83.84-50.7,143.67-82.54,191.48-83.24c19.06-0.28,35.66,5.57,50.01,15.01c0,0,0,0,0-0.01l-0.01,0c0,0,0-0.01,0-0.01l0.01,0
				c0,0,0,0,0,0c0,0,0,0,0-0.01l-0.01,0c0,0,0-0.01,0-0.01l0,0c0,0,0,0,0,0c0,0,0,0,0-0.01l-0.01,0c0,0,0,0,0,0c0,0,0-0.01,0-0.01
				l0,0c0,0,0,0,0,0c0,0,0,0,0-0.01l-0.01,0c0,0,0,0,0,0c0,0,0-0.01,0-0.01l0,0c0,0,0,0,0,0c0,0,0,0,0-0.01l0,0c0,0,0,0,0,0
				c0,0,0-0.01,0-0.01l0,0c0,0,0,0,0,0c0,0,0,0,0,0l0,0c0,0,0,0,0,0c0,0,0-0.01,0-0.01l0,0c0,0,0,0,0,0c0,0,0,0,0,0l0,0c0,0,0,0,0,0
				c0,0,0-0.01,0-0.01l0,0c0,0,0,0,0,0c0,0,0,0,0,0l0,0c0,0,0,0,0,0c0,0,0-0.01,0-0.01l0,0c0,0,0,0,0,0c0,0,0,0,0,0l0,0c0,0,0,0,0,0
				c0,0,0-0.01,0-0.01l0,0c0,0,0,0,0,0c0,0,0,0,0,0l0,0c0,0,0,0,0,0c0,0,0-0.01,0-0.01l0,0c0,0,0,0,0,0c0,0,0,0,0,0l0,0
				c-7.96-25.91-20.26-45.81-38.17-56.76c-41.8-25.56-110.68-5.63-216.07,66.38c-13.87,9.48-27.32,16.79-40.02,23.1
				c-62.82,31.15-101.19,32.55-125.09,105.31c-2.23,6.79-5.23,13.79-7.53,21.61l0.01,0c0,0,0,0,0,0l-0.01,0.01
				c2.43,9.22,5.59,18.05,9.12,26.56c24.61,59.29,77.8,99.67,153.68,89.69c33.47-4.4,70.2-18.06,110.1-41.47
				c68.8-40.36,107.99-71.97,131.81-143c8.6-25.63,16.69-55.04,22.13-91.04C1280.41,501.05,1280.38,501.07,1280.36,501.08z"/>
		</g>
	</g>
	<g id="medicine_dotted">
		<path class="medicine" d="M1280.5,500.66c-7.96-25.92-20.26-45.81-38.17-56.76c-41.8-25.56-110.68-5.63-216.07,66.38
			c-13.87,9.48-27.32,16.79-40.02,23.1c-62.82,31.15-101.19,32.55-125.09,105.31c-2.23,6.79-5.23,13.79-7.54,21.61"/>
		<path class="medicine" d="M853.61,660.28c2.66,8.88,6.03,17.36,9.73,25.54c25.71,56.88,78.66,95.58,153.24,85.34
			c33.18-4.56,69.4-18.2,108.62-41.23c67.58-39.68,106.51-71.36,131.29-140.29c9.07-25.22,17.86-53.92,24.02-88.98"/>
	</g>
	<g id="lifestyle_solid">
		<path class="lifestyle" d="M1280.5,500.99c-21.36,8.7-42.44,18.94-63.03,30.92c-53.76,31.28-104.92,73.46-164.43,101.78
			c-11.07,5.27-22.38,9.81-33.96,13.58c-47.11,15.45-96.22,17.15-142.91,14.6c-7.47-0.41-14.92-1.19-22.35-2.02"/>
		<path class="lifestyle" d="M1280.5,500.98c-20.72,7.05-41.42,15.82-61.85,26.75c-53.28,28.49-105.14,69.8-166.88,100.1
			c-11.2,5.49-22.62,10.12-34.25,14.03c-47.88,16.1-96.64,18.59-142.06,18.92c-7.24,0.05-14.46-0.48-21.64-0.89"/>
		<path class="lifestyle" d="M1280.5,500.96c-20.09,5.4-40.4,12.71-60.66,22.57c-52.8,25.7-105.37,66.14-169.34,98.41
			c-11.32,5.71-22.86,10.45-34.54,14.49c-48.64,16.82-96.95,20.03-141.22,23.24c-7,0.51-14,0.24-20.94,0.23"/>
		<path class="lifestyle" d="M1280.5,500.95c-19.45,3.75-39.37,9.59-59.48,18.39c-52.3,22.9-105.6,62.45-171.8,96.73
			c-11.45,5.93-23.1,10.78-34.82,14.94c-49.4,17.54-97.15,21.43-140.37,27.56c-6.74,0.96-13.54,0.95-20.23,1.36"/>
		<path class="lifestyle" d="M1280.5,500.93c-18.81,2.11-38.34,6.47-58.3,14.22c-51.79,20.1-105.84,58.76-174.26,95.04
			c-11.57,6.14-23.34,11.1-35.11,15.39c-50.15,18.27-97.22,22.78-139.52,31.88c-6.46,1.39-13.08,1.66-19.53,2.48"/>
		<path class="lifestyle" d="M1280.5,500.91c-18.17,0.46-37.3,3.36-57.11,10.04c-51.27,17.3-106.08,55.04-176.72,93.35
			c-11.7,6.35-23.57,11.43-35.4,15.85c-50.91,19-97.2,24.04-138.67,36.2c-6.18,1.81-12.62,2.37-18.82,3.61"/>
		<path class="lifestyle" d="M1280.5,500.9c-17.53-1.19-36.25,0.24-55.93,5.87c-50.73,14.51-106.32,51.32-179.18,91.67
			c-11.83,6.55-23.81,11.76-35.69,16.3c-51.66,19.73-97.09,25.22-137.82,40.52c-5.89,2.21-12.15,3.09-18.12,4.73"/>
		<path class="lifestyle" d="M1280.5,500.88c-16.9-2.84-35.2-2.87-54.74,1.69c-50.17,11.73-106.58,47.59-181.64,89.98
			c-11.96,6.76-24.04,12.09-35.98,16.75c-52.42,20.47-96.92,26.27-136.97,44.84c-5.59,2.59-11.69,3.8-17.41,5.86"/>
		<path class="lifestyle" d="M1280.5,500.87c-16.26-4.49-34.15-5.98-53.56-2.48c-49.6,8.95-106.84,43.84-184.1,88.3
			c-12.09,6.96-24.28,12.42-36.27,17.21c-53.17,21.21-96.72,27.2-136.12,49.16c-5.3,2.95-11.23,4.51-16.71,6.98"/>
		<path class="lifestyle" d="M1280.5,500.83c-14.98-7.78-32.02-12.19-51.19-10.83c-48.42,3.43-107.37,36.32-189.02,84.92
			c-12.36,7.36-24.75,13.09-36.85,18.11c-54.67,22.71-96.38,28.69-134.43,57.8c-4.72,3.61-10.31,5.94-15.29,9.23"/>
		<path class="lifestyle" d="M1280.5,500.82c-14.34-9.43-30.95-15.29-50.01-15.01c-47.81,0.7-107.64,32.54-191.48,83.24
			c-12.49,7.56-24.99,13.42-37.14,18.57c-55.42,23.46-96.29,29.25-133.58,62.12c-4.44,3.92-9.85,6.65-14.59,10.36"/>
		<path class="lifestyle" d="M853.71,660.08c4.94,5.4,10.32,10.4,15.78,15.36c36.2,32.85,87.26,54.44,148.93,41.88
			c30.3-6.17,61.38-19.55,93.76-38.8c55.38-32.91,92.99-65.14,126.02-113.2c13.88-20.21,28.93-40.66,42.29-64.49"/>
		<path class="lifestyle" d="M853.72,660.06c5.16,5.06,10.74,9.71,16.39,14.34c37.19,30.49,88.11,50.3,148.5,37.53
			c30.01-6.35,60.57-19.69,92.28-38.56c54.16-32.23,91.77-64.46,125.49-110.5c14.41-19.68,30.04-39.33,44.12-62.04"/>
		<path class="lifestyle" d="M853.74,660.02c5.62,4.36,11.58,8.34,17.6,12.31c39.15,25.79,89.82,42,147.64,28.84
			c29.42-6.7,58.97-19.96,89.31-38.08c51.72-30.88,89.4-63.03,124.44-105.08c15.51-18.61,32.25-36.68,47.77-57.14"/>
		<path class="lifestyle" d="M853.75,660c5.85,4.01,12,7.65,18.21,11.29c40.12,23.47,90.67,37.85,147.21,24.49
			c29.13-6.88,58.17-20.09,87.82-37.83c50.5-30.2,88.23-62.29,123.91-102.37c16.07-18.05,33.36-35.35,49.6-54.69"/>
		<path class="lifestyle" d="M853.76,659.98c6.08,3.67,12.42,6.97,18.81,10.27c41.09,21.16,91.52,33.69,146.78,20.14
			c28.84-7.07,57.36-20.23,86.34-37.59c49.28-29.52,87.09-61.51,123.38-99.66c16.64-17.48,34.47-34.03,51.42-52.24"/>
		<path class="lifestyle" d="M853.77,659.96c6.3,3.32,12.83,6.3,19.42,9.25c42.06,18.87,92.37,29.52,146.35,15.8
			c28.54-7.26,56.56-20.37,84.85-37.35c48.06-28.84,85.95-60.71,122.85-96.95c17.21-16.9,35.57-32.7,53.25-49.79"/>
		<path class="lifestyle" d="M853.78,659.94c6.53,2.97,13.25,5.62,20.03,8.23c43.04,16.6,93.21,25.35,145.92,11.45
			c28.25-7.45,55.76-20.5,83.37-37.11c46.84-28.17,84.82-59.88,122.33-94.25c17.79-16.3,36.68-31.38,55.08-47.34"/>
		<path class="lifestyle" d="M853.8,659.92c6.76,2.63,13.67,4.95,20.63,7.21c44.02,14.34,94.05,21.17,145.49,7.11
			c27.95-7.64,54.96-20.64,81.88-36.86c45.62-27.49,83.7-59.02,121.8-91.54c18.38-15.69,37.79-30.05,56.91-44.89"/>
		<path class="lifestyle" d="M853.81,659.9c6.99,2.28,14.09,4.28,21.24,6.2c45.02,12.1,94.89,16.99,145.05,2.76
			c27.65-7.84,54.16-20.77,80.4-36.62c44.4-26.81,82.57-58.12,121.27-88.83c18.97-15.06,38.89-28.73,58.73-42.44"/>
		<path class="lifestyle" d="M853.82,659.88c7.22,1.93,14.51,3.61,21.84,5.18c46.02,9.86,95.73,12.8,144.62-1.59
			c27.35-8.05,53.35-20.91,78.91-36.38c43.18-26.13,81.45-57.19,120.75-86.12c19.57-14.41,40-27.4,60.56-40"/>
		<path class="lifestyle" d="M853.83,659.86c7.44,1.58,14.94,2.94,22.45,4.16c47.04,7.64,96.54,8.52,144.19-5.93
			c27.03-8.3,52.55-21.04,77.43-36.14c41.96-25.46,80.31-56.23,120.22-83.41c20.17-13.73,41.11-26.07,62.39-37.55"/>
		<path class="lifestyle" id="lifestyle_mouse" d="M1280.5,501.01l-0.09,0.03c0.03-0.02,0.06-0.03,0.09-0.05l-0.01,0c0,0,0.01,0,0.01,0l-0.06,0.02
			c0.02-0.01,0.04-0.03,0.06-0.04l-0.05,0.02c0,0,0,0,0,0l0.05-0.02c-0.01,0-0.03,0.01-0.04,0.01c0.01-0.01,0.03-0.02,0.04-0.03
			l-0.04,0.01c0,0,0,0,0,0l0.04-0.01c-0.01,0-0.02,0.01-0.03,0.01c0.01-0.01,0.02-0.01,0.03-0.02l-0.03,0.01c0,0,0,0,0,0l0.03-0.01
			c-0.01,0-0.01,0-0.02,0c0.01-0.01,0.01-0.01,0.02-0.02l-0.03,0.01c0,0,0,0,0,0l0.02-0.01c-0.01,0-0.01,0-0.02,0
			c0.01-0.01,0.01-0.01,0.02-0.01l-0.02,0.01c0,0,0,0,0,0l0.02-0.01c0,0-0.01,0-0.01,0c0,0,0.01-0.01,0.01-0.01l-0.02,0.01
			c0,0,0,0,0-0.01l0.02-0.01c0,0-0.01,0-0.01,0c0,0,0.01-0.01,0.01-0.01l-0.02,0.01c0,0,0,0,0-0.01l0.01,0c0,0-0.01,0-0.01,0
			c0,0,0.01-0.01,0.01-0.01l-0.01,0.01c0,0,0,0,0-0.01l0.01,0c0,0,0,0-0.01,0c0,0,0-0.01,0.01-0.01l-0.01,0c0,0,0,0,0-0.01l0.01,0
			c0,0,0,0-0.01,0c0,0,0-0.01,0.01-0.01l-0.01,0c0,0,0,0,0-0.01l0.01,0c0,0,0,0,0,0c0,0,0-0.01,0-0.01l-0.01,0c0,0,0,0-0.01,0
			l0.02-0.01c-14.34-9.43-30.95-15.29-50.01-15.01c-47.81,0.7-107.64,32.54-191.48,83.24c-12.49,7.56-24.99,13.42-37.14,18.57
			c-55.42,23.46-96.29,29.25-133.58,62.12c-4.28,3.77-9.45,6.46-14.06,9.96l-0.41,0.15c0.01,0,0.02,0,0.03,0l-0.04,0.02c0,0,0,0,0,0
			l0,0c0,0,0,0,0.01,0c0.01,0,0.01,0,0.02,0l-0.04,0.01c0,0,0,0,0,0l0,0c0,0,0,0,0.01,0c0.01,0,0.01,0,0.02,0l-0.04,0.01c0,0,0,0,0,0
			l0,0c0,0,0,0,0.01,0c0.01,0,0.01,0,0.02,0.01l-0.03,0.01c0,0,0,0,0,0l0,0c0,0,0,0,0.01,0c0.01,0,0.01,0,0.02,0.01l-0.03,0.01
			c0,0,0,0,0,0l0,0c0,0,0,0,0.01,0c0,0,0.01,0,0.01,0.01l-0.03,0.01c0,0,0,0,0,0l-0.01,0c0,0,0,0,0.01,0c0,0,0.01,0,0.01,0.01
			l-0.03,0.01c0,0,0,0,0,0l-0.01,0c0,0,0,0,0.01,0c0,0,0.01,0,0.01,0.01l-0.03,0.01c0,0,0,0,0,0l-0.01,0c0,0,0,0,0.01,0
			c0,0,0.01,0.01,0.01,0.01l-0.03,0.01c0,0,0,0,0,0c0,0,0,0-0.01,0l0.01,0c0,0,0.01,0.01,0.01,0.01l-0.02,0.01c0,0,0,0,0,0
			c0,0,0,0-0.01,0l0.01,0c0,0,0.01,0,0.01,0.01c0,0,0,0,0,0l-0.02,0.01c0,0,0,0,0,0c0,0,0,0-0.01,0l0.01,0c0,0,0,0,0.01,0.01
			c0,0-0.01,0-0.01,0.01l-0.01,0c0,0,0,0,0,0c0,0,0,0-0.01,0l0.01,0c4.94,5.4,10.32,10.4,15.78,15.36
			c36.2,32.85,87.26,54.44,148.93,41.88c30.3-6.17,61.38-19.55,93.76-38.8c55.38-32.91,92.99-65.14,126.02-113.2
			c13.83-20.13,28.82-40.51,42.14-64.23C1280.4,501.06,1280.45,501.03,1280.5,501.01z"/>
	</g>
	<g id="lifestyle_dotted">
		<path class="lifestyle" d="M853.84,659.84c7.67,1.24,15.36,2.27,23.06,3.14c48.07,5.42,97.4,4.4,143.76-10.28
			c71.77-22.73,131.04-76.01,195.63-116.6c20.76-13.05,42.21-24.75,64.21-35.1"/>
		<path class="lifestyle" d="M1280.5,500.85c-15.62-6.14-33.09-9.09-52.38-6.66c-49.02,6.18-107.1,40.08-186.56,86.61
			c-12.23,7.16-24.52,12.75-36.56,17.66c-53.92,21.96-96.53,28.01-135.28,53.48c-5.01,3.29-10.77,5.23-16,8.11"/>
		<path class="lifestyle" d="M853.73,660.04c5.39,4.71,11.16,9.02,17,13.32c38.17,28.13,88.97,46.15,148.07,33.18
			c29.72-6.52,59.77-19.82,90.79-38.32c52.94-31.55,90.58-63.76,124.96-107.79c14.96-19.15,31.14-38.01,45.94-59.59"/>
	</g>
	<g id="children">
		<g>
			<g>
				<path class="children" d="M427.5,205.5c0.82-34.97,7.86-65,19.29-90.3c31.76-70.29,97.66-103.94,160.7-102.54
					c74.12,1.5,143.96,50.99,150.36,145.13c0.51,7.52,0.63,15.31,0.32,23.39c-6.32,156.18,62.91,111.19,86.83,290.98
					c6.13,46.08,10.07,106.12,8.52,187.35"/>
				<path class="children" d="M427.5,205.5c0.41-35.58,7.16-66.23,18.44-92.09C477.32,41.49,543.87,6.69,607.75,7.28
					c75.15,0.63,146.46,50.01,152.81,145.01c0.51,7.56,0.61,15.42,0.27,23.55c-6.75,157.91,63.76,110.74,86.3,293.47
					c5.74,46.51,8.76,107.51,6.37,190.2"/>
				<path class="children" d="M427.5,205.5c0.4,37.05,1.55,69.55,3.08,98.24c6.54,122.49,22.17,174.04,37.16,210.36
					c19.52,47.34,37.5,68.12,29.98,188.82c-1.09,17.76,0.04,34.29,3.07,49.53c25.07,125.93,180.07,164.11,276.01,83.1
					c41.96-35.16,72.75-93.02,76.71-176.05"/>
				<path class="children" d="M427.5,205.5c0.81,36.28,2.39,68.16,4.2,96.4c7.69,120.32,23.34,171.47,38.41,207.91
					c19.47,47.14,37.12,68.33,29.82,187.52c-1.05,17.62,0.08,34.03,3.09,49.19c24.83,124.96,177.44,163.32,273,84.92
					c41.72-34.23,72.83-90.6,77.49-171.93"/>
				<path class="children" id="children_mouse_1" d="M775.24,827.34c-95.03,75.97-245.4,37.24-270-86.74c-2.99-15.06-4.12-31.36-3.11-48.84
					c7.09-117.7-10.23-139.29-29.65-186.23c-15.17-36.55-30.84-87.32-39.67-205.46c-2.08-27.8-4.1-59.05-5.32-94.57
					c0.4,37.05,1.55,69.55,3.08,98.24c6.54,122.49,22.17,174.04,37.16,210.36c19.52,47.34,37.5,68.12,29.98,188.82
					c-1.09,17.76,0.04,34.29,3.07,49.53c25.07,125.93,180.07,164.11,276.01,83.1c41.84-35.07,72.57-92.71,76.67-175.37c0,0,0,0,0,0
					C847.97,739.46,816.68,794.22,775.24,827.34z"/>
				<path class="children" id="children_mouse_2" d="M607.22,18.04C680.3,20.42,748.68,70,755.12,163.29c0.52,7.47,0.66,15.21,0.37,23.23
					c-5.89,154.45,62.07,111.64,87.35,288.5c6.51,45.54,11.35,104.43,10.68,183.89c0-0.02,0-0.03,0-0.05
					c2.35-82.36-0.67-143.17-6.39-189.55c-22.54-182.72-93.05-135.56-86.3-293.47c0.34-8.14,0.24-15.99-0.27-23.55
					C754.21,57.29,682.91,7.91,607.75,7.28c-63.88-0.6-130.43,34.21-161.81,106.13c-11.28,25.85-18.03,56.51-18.44,92.09
					c1.24-34.35,8.56-63.77,20.13-88.51C479.76,48.33,545.03,15.83,607.22,18.04z"/>
			</g>
		</g>
	</g>
	<g id="problems">
		<g>
			<path class="problems" d="M427.5,205.5c2.89-31.89,11.34-58.82,23.52-81.34c33.6-62.11,96.31-89.82,155.12-84.6
				c68.93,6.12,131.47,55.85,138.09,145.73c0.55,7.28,0.78,14.81,0.59,22.59c-3.67,147.55,58.94,113.55,89.45,278.57
				c8.14,44,16.61,99.17,19.28,173.1"/>
			<path class="problems" d="M427.5,205.5c2.47-32.51,10.64-60.06,22.67-83.13c33.24-63.76,96.58-92.63,156.24-88.19
				c69.97,5.21,133.97,54.88,140.54,145.61c0.54,7.33,0.75,14.91,0.53,22.75c-4.17,149.27,59.69,113.06,88.93,281.05
				c7.73,44.41,15.3,100.56,17.13,175.95"/>
			<path class="problems" d="M427.5,205.5c2.06-33.12,9.95-61.3,21.83-84.92c32.87-65.4,96.85-95.44,157.35-91.77
				c71.01,4.3,136.47,53.91,142.99,145.49c0.54,7.37,0.72,15.01,0.48,22.91c-4.66,151,60.46,112.58,88.4,283.53
				c7.32,44.82,13.99,101.95,14.98,178.8"/>
			<path class="problems" d="M427.5,205.5c1.65-33.74,9.25-62.53,20.98-86.71c32.5-67.03,97.12-98.25,158.47-95.36
				C679,26.82,745.91,76.35,752.4,168.79c0.53,7.42,0.68,15.11,0.43,23.07c-5.46,152.72,61.26,112.11,87.88,286.02
				c6.92,45.23,12.68,103.34,12.83,181.65"/>
			<path class="problems" d="M427.5,205.5c1.24-34.35,8.56-63.77,20.13-88.51c32.13-68.66,97.4-101.16,159.58-98.95
				C680.3,20.42,748.68,70,755.12,163.29c0.52,7.47,0.66,15.21,0.37,23.23c-5.89,154.45,62.07,111.64,87.35,288.5
				c6.53,45.65,11.38,104.73,10.68,184.5"/>
			<path class="problems" d="M427.5,205.5c1.21,35.52,3.24,66.77,5.32,94.57c8.83,118.14,24.51,168.91,39.67,205.46
				c19.42,46.94,36.75,68.53,29.65,186.23c-1.02,17.48,0.12,33.78,3.11,48.84c24.6,123.98,174.96,162.71,270,86.74
				c41.55-33.21,72.9-88.18,78.27-167.82"/>
			<path class="problems" d="M427.5,205.5c1.62,34.75,4.08,65.38,6.44,92.74c9.98,115.96,25.67,166.34,40.93,203.01
				c19.38,46.74,36.37,68.73,29.49,184.93c-0.98,17.35,0.16,33.53,3.12,48.5c24.36,123,172.5,162.1,266.99,88.56
				c41.38-32.2,72.98-85.76,79.06-163.71"/>
			<path class="problems" d="M427.5,205.5c2.02,33.98,4.93,63.98,7.56,90.9c11.11,113.76,26.84,163.77,42.19,200.56
				c19.33,46.54,35.99,68.93,29.33,183.63c-0.94,17.21,0.2,33.28,3.14,48.15c24.13,122.02,170.04,161.49,263.98,90.38
				c41.21-31.19,73.05-83.34,79.84-159.59"/>
			<path class="problems" d="M427.5,205.5c2.43,33.21,5.77,62.58,8.68,89.07c12.24,111.56,28.01,161.21,43.45,198.11
				c19.29,46.34,35.37,69.12,29.16,182.34c-0.94,17.07,0.24,33.03,3.15,47.8c23.89,121.04,167.58,160.87,260.97,92.2
				c41.05-30.18,73.13-80.92,80.62-155.48"/>
			<path class="problems" d="M427.5,205.5c2.83,32.45,6.61,61.18,9.8,87.23c13.36,109.35,29.18,158.64,44.71,195.66
				c19.24,46.14,34.95,69.32,29,181.04c-0.9,16.93,0.28,32.77,3.17,47.46c23.66,120.06,165.13,160.26,257.97,94.02
				c40.88-29.17,73.21-78.5,81.41-151.37"/>
			<path class="problems" id="problems_mouse_1" d="M771.36,806.8c-92.27,63.8-231.54,23.24-254.96-95.84c-2.86-14.59-4.05-30.32-3.18-47.11
				c5.71-110.22-9.64-133.8-28.83-179.74c-15.62-37.14-31.49-86.08-45.97-193.21c-3.46-25.62-7.68-53.72-10.92-85.4
				c1.21,35.52,3.24,66.77,5.32,94.57c8.83,118.14,24.5,168.91,39.67,205.46c19.42,46.94,36.75,68.53,29.65,186.23
				c-1.02,17.48,0.12,33.78,3.11,48.84c24.6,123.98,174.96,162.71,270,86.74c41.43-33.12,72.73-87.89,78.22-167.18
				c0-0.01,0-0.01,0-0.02c0,0,0-0.01,0-0.01c0,0,0-0.01,0-0.01c0-0.01,0-0.01,0-0.02C844.47,730.97,811.98,778.71,771.36,806.8z"/>
			<path class="problems" id="problems_mouse_2" d="M605.87,44.94c67.89,7.02,128.98,56.83,135.63,145.85c0.56,7.23,0.81,14.71,0.64,22.43
				c-3.17,145.82,58.21,114.05,89.98,276.09c8.53,43.5,17.87,97.54,21.4,169.76c0-0.01,0-0.02,0-0.03c0-0.01,0-0.02,0-0.03
				c0-0.01,0-0.02,0-0.03c0-0.01,0-0.02,0-0.03c0.67-79.47-4.17-138.37-10.68-183.91c-25.28-176.86-93.24-134.05-87.35-288.5
				c0.28-8.02,0.15-15.76-0.37-23.23C748.68,70,680.3,20.42,607.22,18.04c-62.19-2.21-127.45,30.29-159.58,98.95
				c-11.58,24.74-18.9,54.15-20.13,88.51c3.3-31.28,12.03-57.58,24.36-79.55C485.82,65.48,547.9,38.94,605.87,44.94z"/>
		</g>
	</g>
	<g id="disease_solid">
		<g>
			<path class="disease" d="M427.5,205.5c10.31-20.82,23.37-36.35,38.74-49.11c38.86-32.26,91.3-39.4,135.06-20
				c50.1,22.21,86.31,73.39,93.91,147.91c0.66,6.43,1.27,12.99,1.55,19.7c4.84,116.36,50.43,123.13,98.9,233.87
				c16.32,37.28,40.15,74.17,57.99,121.78"/>
			<path class="disease" d="M427.5,205.5c9.89-21.43,22.73-37.6,37.9-50.9c38.66-33.91,91.58-42.19,136.18-23.58
				c51.15,21.33,88.81,72.42,96.37,147.79c0.65,6.48,1.24,13.09,1.49,19.86c4.4,118.1,50.61,122.6,98.37,236.36
				c15.8,37.63,38.84,75.56,55.84,124.63"/>
			<path class="disease" d="M427.5,205.5c9.48-22.05,22.09-38.85,37.05-52.69c38.44-35.56,91.86-44.98,137.29-27.17
				c52.2,20.45,91.31,71.44,98.82,147.67c0.64,6.52,1.22,13.19,1.44,20.02c3.94,119.83,50.83,122.06,97.85,238.84
				c15.3,37.99,37.53,76.95,53.69,127.48"/>
			<path class="disease" d="M427.5,205.5c9.07-22.66,21.44-40.1,36.2-54.48c38.21-37.22,92.14-47.77,138.41-30.76
				c53.25,19.57,93.81,70.47,101.27,147.54c0.64,6.57,1.19,13.3,1.39,20.18c3.49,121.56,51.08,121.52,97.32,241.32
				c14.8,38.34,36.23,78.34,51.54,130.33"/>
			<path class="disease" d="M427.5,205.5c8.66-23.28,20.79-41.35,35.36-56.27c37.97-38.88,92.43-50.56,139.52-34.35
				c54.3,18.69,96.31,69.5,103.73,147.42c0.63,6.62,1.16,13.4,1.33,20.34c3.03,123.3,51.38,120.98,96.8,243.81
				c14.31,38.7,34.92,79.73,49.39,133.19"/>
			<path class="disease" d="M427.5,205.5c8.25-23.89,20.14-42.61,34.51-58.06c37.71-40.55,92.71-53.36,140.64-37.94
				c55.35,17.8,98.81,68.52,106.18,147.3c0.62,6.67,1.14,13.5,1.28,20.5c2.57,125.03,51.71,120.43,96.27,246.29
				c13.83,39.06,33.61,81.12,47.24,136.04"/>
			<path class="disease" d="M427.5,205.5c7.83-24.51,19.48-43.86,33.67-59.85c37.45-42.21,92.99-56.15,141.75-41.53
				c56.4,16.91,101.32,67.55,108.64,147.18c0.62,6.71,1.11,13.6,1.23,20.66c2.11,126.77,52.07,119.88,95.75,248.77
				c13.36,39.42,32.3,82.51,45.09,138.89"/>
			<path class="disease" d="M427.5,205.5c7.42-25.12,18.82-45.11,32.82-61.64c37.17-43.88,93.27-58.95,142.87-45.12
				c57.45,16.02,103.82,66.57,111.09,147.06c0.61,6.76,1.08,13.7,1.17,20.82c1.64,128.5,52.47,119.33,95.22,251.25
				c12.89,39.78,30.99,83.9,42.94,141.74"/>
			<path class="disease" d="M427.5,205.5c7.01-25.74,18.15-46.36,31.98-63.43c36.89-45.54,93.55-61.75,143.98-48.71
				c58.49,15.13,106.32,65.6,113.54,146.94c0.6,6.81,1.06,13.8,1.12,20.98c1.17,130.23,52.91,118.79,94.7,253.74
				c12.43,40.15,29.69,85.28,40.79,144.59"/>
			<path class="disease" d="M427.5,205.5c6.18-26.97,16.81-48.87,30.28-67.01c36.29-48.87,94.11-67.35,146.21-55.89
				c60.59,13.34,111.49,63.64,118.45,146.7c0.6,6.9,1,14,1.01,21.3c0.22,133.7,53.87,117.7,93.65,258.7
				c11.53,40.89,27.07,88.06,36.48,150.29"/>
			<path class="disease" d="M427.5,205.5c5.77-27.58,16.13-50.12,29.44-68.81c35.98-50.54,94.39-70.16,147.32-59.47
				c61.64,12.44,113.99,62.66,120.91,146.58c0.6,6.95,0.97,14.1,0.96,21.46c-0.26,135.43,54.41,117.16,93.13,261.19
				c11.09,41.26,25.76,89.45,34.33,153.14"/>
			<path class="disease" d="M427.5,205.5c5.36-28.2,15.45-51.36,28.59-70.6c35.66-52.2,94.66-72.96,148.44-63.06
				c62.68,11.54,116.49,61.69,123.36,146.46c0.59,7,0.95,14.21,0.91,21.63c-0.74,137.16,54.97,116.63,92.6,263.67
				c10.66,41.64,24.46,90.84,32.18,155.99"/>
			<path class="disease" d="M427.5,205.5c4.95-28.81,14.77-52.61,27.75-72.39c35.33-53.86,94.94-75.77,149.55-66.65
				c63.73,10.64,118.98,60.72,125.82,146.34c0.58,7.04,0.92,14.31,0.85,21.79c-1.22,138.9,55.56,116.1,92.08,266.15
				c10.23,42.03,23.15,92.23,30.03,158.84"/>
			<path class="disease" d="M427.5,205.5c4.54-29.43,14.09-53.86,26.9-74.18c35-55.51,95.22-78.58,150.67-70.24
				c64.77,9.74,121.48,59.74,128.27,146.21c0.58,7.09,0.89,14.41,0.8,21.95c-1.71,140.63,56.19,115.58,91.55,268.64
				c9.8,42.41,21.84,93.62,27.88,161.69"/>
			<path class="disease" d="M427.5,205.5c4.12-30.04,13.4-55.1,26.05-75.97c34.65-57.17,95.49-81.39,151.78-73.83
				c65.81,8.83,123.98,58.77,130.72,146.09c0.57,7.14,0.86,14.51,0.75,22.11c-2.19,142.36,56.83,115.06,91.03,271.12
				c9.38,42.8,20.53,95.01,25.73,164.54"/>
			<path class="disease" d="M427.5,205.5c3.71-30.66,12.72-56.34,25.21-77.76c34.31-58.82,95.77-84.2,152.9-77.42
				c66.85,7.93,126.48,57.8,133.18,145.97c0.56,7.19,0.84,14.61,0.69,22.27c-2.68,144.09,57.51,114.55,90.5,273.6
				c8.96,43.2,19.22,96.4,23.58,167.39"/>
			<path class="disease" d="M427.5,205.5c3.3-31.28,12.03-57.58,24.36-79.55c33.96-60.47,96.04-87.01,154.01-81.01
				c67.89,7.02,128.98,56.83,135.63,145.85c0.56,7.23,0.81,14.71,0.64,22.43c-3.17,145.82,58.21,114.05,89.98,276.09
				c8.55,43.6,17.92,97.78,21.43,170.24"/>
			<path class="disease" d="M427.5,205.5c3.24,31.68,7.45,59.78,10.92,85.4c14.47,107.13,30.35,156.07,45.97,193.21
				c19.2,45.94,34.54,69.52,28.83,179.74c-0.87,16.79,0.32,32.52,3.18,47.11c23.42,119.08,162.69,159.64,254.96,95.84
				c40.73-28.16,73.28-76.07,82.19-147.25"/>
			<path class="disease" d="M427.5,205.5c3.64,30.91,8.29,58.37,12.04,83.57c15.58,104.9,31.51,153.51,47.22,190.76
				c19.15,45.74,34.13,69.72,28.67,178.45c-0.84,16.66,0.36,32.27,3.2,46.77c23.18,118.1,160.26,159.02,251.95,97.66
				c40.57-27.15,73.36-73.65,82.97-143.14"/>
			<path class="disease" d="M427.5,205.5c4.05,30.15,9.13,56.96,13.16,81.73c16.67,102.66,32.68,150.94,48.48,188.31
				c19.1,45.54,33.71,69.93,28.51,177.15c-0.8,16.52,0.4,32.02,3.22,46.42c22.95,117.12,157.84,158.41,248.95,99.48
				c40.42-26.15,73.43-71.23,83.76-139.03"/>
			<path class="disease" d="M427.5,205.5c4.45,29.38,9.97,55.54,14.28,79.9c17.76,100.41,33.85,148.37,49.74,185.86
				c19.06,45.34,33.3,70.13,28.34,175.85c-0.77,16.38,0.44,31.77,3.23,46.07c22.71,116.15,155.42,157.79,245.94,101.3
				c40.28-25.14,73.51-68.81,84.54-134.91"/>
			<path class="disease" d="M427.5,205.5c4.86,28.61,10.8,54.12,15.4,78.06c18.83,98.15,35.02,145.81,51,183.41
				c19.01,45.14,32.89,70.33,28.18,174.56c-0.74,16.25,0.48,31.51,3.25,45.73c22.48,115.17,153.02,157.18,242.93,103.12
				c40.14-24.13,73.58-66.39,85.32-130.8"/>
			<path class="disease" d="M427.5,205.5c5.26,27.85,11.64,52.7,16.51,76.23c19.88,95.88,36.19,143.24,52.26,180.96
				c18.97,44.94,32.49,70.53,28.01,173.26c-0.7,16.11,0.52,31.26,3.26,45.38c22.24,114.19,150.62,156.57,239.93,104.94
				c40-23.13,73.66-63.97,86.11-126.69"/>
			<path class="disease" d="M427.5,205.5c5.66,27.08,12.47,51.27,17.63,74.4c20.93,93.61,37.36,140.67,53.52,178.51
				c18.92,44.74,32.08,70.73,27.85,171.96c-0.67,15.97,0.56,31.01,3.28,45.04c22.01,113.21,148.24,155.96,236.92,106.76
				c39.87-22.12,73.74-61.55,86.89-122.57"/>
			<path class="disease" d="M427.5,205.5c6.07,26.31,13.29,49.84,18.75,72.56c21.95,91.32,38.52,138.11,54.78,176.06
				c18.88,44.54,31.67,70.93,27.68,170.67c-0.63,15.83,0.6,30.76,3.3,44.69c21.77,112.23,145.86,155.35,233.91,108.58
				c39.74-21.11,73.81-59.13,87.67-118.46"/>
			<path class="disease" d="M427.5,205.5c6.47,25.55,14.12,48.41,19.87,70.73c22.96,89.02,39.69,135.54,56.03,173.61
				c18.83,44.34,31.27,71.14,27.52,169.37c-0.6,15.7,0.64,30.51,3.31,44.35c21.54,111.25,143.5,154.75,230.9,110.4
				c39.62-20.1,73.89-56.71,88.45-114.35"/>
			<path class="disease" d="M427.5,205.5c7.28,24.01,15.76,45.53,22.11,67.06c24.93,84.41,42.11,130.37,58.55,168.71
				c18.83,43.9,30.47,71.54,27.19,166.78c-0.53,15.42,0.72,30,3.34,43.65c21.07,109.29,138.8,153.56,224.89,114.04
				c39.39-18.08,74.04-51.87,90.02-106.12"/>
			<path class="disease" d="M427.5,205.5c7.69,23.25,16.57,44.09,23.23,65.23c25.88,82.09,43.28,127.8,59.81,166.26
				c18.79,43.7,30.07,71.74,27.03,165.48c-0.5,15.29,0.76,29.75,3.36,43.31c20.83,108.31,136.47,152.98,221.88,115.86
				c39.28-17.07,74.12-49.45,90.8-102.01"/>
			<path class="disease" d="M427.5,205.5c8.09,22.48,17.38,42.64,24.35,63.39c26.8,79.76,44.45,125.24,61.07,163.81
				c18.74,43.5,29.67,71.95,26.86,164.18c-0.46,15.15,0.8,29.5,3.37,42.96c20.6,107.34,134.16,152.4,218.88,117.68
				c39.18-16.06,74.19-47.02,91.59-97.89"/>
			<path class="disease" d="M427.5,205.5c8.5,21.71,18.18,41.19,25.47,61.56c27.7,77.43,45.62,122.67,62.33,161.36
				c18.7,43.29,29.27,72.15,26.7,162.88c-0.43,15.01,0.84,29.25,3.39,42.62c20.36,106.36,131.85,151.83,215.87,119.5
				c39.08-15.04,74.27-44.6,92.37-93.78"/>
			<path class="disease" d="M427.5,205.5c8.9,20.95,18.98,39.73,26.59,59.72c28.57,75.09,46.79,120.1,63.59,158.9
				c18.65,43.09,28.88,72.35,26.54,161.59c-0.39,14.88,0.88,28.99,3.41,42.27c20.13,105.38,129.55,151.27,212.86,121.32
				c38.99-14.02,74.34-42.18,93.15-89.67"/>
			<path class="disease" d="M427.5,205.5c9.31,20.18,19.78,38.27,27.71,57.89c29.42,72.74,47.96,117.53,64.84,156.45
				c18.61,42.89,28.48,72.55,26.37,160.29c-0.35,14.74,0.92,28.74,3.42,41.92c19.89,104.4,127.27,150.72,209.86,123.14
				c38.9-12.99,74.42-39.76,93.94-85.55"/>
			<path class="disease" d="M427.5,205.5c9.71,19.41,20.57,36.81,28.83,56.06c30.23,70.39,49.13,114.96,66.1,154
				c18.56,42.69,28.09,72.76,26.21,158.99c-0.32,14.6,0.96,28.49,3.44,41.58c19.65,103.42,125,150.18,206.85,124.96
				c38.82-11.96,74.5-37.34,94.72-81.44"/>
			<path class="disease" d="M427.5,205.5c10.12,18.65,21.35,35.35,29.95,54.22c31.02,68.05,50.3,112.4,67.36,151.55
				c18.52,42.49,27.7,72.96,26.04,157.7c-0.28,14.47,1,28.24,3.45,41.23c19.42,102.44,122.74,149.65,203.84,126.78
				c38.74-10.93,74.57-34.92,95.5-77.33"/>
			<path class="disease" d="M427.5,205.5c10.52,17.88,22.12,33.88,31.07,52.39c31.77,65.7,51.47,109.83,68.62,149.1
				c18.47,42.29,27.31,73.16,25.88,156.4c-0.25,14.33,1.04,27.98,3.47,40.89c19.18,101.46,120.49,149.14,200.83,128.6
				c38.67-9.89,74.65-32.5,96.29-73.21"/>
			<path class="disease" id="disease_mouse_1" d="M467.09,158.19c39.06-30.62,91.02-36.62,133.95-16.41c49.05,23.09,83.81,74.36,91.46,148.03
				c0.66,6.38,1.29,12.89,1.6,19.54c5.29,114.62,50.29,123.66,99.42,231.39c16.82,36.89,41.41,72.72,60.09,118.8
				c0-0.01-0.01-0.01-0.01-0.02c0-0.01,0-0.01-0.01-0.02c0-0.01-0.01-0.02-0.01-0.02c0-0.01,0-0.01-0.01-0.02
				c0-0.01,0-0.02-0.01-0.02c0-0.01,0-0.02-0.01-0.02c0-0.01,0-0.01-0.01-0.02c0-0.01,0-0.02-0.01-0.03c0-0.01,0-0.02-0.01-0.03
				c0-0.01,0-0.02,0-0.03c0-0.01,0-0.02,0-0.03c0-0.01,0-0.02,0-0.02c0-0.01,0-0.02,0-0.03c0-0.01,0-0.02,0-0.03
				c0-0.01,0-0.02,0-0.03c0-0.01,0-0.02,0-0.03s0-0.02,0-0.03c-3.53-72.23-12.88-126.29-21.41-169.79
				c-31.76-162.04-93.15-130.27-89.98-276.09c0.17-7.72-0.08-15.2-0.64-22.43c-6.66-89.03-67.74-138.83-135.63-145.85
				c-57.97-6-120.05,20.54-154.01,81.01c-12.34,21.97-21.06,48.28-24.36,79.55C438.22,185.3,451.51,170.4,467.09,158.19z"/>
			<path class="disease" id="disease_mouse_2" d="M756.6,728.77c-79.58,18.22-178.88-29.93-197.83-130.42c-2.4-12.81-3.7-26.35-3.49-40.54
				c1.21-81.74-7.29-113.01-25.72-155.1c-17.24-39.39-37.4-83.3-69.88-146.65c-9.3-18.14-21.27-33.44-32.19-50.56
				c3.24,31.68,7.45,59.78,10.92,85.4c14.47,107.13,30.35,156.07,45.97,193.21c19.2,45.94,34.54,69.52,28.83,179.74
				c-0.87,16.79,0.32,32.52,3.18,47.11c23.42,119.08,162.69,159.64,254.96,95.84c40.62-28.09,73.11-75.84,82.12-146.72
				c0,0,0-0.01,0-0.01c0,0,0-0.01,0-0.01c0,0,0-0.01,0-0.01c0,0,0-0.01,0-0.01c0-0.01,0-0.01,0-0.02c0,0,0-0.01,0-0.01
				c0,0,0-0.01,0-0.01c0,0,0-0.01,0-0.01c0,0,0-0.01,0-0.01c0,0,0-0.01,0-0.01c0,0,0-0.01,0-0.01c0,0,0-0.01,0-0.01
				c0,0,0-0.01,0-0.01c0,0,0-0.01,0-0.01c0,0,0,0,0-0.01c0,0,0-0.01,0-0.01c0,0,0-0.01,0-0.01c0,0,0-0.01,0.01-0.01
				C831.18,698.77,795.13,719.95,756.6,728.77z"/>
		</g>
	</g>
	<g id="disease_dotted">
		<path class="disease" d="M427.5,205.5c6.6-26.35,17.48-47.62,31.13-65.22c36.59-47.21,93.83-64.55,145.09-52.3
			c59.54,14.23,108.83,64.63,116,146.82c0.6,6.86,1.03,13.9,1.07,21.14c0.7,131.97,53.37,118.24,94.18,256.22
			c11.98,40.52,28.38,86.67,38.64,147.44"/>
		<path class="disease" d="M427.5,205.5c6.88,24.78,14.94,46.97,20.99,68.89c23.96,86.72,40.94,132.94,57.29,171.16
			c18.87,44.1,30.87,71.34,27.36,168.07c-0.56,15.56,0.68,30.25,3.33,44c21.3,110.27,141.15,154.15,227.9,112.22
			c39.5-19.09,73.96-54.29,89.24-110.23"/>
	</g>
	<g id="obesity_solid">
		<g>
			<path class="obesity" d="M427.5,205.5c21.44-4.2,40.07-4.62,61.58-0.75c43.12,7.76,84.35,35.22,104.97,76.91
				c22.47,45.2,19.08,99.65,27.65,151.17c0.86,5.15,1.86,10.27,2.99,15.36c15.22,69.71,57.09,129.09,113.07,166.83
				c35.13,23.68,75.46,36.67,116.06,44.81"/>
			<path class="obesity" d="M427.5,205.5c21.03-4.82,39.41-5.73,60.73-2.54c42.86,6.4,84.53,32.48,106.09,73.32
				c23.42,44.37,21.57,98.67,30.11,151.05c0.85,5.2,1.85,10.37,2.93,15.52c15.02,71.4,56.73,129.37,112.55,169.31
				c34.26,24.52,74.16,38.06,113.91,47.66"/>
			<path class="obesity" d="M427.5,205.5c20.61-5.44,38.76-6.83,59.89-4.33c42.62,5.04,84.76,29.72,107.2,69.73
				c24.41,43.52,24.07,97.7,32.56,150.93c0.85,5.24,1.83,10.47,2.88,15.69c14.69,73.11,56.35,129.6,112.02,171.8
				c33.41,25.32,72.85,39.45,111.76,50.51"/>
			<path class="obesity" d="M427.5,205.5c20.2-6.05,38.11-7.94,59.04-6.12c42.39,3.68,84.99,26.96,108.32,66.14
				c25.4,42.67,26.57,96.73,35.01,150.81c0.84,5.29,1.82,10.57,2.83,15.85c14.36,74.82,55.94,129.78,111.5,174.28
				c32.56,26.08,71.54,40.84,109.61,53.37"/>
			<path class="obesity" d="M427.5,205.5c19.79-6.67,37.47-9.06,58.2-7.91c42.17,2.32,85.23,24.2,109.43,62.55
				c26.4,41.83,29.07,95.75,37.47,150.69c0.83,5.34,1.8,10.67,2.77,16.01c14.02,76.54,55.52,129.91,110.97,176.76
				c31.72,26.8,70.23,42.23,107.46,56.22"/>
			<path class="obesity" d="M427.5,205.5c19.38-7.28,36.84-9,57.35-9.71c41.96-1.44,85.46,21.44,110.55,58.96
				c27.4,40.99,31.57,94.78,39.92,150.57c0.83,5.39,1.78,10.77,2.72,16.17c13.68,78.26,55.09,129.99,110.45,179.25
				c30.89,27.48,68.92,43.62,105.31,59.07"/>
			<path class="obesity" d="M427.5,205.5c18.96-7.9,36.26-9.95,56.51-11.5c41.67-3.18,85.7,18.69,111.66,55.37
				c28.4,40.14,34.06,93.81,42.38,150.45c0.82,5.43,1.76,10.87,2.67,16.33c13.33,79.98,54.66,130.02,109.92,181.73
				c30.07,28.13,67.62,45.01,103.16,61.92"/>
			<path class="obesity" d="M427.5,205.5c18.55-8.51,35.58-12.42,55.66-13.29c41.61-1.81,85.94,15.93,112.78,51.78
				c29.41,39.3,36.44,92.85,44.83,150.33c0.8,5.48,1.74,10.97,2.61,16.49c12.97,81.7,54.22,130.01,109.4,184.21
				c29.26,28.75,66.31,46.39,101.01,64.77"/>
			<path class="obesity" d="M427.5,205.5c18.14-9.13,34.96-13.55,54.81-15.08c41.45-3.2,86.19,13.18,113.89,48.19
				c30.42,38.46,38.92,91.88,47.28,150.21c0.79,5.53,1.72,11.07,2.56,16.65c12.61,83.43,53.8,129.96,108.87,186.7
				c28.47,29.33,65,47.78,98.86,67.62"/>
			<path class="obesity" d="M427.5,205.5c17.32-10.36,33.74-15.83,53.12-18.66c41.16-6.02,86.69,7.67,116.12,41.02
				c32.45,36.77,43.9,89.94,52.19,149.96c0.78,5.63,1.68,11.27,2.45,16.97c11.87,86.88,52.97,129.72,107.82,191.66
				c26.94,30.42,62.39,50.56,94.56,73.32"/>
			<path class="obesity" d="M427.5,205.5c16.9-10.97,33.13-16.98,52.28-20.45c41.03-7.44,86.94,4.91,117.23,37.43
				c33.47,35.93,46.39,88.96,54.65,149.84c0.77,5.67,1.65,11.37,2.4,17.13c11.5,88.61,52.58,129.55,107.3,194.14
				c26.2,30.93,61.08,51.95,92.41,76.17"/>
			<path class="obesity" d="M427.5,205.5c16.49-11.59,32.53-18.14,51.43-22.24c40.91-8.89,87.2,2.15,118.35,33.84
				c34.49,35.08,48.88,87.99,57.1,149.72c0.76,5.72,1.63,11.47,2.35,17.29c11.11,90.34,52.21,129.34,106.77,196.63
				c25.47,31.41,59.77,53.34,90.25,79.02"/>
			<path class="obesity" d="M427.5,205.5c16.08-12.2,31.93-19.3,50.58-24.03c40.79-10.34,87.46-0.6,119.46,30.25
				c35.52,34.24,51.37,87.02,59.55,149.6c0.75,5.77,1.61,11.58,2.29,17.45c10.73,92.07,51.86,129.09,106.25,199.11
				c24.76,31.88,58.46,54.73,88.1,81.87"/>
			<path class="obesity" d="M427.5,205.5c15.67-12.82,31.33-20.48,49.74-25.82c40.68-11.81,87.72-3.36,120.58,26.66
				c36.54,33.39,53.86,86.05,62.01,149.48c0.75,5.81,1.59,11.68,2.24,17.61c10.33,93.81,51.54,128.81,105.72,201.59
				c24.06,32.33,57.15,56.12,85.95,84.72"/>
			<path class="obesity" d="M427.5,205.5c15.25-13.43,30.73-21.66,48.89-27.61c40.57-13.3,87.98-6.12,121.69,23.07
				c37.57,32.55,56.35,85.07,64.46,149.36c0.74,5.86,1.56,11.78,2.19,17.77c9.94,95.54,51.25,128.5,105.2,204.08
				c23.39,32.76,55.85,57.51,83.8,87.57"/>
			<path class="obesity" d="M427.5,205.5c14.84-14.05,30.13-22.85,48.05-29.41c40.46-14.8,88.25-8.89,122.81,19.48
				c38.61,31.7,58.84,84.1,66.92,149.24c0.73,5.91,1.54,11.88,2.13,17.93c9.54,97.27,50.98,128.16,104.67,206.56
				c22.72,33.18,54.54,58.89,81.65,90.42"/>
			<path class="obesity" d="M427.5,205.5c14.43-14.66,29.53-24.05,47.2-31.2c40.35-16.32,88.52-11.65,123.92,15.89
				c39.64,30.85,61.34,83.13,69.37,149.12c0.73,5.96,1.52,11.98,2.08,18.09c9.13,99.01,50.75,127.8,104.15,209.04
				c22.07,33.58,53.23,60.28,79.5,93.28"/>
			<path class="obesity" d="M427.5,205.5c14.02-15.28,28.93-25.25,46.35-32.99c40.23-17.86,88.79-14.42,125.03,12.31
				c40.68,29.99,63.83,82.15,71.83,149c0.72,6,1.49,12.08,2.03,18.25c8.72,100.74,50.55,127.41,103.62,211.53
				c21.44,33.98,51.92,61.67,77.35,96.13"/>
			<path class="obesity" d="M427.5,205.5c13.19-16.51,27.72-27.68,44.66-36.57c39.99-20.97,89.34-19.95,127.26,5.13
				c42.76,28.28,68.82,80.21,76.73,148.75c0.7,6.1,1.45,12.28,1.92,18.58c7.89,104.21,50.26,126.57,102.57,216.49
				c20.21,34.75,49.31,64.45,73.05,101.83"/>
			<path class="obesity" d="M427.5,205.5c12.78-17.12,27.11-28.91,43.82-38.36c39.86-22.55,89.62-22.72,128.38,1.54
				c43.81,27.42,71.32,79.23,79.19,148.63c0.7,6.15,1.42,12.38,1.87,18.74c7.46,105.95,50.17,126.12,102.05,218.98
				c19.62,35.12,48,65.84,70.9,104.68"/>
			<path class="obesity" d="M427.5,205.5c12.37-17.74,26.5-30.14,42.97-40.15c39.72-24.14,89.9-25.5,129.49-2.05
				c44.85,26.56,73.81,78.26,81.64,148.51c0.69,6.19,1.4,12.49,1.81,18.9c7.04,107.68,50.12,125.66,101.52,221.46
				c19.04,35.49,46.69,67.23,68.75,107.53"/>
			<path class="obesity" d="M427.5,205.5c11.96-18.36,25.88-31.37,42.13-41.94c39.57-25.75,90.17-28.27,130.61-5.64
				c45.9,25.7,76.31,77.29,84.1,148.39c0.68,6.24,1.37,12.59,1.76,19.06c6.6,109.42,50.1,125.17,101,223.94
				c18.47,35.85,45.38,68.62,66.6,110.38"/>
			<path class="obesity" d="M427.5,205.5c11.54-18.97,25.26-32.61,41.28-43.73c39.41-27.36,90.45-31.05,131.72-9.23
				c46.95,24.83,78.81,76.31,86.55,148.27c0.68,6.29,1.35,12.69,1.71,19.22c6.17,111.15,50.13,124.68,100.47,226.42
				c17.92,36.21,44.07,70.01,64.45,113.23"/>
			<path class="obesity" d="M427.5,205.5c11.13-19.59,24.63-33.85,40.43-45.52c39.24-28.99,90.74-33.83,132.84-12.82
				c48,23.96,81.31,75.34,89,148.15c0.67,6.34,1.32,12.79,1.65,19.38c5.73,112.89,50.19,124.17,99.95,228.91
				c17.37,36.57,42.77,71.39,62.29,116.08"/>
			<path class="obesity" d="M427.5,205.5c10.72-20.2,24.01-35.1,39.59-47.31c39.06-30.62,91.02-36.62,133.95-16.41
				c49.05,23.09,83.81,74.36,91.46,148.03c0.66,6.38,1.29,12.89,1.6,19.54c5.29,114.62,50.29,123.66,99.42,231.39
				c16.84,36.92,41.46,72.78,60.14,118.93"/>
			<path class="obesity" d="M427.5,205.5c10.93,17.11,22.89,32.42,32.19,50.56c32.48,63.35,52.63,107.26,69.88,146.65
				c18.43,42.09,26.93,73.37,25.72,155.1c-0.21,14.19,1.08,27.73,3.49,40.54c18.95,100.48,118.24,148.64,197.83,130.42
				c38.61-8.84,74.72-30.08,97.07-69.1"/>
			<path class="obesity" d="M427.5,205.5c11.33,16.35,23.65,30.95,33.31,48.72c33.16,61.01,53.8,104.7,71.14,144.2
				c18.38,41.89,26.54,73.57,25.55,153.81c-0.17,14.05,1.12,27.48,3.5,40.2c18.71,99.51,116.01,148.16,194.82,132.24
				c38.55-7.79,74.8-27.66,97.85-64.99"/>
			<path class="obesity" d="M427.5,205.5c11.73,15.58,24.4,29.48,34.43,46.89c33.8,58.67,54.97,102.13,72.4,141.75
				c18.33,41.69,26.16,73.78,25.39,152.51c-0.14,13.92,1.16,27.23,3.52,39.85c18.48,98.53,113.79,147.69,191.81,134.06
				c38.49-6.73,74.87-25.24,98.64-60.87"/>
			<path class="obesity" d="M427.5,205.5c12.14,14.81,25.14,28.01,35.55,45.05c34.41,56.34,56.14,99.56,73.65,139.3
				c18.29,41.49,25.78,73.98,25.22,151.21c-0.1,13.78,1.2,26.98,3.53,39.5c18.24,97.55,111.57,147.25,188.81,135.88
				c38.43-5.66,74.95-22.82,99.42-56.76"/>
			<path class="obesity" d="M427.5,205.5c12.54,14.05,25.88,26.55,36.67,43.22c34.98,54.02,57.31,97,74.91,136.85
				c18.24,41.29,25.4,74.18,25.06,149.92c-0.06,13.64,1.24,26.72,3.55,39.16c18.01,96.57,109.36,146.82,185.8,137.7
				c38.38-4.58,75.03-20.4,100.2-52.65"/>
			<path class="obesity" d="M427.5,205.5c12.95,13.28,26.6,25.08,37.79,41.39c35.51,51.72,58.47,94.43,76.17,134.4
				c18.19,41.09,25.03,74.39,24.9,148.62c-0.02,13.51,1.28,26.47,3.56,38.81c17.77,95.59,107.15,146.41,182.79,139.52
				c38.33-3.49,75.1-17.98,100.99-48.53"/>
			<path class="obesity" d="M427.5,205.5c13.35,12.51,27.31,23.62,38.91,39.55c36,49.43,59.64,91.86,77.43,131.95
				c18.14,40.89,24.65,74.59,24.73,147.32c0.01,13.37,1.32,26.22,3.58,38.47C589.69,657.4,677.5,706.5,751.94,704.13
				c38.34-1.22,75.18-15.55,101.77-44.42"/>
			<path class="obesity" d="M427.5,205.5c14.16,10.98,28.7,20.72,41.15,35.88c36.88,44.92,61.97,86.73,79.95,127.05
				c18.05,40.49,23.91,75,24.4,144.73c0.09,13.1,1.4,25.72,3.61,37.77c17.07,92.65,85.01,135.15,168.89,144.56
				c37.94,4.26,80.21-10.3,108.22-35.78"/>
			<path class="obesity" d="M427.5,205.5c14.57,10.21,29.38,19.29,42.27,34.05c37.27,42.7,63.14,84.16,81.21,124.6
				c18,40.29,23.55,75.21,24.24,143.43c0.13,12.96,1.44,25.46,3.63,37.43c16.83,91.67,86.66,136.49,170.76,146.8
				c37.86,4.64,75.41-8.29,104.12-32.08"/>
			<path class="obesity" d="M427.5,205.5c14.97,9.45,30.05,17.86,43.39,32.22c37.62,40.51,64.31,81.6,82.46,122.15
				c17.95,40.09,23.18,75.41,24.07,142.14c0.17,12.82,1.48,25.21,3.64,37.08c16.6,90.7,86.43,140.41,167.76,148.61
				c37.94,3.83,75.48-5.87,104.9-27.96"/>
			<path class="obesity" d="M427.5,205.5c15.38,8.68,30.71,16.44,44.51,30.38c37.95,38.35,65.39,79.07,83.72,119.7
				c17.82,39.93,22.82,75.62,23.91,140.84c0.21,12.69,1.52,24.96,3.66,36.74c16.36,89.72,93.89,144.38,164.75,150.43
				c38.02,3.25,75.56-3.45,105.68-23.85"/>
			<path class="obesity" d="M427.5,205.5c15.78,7.91,31.36,15.04,45.63,28.55c38.26,36.22,66.56,76.5,84.98,117.25
				c17.78,39.73,22.46,75.82,23.75,139.54c0.25,12.55,1.56,24.71,3.67,36.39c16.12,88.74,91.66,144.11,161.74,152.25
				c37.96,4.41,75.63-1.03,106.47-19.74"/>
			<path class="obesity" d="M427.5,205.5c16.19,7.15,32,13.65,46.75,26.71c38.55,34.13,67.73,73.93,86.24,114.8
				c17.73,39.53,22.11,76.02,23.58,138.25c0.29,12.41,1.6,24.46,3.69,36.05c15.89,87.76,89.42,143.85,158.74,154.07
				c37.89,5.59,75.71,1.39,107.25-15.62"/>
			<path class="obesity" d="M427.5,205.5c16.59,6.38,32.63,12.28,47.87,24.88c38.82,32.08,68.9,71.37,87.5,112.35
				c17.69,39.33,21.75,76.23,23.42,136.95c0.34,12.28,1.64,24.2,3.71,35.7c15.65,86.78,87.17,143.62,155.73,155.89
				c37.82,6.77,75.79,3.81,108.03-11.51"/>
			<path class="obesity" d="M427.5,205.5c16.99,5.61,33.25,10.93,48.99,23.05c39.07,30.07,70.06,68.8,88.76,109.9
				c17.64,39.13,21.4,76.43,23.25,135.65c0.38,12.14,1.68,23.95,3.72,35.35c15.42,85.8,84.9,143.4,152.72,157.71
				c37.74,7.97,75.86,6.23,108.82-7.4"/>
			<path class="obesity" d="M427.5,205.5c17.4,4.84,33.86,9.6,50.11,21.21c39.33,28.11,71.23,66.23,90.02,107.45
				c17.6,38.93,21.05,76.64,23.09,134.35c0.42,12,1.72,23.7,3.74,35.01c15.18,84.82,82.62,143.19,149.71,159.53
				c37.65,9.17,75.94,8.65,109.6-3.28"/>
			<path class="obesity" d="M427.5,205.5c18.21,3.31,35.08,7.01,52.35,17.54c39.84,24.3,73.57,61.1,92.53,102.55
				c17.5,38.53,20.37,77.04,22.76,131.76c0.51,11.73,1.8,23.2,3.77,34.32c14.71,82.86,78.01,142.81,143.7,163.17
				c37.45,11.61,76.09,13.5,111.17,4.94"/>
			<path class="obesity" d="M427.5,205.5c18.61,2.54,35.68,5.75,53.47,15.71c40.11,22.46,74.74,58.53,93.79,100.1
				c17.46,38.33,20.03,77.25,22.6,130.46c0.56,11.59,1.84,22.94,3.79,33.97c14.48,81.89,75.68,142.64,140.69,164.99
				c37.33,12.84,76.17,15.92,111.95,9.06"/>
			<path class="obesity" d="M427.5,205.5c19.02,1.78,36.29,4.51,54.59,13.88c40.4,20.67,75.91,55.97,95.05,97.65
				c17.41,38.13,19.7,77.45,22.43,129.17c0.61,11.46,1.88,22.69,3.8,33.62c14.24,80.91,73.32,142.47,137.69,166.81
				c37.2,14.07,76.24,18.34,112.73,13.17"/>
			<path class="obesity" d="M427.5,205.5c19.42,1.01,36.89,3.3,55.71,12.04c40.72,18.92,77.07,53.4,96.31,95.2
				c17.37,37.93,19.37,77.65,22.27,127.87c0.65,11.32,1.92,22.44,3.82,33.28c14.01,79.93,70.95,142.31,134.68,168.63
				c37.06,15.31,76.32,20.76,113.52,17.28"/>
			<path class="obesity" d="M427.5,205.5c19.83,0.24,37.51,2.12,56.83,10.21c41.06,17.2,78.24,50.83,97.57,92.75
				c17.32,37.73,19.04,77.85,22.11,126.57c0.7,11.18,1.96,22.19,3.83,32.93c13.77,78.95,68.56,142.15,131.67,170.45
				c36.91,16.55,76.39,23.18,114.3,21.4"/>
			<path class="obesity" d="M427.5,205.5c20.23-0.52,38.13,0.95,57.95,8.38c41.44,15.52,79.41,48.27,98.83,90.3
				c17.28,37.53,18.72,78.05,21.94,125.28c0.75,11.04,2,21.94,3.85,32.59c13.54,77.97,66.14,141.99,128.67,172.27
				c36.75,17.8,76.47,25.6,115.08,25.51"/>
			<path class="obesity" d="M427.5,205.5c20.64-1.29,38.76-0.19,59.07,6.54c41.86,13.88,80.58,45.7,100.08,87.85
				c17.23,37.33,18.4,78.25,21.78,123.98c0.81,10.91,2.04,21.68,3.86,32.24C625.59,533.1,676,597.94,737.95,630.2
				c36.57,19.05,76.54,28.02,115.87,29.62"/>
			<path class="obesity" d="M427.5,205.5c21.04-2.06,39.4-1.32,60.19,4.71c42.32,12.27,81.75,43.13,101.34,85.4
				c17.18,37.13,18.09,78.45,21.61,122.68c0.86,10.77,2.08,21.43,3.88,31.9c13.07,76.01,61.26,141.67,122.65,175.91
				c36.39,20.3,76.62,30.44,116.65,33.74"/>
			<path class="obesity" d="M427.5,205.5c21.45-2.82,40.06-2.42,61.31,2.87c42.83,10.68,82.91,40.57,102.6,82.95
				c17.14,36.93,17.85,78.64,21.45,121.39c0.93,10.63,2.12,21.18,3.9,31.55c12.83,75.03,58.79,141.5,119.64,177.73
				c36.19,21.55,76.7,32.86,117.43,37.85"/>
			<path class="obesity" id="obesity_mouse" d="M853.54,659.89C853.54,659.89,853.54,659.88,853.54,659.89c0.01-0.01,0.01-0.01,0.01-0.01c0,0,0,0,0.01-0.01
				c0,0,0,0,0,0c0,0,0,0,0,0c0,0,0.01-0.01,0.01-0.01c0,0,0.01-0.01,0.01-0.01c0,0,0,0,0.01,0c0,0,0,0,0,0c0,0,0,0,0.01,0
				c0,0,0,0,0.01,0c0,0,0,0,0,0c0,0,0,0,0.01,0c0,0,0,0,0.01,0c0,0,0,0,0.01,0c0,0,0,0,0.01,0c0,0,0,0,0.01,0c0,0,0,0,0.01,0
				c0,0,0.01,0,0.01,0c0,0,0,0,0.01,0c0,0,0,0,0.01,0c0,0,0,0,0.01,0c0,0,0.01,0,0.01,0c0,0,0,0,0.01,0c0.05,0.01,0.1,0.02,0.15,0.02
				l-0.14-0.15c0,0,0,0-0.01-0.01c0-0.01-0.01-0.01-0.01-0.02c0-0.01-0.01-0.01-0.01-0.02c0-0.01-0.01-0.01-0.01-0.02
				c0-0.01-0.01-0.01-0.01-0.02c0-0.01-0.01-0.01-0.01-0.02c0,0,0,0,0,0c-0.01-0.01-0.01-0.02-0.02-0.04
				c-18.68-46.1-43.27-81.93-60.1-118.82C744.39,433,699.39,423.97,694.1,309.35c-0.31-6.65-0.94-13.16-1.6-19.54
				c-7.65-73.66-42.41-124.94-91.46-148.03c-42.93-20.21-94.89-14.22-133.95,16.41c-15.58,12.22-28.87,27.11-39.59,47.31
				c10.93,17.11,22.89,32.42,32.19,50.56c32.48,63.35,52.63,107.26,69.88,146.65c18.43,42.09,26.93,73.37,25.72,155.1
				c-0.21,14.19,1.08,27.73,3.49,40.54c18.95,100.48,118.24,148.64,197.83,130.42C795.13,719.95,831.18,698.77,853.54,659.89
				C853.54,659.89,853.54,659.89,853.54,659.89z"/>
		</g>
	</g>
	<g id="obesity_dotted">
		<path class="obesity" d="M427.5,205.5c21.85-3.59,40.73-3.52,62.43,1.04c43.39,9.11,84.08,38,103.86,80.5
			c21.44,46.07,16.58,100.62,25.2,151.29c12.59,74.06,56.3,141.33,116.64,179.55c35.99,22.8,76.77,35.28,118.21,41.96"/>
		<path class="obesity" d="M427.5,205.5c17.73-9.74,34.35-14.68,53.97-16.87c41.3-4.6,86.44,10.42,115,44.61
			c31.43,37.61,41.41,90.91,49.74,150.08c0.78,5.58,1.7,11.17,2.51,16.81c12.25,85.15,53.38,129.86,108.35,189.18
			c27.7,29.89,63.69,49.17,96.71,70.47"/>
		<path class="obesity" d="M427.5,205.5c13.61-15.89,28.32-26.46,45.51-34.78c40.12-19.41,89.07-17.18,126.15,8.72
			c41.72,29.14,66.33,81.18,74.28,148.88c0.71,6.05,1.47,12.18,1.97,18.41c8.3,102.48,50.39,127,103.1,214.01
			c20.82,34.37,50.61,63.06,75.2,98.98"/>
		<path class="obesity" d="M427.5,205.5c13.76,11.75,28.01,22.17,40.03,37.72c36.46,47.16,60.81,89.3,78.69,129.5
			c18.1,40.69,24.28,74.8,24.57,146.03c0.05,13.23,1.36,25.97,3.6,38.12c17.3,93.63,95.12,139.63,176.78,143.16
			c38.22,1.65,75.25-13.13,102.55-40.3"/>
		<path class="obesity" d="M427.5,205.5c17.8,4.08,34.47,8.29,51.23,19.38c39.58,26.18,72.4,63.67,91.27,105
			c17.55,38.73,20.71,76.84,22.93,133.06c0.47,11.87,1.76,23.45,3.75,34.66c14.95,83.84,80.32,143,146.71,161.35
			c37.55,10.39,76.01,11.07,110.38,0.83"/>
	</g>
	<g id="america">
		<g>
			<path class="america" d="M0.5,433.5c9.19-121.42,17.77-202.75,121.89-266.82C263.31,79.86,410.86,93.79,427.5,205.5"/>
			<path class="america" d="M0.5,433.5c7.52-124.12,14.06-206.86,119.74-272.01C263.67,72.97,413.7,88.7,427.5,205.5"/>
			<path class="america" d="M0.5,433.5c5.84-126.82,10.34-210.97,117.59-277.21C264.04,66.08,416.54,83.6,427.5,205.5"/>
			<path class="america" d="M0.5,433.5c4.16-129.52,6.62-215.08,115.44-282.41C264.4,59.18,419.38,78.51,427.5,205.5"/>
			<path class="america" d="M0.5,433.5c2.49-132.22,2.91-219.19,113.3-287.61c150.97-93.61,308.42-72.47,313.7,59.61"/>
			<path class="america" d="M0.5,433.5c0.81-134.92-0.81-223.3,111.15-292.8c153.49-95.3,313.41-72.37,315.85,64.8"/>
			<path class="america" d="M427.5,205.5c-2.57,128.67-19.71,165.25-119.68,250.78C198.64,549.52,3.54,585.18,0.5,433.5"/>
			<path class="america" d="M427.5,205.5c-4.78,124.79-23.6,160.87-122.35,244.57C196.77,541.54,5.59,577.86,0.5,433.5"/>
			<path class="america" d="M427.5,205.5c-6.99,120.9-27.48,156.5-125.03,238.35C194.91,533.56,7.63,570.54,0.5,433.5"/>
			<path class="america" d="M427.5,205.5c-9.19,117.02-31.37,152.12-127.7,232.13C193.04,525.58,9.67,563.22,0.5,433.5"/>
			<path class="america" d="M427.5,205.5c-11.4,113.14-35.06,147.99-130.38,225.92C191.39,517.87,11.72,555.9,0.5,433.5"/>
			<path class="america" d="M427.5,205.5c-13.6,109.26-38.92,143.65-133.05,219.7C189.56,509.93,13.76,548.58,0.5,433.5"/>
			<path class="america" d="M427.5,205.5c-15.81,105.38-42.78,139.32-135.73,213.48C187.73,502,15.81,541.26,0.5,433.5"/>
			<path class="america" id="america_mouse_1" d="M289.1,412.77C185.9,494.06,17.85,533.94,0.5,433.5c3.04,151.68,198.14,116.02,307.32,22.78
				c99.97-85.54,117.1-122.12,119.68-250.78C409.49,307,380.86,340.48,289.1,412.77z"/>
			<path class="america" id="america_mouse_2" d="M124.53,171.88c138.41-85.12,283.48-73,302.97,33.62c-2.44-137.17-162.37-160.11-315.85-64.8
				C-0.31,210.2,1.31,298.58,0.5,433.5C11.37,314.78,21.99,234.86,124.53,171.88z"/>
		</g>
	</g>
	<g id="food_solid">
		<g>
			<path class="food" d="M0.5,433.5c49.42-56.64,106.99-104.11,173.43-142.08c80.6-46.1,168.77-75.41,253.57-85.92"/>
			<path class="food" d="M0.5,433.5c47.75-59.34,103.27-108.22,171.28-147.28c83.11-47.8,173.76-75.31,255.72-80.72"/>
			<path class="food" d="M0.5,433.5c46.07-62.04,99.56-112.33,169.13-152.47c85.62-49.49,178.75-75.2,257.87-75.53"/>
			<path class="food" d="M0.5,433.5c44.39-64.74,95.84-116.44,166.99-157.67c88.14-51.19,183.73-75.1,260.01-70.33"/>
			<path class="food" d="M0.5,433.5c42.72-67.44,92.12-120.55,164.84-162.87c90.65-52.89,188.72-74.99,262.16-65.13"/>
			<path class="food" d="M0.5,433.5c41.04-70.14,88.4-124.66,162.69-168.07c93.16-54.58,193.71-74.89,264.31-59.93"/>
			<path class="food" d="M0.5,433.5c39.36-72.84,84.69-128.77,160.54-173.26c95.68-56.28,198.7-74.78,266.46-54.74"/>
			<path class="food" d="M0.5,433.5c37.69-75.54,80.97-132.88,158.4-178.46c98.19-57.98,203.68-74.68,268.6-49.54"/>
			<path class="food" d="M0.5,433.5c36.01-78.23,77.25-136.99,156.25-183.66c100.7-59.67,208.67-74.57,270.75-44.34"/>
			<path class="food" d="M0.5,433.5c32.66-83.63,69.82-145.21,151.95-194.05c105.73-63.07,218.65-74.36,275.05-33.95"/>
			<path class="food" d="M0.5,433.5c30.98-86.33,66.1-149.32,149.81-199.25c108.24-64.76,223.63-74.26,277.19-28.75"/>
			<path class="food" d="M0.5,433.5c29.31-89.03,62.38-153.43,147.66-204.45c110.76-66.46,228.62-74.15,279.34-23.55"/>
			<path class="food" d="M0.5,433.5c27.63-91.73,58.67-157.54,145.51-209.64c113.27-68.16,233.61-74.05,281.49-18.36"/>
			<path class="food" d="M0.5,433.5c25.95-94.43,54.95-161.65,143.36-214.84c115.79-69.85,238.6-73.94,283.64-13.16"/>
			<path class="food" d="M0.5,433.5c24.28-97.13,51.23-165.76,141.21-220.04c118.3-71.55,243.58-73.84,285.79-7.96"/>
			<path class="food" d="M0.5,433.5c22.6-99.83,47.51-169.87,139.07-225.24c120.81-73.25,248.57-73.73,287.93-2.76"/>
			<path class="food" d="M0.5,433.5c20.93-102.53,43.8-173.98,136.92-230.43c123.33-74.94,253.56-73.63,290.08,2.43"/>
			<path class="food" d="M0.5,433.5c19.25-105.23,40.08-178.09,134.77-235.63c125.84-76.64,258.55-73.52,292.23,7.63"/>
			<path class="food" d="M0.5,433.5c15.9-110.63,32.64-186.31,130.48-246.03c130.87-80.03,268.52-73.31,296.52,18.03"/>
			<path class="food" d="M0.5,433.5c14.22-113.33,28.93-190.42,128.33-251.22c133.38-81.73,273.51-73.21,298.67,23.22"/>
			<path class="food" d="M0.5,433.5c12.54-116.02,25.21-194.53,126.18-256.42c135.89-83.43,278.5-73.1,300.82,28.42"/>
			<path class="food" d="M0.5,433.5c10.87-118.72,21.49-198.64,124.03-261.62c138.41-85.12,283.48-73,302.97,33.62"/>
			<path class="food" d="M427.5,205.5C409.49,307,380.86,340.48,289.1,412.77C185.9,494.06,17.85,533.94,0.5,433.5"/>
			<path class="food" d="M427.5,205.5c-20.22,97.62-50.5,130.64-141.08,201.05C184.06,486.12,19.89,526.62,0.5,433.5"/>
			<path class="food" d="M427.5,205.5c-22.43,93.74-54.37,126.3-143.75,194.83C182.22,478.18,21.94,519.29,0.5,433.5"/>
			<path class="food" d="M427.5,205.5c-26.84,85.98-62.11,117.6-149.1,182.4C178.53,462.29,26.02,504.65,0.5,433.5"/>
			<path class="food" d="M427.5,205.5c-29.04,82.1-65.99,113.25-151.78,176.18C176.68,454.34,28.07,497.33,0.5,433.5"/>
			<path class="food" d="M427.5,205.5c-31.25,78.21-69.87,108.89-154.45,169.97C174.83,446.38,30.11,490.01,0.5,433.5"/>
			<path class="food" d="M427.5,205.5c-33.46,74.33-73.75,104.53-157.13,163.75C172.97,438.42,32.16,482.69,0.5,433.5"/>
			<path class="food" d="M427.5,205.5c-35.66,70.45-77.63,100.17-159.8,157.53C171.11,430.46,34.2,475.37,0.5,433.5"/>
			<path class="food" d="M427.5,205.5c-37.87,66.57-81.52,95.8-162.48,151.32C169.25,422.49,36.24,468.05,0.5,433.5"/>
			<path class="food" d="M427.5,205.5c-40.07,62.69-85.41,91.43-165.15,145.1C167.38,414.52,38.29,460.73,0.5,433.5"/>
			<path class="food" d="M427.5,205.5c-42.28,58.81-89.31,87.05-167.83,138.88C165.51,406.54,40.33,453.41,0.5,433.5"/>
			<path class="food" d="M427.5,205.5c-44.49,54.93-93.21,82.67-170.5,132.67C163.63,398.56,42.37,446.09,0.5,433.5"/>
			<path class="food" d="M427.5,205.5c-48.9,47.17-101.02,73.89-175.85,120.23C159.87,382.57,46.46,431.45,0.5,433.5"/>
			<path class="food" d="M427.5,205.5c-51.1,43.29-104.93,69.49-178.53,114.02C157.98,374.56,48.51,424.13,0.5,433.5"/>
			<path class="food" d="M427.5,205.5c-53.31,39.4-108.84,65.08-181.2,107.8C156.09,366.55,50.55,416.81,0.5,433.5"/>
			<path class="food" d="M427.5,205.5c-55.51,35.52-112.75,60.67-183.88,101.58C154.19,358.52,52.59,409.49,0.5,433.5"/>
			<path class="food" d="M427.5,205.5c-57.72,31.64-116.67,56.25-186.55,95.37C152.29,350.49,54.64,402.17,0.5,433.5"/>
			<path class="food" d="M427.5,205.5c-59.93,27.76-120.6,51.82-189.23,89.15C150.38,342.45,56.68,394.85,0.5,433.5"/>
			<path class="food" d="M427.5,205.5c-62.13,23.88-124.52,47.39-191.91,82.93C148.47,334.39,58.72,387.53,0.5,433.5"/>
			<path class="food" d="M427.5,205.5c-64.34,20-128.45,42.94-194.58,76.72C146.56,326.32,60.77,380.2,0.5,433.5"/>
			<path class="food" d="M427.5,205.5c-66.54,16.12-132.42,38.4-197.26,70.5C144.58,318.12,62.81,372.88,0.5,433.5"/>
			<path class="food" id="food_mouse" d="M124.53,171.88C21.99,234.86,11.37,314.78,0.5,433.5c17.35,100.44,185.4,60.56,288.6-20.73
				C380.86,340.48,409.49,307,427.5,205.5C408.02,98.88,262.94,86.76,124.53,171.88z"/>
		</g>
	</g>
	<g id="food_dotted">
		<path class="food" d="M427.5,205.5c-160.44,28.56-314.39,109.13-427,228"/>
		<path class="food" d="M0.5,433.5c34.34-80.93,73.54-141.1,154.1-188.86c103.22-61.37,213.66-74.47,272.9-39.14"/>
		<path class="food" d="M0.5,433.5c17.57-107.93,36.36-182.2,132.62-240.83c128.35-78.34,263.53-73.42,294.38,12.83"/>
		<path class="food" d="M427.5,205.5c-24.63,89.86-58.24,121.95-146.43,188.62C180.38,470.24,23.98,511.97,0.5,433.5"/>
		<path class="food" d="M427.5,205.5c-46.69,51.05-97.11,78.28-173.18,126.45C161.75,390.57,44.42,438.77,0.5,433.5"/>
	</g>
</g>
</svg>
