<?xml version="1.0" encoding="utf-8"?>
<!-- Generator: Adobe Illustrator 25.0.1, SVG Export Plug-In . SVG Version: 6.00 Build 0)  -->
<svg version="1.1" xmlns="http://www.w3.org/2000/svg" xmlns:xlink="http://www.w3.org/1999/xlink" x="0px" y="0px"
	 viewBox="0 0 1280 1024" style="enable-background:new 0 0 1280 1024;" xml:space="preserve">
<style type="text/css">
	.food{fill:none;stroke:#61544A;stroke-width:0.75;stroke-miterlimit:10;}
	.food{fill:none;stroke:#61544A;stroke-width:0.75;stroke-miterlimit:10;stroke-dasharray:1,2;}
	.america{fill:none;stroke:#578E8A;stroke-width:0.75;stroke-miterlimit:10;}
	.america{fill:none;stroke:#578E8A;stroke-width:0.75;stroke-miterlimit:10;stroke-dasharray:1,2;}
	.children{fill:none;stroke:#9C8CA8;stroke-width:0.75;stroke-miterlimit:10;}
	.problems{fill:none;stroke:#4D6B40;stroke-width:0.75;stroke-miterlimit:10;}
	.problems{fill:none;stroke:#4D6B40;stroke-width:0.75;stroke-miterlimit:10;stroke-dasharray:1,2;}
	.medicine{fill:none;stroke:#C1771E;stroke-width:0.75;stroke-miterlimit:10;}
	.diseases{fill:none;stroke:#C1771E;stroke-width:0.75;stroke-miterlimit:10;stroke-dasharray:1,2;}
	.obesity{fill:none;stroke:#A94044;stroke-width:0.75;stroke-miterlimit:10;}
	.food0{fill:none;stroke:#A94044;stroke-width:0.75;stroke-miterlimit:10;stroke-dasharray:1,2;}
	.food1{fill:none;stroke:#A94044;stroke-width:0.75;stroke-miterlimit:10;stroke-dasharray:1.0012,2.0023;}
	.food2{fill:none;stroke:#29415E;stroke-width:0.75;stroke-miterlimit:10;}
</style>
<g id="grotesque">
		<g id="food_solid">
			<g>
				<path class="food" d="M430.39,306.87c-5.24-17.34-14.86-30.02-27.4-39.04c-48.49-34.87-144.85-11.88-214.79,35.72
					c-75.52,51.4-140.17,65.01-174.52,123.58c-4.53,7.73-8.77,16.02-12.2,25.34"/>
				<path class="food" d="M430.61,306.82c-5.62-16.59-15.45-28.62-28.1-37.12c-48.84-32.83-143.95-9.59-213.57,37.32
					c-74.92,50.48-139.29,64.33-174.7,120.94c-4.69,7.5-9.11,15.49-12.73,24.49"/>
				<path class="food" d="M431.05,306.72c-6.37-15.07-16.64-25.81-29.5-33.28c-49.52-28.74-142.16-5-211.15,40.53
					c-73.72,48.64-137.57,62.96-175.07,115.66c-5,7.03-9.78,14.45-13.8,22.8"/>
				<path class="food" d="M431.26,306.67c-6.74-14.31-17.23-24.41-30.2-31.35c-49.86-26.7-141.26-2.71-209.93,42.13
					c-73.11,47.73-136.72,62.28-175.26,113.03c-5.16,6.8-10.12,13.93-14.34,21.96"/>
				<path class="food" d="M431.48,306.62c-7.12-13.56-17.82-23-30.9-29.43c-50.19-24.67-140.35-0.41-208.72,43.73
					C119.35,367.73,55.98,382.51,16.41,431.3c-5.32,6.56-10.46,13.41-14.87,21.12"/>
				<path class="food" d="M431.7,306.56c-7.49-12.8-18.41-21.6-31.6-27.51c-50.52-22.63-139.45,1.89-207.51,45.34
					c-71.9,45.9-135.05,60.9-175.63,107.75c-5.48,6.33-10.8,12.88-15.41,20.27"/>
				<path class="food" d="M431.92,306.51c-7.87-12.04-19-20.2-32.3-25.59c-50.85-20.6-138.55,4.19-206.3,46.94
					c-71.3,44.99-134.23,60.21-175.82,105.11c-5.64,6.09-11.14,12.36-15.94,19.43"/>
				<path class="food" d="M432.14,306.46c-8.24-11.28-19.58-18.8-33-23.67c-51.18-18.57-137.65,6.49-205.08,48.54
					C123.37,375.41,60.63,390.85,18.05,433.8c-5.81,5.86-11.48,11.84-16.47,18.59"/>
				<path class="food" d="M432.36,306.41c-8.62-10.52-20.17-17.4-33.7-21.74c-51.5-16.54-136.74,8.79-203.87,50.14
					c-70.08,43.17-132.62,58.81-176.19,99.83c-5.97,5.62-11.81,11.32-17.01,17.74"/>
				<path class="food" d="M432.57,306.36c-8.99-9.77-20.76-16-34.4-19.82c-51.82-14.52-135.83,11.1-202.66,51.75
					c-69.47,42.26-131.83,58.09-176.38,97.19C13,440.86,6.99,446.27,1.6,452.37"/>
				<path class="food" d="M432.79,306.31c-9.37-9.01-21.35-14.6-35.1-17.9c-52.15-12.5-134.93,13.4-201.45,53.35
					c-68.86,41.36-131.04,57.38-176.56,94.55c-6.31,5.15-12.49,10.27-18.08,16.06"/>
				<path class="food" d="M433.23,306.2c-10.11-7.49-22.52-11.81-36.5-14.05c-52.79-8.48-133.11,18.02-199.02,56.56
					c-67.63,39.55-129.49,55.91-176.94,89.27c-6.64,4.67-13.17,9.23-19.15,14.37"/>
				<path class="food" d="M433.45,306.15c-10.49-6.74-23.11-10.42-37.19-12.13c-53.11-6.47-132.2,20.33-197.81,58.16
					c-67.02,38.65-128.72,55.17-177.12,86.63c-6.81,4.43-13.51,8.7-19.68,13.53"/>
				<path class="food" d="M433.67,306.1c-10.86-5.98-23.69-9.02-37.89-10.21c-53.43-4.47-131.29,22.64-196.6,59.76
					c-66.4,37.75-127.96,54.41-177.31,83.99c-6.98,4.19-13.84,8.18-20.22,12.68"/>
				<path class="food" d="M433.88,306.05c-11.24-5.22-24.28-7.63-38.59-8.29c-53.75-2.48-130.38,24.95-195.38,61.37
					c-65.79,36.85-127.2,53.64-177.49,81.35c-7.15,3.94-14.18,7.66-20.75,11.84"/>
				<path class="food" d="M434.1,306c-11.61-4.46-24.87-5.97-39.29-6.37c-54.06-1.5-129.46,27.27-194.17,62.97
					c-65.17,35.96-126.44,52.86-177.68,78.71c-7.32,3.69-14.52,7.14-21.28,11"/>
				<path class="food" d="M434.32,305.94c-11.99-3.71-25.46-4.85-39.99-4.44c-54.4,1.51-128.55,29.59-192.96,64.57
					c-64.55,35.06-125.68,52.07-177.87,76.07c-7.5,3.45-14.86,6.62-21.82,10.15"/>
				<path class="food" d="M434.54,305.89c-12.36-2.95-26.04-3.46-40.69-2.52c-54.73,3.5-127.63,31.91-191.75,66.18
					c-63.93,34.17-124.92,51.27-178.05,73.43c-7.67,3.2-15.2,6.09-22.35,9.31"/>
				<path class="food" d="M434.76,305.84c-12.74-2.19-26.63-2.07-41.39-0.6c-55.06,5.48-126.72,34.23-190.53,67.78
					c-63.31,33.29-124.16,50.46-178.24,70.79c-7.84,2.95-15.54,5.57-22.89,8.47"/>
				<path class="food" d="M434.98,305.79c-13.11-1.43-27.22-0.68-42.09,1.32c-55.39,7.46-125.8,36.55-189.32,69.38
					c-62.69,32.4-123.4,49.64-178.42,68.15c-8.01,2.69-15.87,5.05-23.42,7.62"/>
				<path class="food" d="M435.41,305.69c-13.86,0.08-28.41,2.09-43.49,5.17c-56.07,11.42-123.96,41.21-186.9,72.59
					c-61.44,30.63-121.85,47.97-178.8,62.87c-8.35,2.18-16.55,4-24.49,5.94"/>
				<path class="food" d="M435.63,305.63c-14.24,0.84-29,3.48-44.19,7.09c-56.41,13.4-123.04,43.55-185.68,74.19
					c-60.82,29.76-121.07,47.13-178.98,60.23c-8.51,1.93-16.89,3.48-25.03,5.09"/>
				<path class="food" d="M435.85,305.58c-14.61,1.6-29.59,4.87-44.89,9.01c-56.76,15.38-122.12,45.88-184.47,75.8
					c-60.19,28.88-120.28,46.27-179.17,57.59c-8.68,1.67-17.23,2.96-25.56,4.25"/>
				<path class="food" d="M436.07,305.53c-14.99,2.36-30.19,6.25-45.59,10.93c-57.11,17.35-121.2,48.22-183.26,77.4
					c-59.57,28.01-119.49,45.41-179.36,54.95c-8.85,1.41-17.57,2.44-26.09,3.41"/>
				<path class="food" d="M436.29,305.48c-15.36,3.11-30.78,7.64-46.29,12.86c-57.46,19.33-120.27,50.56-182.05,79
					c-58.94,27.14-118.69,44.55-179.54,52.31c-9.01,1.15-17.9,1.91-26.63,2.56"/>
				<path class="food" d="M436.51,305.43c-15.73,3.87-31.38,9.03-46.99,14.78c-57.81,21.3-119.35,52.91-180.83,80.6
					c-58.32,26.27-117.88,43.68-179.73,49.67c-9.18,0.89-18.24,1.39-27.16,1.72"/>
				<path class="food" d="M436.72,305.38c-16.11,4.63-31.98,10.39-47.68,16.7c-58.2,23.2-118.38,55.35-179.62,82.21
					c-57.65,25.49-117.06,42.8-179.91,47.03c-9.34,0.63-18.58,0.87-27.7,0.88"/>
				<path class="food" d="M436.94,305.33c-16.48,5.39-32.57,11.79-48.38,18.62c-58.54,25.21-117.48,57.66-178.41,83.81
					c-57.04,24.59-116.25,41.8-180.1,44.39c-9.51,0.35-18.92,0.35-28.23,0.03"/>
				<path class="food" d="M436.94,305.33c-16.48,6.46-32.51,13.92-48.29,21.63c-51.54,25.19-102.92,54.49-156.76,78.48
					c-63.38,28.24-130.06,49.22-201.81,48.38c-9.55-0.14-18.97-0.7-28.25-1.63"/>
				<path class="food" d="M436.72,305.38c-16.11,6.78-31.85,14.65-47.5,22.72c-50.82,26.2-102.3,56.32-156.74,80.41
					c-64.13,28.37-132.18,48.85-202.94,46.14c-9.43-0.36-18.69-1.22-27.74-2.45"/>
				<path class="food" d="M436.51,305.43c-15.73,7.09-31.2,15.38-46.71,23.8c-50.11,27.21-101.67,58.16-156.71,82.35
					c-64.88,28.51-134.3,48.36-204.06,43.9c-9.31-0.6-18.4-1.74-27.23-3.27"/>
				<path class="food" d="M436.29,305.48c-15.36,7.41-30.54,16.11-45.92,24.89c-49.39,28.21-101.05,59.99-156.68,84.28
					C168.06,443.29,97.26,462.51,28.5,456.3c-9.2-0.83-18.12-2.26-26.72-4.09"/>
				<path class="food" d="M436.07,305.53c-14.99,7.72-29.88,16.83-45.12,25.98c-48.67,29.2-100.43,61.82-156.66,86.21
					c-66.38,28.78-138.57,47.36-206.31,39.41c-9.08-1.07-17.83-2.79-26.2-4.91"/>
				<path class="food" d="M435.85,305.58c-14.61,8.04-29.22,17.55-44.33,27.06c-47.96,30.18-99.8,63.66-156.63,88.15
					c-67.13,28.91-140.7,46.86-207.44,37.17c-8.97-1.3-17.54-3.31-25.69-5.73"/>
				<path class="food" d="M435.63,305.63c-14.24,8.36-28.56,18.27-43.54,28.15c-47.24,31.15-99.18,65.49-156.6,90.08
					c-67.88,29.05-142.85,46.34-208.56,34.93c-8.86-1.54-17.26-3.83-25.18-6.55"/>
				<path class="food" d="M435.41,305.69c-13.86,8.67-27.9,18.99-42.75,29.24c-46.52,32.12-98.55,67.32-156.57,92.01
					c-68.63,29.18-145,45.82-209.69,32.68c-8.74-1.78-16.97-4.35-24.67-7.37"/>
				<path class="food" d="M434.98,305.79c-13.11,9.3-26.58,20.41-41.16,31.41c-45.1,34.02-97.31,70.99-156.52,95.88
					c-70.13,29.45-149.31,44.76-211.94,28.2c-8.52-2.25-16.4-5.4-23.64-9.01"/>
				<path class="food" d="M434.76,305.84c-12.74,9.62-25.92,21.12-40.37,32.5c-44.39,34.95-96.68,72.82-156.49,97.82
					c-70.89,29.58-151.47,44.22-213.06,25.96c-8.41-2.49-16.11-5.92-23.13-9.83"/>
				<path class="food" d="M434.54,305.89c-12.36,9.94-25.27,21.83-39.58,33.58c-43.69,35.88-96.06,74.66-156.46,99.75
					c-71.64,29.72-153.63,43.67-214.18,23.71c-8.3-2.74-15.83-6.44-22.62-10.65"/>
				<path class="food" d="M434.32,305.94c-11.99,10.25-24.61,22.53-38.79,34.67c-42.99,36.81-95.43,76.49-156.44,101.68
					c-72.39,29.85-155.79,43.12-215.31,21.47c-8.19-2.98-15.54-6.97-22.1-11.47"/>
				<path class="food" d="M434.1,306c-11.61,10.57-23.95,23.24-37.99,35.76c-42.29,37.72-94.81,78.32-156.41,103.62
					c-73.14,29.99-157.96,42.55-216.43,19.23c-8.08-3.22-15.26-7.49-21.59-12.29"/>
				<path class="food" d="M433.88,306.05c-11.24,10.88-23.3,23.94-37.2,36.84c-41.59,38.63-94.18,80.16-156.38,105.55
					c-73.89,30.12-160.12,41.97-217.56,16.99c-7.97-3.47-14.97-8.01-21.08-13.11"/>
				<path class="food" d="M433.67,306.1c-10.86,11.2-22.65,24.63-36.41,37.93c-40.9,39.53-93.56,81.99-156.36,107.48
					c-74.64,30.26-162.29,41.39-218.68,14.75c-7.86-3.71-14.69-8.53-20.57-13.93"/>
				<path class="food" d="M433.45,306.15c-10.49,11.51-22,25.33-35.62,39.02c-40.22,40.42-92.94,83.83-156.33,109.42
					c-75.39,30.39-164.45,40.79-219.81,12.5c-7.75-3.96-14.4-9.05-20.05-14.75"/>
				<path class="food" d="M433.23,306.2c-10.11,11.83-21.35,26.02-34.82,40.1c-39.54,41.31-92.31,85.66-156.3,111.35
					c-76.14,30.53-166.61,40.19-220.93,10.26c-7.64-4.21-14.11-9.58-19.54-15.57"/>
				<path class="food" d="M432.79,306.31c-9.37,12.46-20.05,27.4-33.24,42.28c-38.19,43.08-91.06,89.33-156.25,115.22
					c-77.64,30.8-170.93,38.95-223.18,5.78c-7.42-4.71-13.54-10.62-18.52-17.21"/>
				<path class="food" d="M432.57,306.36c-8.99,12.78-19.41,28.09-32.45,43.37c-37.53,43.95-90.44,91.16-156.22,117.15
					c-78.39,30.93-173.08,38.33-224.31,3.53c-7.3-4.96-13.26-11.14-18-18.03"/>
				<path class="food" d="M432.36,306.41c-8.62,13.09-18.77,28.78-31.66,44.45c-36.87,44.82-89.82,92.99-156.19,119.08
					c-79.14,31.07-175.22,37.69-225.43,1.29c-7.19-5.21-12.97-11.67-17.49-18.85"/>
				<path class="food" d="M432.14,306.46c-8.24,13.41-18.13,29.47-30.86,45.54c-36.21,45.69-89.19,94.83-156.16,121.02
					c-79.89,31.2-177.36,37.05-226.56-0.95c-7.08-5.47-12.68-12.19-16.98-19.67"/>
				<path class="food" d="M431.92,306.51c-7.87,13.73-17.49,30.15-30.07,46.63c-35.57,46.55-88.57,96.66-156.14,122.95
					c-80.64,31.34-179.5,36.4-227.68-3.19c-6.96-5.72-12.4-12.71-16.47-20.49"/>
				<path class="food" d="M431.7,306.56c-7.49,14.04-16.85,30.84-29.28,47.71c-34.92,47.41-87.94,98.49-156.11,124.88
					c-81.39,31.47-181.63,35.75-228.81-5.44c-6.85-5.98-12.11-13.23-15.95-21.32"/>
				<path class="food" d="M431.48,306.62c-7.12,14.36-16.22,31.52-28.49,48.8c-34.28,48.27-87.32,100.33-156.08,126.82
					c-82.14,31.61-183.75,35.09-229.93-7.68c-6.73-6.23-11.83-13.76-15.44-22.14"/>
				<path class="food" d="M431.26,306.67c-6.74,14.67-15.58,32.2-27.7,49.89c-33.65,49.13-86.7,102.16-156.05,128.75
					c-82.89,31.74-185.86,34.43-231.05-9.92c-6.62-6.49-11.54-14.28-14.93-22.96"/>
				<path class="food" d="M431.05,306.72c-6.37,14.99-14.95,32.88-26.9,50.97c-33.02,49.99-86.07,103.99-156.03,130.68
					c-83.64,31.88-187.97,33.76-232.18-12.16c-6.5-6.75-11.26-14.8-14.42-23.78"/>
				<path class="food" d="M430.61,306.82c-5.62,15.62-13.7,34.24-25.32,53.15c-31.78,51.69-84.82,107.66-155.97,134.55
					c-85.14,32.15-192.16,32.43-234.43-16.65C8.63,470.61,4.2,462.03,1.5,452.46"/>
			</g>
		</g>
		<g id="food_dotted">
			<path class="food" d="M430.83,306.77c-5.99-15.83-16.05-27.21-28.8-35.2c-49.18-30.79-143.06-7.3-212.36,38.92
				c-74.32,49.56-138.43,63.65-174.89,118.3c-4.84,7.26-9.44,14.97-13.27,23.65"/>
			<path class="food" d="M433.01,306.25c-9.74-8.25-21.93-13.21-35.8-15.98c-52.47-10.49-134.02,15.71-200.23,54.95
				c-68.25,40.45-130.26,56.65-176.75,91.91c-6.47,4.91-12.83,9.75-18.61,15.21"/>
			<path class="food" d="M435.2,305.74c-13.49-0.67-27.82,0.71-42.79,3.24c-55.73,9.44-124.88,38.88-188.11,70.99
				c-62.07,31.52-122.63,48.81-178.61,65.51c-8.18,2.44-16.21,4.53-23.96,6.78"/>
			<path class="food" d="M437.16,305.27c-16.86,6.15-33.17,13.18-49.08,20.54C274.37,378.39,165.17,451.52,30.6,452.99
				c-9.67,0.11-19.26-0.17-28.77-0.81"/>
			<path class="food" d="M435.2,305.74c-13.49,8.99-27.24,19.7-41.95,30.32c-45.81,33.07-97.93,69.16-156.55,93.95
				c-69.38,29.31-147.15,45.3-210.81,30.44c-8.63-2.01-16.69-4.88-24.15-8.19"/>
			<path class="food" d="M433.01,306.25c-9.74,12.15-20.7,26.71-34.03,41.19c-38.86,42.2-91.69,87.49-156.27,113.28
				c-76.89,30.66-168.77,39.57-222.06,8.02c-7.53-4.46-13.83-10.1-19.03-16.39"/>
			<path class="food" d="M430.83,306.77c-5.99,15.3-14.32,33.56-26.11,52.06c-32.4,50.84-85.45,105.83-156,132.62
				c-84.39,32.01-190.07,33.09-233.3-14.4c-6.38-7.01-10.97-15.32-13.9-24.6"/>
		</g>
	<g id="america_solid">
		<g>
			<path class="america" d="M427.77,307.49c-0.75-26.44-7.67-46.89-19.01-62.11c-44.08-59.45-155.52-39.28-229.34,16.48
				C96.82,324.44,28.27,335.29,7.14,417.12c-2.73,10.56-4.71,22.28-5.78,35.46"/>
			<path class="america" d="M427.99,307.44c-1.12-25.68-8.27-45.49-19.71-60.19c-44.43-57.43-154.61-36.97-228.12,18.08
				c-82,61.67-150.21,72.7-172.47,152.62c-2.88,10.32-5.05,21.76-6.32,34.61"/>
			<path class="america" d="M428.42,307.34c-1.87-24.16-9.49-42.67-21.11-56.34c-45.26-53.28-152.8-32.36-225.7,21.29
				C100.84,332.15,33.27,343.56,8.77,419.62c-3.17,9.85-5.72,20.72-7.39,32.93"/>
			<path class="america" d="M428.64,307.29c-2.25-23.41-10.09-41.26-21.81-54.42c-45.63-51.23-151.89-30.05-224.49,22.89
				c-80.17,58.96-147.41,70.57-173.03,144.7c-3.32,9.61-6.06,20.2-7.92,32.08"/>
			<path class="america" d="M428.86,307.24c-2.62-22.65-10.69-39.86-22.51-52.5c-46-49.19-151.11-27.91-223.27,24.49
				C103.38,337.1,36.59,349.09,9.87,421.29c-3.47,9.37-6.4,19.67-8.46,31.24"/>
			<path class="america" d="M429.08,307.18c-3-21.89-11.29-38.45-23.21-50.58c-46.36-47.15-150.22-25.62-222.06,26.1
				c-79.1,56.94-145.57,69.16-173.4,139.42c-3.62,9.14-6.74,19.15-8.99,30.4"/>
			<path class="america" d="M429.3,307.13c-3.37-21.13-11.88-37.05-23.91-48.65c-46.72-45.1-149.33-23.33-220.85,27.7
				C106.04,342.2,39.89,354.64,10.96,422.96c-3.77,8.9-7.08,18.63-9.53,29.55"/>
			<path class="america" d="M429.52,307.08c-3.75-20.38-12.48-35.64-24.61-46.73c-47.08-43.06-148.43-21.04-219.64,29.3
				C107.36,344.74,41.53,357.42,11.5,423.79c-3.92,8.67-7.41,18.11-10.06,28.71"/>
			<path class="america" d="M429.73,307.03c-4.12-19.62-13.08-34.24-25.31-44.81c-47.44-41.01-147.54-18.75-218.42,30.91
				c-77.32,54.17-142.84,67.08-173.96,131.5c-4.07,8.43-7.75,17.58-10.59,27.87"/>
			<path class="america" d="M429.95,306.98c-4.5-18.86-13.67-32.83-26-42.89c-47.79-38.96-146.64-16.46-217.21,32.51
				C110.02,349.84,44.8,362.99,12.59,425.46c-4.22,8.2-8.09,17.06-11.13,27.02"/>
			<path class="america" d="M430.17,306.93c-4.87-18.1-14.27-31.43-26.7-40.97c-48.15-36.92-145.75-14.17-216,34.11
				C111.35,352.4,46.42,365.77,13.14,426.3c-4.38,7.96-8.43,16.54-11.66,26.18"/>
			<path class="america" d="M430.39,306.87c-5.24,15.94-13.07,34.92-24.53,54.23c-31.17,52.55-84.2,109.49-155.95,136.49
				c-85.89,32.28-194.25,31.76-235.55-18.89c-6.14-7.52-10.4-16.37-12.88-26.24"/>
			<path class="america" d="M430.17,306.93c-4.87,16.25-12.45,35.6-23.73,55.32c-30.56,53.4-83.57,111.33-155.92,138.42
				c-86.65,32.42-196.33,31.08-236.68-21.13c-6.01-7.78-10.11-16.89-12.36-27.06"/>
			<path class="america" d="M429.95,306.98c-4.5,16.57-11.83,36.28-22.94,56.41c-29.96,54.25-82.95,113.16-155.89,140.35
				c-87.4,32.55-198.4,30.41-237.8-23.37c-5.89-8.04-9.83-17.41-11.85-27.88"/>
			<path class="america" d="M429.73,307.03c-4.12,16.88-11.21,36.96-22.15,57.49c-29.36,55.1-82.33,114.99-155.86,142.29
				c-88.15,32.69-200.47,29.74-238.93-25.62c-5.77-8.3-9.54-17.94-11.34-28.7"/>
			<path class="america" d="M429.52,307.08c-3.75,17.2-10.59,37.64-21.36,58.58c-28.77,55.95-81.7,116.83-155.84,144.22
				c-88.9,32.82-202.53,29.08-240.05-27.86c-5.64-8.56-9.26-18.46-10.83-29.52"/>
			<path class="america" d="M429.3,307.13c-3.37,17.52-9.98,38.32-20.57,59.67c-28.18,56.81-81.08,118.66-155.81,146.15
				c-89.65,32.96-204.58,28.41-241.18-30.1c-5.51-8.82-8.97-18.98-10.31-30.34"/>
			<path class="america" d="M429.08,307.18c-3,17.83-9.37,39-19.77,60.75c-27.59,57.66-80.45,120.49-155.78,148.09
				c-90.4,33.09-206.63,27.74-242.3-32.34c-5.39-9.07-8.68-19.5-9.8-31.16"/>
			<path class="america" d="M428.86,307.24c-2.62,18.15-8.75,39.68-18.98,61.84c-27.01,58.52-79.83,122.33-155.75,150.02
				c-91.15,33.23-208.68,27.08-243.43-34.59c-5.26-9.33-8.4-20.02-9.29-31.98"/>
			<path class="america" d="M428.64,307.29c-2.25,18.46-8.14,40.36-18.19,62.93c-26.43,59.37-79.21,124.16-155.73,151.95
				c-91.9,33.36-210.72,26.42-244.55-36.83c-5.13-9.59-8.11-20.55-8.78-32.8"/>
			<path class="america" d="M428.21,307.39c-1.5,19.09-6.93,41.72-16.61,65.1c-25.29,61.08-77.96,127.83-155.67,155.82
				c-93.4,33.63-214.79,25.1-246.8-41.31c-4.87-10.1-7.54-21.59-7.75-34.44"/>
			<path class="america" d="M427.99,307.44c-1.12,19.41-6.32,42.4-15.81,66.19c-24.72,61.94-77.33,129.66-155.65,157.75
				C162.38,565.15,39.71,555.83,8.6,487.83c-4.74-10.36-7.25-22.11-7.24-35.26"/>
			<path class="america" d="M427.77,307.49c-0.75,19.73-5.72,43.08-15.02,67.27c-24.15,62.8-76.71,131.5-155.62,159.69
				c-94.9,33.9-218.84,23.8-249.05-45.8c-4.61-10.62-6.97-22.64-6.73-36.08"/>
		</g>
	</g>
	<g id="america_dotted">
		<path class="america" d="M428.21,307.39c-1.5-24.92-8.89-44.07-20.41-58.27c-44.89-55.32-153.71-34.67-226.91,19.68
			C99.5,329.58,31.61,340.8,8.23,418.79c-3.02,10.08-5.38,21.24-6.85,33.77"/>
		<path class="america" d="M428.42,307.34c-1.87,18.78-7.53,41.04-17.4,64.01c-25.86,60.23-78.58,125.99-155.7,153.89
			C162.68,558.73,42.57,551,9.65,486.17c-5-9.85-7.83-21.07-8.26-33.62"/>
	</g>
	<g id="children">
		<g>
			<path class="children" d="M856.19,722.51c-4.42,64.52-52.51,135-115.22,178.05c-70.54,48.19-159.96,61.05-227.2-7.1
				c-62.44-63.51-72.22-191.4-75.91-323.32c-2.66-93.64-2.62-189.27-10.47-265.62"/>
			<path class="children" d="M856.11,722.52c-3.9,65.26-51.98,136.67-114.93,180.39c-70.79,48.96-160.72,62.36-228.41-6.21
				c-62.57-63.59-72.69-192.1-76.15-324.8c-2.49-94.18-1.96-190.46-9.25-267.37"/>
			<path class="children" d="M856.03,722.52c-3.39,65.99-51.45,138.33-114.64,182.73c-71.03,49.73-161.48,63.67-229.62-5.32
				c-62.69-63.66-73.16-192.8-76.39-326.29c-2.32-94.73-1.29-191.64-8.02-269.11"/>
			<path class="children" d="M855.95,722.53c-2.87,66.73-50.92,139.99-114.35,185.08c-71.28,50.5-162.25,64.98-230.82-4.43
				c-62.81-63.74-73.63-193.5-76.63-327.78c-2.15-95.28-0.63-192.82-6.79-270.86"/>
			<path class="children" d="M855.88,722.54c-2.36,67.47-50.4,141.65-114.06,187.42c-71.53,51.27-163.01,66.29-232.03-3.54
				c-62.93-63.82-74.1-194.2-76.86-329.27c-1.98-95.83,0.04-194-5.56-272.6"/>
			<path class="children" d="M855.8,722.55c-1.84,68.21-49.87,143.31-113.77,189.76c-71.77,52.04-163.77,67.6-233.23-2.65
				c-63.05-63.9-74.57-194.9-77.1-330.76c-1.81-96.38,0.7-195.18-4.34-274.35"/>
			<path class="children" d="M855.72,722.56c-1.33,68.94-49.34,144.98-113.48,192.11c-72.02,52.81-164.53,68.91-234.44-1.77
				c-63.17-63.98-75.05-195.6-77.34-332.24c-1.64-96.92,1.36-196.36-3.11-276.09"/>
			<path class="children" d="M855.64,722.56c-0.82,69.68-48.81,146.64-113.19,194.45c-72.26,53.58-165.29,70.22-235.64-0.88
				c-63.3-64.06-75.52-196.3-77.58-333.73c-1.47-97.47,2.03-197.54-1.88-277.84"/>
			<path class="children" d="M855.49,722.58c-2.41-82.15-7.89-140.57-14.37-183.21c-21.38-140.56-59.33-105.42-78.44-180.75
				c-3.2-12.62-5.87-28.3-7.76-48.36c-7.81-82.27-88.35-121.2-167.88-121.24c-80.62,0.13-160.07,40.26-159.7,115.55"/>
			<path class="children" d="M855.56,722.57c-2.9-81.22-8.99-139.05-15.73-181.39c-22.15-139.13-59.65-104.82-78.97-179.66
				c-3.25-12.59-5.98-28.2-7.9-48.17c-8.01-81.94-87.57-121.12-166.44-121.76c-79.92-0.39-158.96,38.83-159.19,112.98"/>
			<path class="children" d="M855.64,722.56c-3.38-80.29-10.09-137.52-17.09-179.58c-22.91-137.69-59.98-104.21-79.5-178.58
				c-3.3-12.56-6.08-28.11-8.04-47.97c-8.2-81.61-86.78-121.21-165-122.28c-79.22-1.08-157.84,37.4-158.67,110.42"/>
			<path class="children" d="M855.72,722.56c-3.87-79.36-11.19-136-18.44-177.77c-23.67-136.25-60.31-103.61-80.02-177.49
				c-3.35-12.54-6.19-28.02-8.19-47.78c-8.4-81.28-85.99-121.17-163.56-122.8c-78.53-1.65-156.73,35.97-158.16,107.85"/>
			<path class="children" d="M855.8,722.55c-4.35-78.43-12.28-134.47-19.8-175.96c-24.43-134.81-60.64-103-80.55-176.4
				c-3.39-12.51-6.3-27.93-8.33-47.59c-8.6-80.95-85.2-121.14-162.11-123.33c-77.83-2.22-155.62,34.54-157.64,105.28"/>
			<path class="children" d="M855.88,722.54c-4.84-77.5-13.38-132.94-21.16-174.14c-25.17-133.36-60.97-102.4-81.08-175.32
				c-3.44-12.48-6.4-27.84-8.48-47.39c-8.8-80.63-84.41-121.1-160.67-123.85c-77.13-2.78-154.51,33.11-157.13,102.71"/>
			<path class="children" d="M855.95,722.53c-5.33-76.57-14.48-131.4-22.52-172.33c-25.91-131.9-61.3-101.79-81.61-174.23
				c-3.49-12.45-6.51-27.75-8.62-47.2c-9-80.3-83.62-121.06-159.23-124.37c-76.43-3.35-153.39,31.68-156.61,100.14"/>
			<path class="children" d="M856.03,722.52c-5.81-75.65-15.57-129.87-23.88-170.52c-26.65-130.45-61.64-101.19-82.14-173.15
				c-3.54-12.42-6.62-27.66-8.76-47c-9.19-79.97-82.83-121.02-157.79-124.89c-75.74-3.91-152.28,30.25-156.1,97.57"/>
		</g>
	</g>
	<g id="problems_solid">
		<g>
			<path class="problems" d="M856.96,722.43c-9.56,57.14-57.71,118.51-118.12,154.61c-68,40.63-152.34,47.95-215.15-15.98
				c-61.23-62.73-67.51-184.4-73.54-308.44c-4.35-88.16-9.26-177.47-22.75-248.18"/>
			<path class="problems" d="M856.89,722.44c-9.05,57.88-57.18,120.17-117.83,156.96c-68.25,41.39-153.1,49.26-216.35-15.09
				c-61.35-62.81-67.98-185.1-73.78-309.93c-4.18-88.7-8.6-178.65-21.52-249.92"/>
			<path class="problems" d="M856.81,722.44c-8.53,58.62-56.73,121.71-117.54,159.3c-68.58,42.02-153.87,50.57-217.56-14.2
				c-61.47-62.88-68.45-185.8-74.01-311.42c-4.01-89.25-7.93-179.83-20.29-251.67"/>
			<path class="problems" d="M856.73,722.45c-8.02,59.35-56.2,123.37-117.25,161.64c-68.82,42.79-154.63,51.88-218.76-13.31
				c-61.59-62.96-68.92-186.5-74.25-312.9c-3.84-89.8-7.27-181.01-19.06-253.41"/>
			<path class="problems" d="M856.65,722.46c-7.51,60.09-55.67,125.03-116.96,163.99c-69.07,43.56-155.39,53.19-219.97-12.43
				c-61.72-63.04-69.39-187.2-74.49-314.39c-3.68-90.35-6.61-182.19-17.84-255.16"/>
			<path class="problems" d="M856.57,722.47c-6.99,60.83-55.15,126.69-116.67,166.33c-69.31,44.33-156.15,54.5-221.18-11.54
				c-61.84-63.12-69.86-187.9-74.73-315.88c-3.51-90.9-5.94-183.37-16.61-256.9"/>
			<path class="problems" d="M856.5,722.48c-6.48,61.57-54.62,128.36-116.38,168.67c-69.56,45.1-156.91,55.81-222.38-10.65
				c-61.96-63.2-70.33-188.6-74.96-317.37c-3.34-91.44-5.28-184.55-15.38-258.65"/>
			<path class="problems" d="M856.42,722.48c-5.96,62.3-54.09,130.02-116.09,171.02c-69.81,45.88-157.67,57.12-223.59-9.76
				c-62.08-63.27-70.8-189.3-75.2-318.85c-3.17-91.99-4.61-185.73-14.15-260.39"/>
			<path class="problems" d="M856.34,722.49c-5.45,63.04-53.56,131.68-115.8,173.36c-70.05,46.65-158.44,58.43-224.79-8.87
				c-62.2-63.35-71.28-190-75.44-320.34c-3-92.54-3.95-186.91-12.93-262.14"/>
			<path class="problems" d="M856.19,722.51c-6.78-73.79-17.76-126.79-26.59-166.89c-28.09-127.52-62.31-99.98-83.2-170.97
				c-3.64-12.37-6.78-27.48-9.05-46.62c-9.4-79.34-81.24-120.95-154.9-125.94c-74.34-5.04-150.06,27.39-155.07,92.43"/>
			<path class="problems" d="M856.26,722.5c-7.27-72.86-18.85-125.25-27.95-165.08c-28.8-126.05-62.66-99.37-83.73-169.89
				c-3.69-12.34-6.89-27.39-9.2-46.42c-9.58-79.01-80.45-120.91-153.46-126.46c-73.63-5.6-148.95,25.96-154.55,89.86"/>
			<path class="problems" d="M856.34,722.49c-7.76-71.93-19.94-123.7-29.31-163.27c-29.5-124.58-63-98.77-84.26-168.8
				c-3.74-12.31-6.99-27.3-9.34-46.23c-9.77-78.69-79.66-120.87-152.02-126.98c-72.93-6.17-147.83,24.53-154.04,87.29"/>
			<path class="problems" d="M856.42,722.48c-8.24-71-21.03-122.15-30.67-161.45c-30.19-123.11-63.34-98.16-84.79-167.72
				c-3.79-12.29-7.09-27.21-9.48-46.03c-9.95-78.36-78.86-120.83-150.58-127.51c-72.23-6.73-146.72,23.1-153.52,84.72"/>
			<path class="problems" d="M856.5,722.48c-8.73-70.07-22.11-120.6-32.02-159.64c-30.88-121.63-63.69-97.56-85.32-166.63
				c-3.84-12.26-7.2-27.12-9.63-45.84c-10.13-78.04-78.07-120.79-149.13-128.03c-71.53-7.29-145.61,21.67-153.01,82.16"/>
			<path class="problems" d="M856.57,722.47c-9.22-69.15-23.2-119.05-33.38-157.83c-31.55-120.15-64.04-96.95-85.85-165.54
				c-3.89-12.23-7.3-27.03-9.77-45.65C717.26,275.74,650.3,232.7,579.88,224.9c-70.82-7.85-144.5,20.24-152.49,79.59"/>
			<path class="problems" d="M856.65,722.46c-9.7-68.22-24.28-117.5-34.74-156.02c-32.22-118.66-64.39-96.35-86.38-164.46
				c-3.94-12.2-7.4-26.94-9.92-45.45c-10.5-77.38-76.47-120.7-146.25-129.07c-70.12-8.41-143.38,18.81-151.98,77.02"/>
			<path class="problems" d="M856.73,722.45c-10.19-67.29-25.36-115.94-36.1-154.2c-32.88-117.17-64.74-95.74-86.91-163.37
				c-3.99-12.18-7.51-26.84-10.06-45.26c-10.68-77.06-75.68-120.66-144.81-129.6c-69.41-8.97-142.27,17.38-151.46,74.45"/>
			<path class="problems" d="M856.81,722.44c-10.67-66.36-26.44-114.38-37.46-152.39c-33.52-115.68-65.09-95.14-87.43-162.29
				c-4.04-12.15-7.61-26.75-10.21-45.07c-10.87-76.73-74.88-120.62-143.36-130.12c-68.71-9.53-141.16,15.95-150.95,71.88"/>
		</g>
	</g>
	<g id="problems_dotted">
		<path class="problems" d="M856.26,722.5c-4.93,63.78-53.04,133.34-115.51,175.7c-70.3,47.42-159.2,59.74-226-7.98
			c-62.32-63.43-71.75-190.7-75.68-321.83c-2.83-93.09-3.28-188.09-11.7-263.88"/>
		<path class="problems" d="M856.11,722.52c-6.3-74.72-16.67-128.33-25.23-168.71C803.5,424.82,768.9,453.23,748.2,381.75
			c-3.59-12.4-6.68-27.57-8.91-46.81c-9.22-79.66-82.04-120.99-156.34-125.42c-75.04-4.48-151.17,28.82-155.58,95"/>
	</g>
	<g id="diseases_solid">
		<path class="diseases" d="M858.83,722.23c-21.91,39.43-70.36,78.74-125.09,98.37c-62.09,22.28-134.21,16.65-186.21-37.3
			c-58.49-60.68-56.2-167.59-67.84-272.73c-8.42-75.01-25.2-149.12-52.2-206.3"/>
		<path class="diseases" d="M858.75,722.24c-21.4,40.17-69.83,80.4-124.8,100.72c-62.34,23.04-134.98,17.96-187.42-36.41
			c-58.61-60.76-56.67-168.29-68.08-274.22c-8.25-75.55-24.54-150.3-50.97-208.04"/>
		<path class="diseases" d="M858.67,722.25c-20.89,40.91-69.3,82.06-124.51,103.06c-62.58,23.81-135.74,19.27-188.62-35.52
			c-58.73-60.84-57.14-168.99-68.32-275.71c-8.08-76.1-23.87-151.48-49.74-209.79"/>
		<path class="diseases" d="M858.59,722.26c-20.37,41.65-68.77,83.72-124.22,105.4c-62.82,24.57-136.5,20.58-189.83-34.64
			C485.7,732.1,486.94,623.33,476,515.83c-7.91-76.65-23.21-152.67-48.52-211.53"/>
		<path class="diseases" d="M858.52,722.27c-19.86,42.38-68.24,85.38-123.93,107.75c-63.07,25.34-137.26,21.88-191.03-33.75
			c-58.97-61-58.08-170.39-68.79-278.69c-7.74-77.2-22.55-153.85-47.29-213.28"/>
		<path class="diseases" d="M858.44,722.27c-19.34,43.12-67.72,87.03-123.64,110.09c-63.31,26.11-138.02,23.19-192.24-32.86
			c-59.08-61.08-58.55-171.09-69.03-280.17c-7.57-77.75-21.88-155.03-46.06-215.02"/>
		<path class="diseases" d="M858.36,722.28c-18.83,43.86-67.19,88.69-123.35,112.43c-63.56,26.87-138.78,24.5-193.44-31.97
			c-59.2-61.16-59.02-171.79-69.26-281.66c-7.4-78.29-21.22-156.21-44.83-216.77"/>
		<path class="diseases" d="M858.28,722.29c-18.31,44.6-66.66,90.35-123.06,114.78c-63.8,27.64-139.54,25.81-194.65-31.08
			c-59.32-61.25-59.5-172.49-69.5-283.15c-7.23-78.84-20.55-157.39-43.61-218.51"/>
		<path class="diseases" d="M858.21,722.3c-17.8,45.34-66.13,92.01-122.77,117.12c-64.05,28.4-140.3,27.12-195.86-30.19
			c-59.44-61.33-59.97-173.19-69.74-284.64c-7.06-79.39-19.89-158.57-42.38-220.26"/>
		<path class="diseases" d="M858.05,722.32c-16.77,46.81-65.08,95.32-122.19,121.81c-64.54,29.93-141.82,29.74-198.27-28.42
			c-59.68-61.49-60.91-174.59-70.21-287.61c-6.72-80.49-18.56-160.93-39.93-223.75"/>
		<path class="diseases" d="M857.97,722.32c-16.25,47.55-64.55,96.98-121.9,124.15c-64.79,30.7-142.58,31.05-199.47-27.53
			c-59.8-61.57-61.38-175.29-70.45-289.1c-6.55-81.03-17.9-162.11-38.7-225.49"/>
		<path class="diseases" d="M857.89,722.33c-15.74,48.29-64.02,98.64-121.61,126.49c-65.03,31.46-143.34,32.36-200.68-26.64
			c-59.92-61.65-61.85-176-70.69-290.59c-6.38-81.58-17.23-163.29-37.47-227.24"/>
		<path class="diseases" d="M857.82,722.34c-15.22,49.02-63.49,100.29-121.32,128.84c-65.28,32.23-144.1,33.66-201.88-25.75
			c-60.03-61.73-62.32-176.7-70.93-292.07c-6.22-82.13-16.57-164.48-36.24-228.98"/>
		<path class="diseases" d="M857.74,722.35c-14.71,49.76-62.97,101.95-121.03,131.18c-65.53,32.99-144.86,34.97-203.09-24.86
			c-60.15-61.81-62.79-177.4-71.16-293.56c-6.05-82.68-15.9-165.66-35.02-230.73"/>
		<path class="diseases" d="M857.66,722.36c-14.2,50.5-62.44,103.61-120.74,133.52c-65.77,33.76-145.62,36.28-204.3-23.98
			c-60.27-61.89-63.27-178.1-71.4-295.05c-5.88-83.23-15.24-166.84-33.79-232.47"/>
		<path class="diseases" d="M857.58,722.36c-13.68,51.24-61.91,105.26-120.45,135.87c-66.02,34.52-146.38,37.59-205.5-23.09
			c-60.39-61.97-63.74-178.8-71.64-296.54c-5.71-83.77-14.58-168.02-32.56-234.22"/>
		<path class="diseases" d="M857.51,722.37c-13.17,51.98-61.39,106.92-120.16,138.21c-66.27,35.28-147.14,38.9-206.71-22.2
			c-60.51-62.06-64.21-179.5-71.88-298.03c-5.54-84.32-13.91-169.2-31.34-235.96"/>
		<path class="diseases" d="M857.43,722.38c-12.65,52.71-60.86,108.58-119.87,140.55c-66.51,36.05-147.89,40.2-207.91-21.31
			c-60.63-62.14-64.68-180.2-72.11-299.51c-5.37-84.87-13.25-170.38-30.11-237.71"/>
		<path class="diseases" d="M857.27,722.4c-11.62,54.19-59.81,111.89-119.29,145.24c-67.01,37.58-149.29,42.7-210.32-19.53
			c-60.74-62.42-65.62-181.6-72.59-302.49c-5.03-85.96-11.92-172.74-27.65-241.2"/>
		<path class="diseases" d="M857.2,722.4c-11.11,54.93-59.28,113.54-119,147.58c-67.26,38.34-150.06,44.01-211.53-18.64
			c-60.86-62.49-66.09-182.3-72.83-303.98c-4.86-86.51-11.25-173.92-26.43-242.94"/>
		<path class="diseases" d="M857.12,722.41c-10.59,55.66-58.76,115.2-118.71,149.93c-67.5,39.1-150.82,45.32-212.74-17.76
			c-60.99-62.57-66.56-183-73.06-305.46c-4.69-87.06-10.59-175.1-25.2-244.69"/>
		<path class="diseases" d="M857.04,722.42c-10.08,56.4-58.23,116.86-118.41,152.27c-67.75,39.87-151.58,46.64-213.94-16.87
			c-61.11-62.65-67.04-183.7-73.3-306.95c-4.52-87.61-9.93-176.28-23.97-246.43"/>
		<path class="diseases" d="M856.89,722.44c-11.16-65.43-27.52-112.82-38.81-150.58c-34.16-114.18-65.45-94.53-87.96-161.2
			c-4.09-12.12-7.72-26.66-10.35-44.87c-11.05-76.41-74.08-120.57-141.92-130.64c-68-10.09-140.05,14.52-150.43,69.31"/>
		<path class="diseases" d="M856.96,722.43c-11.65-64.5-28.59-111.25-40.17-148.77c-34.78-112.68-65.81-93.93-88.49-160.11
			c-4.15-12.09-7.82-26.57-10.49-44.68c-11.24-76.08-73.28-120.53-140.48-131.16c-67.3-10.65-138.94,13.1-149.92,66.74"/>
		<path class="diseases" d="M857.04,722.42c-12.13-63.57-29.66-109.68-41.53-146.95c-35.39-111.18-66.17-93.32-89.02-159.03
			c-4.2-12.07-7.92-26.48-10.64-44.48c-11.42-75.76-72.48-120.49-139.04-131.69c-66.59-11.21-137.82,11.67-149.4,64.17"/>
		<path class="diseases" d="M857.12,722.41c-12.62-62.65-30.73-108.11-42.89-145.14c-36-109.68-66.53-92.72-89.55-157.94
			c-4.25-12.04-8.03-26.39-10.78-44.29C702.29,299.6,642.22,254.6,576.3,242.83c-65.88-11.76-136.71,10.24-148.89,61.6"/>
		<path class="diseases" d="M857.27,722.4c-13.59-60.79-32.87-104.97-45.6-141.52c-37.17-106.67-67.26-91.51-90.61-155.77
			c-4.36-11.99-8.24-26.21-11.07-43.9c-11.98-74.78-70.07-120.35-134.71-133.25c-64.46-12.87-134.49,7.38-147.86,56.47"/>
		<path class="diseases" d="M857.35,722.39c-14.08-59.86-33.93-103.39-46.96-139.7c-37.73-105.16-67.63-90.9-91.14-154.68
			c-4.41-11.96-8.34-26.12-11.21-43.71c-12.17-74.46-69.27-120.3-133.27-133.78c-63.75-13.43-133.38,5.95-147.34,53.9"/>
		<path class="diseases" d="M857.43,722.38c-14.56-58.93-34.99-101.81-48.32-137.89c-38.29-103.64-67.99-90.29-91.67-153.6
			c-4.46-11.93-8.44-26.03-11.36-43.52c-12.35-74.13-68.47-120.25-131.83-134.3C511.22,239.1,442,257.59,427.43,304.4"/>
		<path class="diseases" d="M857.51,722.37c-15.05-58-36.05-100.23-49.68-136.08c-38.83-102.13-68.37-89.69-92.2-152.51
			c-4.52-11.9-8.55-25.94-11.5-43.32c-12.54-73.81-67.66-120.2-130.38-134.82c-62.33-14.53-131.15,3.09-146.31,48.76"/>
		<path class="diseases" d="M857.58,722.36c-15.53-57.07-37.1-98.65-51.03-134.27c-39.36-100.62-68.74-89.08-92.73-151.43
			c-4.57-11.88-8.65-25.85-11.65-43.13c-12.73-73.48-66.86-120.15-128.94-135.34c-61.62-15.08-130.04,1.66-145.8,46.19"/>
		<path class="diseases" d="M857.66,722.36c-16.02-56.15-38.16-97.07-52.39-132.45c-39.87-99.1-69.12-88.47-93.26-150.34
			c-4.62-11.85-8.76-25.76-11.79-42.93c-12.92-73.16-66.05-120.09-127.5-135.87c-60.9-15.63-128.93,0.23-145.29,43.62"/>
		<path class="diseases" d="M857.74,722.35c-16.51-55.22-39.2-95.48-53.75-130.64c-40.37-97.59-69.49-87.86-93.79-149.25
			c-4.68-11.82-8.86-25.67-11.93-42.74c-13.11-72.83-65.24-120.04-126.06-136.39c-60.19-16.18-127.81-1.2-144.77,41.05"/>
		<path class="diseases" d="M857.82,722.34c-16.99-54.29-40.25-93.89-55.11-128.83c-40.86-96.07-69.87-87.26-94.31-148.17
			c-4.73-11.8-8.97-25.58-12.08-42.55c-13.29-72.51-64.44-119.99-124.61-136.91c-59.48-16.73-126.7-2.63-144.26,38.48"/>
		<path class="diseases" d="M857.89,722.33c-17.48-53.36-41.29-92.3-56.47-127.02c-41.33-94.56-70.25-86.65-94.84-147.08
			c-4.79-11.77-9.07-25.49-12.22-42.35c-13.48-72.18-63.63-119.93-123.17-137.43c-58.76-17.27-125.59-4.06-143.74,35.91"/>
		<path class="diseases" d="M858.05,722.32c-18.45-51.5-43.37-89.12-59.18-123.39c-42.24-91.52-71.02-85.43-95.9-144.91
			c-4.9-11.71-9.28-25.3-12.51-41.97c-13.86-71.53-62.01-119.82-120.29-138.48c-57.33-18.36-123.37-6.92-142.71,30.77"/>
		<path class="diseases" d="M858.13,722.31c-18.94-50.57-44.4-87.53-60.54-121.58c-42.67-90.01-71.41-84.82-96.43-143.82
			c-4.96-11.69-9.39-25.21-12.66-41.77c-14.05-71.21-61.2-119.76-118.84-139c-56.62-18.9-122.25-8.35-142.2,28.21"/>
		<path class="diseases" d="M858.21,722.3c-19.42-49.65-45.43-85.93-61.9-119.76c-43.08-88.5-71.8-84.21-96.96-142.74
			c-5.01-11.66-9.49-25.12-12.8-41.58c-14.24-70.89-60.39-119.7-117.4-139.52c-55.9-19.44-121.14-9.78-141.68,25.64"/>
		<path class="diseases" d="M858.28,722.29c-19.91-48.72-46.45-84.33-63.26-117.95c-43.48-86.98-72.19-83.6-97.49-141.65
			c-5.07-11.63-9.6-25.03-12.94-41.38c-14.44-70.56-59.58-119.63-115.96-140.05c-55.18-19.98-120.03-11.21-141.17,23.07"/>
		<path class="diseases" d="M858.36,722.28c-20.4-47.79-47.47-82.74-64.61-116.14c-43.87-85.47-72.58-82.99-98.02-140.57
			c-5.13-11.6-9.7-24.94-13.09-41.19c-14.63-70.24-58.77-119.57-114.52-140.57c-54.47-20.52-118.92-12.64-140.65,20.5"/>
		<path class="diseases" d="M858.44,722.27c-20.88-46.86-48.49-81.14-65.97-114.33c-44.24-83.97-72.98-82.38-98.55-139.48
			c-5.18-11.58-9.81-24.85-13.23-41c-14.82-69.91-57.96-119.5-113.08-141.09c-53.75-21.05-117.8-14.06-140.14,17.93"/>
		<path class="diseases" d="M858.52,722.27c-21.37-45.93-49.5-79.54-67.33-112.51c-44.6-82.46-73.37-81.76-99.08-138.39
			c-5.24-11.55-9.92-24.76-13.38-40.8c-15.01-69.59-57.15-119.44-111.63-141.61c-53.03-21.59-116.69-15.49-139.62,15.36"/>
		<path class="diseases" d="M858.59,722.26c-21.85-45-50.51-77.94-68.69-110.7c-44.94-80.96-73.77-81.15-99.61-137.31
			c-5.3-11.52-10.02-24.67-13.52-40.61c-15.2-69.26-56.34-119.37-110.19-142.14c-52.32-22.12-115.58-16.92-139.11,12.79"/>
		<path class="diseases" d="M858.67,722.25c-22.34-44.08-51.51-76.35-70.05-108.89c-45.26-79.46-74.17-80.54-100.14-136.22
			c-5.36-11.49-10.13-24.58-13.66-40.42c-15.4-68.94-55.53-119.3-108.75-142.66c-51.6-22.65-114.47-18.35-138.59,10.22"/>
	</g>
	<g id="diseases_dotted">
		<path class="diseases" d="M858.13,722.31c-17.28,46.07-65.6,93.66-122.48,119.46c-64.29,29.17-141.06,28.43-197.06-29.31
			c-59.56-61.41-60.44-173.89-69.98-286.12c-6.89-79.94-19.22-159.75-41.15-222"/>
		<path class="diseases" d="M857.35,722.39c-12.14,53.45-60.33,110.23-119.58,142.9c-66.76,36.81-148.53,41.39-209.12-20.42
			c-60.62-62.34-65.15-180.9-72.35-301c-5.2-85.42-12.58-171.56-28.88-239.45"/>
		<path class="diseases" d="M857.2,722.4c-13.1-61.72-31.8-106.54-44.25-143.33c-36.59-108.17-66.89-92.11-90.08-156.86
			c-4.3-12.01-8.13-26.3-10.93-44.1c-11.79-75.11-70.88-120.39-136.15-132.73c-65.17-12.32-135.6,8.81-148.37,59.03"/>
		<path class="diseases" d="M857.97,722.32c-17.96-52.43-42.33-90.71-57.82-125.2c-41.79-93.04-70.64-86.04-95.37-146
			c-4.84-11.74-9.18-25.39-12.37-42.16c-13.67-71.86-62.82-119.87-121.73-137.96c-58.05-17.82-124.48-5.49-143.23,33.34"/>
	</g>
	<g id="obesity_solid">
		<g>
			<path class="obesity" d="M862.56,721.85c-46.62,4.02-95.78-1.28-139.01-14.1c-50.4-14.98-97.49-46.41-128.33-79.95
				c-52.47-57.11-33.58-133.99-56.44-201.32c-16.54-48.71-57.08-92.44-111.1-122.55"/>
			<path class="obesity" d="M862.48,721.86c-46.1,4.76-95.25,0.38-138.72-11.76c-50.65-14.21-98.25-45.1-129.54-79.06
				c-52.6-57.18-34.05-134.69-56.68-202.81c-16.37-49.25-56.42-93.62-109.88-124.29"/>
			<path class="obesity" d="M862.4,721.86c-45.59,5.49-94.72,2.04-138.43-9.42c-50.89-13.44-99.01-43.79-130.75-78.17
				c-52.72-57.26-34.52-135.39-56.92-204.3c-16.2-49.8-55.75-94.8-108.65-126.04"/>
			<path class="obesity" d="M862.32,721.87c-45.07,6.23-94.19,3.7-138.14-7.07c-51.14-12.67-99.78-42.48-131.95-77.28
				c-52.84-57.34-34.99-136.09-57.15-205.79c-16.04-50.35-55.09-95.98-107.42-127.78"/>
			<path class="obesity" d="M862.24,721.88c-44.56,6.97-93.67,5.37-137.85-4.73c-51.39-11.9-100.54-41.17-133.16-76.39
				c-52.96-57.42-35.46-136.79-57.39-207.28c-15.87-50.9-54.43-97.16-106.19-129.53"/>
			<path class="obesity" d="M862.17,721.89c-44.04,7.71-93.14,7.03-137.56-2.39c-51.63-11.13-101.3-39.86-134.36-75.5
				c-53.08-57.5-35.94-137.49-57.63-208.76c-15.7-51.45-53.76-98.34-104.97-131.27"/>
			<path class="obesity" d="M862.09,721.9c-43.53,8.45-92.61,8.69-137.27-0.04c-51.88-10.36-102.06-38.55-135.57-74.62
				c-53.2-57.58-36.41-138.19-57.87-210.25c-15.53-51.99-53.1-99.52-103.74-133.02"/>
			<path class="obesity" d="M861.93,721.91c-42.5,9.92-91.57,12.12-136.69,4.64c-52.39-8.69-103.58-35.92-137.98-72.84
				c-53.45-57.73-37.35-139.59-58.34-213.23c-15.19-53.09-51.77-101.89-101.29-136.51"/>
			<path class="obesity" d="M861.86,721.92c-41.98,10.66-91.05,13.8-136.4,6.99c-52.64-7.9-104.35-34.61-139.19-71.95
				c-53.57-57.81-37.82-140.29-58.58-214.71c-15.02-53.64-51.1-103.07-100.06-138.25"/>
			<path class="obesity" d="M861.78,721.93c-41.47,11.4-90.52,15.47-136.11,9.33c-52.88-7.12-105.11-33.3-140.39-71.06
				c-53.69-57.89-38.29-140.99-58.82-216.2c-14.85-54.19-50.44-104.25-98.83-140"/>
			<path class="obesity" d="M861.7,721.94c-40.96,12.13-89.99,17.14-135.82,11.67c-53.13-6.34-105.87-31.99-141.6-70.17
				c-53.81-57.97-38.76-141.69-59.05-217.69c-14.68-54.73-49.78-105.43-97.6-141.74"/>
			<path class="obesity" d="M861.62,721.94c-40.44,12.87-89.46,18.81-135.53,14.02c-53.37-5.56-106.71-30.61-142.8-69.28
				C529.23,608.75,544.06,524.29,524,447.5c-14.51-55.28-49.11-106.61-96.38-143.48"/>
			<path class="obesity" d="M861.55,721.95c-39.93,13.61-88.93,20.49-135.24,16.36c-53.61-4.78-107.48-29.29-144.01-68.4
				c-54.18-58-39.71-143.09-59.53-220.66c-14.34-55.83-48.45-107.79-95.15-145.23"/>
			<path class="obesity" d="M861.47,721.96c-39.41,14.35-88.4,22.16-134.95,18.7c-53.86-4-108.25-27.98-145.21-67.51
				c-54.31-58.08-40.18-143.79-59.77-222.15c-14.17-56.38-47.78-108.97-93.92-146.97"/>
			<path class="obesity" d="M861.39,721.97c-38.9,15.09-87.87,23.83-134.66,21.05c-54.1-3.22-109.01-26.66-146.42-66.62
				c-54.44-58.15-40.65-144.49-60-223.64c-14-56.92-47.12-110.15-92.7-148.72"/>
			<path class="obesity" d="M861.31,721.98c-38.38,15.82-87.34,25.5-134.37,23.39c-54.34-2.44-109.78-25.35-147.63-65.73
				c-54.56-58.22-41.12-145.19-60.24-225.13c-13.83-57.47-46.46-111.33-91.47-150.46"/>
			<path class="obesity" d="M861.16,721.99c-37.35,17.3-86.28,28.84-133.79,28.08c-54.83-0.88-111.31-22.72-150.04-63.95
				c-54.82-58.37-42.06-146.59-60.72-228.1c-13.5-58.57-45.13-113.69-89.01-153.95"/>
			<path class="obesity" d="M861.08,722c-36.84,18.04-85.75,30.93-133.5,30.42c-55.07-0.59-112.08-21.4-151.24-63.07
				c-54.94-58.44-42.53-147.29-60.95-229.59c-13.33-59.12-44.46-114.88-87.79-155.7"/>
			<path class="obesity" d="M861,722.01c-36.32,18.77-85.22,32.18-133.21,32.76c-55.31,0.68-112.84-20.09-152.45-62.18
				c-55.07-58.52-43-147.99-61.19-231.08c-13.16-59.66-43.8-116.06-86.56-157.44"/>
			<path class="obesity" d="M860.92,722.02c-35.81,19.51-84.69,33.84-132.92,35.11c-55.56,1.45-113.61-18.78-153.65-61.29
				c-55.19-58.59-43.48-148.69-61.43-232.57c-12.99-60.21-43.13-117.24-85.33-159.19"/>
			<path class="obesity" d="M860.85,722.03c-35.29,20.25-84.16,35.51-132.63,37.45c-55.8,2.23-114.37-17.46-154.86-60.4
				c-55.32-58.67-43.95-149.39-61.67-234.05c-12.82-60.76-42.47-118.42-84.11-160.93"/>
			<path class="obesity" d="M860.77,722.03c-34.78,20.99-83.63,37.18-132.34,39.79c-56.04,3.01-115.14-16.15-156.07-59.51
				c-55.44-58.74-44.42-150.09-61.9-235.54c-12.65-61.31-41.81-119.6-82.88-162.68"/>
			<path class="obesity" d="M860.69,722.04c-34.27,21.73-83.1,38.85-132.05,42.14c-56.28,3.78-115.9-14.83-157.27-58.62
				c-55.57-58.82-44.89-150.79-62.14-237.03c-12.48-61.86-41.14-120.78-81.65-164.42"/>
			<path class="obesity" d="M860.61,722.05c-33.75,22.46-82.57,40.51-131.76,44.48c-56.52,4.56-116.67-13.52-158.48-57.74
				C514.69,649.9,525.02,557.3,508,470.28c-12.31-62.4-40.48-121.96-80.42-166.17"/>
			<path class="obesity" d="M860.54,722.06c-33.24,23.2-82.03,42.18-131.47,46.82c-56.76,5.33-117.43-12.21-159.68-56.85
				c-55.81-58.97-45.83-152.19-62.62-240.01c-12.14-62.95-39.81-123.14-79.2-167.91"/>
			<path class="obesity" d="M860.38,722.07c-32.21,24.68-80.97,45.51-130.89,51.51c-57.25,6.88-118.96-9.58-162.09-55.07
				c-56.06-59.12-46.77-153.59-63.09-242.98c-11.8-64.05-38.49-125.5-76.74-171.4"/>
			<path class="obesity" d="M860.3,722.08c-31.69,25.41-80.44,47.17-130.6,53.85c-57.49,7.65-119.73-8.27-163.3-54.18
				c-56.18-59.2-47.24-154.29-63.33-244.47c-11.63-64.6-37.82-126.68-75.51-173.15"/>
			<path class="obesity" d="M860.23,722.09c-31.18,26.15-79.91,48.84-130.31,56.2c-57.73,8.43-120.49-6.96-164.51-53.29
				C509.1,665.72,517.69,570,501.84,479.04c-11.46-65.14-37.16-127.87-74.29-174.89"/>
			<path class="obesity" d="M860.15,722.1c-30.66,26.89-79.38,50.5-130.02,58.54c-57.97,9.2-121.25-5.64-165.71-52.4
				c-56.43-59.35-48.19-155.69-63.8-247.44c-11.29-65.69-36.49-129.05-73.06-176.64"/>
			<path class="obesity" d="M860.07,722.11c-30.15,27.63-78.85,52.17-129.73,60.88c-58.21,9.97-122.02-4.33-166.92-51.52
				c-56.55-59.43-48.66-156.39-64.04-248.93c-11.13-66.24-35.83-130.23-71.83-178.38"/>
			<path class="obesity" d="M859.99,722.11c-29.63,28.37-78.31,53.83-129.44,63.23c-58.45,10.74-122.78-3.02-168.12-50.63
				c-56.67-59.51-49.13-157.09-64.28-250.42c-10.96-66.79-35.16-131.41-70.61-180.13"/>
			<path class="obesity" d="M859.91,722.12c-29.12,29.1-77.78,55.49-129.15,65.57c-58.7,11.52-123.54-1.71-169.33-49.74
				c-56.8-59.58-49.6-157.79-64.52-251.91c-10.79-67.34-34.5-132.59-69.38-181.87"/>
			<path class="obesity" d="M859.84,722.13c-28.6,29.84-77.25,57.15-128.86,67.91c-58.94,12.29-124.31-0.4-170.53-48.85
				c-56.92-59.66-50.07-158.49-64.75-253.39c-10.62-67.88-33.84-133.77-68.15-183.62"/>
			<path class="obesity" d="M859.76,722.14c-28.09,30.58-76.72,58.82-128.57,70.26c-59.18,13.06-125.07,0.92-171.74-47.96
				c-57.04-59.74-50.54-159.19-64.99-254.88c-10.45-68.43-33.17-134.95-66.92-185.36"/>
			<path class="obesity" d="M859.6,722.15c-27.06,32.06-75.66,62.14-127.99,74.94c-59.66,14.6-126.6,3.54-174.15-46.19
				c-57.28-59.89-51.49-160.59-65.47-257.86c-10.11-69.53-31.84-137.31-64.47-188.85"/>
			<path class="obesity" d="M859.53,722.16c-26.55,32.79-75.13,63.8-127.7,77.29c-59.91,15.37-127.36,4.85-175.36-45.3
				c-57.4-59.97-51.96-161.29-65.7-259.35c-9.94-70.07-31.18-138.49-63.24-190.6"/>
			<path class="obesity" d="M859.45,722.17c-26.03,33.53-74.6,65.46-127.41,79.63c-60.15,16.13-128.12,6.16-176.56-44.41
				c-57.53-60.05-52.43-161.99-65.94-260.83c-9.77-70.62-30.52-139.68-62.02-192.34"/>
			<path class="obesity" d="M859.37,722.18c-25.52,34.27-74.07,67.12-127.12,81.97c-60.39,16.9-128.88,7.47-177.77-43.52
				c-57.65-60.13-52.9-162.69-66.18-262.32c-9.6-71.17-29.85-140.86-60.79-194.09"/>
			<path class="obesity" d="M859.29,722.19c-25,35.01-73.54,68.78-126.83,84.32c-60.63,17.67-129.64,8.78-178.97-42.63
				c-57.77-60.21-53.37-163.39-66.42-263.81c-9.43-71.72-29.19-142.04-59.56-195.83"/>
			<path class="obesity" d="M859.22,722.19c-24.49,35.74-73.01,70.44-126.54,86.66c-60.88,18.44-130.41,10.09-180.18-41.74
				c-57.89-60.29-53.84-164.09-66.65-265.3c-9.26-72.27-28.52-143.22-58.33-197.58"/>
			<path class="obesity" d="M859.14,722.2c-23.97,36.48-72.48,72.1-126.25,89c-61.12,19.21-131.17,11.4-181.39-40.86
				c-58.01-60.37-54.31-164.79-66.89-266.78c-9.09-72.81-27.86-144.4-57.11-199.32"/>
			<path class="obesity" d="M859.06,722.21c-23.46,37.22-71.95,73.76-125.96,91.35c-61.36,19.97-131.93,12.72-182.59-39.97
				c-58.13-60.45-54.78-165.49-67.13-268.27c-8.92-73.36-27.19-145.58-55.88-201.07"/>
			<path class="obesity" d="M858.98,722.22c-22.94,37.96-71.42,75.42-125.67,93.69c-61.61,20.74-132.69,14.03-183.8-39.08
				c-58.25-60.53-55.26-166.19-67.37-269.76c-8.75-73.91-26.53-146.76-54.65-202.81"/>
			<path class="obesity" d="M858.83,722.23c-23.31-42.22-53.5-73.15-72.76-105.26c-45.87-76.47-74.98-79.31-101.2-134.05
				c-5.48-11.44-10.34-24.4-13.95-40.03c-15.79-68.29-53.91-119.15-105.86-143.7c-50.17-23.71-112.24-21.21-137.56,5.08"/>
			<path class="obesity" d="M858.9,722.23c-23.8-41.29-54.49-71.55-74.12-103.45c-46.15-74.99-75.39-78.69-101.72-132.96
				c-5.54-11.41-10.45-24.31-14.1-39.83c-15.98-67.96-53.1-119.08-104.42-144.23c-49.45-24.23-111.13-22.64-137.05,2.51"/>
			<path class="obesity" d="M858.98,722.22c-24.28-40.36-55.47-69.95-75.48-101.64c-46.41-73.51-75.8-78.07-102.25-131.88
				c-5.6-11.38-10.55-24.22-14.24-39.64c-16.18-67.64-52.29-119-102.98-144.75c-48.74-24.75-110.02-24.07-136.53-0.05"/>
			<path class="obesity" d="M859.06,722.21c-24.77-39.43-56.45-68.36-76.84-99.83c-46.66-72.03-76.21-77.46-102.78-130.79
				c-5.66-11.35-10.66-24.13-14.38-39.45c-16.37-67.31-51.48-118.92-101.54-145.27c-48.02-25.28-108.91-25.5-136.02-2.62"/>
			<path class="obesity" d="M859.14,722.2c-25.26-38.5-57.43-66.76-78.19-98.01c-46.89-70.56-76.62-76.84-103.31-129.71
				c-5.72-11.32-10.77-24.04-14.53-39.25c-16.57-66.99-50.67-118.84-100.09-145.79c-47.3-25.8-107.79-26.93-135.5-5.19"/>
			<path class="obesity" d="M859.22,722.19c-25.74-37.58-58.39-65.17-79.55-96.2c-47.11-69.1-77.03-76.22-103.84-128.62
				c-5.78-11.29-10.87-23.94-14.67-39.06C644.39,391.66,611.29,339.56,562.5,312c-46.59-26.31-106.68-28.36-134.99-7.76"/>
			<path class="obesity" d="M859.29,722.19c-26.23-36.65-59.36-63.58-80.91-94.39c-47.32-67.64-77.45-75.6-104.37-127.53
				c-5.84-11.26-10.98-23.85-14.82-38.86c-16.96-66.33-49.05-118.67-97.21-146.84c-45.88-26.83-105.57-29.79-134.47-10.33"/>
			<path class="obesity" d="M859.37,722.18c-26.71-35.72-60.32-61.99-82.27-92.58c-47.51-66.19-77.87-74.98-104.9-126.45
				c-5.9-11.23-11.09-23.76-14.96-38.67C640.08,398.48,609,345.9,561.47,317.12c-45.16-27.34-104.46-31.22-133.96-12.9"/>
			<path class="obesity" d="M859.45,722.17c-27.2-34.79-61.27-60.41-83.63-90.76c-47.69-64.75-78.29-74.36-105.43-125.36
				c-5.96-11.2-11.19-23.67-15.11-38.48c-17.36-65.68-47.43-118.5-94.33-147.88c-44.45-27.86-103.35-32.65-133.44-15.47"/>
			<path class="obesity" d="M859.6,722.15c-28.17-32.93-63.16-57.24-86.34-87.14c-48-61.88-79.13-73.11-106.49-123.19
				c-6.09-11.14-11.41-23.49-15.39-38.09c-17.75-65.03-45.82-118.31-91.44-148.93c-43.03-28.88-101.12-35.51-132.41-20.61"/>
			<path class="obesity" d="M859.68,722.15c-28.66-32-64.09-55.67-87.7-85.33c-48.13-60.46-79.56-72.49-107.02-122.1
				c-6.15-11.11-11.51-23.4-15.54-37.9c-17.95-64.7-45.02-118.22-90-149.45c-42.32-29.38-100.01-36.94-131.9-23.18"/>
			<path class="obesity" d="M859.76,722.14c-29.14-31.08-65.02-54.1-89.06-83.51c-48.26-59.06-79.98-71.86-107.55-121.02
				c-6.21-11.08-11.62-23.31-15.68-37.7c-18.15-64.38-44.22-118.12-88.56-149.97c-41.61-29.89-98.9-38.37-131.38-25.75"/>
			<path class="obesity" d="M859.84,722.13c-29.63-30.15-65.94-52.53-90.42-81.7c-48.37-57.66-80.41-71.23-108.08-119.93
				c-6.28-11.05-11.73-23.22-15.83-37.51c-18.36-64.05-43.41-118.03-87.11-150.5c-40.9-30.39-97.79-39.8-130.87-28.31"/>
			<path class="obesity" d="M859.91,722.12c-30.12-29.22-66.86-50.97-91.77-79.89c-48.47-56.27-80.84-70.61-108.6-118.85
				c-6.34-11.02-11.84-23.13-15.97-37.31c-18.56-63.73-42.61-117.93-85.67-151.02c-40.2-30.89-96.67-41.23-130.35-30.88"/>
			<path class="obesity" d="M859.99,722.11c-30.6-28.29-67.77-49.41-93.13-78.07c-48.56-54.89-81.27-69.98-109.13-117.76
				c-6.41-10.99-11.95-23.04-16.11-37.12c-18.76-63.4-41.82-117.82-84.23-151.54c-39.49-31.39-95.56-42.65-129.84-33.45"/>
			<path class="obesity" d="M860.07,722.11c-31.09-27.36-68.68-47.86-94.49-76.26c-48.63-53.52-81.71-69.35-109.66-116.67
				c-6.47-10.96-12.05-22.94-16.26-36.93c-18.96-63.07-41.02-117.72-82.79-152.06c-38.79-31.89-94.45-44.08-129.32-36.02"/>
			<path class="obesity" d="M860.15,722.1c-31.58-26.43-69.58-46.32-95.85-74.45c-48.7-52.16-82.14-68.72-110.19-115.59
				c-6.54-10.93-12.16-22.85-16.4-36.73c-19.17-62.74-40.22-117.62-81.34-152.59c-38.09-32.39-93.34-45.51-128.81-38.59"/>
			<path class="obesity" d="M860.23,722.09c-32.06-25.5-70.47-44.78-97.21-72.64c-48.76-50.81-82.58-68.08-110.72-114.5
				c-6.61-10.9-12.27-22.76-16.55-36.54C616.38,436,596.32,380.9,555.85,345.3c-37.39-32.89-92.22-46.94-128.29-41.16"/>
			<path class="obesity" d="M860.38,722.07c-33.03-23.65-72.24-41.72-99.92-69.01c-48.84-48.15-83.46-66.82-111.78-112.33
				c-6.74-10.83-12.49-22.58-16.83-36.15c-19.78-61.76-37.85-117.29-77.02-154.15c-35.99-33.87-90-49.8-127.26-46.3"/>
			<path class="obesity" d="M860.46,722.07c-33.52-22.72-73.11-40.21-101.28-67.2c-48.88-46.84-83.9-66.18-112.31-111.24
				c-6.81-10.8-12.6-22.49-16.98-35.96c-19.98-61.43-37.07-117.18-75.58-154.68c-35.3-34.37-88.89-51.23-126.75-48.87"/>
			<path class="obesity" d="M860.54,722.06c-34.01-21.79-73.98-38.7-102.64-65.39c-48.9-45.54-84.34-65.54-112.84-110.16
				c-6.88-10.76-12.71-22.4-17.12-35.76c-20.19-61.11-36.28-117.07-74.13-155.2c-34.61-34.86-87.78-52.66-126.23-51.44"/>
			<path class="obesity" d="M860.61,722.05c-34.49-20.86-74.85-37.21-103.99-63.57c-48.92-44.26-84.78-64.9-113.37-109.07
				c-6.94-10.73-12.81-22.3-17.27-35.57c-20.4-60.78-35.5-116.96-72.69-155.72c-33.92-35.35-86.66-54.09-125.72-54.01"/>
			<path class="obesity" d="M860.69,722.04c-34.98-19.93-75.71-35.72-105.35-61.76c-48.93-42.98-85.23-64.26-113.9-107.98
				c-7.01-10.7-12.92-22.21-17.41-35.38c-20.61-60.45-34.72-116.85-71.25-156.24c-33.23-35.84-85.55-55.52-125.2-56.57"/>
			<path class="obesity" d="M860.77,722.03c-35.46-19-76.56-34.24-106.71-59.95c-48.94-41.72-85.68-63.62-114.43-106.9
				c-7.08-10.66-13.03-22.12-17.55-35.18c-20.81-60.12-33.94-116.73-69.81-156.77c-32.55-36.33-84.44-56.95-124.69-59.14"/>
			<path class="obesity" d="M860.85,722.03c-35.95-18.08-77.41-32.78-108.07-58.14c-48.94-40.48-86.13-62.98-114.96-105.81
				c-7.15-10.63-13.14-22.03-17.7-34.99c-21.02-59.79-33.17-116.62-68.36-157.29c-31.86-36.82-83.33-58.38-124.17-61.71"/>
			<path class="obesity" d="M860.92,722.02c-36.44-17.15-78.25-31.32-109.43-56.32c-48.94-39.25-86.58-62.33-115.49-104.73
				c-7.22-10.59-13.25-21.94-17.84-34.8c-21.23-59.46-32.39-116.5-66.92-157.81c-31.18-37.3-82.21-59.81-123.66-64.28"/>
			<path class="obesity" d="M861,722.01c-36.92-16.22-79.09-29.88-110.78-54.51c-48.94-38.03-87.03-61.69-116.01-103.64
				c-7.29-10.55-13.36-21.85-17.99-34.6c-21.44-59.13-31.62-116.39-65.48-158.33c-30.5-37.79-81.1-61.24-123.14-66.85"/>
			<path class="obesity" d="M861.16,721.99c-37.89-14.36-80.75-27.03-113.5-50.89c-48.94-35.64-87.93-60.39-117.07-101.47
				c-7.43-10.48-13.58-21.66-18.28-34.21c-21.87-58.47-30.09-116.15-62.59-159.38c-29.15-38.77-78.88-64.1-122.11-71.99"/>
			<path class="obesity" d="M861.23,721.99c-38.38-13.43-81.57-25.63-114.86-49.07c-48.93-34.47-88.39-59.74-117.6-100.38
				c-7.51-10.44-13.69-21.57-18.42-34.02c-22.08-58.14-29.33-116.03-61.15-159.9c-28.48-39.26-77.77-65.53-121.6-74.56"/>
			<path class="obesity" d="M861.31,721.98c-38.87-12.5-82.39-24.24-116.22-47.26c-48.93-33.31-88.84-59.09-118.13-99.3
				c-7.58-10.41-13.8-21.48-18.56-33.83c-22.29-57.8-28.57-115.92-59.71-160.42c-27.81-39.74-76.65-66.96-121.08-77.13"/>
			<path class="obesity" d="M861.39,721.97c-39.35-11.58-83.21-22.86-117.57-45.45c-48.94-32.16-89.3-58.43-118.66-98.21
				c-7.65-10.37-13.91-21.39-18.71-33.63c-22.51-57.47-27.81-115.8-58.27-160.95c-27.14-40.23-75.54-68.39-120.57-79.7"/>
			<path class="obesity" d="M861.47,721.96c-39.84-10.65-84.02-21.5-118.93-43.64c-48.94-31.03-89.76-57.78-119.19-97.12
				c-7.73-10.33-14.02-21.29-18.85-33.44c-22.72-57.14-27.06-115.68-56.83-161.47c-26.47-40.72-74.43-69.81-120.05-82.27"/>
			<path class="obesity" d="M861.55,721.95c-40.33-9.72-84.84-20.16-120.29-41.82c-48.95-29.92-90.22-57.12-119.72-96.04
				c-7.8-10.29-14.13-21.2-19-33.25c-22.93-56.81-26.31-115.57-55.38-161.99c-25.81-41.21-73.32-71.24-119.54-84.83"/>
			<path class="obesity" d="M861.62,721.94c-40.81-8.79-85.65-18.83-121.65-40.01c-48.97-28.82-90.68-56.46-120.25-94.95
				c-7.87-10.25-14.24-21.11-19.14-33.05c-23.15-56.47-25.56-115.45-53.94-162.51c-25.15-41.7-72.21-72.67-119.02-87.4"/>
			<path class="obesity" d="M861.7,721.94c-41.3-7.86-86.46-17.51-123.01-38.2c-48.99-27.73-91.14-55.8-120.78-93.87
				c-7.95-10.21-14.36-21.02-19.28-32.86c-23.37-56.14-24.81-115.34-52.5-163.04c-24.49-42.19-71.09-74.1-118.51-89.97"/>
			<path class="obesity" d="M861.78,721.93C820,715,774.51,705.72,737.41,685.54c-49.02-26.66-91.6-55.14-121.31-92.78
				c-8.02-10.17-14.47-20.92-19.43-32.66c-23.59-55.8-24.07-115.22-51.06-163.56c-23.83-42.68-69.98-75.53-117.99-92.54"/>
			<path class="obesity" d="M861.93,721.91c-42.76-5.08-88.88-13.66-127.08-32.76c-49.11-24.56-92.53-53.8-122.37-90.61
				c-8.17-10.08-14.69-20.74-19.72-32.28c-24.02-55.13-22.58-115-48.17-164.6c-22.52-43.66-67.76-78.39-116.96-97.68"/>
			<path class="obesity" d="M862.01,721.9c-43.24-4.15-89.7-12.41-128.44-30.95c-49.18-23.53-92.99-53.14-122.89-89.52
				c-8.25-10.04-14.8-20.64-19.86-32.08c-24.24-54.8-21.85-114.89-46.73-165.13c-21.87-44.16-66.64-79.82-116.45-100.25"/>
			<path class="obesity" d="M862.09,721.9c-43.73-3.22-90.51-11.17-129.8-29.13c-49.25-22.51-93.46-52.47-123.42-88.44
				c-8.33-10-14.91-20.55-20-31.89c-24.46-54.46-21.11-114.77-45.29-165.65c-21.22-44.65-65.53-81.25-115.93-102.82"/>
			<path class="obesity" d="M862.17,721.89c-44.21-2.29-91.32-9.95-131.15-27.32c-49.33-21.51-93.92-51.79-123.95-87.35
				c-8.41-9.95-15.02-20.46-20.15-31.69c-24.68-54.12-20.38-114.67-43.84-166.17c-20.57-45.15-64.42-82.68-115.42-105.39"/>
			<path class="obesity" d="M862.24,721.88c-44.7-1.36-92.14-8.75-132.51-25.51c-49.43-20.52-94.39-51.12-124.48-86.26
				c-8.48-9.91-15.14-20.37-20.29-31.5c-24.91-53.78-19.65-114.56-42.4-166.69c-19.93-45.65-63.31-84.11-114.91-107.96"/>
			<path class="obesity" d="M862.32,721.87c-45.19-0.43-92.96-7.56-133.87-23.7c-49.54-19.54-94.86-50.44-125.01-85.18
				c-8.56-9.86-15.25-20.27-20.44-31.31c-25.13-53.45-18.92-114.45-40.96-167.21c-19.28-46.15-62.2-85.54-114.39-110.53"/>
			<path class="obesity" d="M862.4,721.86c-45.67,0.5-93.79-6.39-135.23-21.88c-49.67-18.58-95.32-49.77-125.54-84.09
				c-8.64-9.82-15.38-20.17-20.58-31.11c-25.44-53.07-18.19-114.35-39.52-167.74c-18.64-46.65-61.08-86.97-113.88-113.09"/>
			<path class="obesity" d="M862.48,721.86c-46.16,1.42-94.62-5.22-136.59-20.07c-49.82-17.63-95.79-49.09-126.07-83.01
				c-8.72-9.77-15.48-20.08-20.73-30.92c-25.63-52.74-17.46-114.24-38.08-168.26c-17.99-47.15-59.97-88.4-113.36-115.66"/>
			<path class="obesity" d="M862.63,721.84c-47.13,3.28-96.31-2.94-139.3-16.45c-50.16-15.75-96.73-47.72-127.13-80.83
				c-52.35-57.03-33.11-133.28-56.2-199.84c-16.71-48.16-57.75-91.26-112.33-120.8"/>
		</g>
	</g>
	<g id="obesity_dotted">
		<path class="obesity" d="M862.01,721.9c-43.01,9.18-92.1,10.45-136.98,2.3c-52.14-9.47-102.82-37.23-136.77-73.73
			c-53.33-57.65-36.88-138.89-58.1-211.74c-15.36-52.54-52.43-100.7-102.51-134.76"/>
		<path class="obesity" d="M861.23,721.99c-37.87,16.56-86.81,27.17-134.08,25.73c-54.59-1.66-110.54-24.03-148.83-64.84
			c-54.69-58.29-41.59-145.89-60.48-226.62c-13.66-58.02-45.79-112.51-90.24-152.21"/>
		<path class="obesity" d="M860.46,722.07c-32.72,23.94-81.5,43.84-131.18,49.17c-57,6.11-118.2-10.9-160.89-55.96
			c-55.94-59.04-46.3-152.89-62.85-241.49c-11.97-63.5-39.15-124.32-77.97-169.66"/>
		<path class="obesity" d="M859.68,722.15c-27.58,31.32-76.19,60.48-128.28,72.6c-59.42,13.83-125.83,2.23-172.95-47.07
			c-57.16-59.82-51.01-159.89-65.23-256.37c-10.28-68.98-32.51-136.13-65.7-187.11"/>
		<path class="obesity" d="M858.9,722.23c-22.43,38.7-70.89,77.08-125.38,96.03c-61.85,21.51-133.45,15.34-185-38.19
			c-58.37-60.6-55.73-166.89-67.6-271.25c-8.59-74.46-25.87-147.94-53.43-204.55"/>
		<path class="obesity" d="M858.75,722.24c-22.83-43.15-52.51-74.75-71.4-107.08c-45.57-77.97-74.58-79.92-100.67-135.14
			c-5.42-11.46-10.23-24.49-13.81-40.22c-15.59-68.61-54.72-119.23-107.31-143.18c-50.88-23.18-113.36-19.78-138.08,7.65"/>
		<path class="obesity" d="M859.53,722.16c-27.69-33.86-62.21-58.82-84.98-88.95c-47.85-63.31-78.71-73.73-105.96-124.28
			c-6.02-11.17-11.3-23.58-15.25-38.28c-17.56-65.36-46.63-118.41-92.88-148.41c-43.74-28.37-102.23-34.08-132.93-18.04"/>
		<path class="obesity" d="M860.3,722.08c-32.55-24.58-71.36-43.25-98.56-70.82c-48.81-49.47-83.02-67.45-111.25-113.42
			c-6.67-10.86-12.38-22.67-16.69-36.35c-19.57-62.09-38.64-117.4-78.46-153.63c-36.69-33.38-91.11-48.37-127.78-43.73"/>
		<path class="obesity" d="M861.08,722c-37.41-15.29-79.92-28.45-112.14-52.7c-48.94-36.83-87.48-61.04-116.54-102.55
			c-7.36-10.52-13.47-21.75-18.13-34.41c-21.65-58.8-30.86-116.27-64.04-158.86c-29.82-38.28-79.99-62.67-122.63-69.42"/>
		<g>
			<g>
				<path class="obesity" d="M861.86,721.92c-0.17-0.02-0.33-0.05-0.49-0.07"/>
				<path class="food1" d="M859.38,721.57c-41.58-6-86.33-14.96-123.25-34.22c-49.06-25.6-92.06-54.47-121.84-91.69
					c-8.1-10.13-14.58-20.83-19.57-32.47c-23.8-55.47-23.32-115.11-49.61-164.08c-22.95-42.75-67.99-76.31-116.07-94.58"/>
				<path class="obesity" d="M428.1,304.17c-0.16-0.06-0.31-0.12-0.47-0.18"/>
			</g>
		</g>
		<path class="food0" d="M862.56,721.85c-46.64,2.35-95.46-4.08-137.94-18.26c-49.98-16.68-96.32-48.35-126.6-81.92
			c-8.82-9.7-15.59-19.99-20.87-30.73c-25.83-52.41-16.8-114.12-36.63-168.78c-17.41-47.63-58.86-89.83-112.85-118.23"/>
	</g>
	<g id="education">
		<g>
			<path class="education" d="M1280.37,742.64c-2.95,31.74-14.07,59.36-55.28,70.91c-32.82,9.2-82.62,9.67-157.5-1.35
				c-12.11-1.74-24.05-3.1-35.72-4.25c-65.08-6.57-121.66-6.49-152.37-31.33c-14.23-11.51-22.78-28.51-24.09-54.18"/>
			<path class="education" d="M1280.36,742.63c-2.36,32.98-13.08,61.51-54.61,73.73c-32.61,9.6-82.57,10.32-158.32-0.98
				c-12.18-1.78-24.18-3.17-35.9-4.35c-65.69-6.74-122.62-6.69-153.04-32.45c-14.11-11.95-22.43-29.55-23.3-56.1"/>
			<path class="education" d="M1280.36,742.62c-1.77,34.23-12.1,63.64-53.93,76.55c-32.42,10-82.51,10.96-159.14-0.61
				c-12.24-1.82-24.31-3.25-36.08-4.46c-66.3-6.91-123.52-6.96-153.71-33.57c-13.97-12.41-22.07-30.6-22.52-58.03"/>
			<path class="education" d="M1280.35,742.61c-1.18-36.51,2.77-77.4-33.85-106.71c-28.46-22.78-80.33-38.58-174.75-41.51
				c-12.44-0.38-24.64-0.58-36.52-0.49c-71.01,0.59-130.46,11.82-160.16,58.08c-11.55,17.85-18.66,40.92-20.32,70.55"/>
			<path class="education" d="M1280.36,742.62c-1.77-35.91,1.47-76.13-35.02-104.76c-28.74-22.55-80.49-37.94-173.62-40.82
				c-12.34-0.38-24.46-0.58-36.26-0.48c-70.29,0.56-129.22,11.6-159.34,56.82c-11.67,17.52-19.1,40.1-21.14,69.13"/>
			<path class="education" d="M1280.36,742.63c-2.36-35.31,0.17-74.85-36.19-102.81c-29.03-22.32-80.65-37.3-172.49-40.13
				c-12.25-0.38-24.28-0.57-36-0.48c-69.58,0.53-128.07,11.33-158.53,55.56c-11.83,17.17-19.53,39.28-21.96,67.71"/>
			<path class="education" d="M1280.37,742.64c-2.95-34.71-1.14-73.56-37.36-100.85c-29.31-22.09-80.8-36.66-171.37-39.45
				c-12.16-0.37-24.1-0.57-35.74-0.48c-68.86,0.51-126.91,11.06-157.71,54.3c-11.98,16.82-19.96,38.46-22.78,66.29"/>
		</g>
	</g>
	<g id="science">
		<g>
			<path class="food2" d="M1280.45,742.71c-8.26,20.53-23.19,39.66-61.36,45.55c-34.81,5.37-83.06,3.6-150.12-4.68
				c-11.52-1.42-22.92-2.4-34.1-3.32c-59.6-4.89-113.03-4.63-146.36-21.28c-15.23-7.61-25.97-19.13-31.16-36.84"/>
			<path class="food2" d="M1280.44,742.7c-7.67,21.78-22.16,41.88-60.68,48.36c-34.58,5.82-83.01,4.25-150.94-4.31
				c-11.58-1.46-23.05-2.48-34.28-3.42c-60.21-5.06-113.99-4.83-147.03-22.39c-15.12-8.04-25.61-20.17-30.38-38.76"/>
			<path class="food2" d="M1280.43,742.69c-7.08,23.02-21.14,44.1-60.01,51.18c-34.34,6.26-82.96,4.91-151.76-3.94
				c-11.65-1.5-23.17-2.55-34.46-3.53c-60.82-5.24-114.96-5.03-147.7-23.51c-15.01-8.47-25.26-21.21-29.59-40.69"/>
			<path class="food2" d="M1280.42,742.68c-6.49,24.27-20.11,46.31-59.33,54c-34.11,6.69-82.91,5.57-152.58-3.57
				c-11.72-1.54-23.3-2.63-34.64-3.63c-61.43-5.42-115.92-5.24-148.36-24.63c-14.9-8.91-24.9-22.25-28.8-42.62"/>
			<path class="food2" d="M1280.41,742.68c-5.9,25.51-19.09,48.51-58.66,56.82c-33.89,7.12-82.85,6.23-153.4-3.2
				c-11.78-1.57-23.42-2.73-34.82-3.73c-62.03-5.71-116.88-5.45-149.03-25.75c-14.79-9.34-24.55-23.3-28.02-44.54"/>
			<path class="food2" d="M1280.41,742.67c-5.31,26.76-18.08,50.69-57.98,59.64c-33.67,7.54-82.8,6.89-154.22-2.83
				c-11.85-1.61-23.55-2.8-35-3.84c-62.64-5.88-117.84-5.65-149.7-26.86c-14.68-9.77-24.2-24.34-27.23-46.47"/>
			<path class="food2" d="M1280.4,742.66c-4.72,28-17.07,52.87-57.31,62.46c-33.45,7.96-82.75,7.55-155.04-2.46
				c-11.91-1.65-23.67-2.87-35.18-3.94c-63.25-6.05-118.8-5.86-150.37-27.98c-14.57-10.21-23.84-25.38-26.45-48.4"/>
			<path class="food2" d="M1280.39,742.65c-4.13,29.25-16.06,55.05-56.63,65.27c-33.23,8.38-82.7,8.21-155.86-2.09
				c-11.98-1.69-23.8-2.95-35.36-4.04c-63.86-6.22-119.76-6.07-151.04-29.1c-14.46-10.64-23.49-26.43-25.66-50.32"/>
			<path class="food2" d="M1280.38,742.64c-3.54,30.49-15.06,57.21-55.96,68.09c-33.02,8.79-82.65,8.88-156.68-1.72
				c-12.04-1.72-23.93-3.02-35.54-4.15c-64.47-6.4-120.71-6.28-151.71-30.22c-14.34-11.08-23.13-27.47-24.88-52.25"/>
			<path class="food2" d="M1280.38,742.64c-3.54-34.11-2.46-72.28-38.54-98.9c-29.61-21.85-80.96-36.02-170.24-38.76
				c-12.06-0.37-23.92-0.56-35.48-0.48c-68.15,0.48-125.77,10.79-156.89,53.04c-12.14,16.47-20.39,37.65-23.6,64.87"/>
			<path class="food2" d="M1280.39,742.65c-4.13-33.51-3.78-70.98-39.71-96.95c-29.9-21.61-81.11-35.38-169.12-38.07
				c-11.97-0.36-23.74-0.55-35.22-0.48c-67.43,0.45-124.62,10.52-156.08,51.78c-12.29,16.12-20.82,36.83-24.43,63.45"/>
			<path class="food2" d="M1280.4,742.66c-4.72-32.91-5.11-69.68-40.88-95c-30.21-21.37-81.27-34.74-167.99-37.39
				c-11.88-0.36-23.56-0.55-34.96-0.48c-66.72,0.43-123.47,10.25-155.26,50.51c-12.45,15.77-21.26,36.01-25.25,62.03"/>
			<path class="food2" d="M1280.41,742.67c-5.31-32.3-6.44-68.38-42.06-93.04c-30.51-21.13-81.43-34.1-166.86-36.7
				c-11.79-0.36-23.38-0.54-34.7-0.48c-66,0.4-122.33,9.98-154.44,49.25c-12.61,15.42-21.69,35.19-26.07,60.61"/>
			<path class="food2" d="M1280.41,742.68c-5.9-31.7-7.78-67.07-43.23-91.09c-30.82-20.88-81.58-33.46-165.74-36.01
				c-11.69-0.35-23.2-0.54-34.44-0.48c-65.29,0.38-121.19,9.71-153.63,47.99c-12.77,15.07-22.12,34.38-26.89,59.19"/>
			<path class="food2" d="M1280.42,742.68c-6.49-31.1-9.13-65.75-44.4-89.14c-31.13-20.64-81.74-32.82-164.61-35.33
				c-11.6-0.35-23.02-0.53-34.18-0.48c-64.57,0.35-120.06,9.44-152.81,46.73c-12.93,14.72-22.55,33.56-27.71,57.77"/>
			<path class="food2" d="M1280.43,742.69c-7.08-30.5-10.48-64.43-45.58-87.18c-31.45-20.39-81.89-32.18-163.49-34.64
				c-11.51-0.34-22.84-0.53-33.92-0.48c-63.86,0.32-118.92,9.17-151.99,45.47c-13.09,14.37-22.99,32.74-28.54,56.35"/>
			<path class="food2" d="M1280.44,742.7c-7.67-29.9-11.84-63.11-46.75-85.23c-31.77-20.13-82.05-31.54-162.36-33.95
				c-11.41-0.34-22.66-0.52-33.66-0.48c-63.14,0.3-117.79,8.9-151.18,44.21c-13.26,14.02-23.42,31.92-29.36,54.93"/>
		</g>
	</g>
	<g id="medicine">
		<g>
			<path class="medicine" d="M1280.52,742.78c-13.57,9.32-32.64,22.58-67.44,20.18c-36.95-2.55-83.54-2.23-142.74-8
				c-10.93-1.07-21.78-1.73-32.48-2.39c-54.11-3.34-104.29-2.86-140.34-11.22c-16.19-3.75-29.15-9.74-38.23-19.5"/>
			<path class="medicine" d="M1280.51,742.77c-12.98,10.57-31.55,24.94-66.76,23c-36.75-2.02-83.49-1.59-143.56-7.63
				c-10.99-1.11-21.91-1.8-32.66-2.49c-54.72-3.5-105.26-3.05-141.01-12.34c-16.08-4.18-28.8-10.78-37.45-21.43"/>
			<path class="medicine" d="M1280.5,742.76c-12.39,11.81-30.48,23.82-66.09,25.82c-36.53,2.05-83.43-0.95-144.38-7.26
				c-11.06-1.15-22.04-1.88-32.84-2.59c-55.33-3.67-106.23-3.24-141.68-13.45c-15.98-4.6-28.44-11.83-36.66-23.35"/>
			<path class="medicine" d="M1280.5,742.76c-11.8,13.06-29.43,26.11-65.41,28.64c-36.28,2.54-83.38-0.3-145.2-6.89
				c-11.12-1.19-22.16-1.95-33.02-2.7c-55.94-3.85-107.21-3.44-142.35-14.57c-15.87-5.03-28.09-12.87-35.88-25.28"/>
			<path class="medicine" d="M1280.49,742.75c-11.21,14.3-28.39,28.39-64.73,31.45c-36.03,3.03-83.33,0.34-146.02-6.52
				c-11.19-1.23-22.29-2.03-33.2-2.8c-56.55-4.02-108.18-3.63-143.02-15.69c-15.76-5.46-27.74-13.91-35.09-27.2"/>
			<path class="medicine" d="M1280.48,742.74c-10.62,15.55-27.35,30.66-64.06,34.27c-35.78,3.52-83.27,0.99-146.84-6.15
				c-11.26-1.27-22.41-2.1-33.38-2.9c-57.16-4.19-109.15-3.83-143.68-16.81c-15.66-5.89-27.38-14.95-34.3-29.13"/>
			<path class="medicine" d="M1280.47,742.73c-10.03,16.8-26.3,32.93-63.38,37.09c-35.54,3.99-83.22,1.64-147.66-5.78
				c-11.32-1.3-22.54-2.18-33.56-3.01c-57.77-4.36-110.12-4.02-144.35-17.92c-15.55-6.32-27.03-16-33.52-31.06"/>
			<path class="medicine" d="M1280.46,742.72c-9.44,18.04-25.27,35.18-62.71,39.91c-35.29,4.46-83.17,2.29-148.48-5.41
				c-11.39-1.34-22.67-2.25-33.74-3.11c-58.38-4.54-111.09-4.22-145.02-19.04c-15.45-6.75-26.67-17.04-32.73-32.98"/>
			<path class="medicine" d="M1280.45,742.72c-8.85,19.29-24.23,37.42-62.03,42.73c-35.05,4.92-83.11,2.95-149.3-5.04
				c-11.45-1.38-22.79-2.33-33.92-3.22c-58.99-4.71-112.06-4.42-145.69-20.16c-15.34-7.18-26.32-18.08-31.95-34.91"/>
			<path class="medicine" d="M1280.45,742.71c-8.26-29.3-13.2-61.77-47.92-83.28c-32.09-19.87-82.21-30.9-161.23-33.27
				c-11.32-0.33-22.48-0.51-33.4-0.47c-62.43,0.27-116.66,8.62-150.36,42.95c-13.42,13.67-23.85,31.11-30.18,53.51"/>
			<path class="medicine" d="M1280.45,742.72c-8.85-28.7-14.56-60.44-49.09-81.33c-32.42-19.61-82.36-30.26-160.11-32.58
				c-11.23-0.33-22.3-0.51-33.14-0.47c-61.71,0.24-115.54,8.35-149.54,41.69c-13.58,13.32-24.28,30.29-31,52.09"/>
			<path class="medicine" d="M1280.46,742.72c-9.44-28.1-15.93-59.09-50.27-79.37c-32.75-19.35-82.52-29.62-158.98-31.89
				c-11.13-0.33-22.12-0.5-32.89-0.47c-61,0.22-114.41,8.07-148.73,40.43c-13.75,12.97-24.71,29.47-31.83,50.67"/>
			<path class="medicine" d="M1280.47,742.73c-10.03-27.5-17.31-57.74-51.44-77.42c-33.09-19.08-82.67-28.98-157.85-31.21
				c-11.04-0.32-21.94-0.5-32.63-0.47c-60.28,0.19-113.29,7.79-147.91,39.16c-13.92,12.61-25.15,28.65-32.65,49.25"/>
			<path class="medicine" d="M1280.48,742.74c-10.62-26.9-18.69-56.39-52.61-75.47c-33.43-18.8-82.83-28.34-156.73-30.52
				c-10.95-0.32-21.76-0.49-32.37-0.47c-59.57,0.17-112.18,7.51-147.09,37.9c-14.09,12.26-25.58,27.84-33.47,47.83"/>
			<path class="medicine" d="M1280.49,742.75c-11.21-26.3-20.07-55.02-53.79-73.51c-33.77-18.52-82.99-27.7-155.6-29.83
				c-10.86-0.31-21.58-0.48-32.11-0.47c-58.85,0.14-111.06,7.23-146.28,36.64c-14.26,11.91-26.01,27.02-34.29,46.41"/>
			<path class="medicine" d="M1280.5,742.76c-11.8-25.7-21.46-53.66-54.96-71.56c-34.11-18.23-83.14-27.06-154.48-29.15
				c-10.76-0.31-21.4-0.48-31.85-0.47c-58.14,0.11-109.95,6.95-145.46,35.38c-14.43,11.55-26.44,26.2-35.11,44.99"/>
			<path class="medicine" d="M1280.5,742.76c-12.39-25.1-22.85-52.28-56.13-69.61c-34.46-17.94-83.3-26.42-153.35-28.46
				c-10.67-0.31-21.22-0.47-31.59-0.47c-57.42,0.09-108.84,6.66-144.64,34.12c-14.6,11.19-26.88,25.38-35.94,43.57"/>
			<path class="medicine" d="M1280.51,742.77c-12.98-24.5-24.25-50.9-57.3-67.65c-34.82-17.64-83.45-25.78-152.22-27.77
				c-10.58-0.3-21.04-0.47-31.33-0.47c-56.71,0.06-107.73,6.37-143.83,32.86c-14.77,10.84-27.31,24.57-36.76,42.15"/>
		</g>
	</g>
	<g id="lifestyle_solid">
		<path class="lifestyle" d="M1280.66,742.91c-23.59-11.84-50.04-21.1-78.92-27.73c-40.91-9.39-84.48-12.82-128.81-14.28
			c-9.82-0.31-19.63-0.5-29.42-0.63c-43.73-0.61-87.81,0.05-128.98,7.78c-18,3.36-35.17,7.99-51.59,13.25"/>
		<path class="lifestyle" d="M1280.65,742.91c-23-10.6-49.04-18.68-78.24-24.91c-40.72-8.69-84.42-12.18-129.63-13.91
			c-9.88-0.35-19.76-0.57-29.6-0.73c-44.34-0.78-88.78-0.14-129.65,6.66c-17.9,2.93-34.81,6.95-50.81,11.33"/>
		<path class="lifestyle" d="M1280.64,742.9c-22.41-9.35-48.04-16.27-77.56-22.09c-40.52-8-84.36-11.64-130.45-13.54
			c-9.95-0.41-19.89-0.65-29.78-0.83c-44.95-0.95-89.74-0.33-130.32,5.55c-17.79,2.5-34.46,5.9-50.02,9.4"/>
		<path class="lifestyle" d="M1280.64,742.89c-21.82-8.11-47.04-13.86-76.89-19.28c-40.32-7.31-84.31-11.03-131.27-13.18
			c-10.01-0.46-20.01-0.72-29.96-0.94c-45.56-1.12-90.7-0.41-130.98,4.43c-17.67,2.12-34.11,4.86-49.24,7.47"/>
		<path class="lifestyle" d="M1280.63,742.88c-21.23-6.86-46.02-11.46-76.21-16.46c-40.11-6.64-84.26-10.41-132.09-12.81
			c-10.08-0.5-20.14-0.79-30.14-1.04c-46.17-1.29-91.66-0.58-131.65,3.31c-17.56,1.71-33.75,3.82-48.45,5.55"/>
		<path class="lifestyle" d="M1280.62,742.87c-20.64-5.62-45.01-9.06-75.54-13.64c-39.9-5.99-84.2-9.79-132.91-12.44
			c-10.15-0.55-20.27-0.87-30.32-1.14c-46.78-1.46-92.63-0.75-132.32,2.19c-17.45,1.29-33.4,2.78-47.66,3.62"/>
		<path class="lifestyle" d="M1280.61,742.87c-20.05-4.37-43.99-6.66-74.86-10.82c-39.68-5.34-84.14-9.18-133.73-12.07
			c-10.21-0.6-20.39-0.92-30.5-1.25c-47.39-1.53-93.6-0.91-132.99,1.07c-17.35,0.88-33.04,1.73-46.88,1.69"/>
		<path class="lifestyle" d="M1280.6,742.86c-19.46-3.13-42.96-4.28-74.19-8c-39.45-4.71-84.09-8.55-134.55-11.7
			c-10.28-0.64-20.52-0.99-30.68-1.35c-48-1.69-94.56-1.08-133.66-0.04c-17.24,0.46-32.69,0.69-46.09-0.23"/>
		<path class="lifestyle" d="M1280.59,742.84c-18.28-0.64-40.9,0.48-72.84-2.37c-38.99-3.47-83.98-7.3-136.19-10.96
			c-10.41-0.73-20.77-1.14-31.04-1.56c-49.22-2.01-96.5-1.42-134.99-2.28c-17.03-0.38-31.98-1.4-44.52-4.09"/>
		<path class="lifestyle" d="M1280.58,742.83c-17.69,0.61-39.87,2.85-72.16,0.45c-38.75-2.87-83.92-6.68-137.01-10.59
			c-10.47-0.77-20.9-1.21-31.22-1.66c-49.83-2.17-97.47-1.6-135.66-3.4c-16.92-0.8-31.63-2.44-43.73-6.01"/>
		<path class="lifestyle" d="M1280.57,742.83c-17.1,1.85-38.83,5.21-71.49,3.27c-38.51-2.29-83.87-6.05-137.83-10.22
			c-10.54-0.81-21.02-1.28-31.4-1.77c-50.45-2.34-98.45-1.77-136.33-4.51c-16.81-1.22-31.27-3.48-42.95-7.94"/>
		<path class="lifestyle" d="M1280.56,742.82c-16.52,3.1-37.79,7.56-70.81,6.09c-38.27-1.71-83.81-5.42-138.65-9.85
			c-10.6-0.86-21.15-1.36-31.58-1.87c-51.06-2.5-99.42-1.95-137-5.63c-16.71-1.64-30.92-4.52-42.16-9.87"/>
		<path class="lifestyle" d="M1280.55,742.81c-15.93,4.34-36.97,12.89-70.14,8.91c-37.77-4.53-83.76-4.78-139.46-9.48
			c-10.67-0.9-21.28-1.43-31.76-1.97c-51.67-2.67-100.39-2.13-137.67-6.75c-16.6-2.06-30.57-5.57-41.38-11.79"/>
		<path class="lifestyle" d="M1280.54,742.8c-15.34,5.59-35.9,15.35-69.46,11.73c-37.56-4.05-83.7-4.15-140.28-9.11
			c-10.73-0.94-21.4-1.51-31.94-2.08c-52.28-2.83-101.37-2.31-138.34-7.87c-16.5-2.48-30.21-6.61-40.59-13.72"/>
		<path class="lifestyle" d="M1280.54,742.79c-14.75,6.83-34.82,17.78-68.79,14.54c-37.36-3.56-83.65-3.51-141.1-8.74
			c-10.8-0.98-21.53-1.58-32.12-2.18c-52.89-3-102.34-2.49-139.01-8.98c-16.39-2.9-29.86-7.65-39.81-15.65"/>
		<path class="lifestyle" d="M1280.53,742.79c-14.16,8.08-33.73,20.19-68.11,17.36c-37.15-3.06-83.6-2.87-141.92-8.37
			c-10.86-1.02-21.66-1.65-32.3-2.28c-53.5-3.17-103.31-2.68-139.67-10.1c-16.29-3.33-29.5-8.7-39.02-17.57"/>
		<path class="lifestyle" d="M1280.52,742.78c-13.57-23.9-25.64-49.51-58.48-65.7c-35.17-17.34-83.61-25.14-151.1-27.09
			c-10.48-0.3-20.86-0.46-31.07-0.47c-55.99,0.03-106.63,6.08-143.01,31.6c-14.94,10.48-27.74,23.75-37.58,40.73"/>
		<path class="lifestyle" d="M1280.53,742.79c-14.16-23.3-27.04-48.12-59.65-63.75c-35.53-17.03-83.77-24.5-149.97-26.4
			c-10.39-0.29-20.68-0.46-30.81-0.46c-55.27,0.01-105.52,5.78-142.19,30.34c-15.12,10.12-28.17,22.93-38.4,39.31"/>
		<path class="lifestyle" d="M1280.54,742.79c-14.75-22.7-28.45-46.72-60.82-61.8c-35.89-16.71-83.92-23.86-148.84-25.71
			c-10.3-0.29-20.5-0.45-30.55-0.46c-54.56-0.02-104.42,5.49-141.38,29.08c-15.29,9.76-28.6,22.11-39.22,37.89"/>
		<path class="lifestyle" d="M1280.54,742.8c-15.34-22.1-29.85-45.32-62-59.84c-36.26-16.38-84.08-23.22-147.72-25.03
			c-10.2-0.28-20.32-0.44-30.29-0.46c-53.84-0.05-103.32,5.18-140.56,27.81c-15.47,9.4-29.04,21.3-40.05,36.47"/>
		<path class="lifestyle" d="M1280.55,742.81c-15.93-21.5-31.26-43.91-63.17-57.89c-36.63-16.05-84.23-22.57-146.59-24.34
			c-10.11-0.28-20.14-0.44-30.03-0.46c-53.13-0.07-102.22,4.88-139.74,26.55c-15.64,9.03-29.47,20.48-40.87,35.05"/>
		<path class="lifestyle" d="M1280.56,742.82c-16.52-20.9-32.67-42.49-64.34-55.94c-37-15.71-84.39-21.93-145.47-23.65
			c-10.02-0.28-19.96-0.43-29.77-0.46c-52.41-0.1-101.12,4.57-138.93,25.29c-15.82,8.67-29.9,19.66-41.69,33.63"/>
		<path class="lifestyle" d="M1280.57,742.83c-17.1-20.3-34.08-41.07-65.52-53.98c-37.37-15.36-84.55-21.29-144.34-22.97
			c-9.92-0.27-19.78-0.43-29.51-0.46c-51.7-0.12-100.03,4.26-138.11,24.03c-15.99,8.3-30.33,18.84-42.51,32.21"/>
		<path class="lifestyle" d="M1280.58,742.83c-17.69-19.69-35.49-39.64-66.69-52.03c-37.75-15-84.7-20.65-143.21-22.28
			c-9.83-0.27-19.6-0.42-29.25-0.46c-50.98-0.15-98.93,3.94-137.29,22.77c-16.17,7.94-30.77,18.03-43.34,30.79"/>
		<path class="lifestyle" d="M1280.59,742.84c-18.28-19.09-36.91-38.2-67.86-50.08c-38.13-14.63-84.86-20.01-142.09-21.59
			c-9.74-0.26-19.42-0.42-29-0.46c-50.27-0.18-97.84,3.63-136.48,21.51c-16.35,7.57-31.2,17.21-44.16,29.38"/>
		<path class="lifestyle" d="M1280.6,742.86c-19.46-17.89-39.74-35.31-70.21-46.17c-38.89-13.86-85.17-18.73-139.84-20.22
			c-9.55-0.26-19.06-0.4-28.48-0.46c-48.84-0.23-95.65,2.98-134.84,18.99c-16.7,6.82-32.06,15.57-45.8,26.54"/>
		<path class="lifestyle" d="M1280.61,742.87c-20.05-17.29-41.15-33.86-71.38-44.22c-39.27-13.46-85.33-18.09-138.71-19.53
			c-9.46-0.25-18.88-0.4-28.22-0.45c-48.12-0.26-94.55,2.65-134.03,17.73c-16.88,6.45-32.49,14.76-46.62,25.12"/>
		<path class="lifestyle" d="M1280.62,742.87c-20.64-16.69-42.56-32.4-72.55-42.27c-39.66-13.05-85.48-17.45-137.58-18.85
			c-9.37-0.25-18.7-0.39-27.96-0.45c-47.41-0.28-93.45,2.31-133.21,16.46c-17.06,6.07-32.93,13.94-47.45,23.7"/>
		<path class="lifestyle" d="M1280.63,742.88c-21.23-16.09-43.98-30.93-73.73-40.31c-40.04-12.63-85.64-16.81-136.46-18.16
			c-9.27-0.24-18.52-0.39-27.7-0.45c-46.69-0.31-92.36,1.98-132.39,15.2c-17.24,5.69-33.36,13.12-48.27,22.28"/>
		<path class="lifestyle" d="M1280.64,742.89c-21.82-15.49-45.39-29.46-74.9-38.36c-40.43-12.19-85.79-16.17-135.33-17.47
			c-9.18-0.24-18.34-0.38-27.44-0.45c-45.98-0.33-91.26,1.64-131.58,13.94c-17.41,5.31-33.79,12.3-49.09,20.86"/>
		<path class="lifestyle" d="M1280.64,742.9c-22.41-14.89-46.8-27.98-76.07-36.41c-40.82-11.75-85.95-15.53-134.2-16.79
			c-9.09-0.23-18.16-0.38-27.18-0.45c-45.26-0.36-90.16,1.29-130.76,12.68c-17.59,4.93-34.22,11.49-49.91,19.44"/>
		<path class="lifestyle" d="M1280.65,742.91c-23-14.29-48.21-26.5-77.24-34.45c-41.2-11.29-86.11-14.89-133.08-16.1
			c-8.99-0.23-17.98-0.37-26.92-0.45c-44.55-0.39-89.06,0.94-129.94,11.42c-17.76,4.55-34.66,10.67-50.73,18.02"/>
		<path class="lifestyle" d="M1280.66,742.91c-23.59-13.69-49.62-25.01-78.42-32.5c-41.59-10.82-86.26-14.25-131.95-15.41
			c-8.9-0.23-17.8-0.36-26.66-0.45c-43.83-0.41-87.97,0.54-129.13,10.16c-17.94,4.14-35.09,9.85-51.56,16.6"/>
	</g>
	<g id="lifestyle_dotted">
		<path class="lifestyle" d="M1280.59,742.85c-18.87-1.88-41.94-1.9-73.51-5.18c-39.22-4.08-84.03-7.93-135.37-11.33
			c-10.34-0.68-20.65-1.07-30.86-1.45c-48.61-1.85-95.53-0.83-134.33-1.16c-17.13-0.15-32.34-0.35-45.31-2.16"/>
		<path class="lifestyle" d="M1280.59,742.85c-18.87-18.49-38.32-36.76-69.03-48.12c-38.51-14.25-85.01-19.37-140.96-20.91
			c-9.65-0.26-19.24-0.41-28.74-0.46c-49.55-0.2-96.74,3.3-135.66,20.25c-16.53,7.2-31.63,16.39-44.98,27.96"/>
		<path class="lifestyle" d="M1280.67,742.92c-24.18-13.09-51.03-23.52-79.59-30.55c-50.31-12.38-104.15-14.63-157.23-15.18
			c-43.12-0.44-86.85,0.24-128.31,8.9c-18.11,3.78-35.52,9.03-52.38,15.18"/>
	</g>
</g>
</svg>
