<?xml version="1.0" encoding="utf-8"?>
<!-- Generator: Adobe Illustrator 25.0.1, SVG Export Plug-In . SVG Version: 6.00 Build 0)  -->
<svg version="1.1" id="Layer_1" xmlns="http://www.w3.org/2000/svg" xmlns:xlink="http://www.w3.org/1999/xlink" x="0px" y="0px"
	 viewBox="0 0 251 175" style="enable-background:new 0 0 251 175;" xml:space="preserve">
<style type="text/css">
	.st0{fill:none;stroke:#61544A;stroke-width:0.75;stroke-miterlimit:10;stroke-dasharray:1,2;}
	.st1{fill:none;stroke:#61544A;stroke-width:0.75;stroke-miterlimit:10;}
	.st2{fill:none;stroke:#9C8CA8;stroke-width:0.75;stroke-miterlimit:10;}
	.st3{fill:none;stroke:#4D6B40;stroke-width:0.75;stroke-miterlimit:10;}
	.st4{fill:none;stroke:#4D6B40;stroke-width:0.75;stroke-miterlimit:10;stroke-dasharray:1,2;}
	.st5{fill:none;stroke:#C1771E;stroke-width:0.75;stroke-miterlimit:10;}
	.st6{fill:none;stroke:#C1771E;stroke-width:0.75;stroke-miterlimit:10;stroke-dasharray:1,2;}
	.st7{fill:none;stroke:#A94044;stroke-width:0.75;stroke-miterlimit:10;}
	.st8{fill:none;stroke:#A94044;stroke-width:0.75;stroke-miterlimit:10;stroke-dasharray:1,2;}
	.st9{fill:none;stroke:#A94044;stroke-width:0.75;stroke-miterlimit:10;stroke-dasharray:0.9972,1.9945;}
	.st10{fill:none;stroke:#29415E;stroke-width:0.75;stroke-miterlimit:10;}
</style>
<path class="st0" d="M245.58,34.2c-3.4-10.32-9.09-17.74-16.32-22.95C201.38-8.82,148.18,6.49,108.9,36.62
	C66.78,68.94,30.45,78.12,9.79,113.75c-2.75,4.73-5.35,9.76-7.52,15.42"/>
<path class="st1" d="M245.7,34.16c-3.61-9.83-9.43-16.83-16.72-21.69c-28.07-18.74-80.57-3.26-119.67,26.42
	C67.54,70.6,31.35,79.94,10.1,114.3c-2.83,4.58-5.54,9.42-7.82,14.87"/>
<path class="st1" d="M245.83,34.13c-3.82-9.33-9.76-15.91-17.12-20.44c-28.26-17.41-80.06-1.76-118.98,27.47
	C68.3,72.27,32.25,81.75,10.4,114.84c-2.92,4.43-5.74,9.08-8.12,14.32"/>
<path class="st1" d="M245.95,34.1c-4.03-8.84-10.1-15-17.51-19.19c-28.45-16.08-79.55-0.27-118.29,28.51
	c-41.09,30.52-77.01,40.15-99.43,71.96c-3.02,4.28-5.93,8.74-8.43,13.77"/>
<path class="st1" d="M246.08,34.06c-4.25-8.34-10.43-14.08-17.91-17.93c-28.63-14.75-79.03,1.23-117.6,29.56
	c-40.75,29.92-76.54,39.7-99.54,70.24c-3.11,4.13-6.12,8.4-8.73,13.22"/>
<path class="st1" d="M246.2,34.03c-4.46-7.85-10.77-13.17-18.31-16.68c-28.82-13.43-78.52,2.73-116.92,30.6
	C70.57,77.28,34.9,87.2,11.33,116.47c-3.2,3.97-6.31,8.06-9.03,12.67"/>
<path class="st1" d="M247.72,33.62c-4.67-7.36-12.49-11.88-20.09-15.05c-29-12.11-78.01,4.23-116.23,31.65
	c-40.06,28.74-75.62,38.8-99.75,66.8c-3.29,3.82-6.5,7.72-9.34,12.12"/>
<path class="st1" d="M247.72,33.62c-4.88-6.86-12.7-11-20.37-13.83C198.16,9,149.85,25.52,111.81,52.48
	c-39.72,28.14-75.16,38.34-99.86,65.08c-3.39,3.67-6.7,7.38-9.64,11.57"/>
<path class="st1" d="M247.72,33.62c-5.1-6.37-12.91-10.12-20.64-12.61c-29.37-9.47-76.98,7.23-114.86,33.74
	C72.85,82.29,37.51,92.62,12.26,118.1c-3.48,3.51-6.89,7.04-9.94,11.02"/>
<path class="st1" d="M247.72,33.62c-5.31-5.87-13.12-9.24-20.91-11.39c-29.55-8.15-76.47,8.74-114.17,34.78
	C73.61,83.97,38.37,94.41,12.57,118.65c-3.57,3.36-7.08,6.7-10.25,10.47"/>
<path class="st0" d="M247.72,33.62c-5.52-5.38-13.33-8.36-21.19-10.17c-29.73-6.84-75.95,10.24-113.48,35.83
	C74.37,85.64,39.22,96.2,12.88,119.19c-3.67,3.2-7.27,6.36-10.55,9.92"/>
<path class="st1" d="M247.72,33.62c-5.73-4.89-13.54-7.49-21.46-8.95c-29.92-5.53-75.44,11.75-112.79,36.87
	c-38.33,25.78-73.39,36.45-100.28,58.2c-3.76,3.04-7.46,6.02-10.85,9.37"/>
<path class="st1" d="M247.72,33.62c-5.94-4.39-13.75-6.61-21.73-7.73c-30.1-4.22-74.92,13.25-112.11,37.92
	C75.9,89,40.93,99.77,13.5,120.28c-3.86,2.89-7.65,5.67-11.15,8.82"/>
<path class="st1" d="M247.72,33.62c-6.16-3.9-13.95-5.74-22-6.51c-30.28-2.92-74.41,14.76-111.42,38.96
	c-37.63,24.61-72.52,35.47-100.49,54.76c-3.96,2.73-7.85,5.33-11.46,8.27"/>
<path class="st1" d="M247.72,33.62c-6.37-3.4-14.16-4.86-22.28-5.29c-30.46-1.61-73.89,16.27-110.73,40.01
	C77.42,92.35,42.62,103.3,14.11,121.36c-4.05,2.57-8.04,4.99-11.76,7.72"/>
<path class="st1" d="M247.72,33.62c-6.58-2.91-14.38-3.81-22.55-4.07c-30.64-0.98-73.37,17.78-110.05,41.05
	c-36.93,23.44-71.66,34.46-100.7,51.31c-4.15,2.41-8.23,4.65-12.06,7.17"/>
<path class="st1" d="M247.72,33.62c-6.79-2.42-14.58-3.12-22.82-2.86c-30.83,0.98-72.85,19.29-109.36,42.1
	c-36.58,22.86-71.23,33.95-100.8,49.59c-4.25,2.25-8.42,4.31-12.37,6.62"/>
<path class="st1" d="M247.72,33.62c-7.01-1.92-14.79-2.25-23.09-1.64c-31.02,2.28-72.34,20.8-108.67,43.14
	C79.72,97.4,45.15,108.55,15.04,123c-4.35,2.08-8.61,3.97-12.67,6.07"/>
<path class="st1" d="M247.72,33.62c-7.22-1.43-15-1.37-23.37-0.42c-31.21,3.57-71.82,22.31-107.98,44.19
	C80.49,99.09,46,110.29,15.35,123.54c-4.44,1.92-8.81,3.63-12.97,5.52"/>
<path class="st1" d="M247.72,33.62c-7.43-0.93-15.21-0.5-23.64,0.8c-31.39,4.87-71.3,23.83-107.3,45.23
	c-35.53,21.12-69.93,32.36-101.12,44.43c-4.54,1.76-9,3.29-13.27,4.97"/>
<path class="st0" d="M247.72,33.62c-7.64-0.44-15.42,0.37-23.91,2.02c-31.59,6.16-70.78,25.35-106.61,46.28
	c-35.18,20.55-69.5,31.82-101.23,42.71c-4.63,1.59-9.19,2.95-13.58,4.42"/>
<path class="st1" d="M247.72,33.62c-7.86,0.05-15.64,1.24-24.18,3.24c-31.78,7.45-70.25,26.87-105.92,47.32
	c-34.82,19.97-69.06,31.28-101.33,40.99c-4.73,1.42-9.38,2.61-13.88,3.87"/>
<path class="st1" d="M247.72,33.62c-8.07,0.55-15.85,2.11-24.46,4.46c-31.97,8.74-69.73,28.39-105.23,48.37
	c-34.47,19.4-68.62,30.72-101.44,39.27c-4.83,1.26-9.57,2.27-14.18,3.32"/>
<path class="st1" d="M247.72,33.62c-8.28,1.04-16.06,2.98-24.73,5.68c-32.17,10.02-69.21,29.91-104.55,49.41
	c-34.11,18.83-68.17,30.17-101.54,37.55c-4.92,1.09-9.76,1.93-14.49,2.77"/>
<path class="st1" d="M247.72,33.62c-8.49,1.54-16.27,3.85-25,6.9c-32.36,11.31-68.69,31.44-103.86,50.46
	c-33.76,18.26-67.72,29.61-101.65,35.83c-5.02,0.92-9.96,1.59-14.79,2.22"/>
<path class="st1" d="M247.72,33.62c-8.71,2.03-16.49,4.72-25.27,8.12c-32.56,12.6-68.16,32.96-103.17,51.5
	C85.86,110.93,52,122.28,17.52,127.35c-5.11,0.75-10.15,1.25-15.09,1.67"/>
<path class="st1" d="M247.72,33.62c-8.92,2.52-16.7,5.59-25.55,9.34c-32.76,13.89-67.64,34.49-102.49,52.55
	c-33.05,17.13-66.81,28.47-101.86,32.38c-5.2,0.58-10.34,0.91-15.4,1.12"/>
<path class="st1" d="M247.72,33.62c-9.13,3.02-16.92,6.45-25.82,10.56C188.91,59.3,154.8,80.26,120.1,97.77
	c-32.67,16.62-66.35,27.9-101.96,30.66C12.84,128.84,7.6,129,2.44,129"/>
<path class="st1" d="M247.72,33.62c-9.34,3.51-17.13,7.32-26.09,11.78c-33.18,16.44-66.58,37.59-101.11,54.64
	c-32.33,16.03-65.88,27.25-102.07,28.94c-5.39,0.23-10.72,0.23-16,0.02"/>
<path class="st0" d="M247.72,33.62c-9.55,4.01-17.34,8.2-26.36,13c-64.44,34.28-126.33,81.95-202.6,82.91
	c-5.48,0.07-10.91-0.11-16.3-0.53"/>
<path class="st1" d="M247.72,33.62c-9.34,4.21-17.1,8.71-26.04,13.74c-29.21,16.42-58.33,35.52-88.85,51.16
	c-35.92,18.41-73.71,32.09-114.38,31.54c-5.41-0.09-10.75-0.45-16.01-1.06"/>
<path class="st1" d="M247.72,33.62c-9.13,4.42-16.85,9.22-25.71,14.48c-28.8,17.08-57.98,36.72-88.83,52.42
	c-36.35,18.5-74.91,31.85-115.01,30.08c-5.35-0.24-10.59-0.79-15.72-1.6"/>
<path class="st1" d="M247.72,33.62c-8.92,4.62-16.6,9.73-25.39,15.22c-28.4,17.74-57.62,37.91-88.81,53.69
	c-36.77,18.58-76.12,31.53-115.65,28.62c-5.28-0.39-10.43-1.14-15.43-2.13"/>
<path class="st1" d="M247.72,33.62c-8.71,4.83-16.35,10.24-25.06,15.97c-27.99,18.39-57.27,39.11-88.8,54.95
	c-37.2,18.67-77.32,31.2-116.29,27.16c-5.21-0.54-10.27-1.48-15.14-2.67"/>
<path class="st1" d="M247.72,33.62c-8.49,5.04-16.1,10.75-24.74,16.71c-27.58,19.04-56.92,40.31-88.78,56.21
	c-37.62,18.76-78.53,30.88-116.93,25.69c-5.15-0.7-10.1-1.82-14.85-3.2"/>
<path class="st1" d="M247.72,33.62c-8.28,5.24-15.85,11.25-24.41,17.45c-27.18,19.68-56.56,41.5-88.77,57.47
	c-38.05,18.85-79.74,30.55-117.56,24.23c-5.08-0.85-9.94-2.16-14.56-3.74"/>
<path class="st1" d="M247.72,33.62c-8.07,5.45-15.6,11.75-24.09,18.19c-26.77,20.31-56.21,42.7-88.75,58.73
	c-38.47,18.94-80.96,30.21-118.2,22.77c-5.02-1-9.78-2.5-14.27-4.27"/>
<path class="st1" d="M247.72,33.62c-7.86,5.65-15.35,12.25-23.76,18.94c-26.37,20.94-55.85,43.89-88.74,59.99
	c-38.9,19.02-82.18,29.87-118.84,21.31c-4.96-1.16-9.62-2.84-13.98-4.81"/>
<path class="st0" d="M247.72,33.62c-7.64,5.86-15.1,12.75-23.44,19.68c-25.96,21.56-55.5,45.09-88.72,61.25
	c-39.32,19.11-83.4,29.53-119.48,19.85c-4.89-1.31-9.46-3.18-13.69-5.34"/>
<path class="st1" d="M247.72,33.62c-7.43,6.07-14.85,13.25-23.11,20.42c-25.56,22.18-55.15,46.28-88.71,62.51
	c-39.75,19.2-84.62,29.18-120.11,18.38c-4.83-1.47-9.29-3.52-13.4-5.88"/>
<path class="st1" d="M247.72,33.62c-7.22,6.27-14.6,13.75-22.79,21.16c-25.16,22.79-54.79,47.48-88.69,63.77
	c-40.17,19.29-85.84,28.83-120.75,16.92c-4.77-1.63-9.13-3.86-13.11-6.41"/>
<path class="st1" d="M247.72,33.62c-7.01,6.48-14.35,14.24-22.46,21.9c-24.76,23.39-54.44,48.67-88.68,65.03
	c-40.6,19.38-87.07,28.47-121.39,15.46c-4.7-1.78-8.97-4.2-12.82-6.94"/>
<path class="st1" d="M247.72,33.62c-6.79,6.68-14.1,14.73-22.14,22.65c-24.36,24-54.09,49.87-88.66,66.29
	c-41.02,19.46-88.29,28.11-122.03,14c-4.64-1.94-8.81-4.54-12.53-7.48"/>
<path class="st1" d="M247.72,33.62C241.13,40.5,233.86,48.84,225.9,57c-23.97,24.59-53.73,51.06-88.64,67.55
	c-41.45,19.55-89.52,27.74-122.66,12.54c-4.58-2.1-8.65-4.88-12.24-8.01"/>
<path class="st1" d="M247.72,33.62c-6.37,7.09-13.61,15.71-21.49,24.13c-23.57,25.18-53.38,52.26-88.63,68.81
	c-41.88,19.64-90.75,27.36-123.3,11.07c-4.52-2.26-8.48-5.22-11.95-8.55"/>
<path class="st1" d="M247.72,33.62c-6.16,7.3-13.36,16.2-21.16,24.87c-23.18,25.77-53.02,53.45-88.61,70.07
	c-42.3,19.73-91.98,26.98-123.94,9.61c-4.45-2.42-8.32-5.56-11.66-9.08"/>
<path class="st1" d="M247.72,33.62c-5.94,7.51-13.12,16.69-20.84,25.61c-22.79,26.35-52.67,54.65-88.6,71.33
	c-42.73,19.81-93.2,26.59-124.57,8.15c-4.39-2.58-8.16-5.9-11.37-9.62"/>
<path class="st1" d="M247.72,33.62c-5.73,7.71-12.87,17.18-20.51,26.36c-22.41,26.93-52.32,55.84-88.58,72.59
	c-43.15,19.9-94.43,26.2-125.21,6.69c-4.33-2.74-8-6.24-11.07-10.15"/>
<path class="st0" d="M247.72,33.62c-5.52,7.92-12.63,17.66-20.19,27.1c-22.03,27.51-51.96,57.04-88.57,73.85
	c-43.58,19.99-95.65,25.8-125.85,5.23c-4.27-2.91-7.84-6.58-10.78-10.69"/>
<path class="st1" d="M247.72,33.62c-5.31,8.12-12.39,18.14-19.86,27.84c-21.65,28.08-51.61,58.23-88.55,75.11
	c-44,20.08-96.87,25.4-126.49,3.77c-4.2-3.07-7.68-6.92-10.49-11.22"/>
<path class="st1" d="M247.72,33.62c-5.1,8.33-12.15,18.63-19.54,28.58c-21.27,28.65-51.26,59.43-88.54,76.37
	c-44.43,20.17-98.09,24.99-127.12,2.3c-4.14-3.23-7.51-7.27-10.2-11.76"/>
<path class="st1" d="M247.72,33.62c-4.88,8.54-11.91,19.11-19.21,29.32c-20.89,29.22-50.9,60.63-88.52,77.64
	c-44.85,20.25-99.31,24.57-127.76,0.84c-4.08-3.4-7.35-7.61-9.91-12.29"/>
<path class="st1" d="M247.72,33.62c-4.67,8.74-11.67,19.59-18.89,30.07c-20.52,29.79-50.55,61.82-88.5,78.9
	c-45.28,20.34-100.52,24.15-128.4-0.62c-4.01-3.56-7.19-7.95-9.62-12.83"/>
<path class="st1" d="M246.2,34.03c-4.46,8.95-9.91,19.66-17.04,30.4c-20.16,30.35-50.2,63.02-88.49,80.16
	c-45.7,20.43-101.73,23.73-129.04-2.08c-3.95-3.73-7.03-8.29-9.33-13.36"/>
<path class="st1" d="M246.08,34.06c-4.25,9.15-9.55,20.1-16.59,31.11c-19.79,30.91-49.84,64.21-88.47,81.42
	c-46.13,20.52-102.94,23.3-129.67-3.54c-3.88-3.9-6.87-8.63-9.04-13.9"/>
<path class="st1" d="M245.95,34.1c-4.03,9.36-9.19,20.55-16.15,31.81c-19.43,31.47-49.49,65.41-88.46,82.68
	c-46.55,20.61-104.14,22.88-130.31-5.01c-3.82-4.06-6.7-8.97-8.75-14.43"/>
<path class="st1" d="M245.83,34.13c-3.82,9.57-8.83,20.99-15.7,32.52c-19.07,32.03-49.13,66.6-88.44,83.94
	c-46.98,20.69-105.34,22.44-130.95-6.47c-3.75-4.23-6.54-9.31-8.46-14.97"/>
<path class="st1" d="M245.7,34.16c-3.61,9.77-8.47,21.44-15.25,33.23c-18.72,32.59-48.78,67.8-88.43,85.2
	c-47.4,20.78-106.53,22.01-131.59-7.93c-3.68-4.4-6.38-9.65-8.17-15.5"/>
<path class="st0" d="M245.58,34.2c-3.4,9.98-8.12,21.88-14.8,33.94c-18.36,33.14-48.43,68.99-88.41,86.46
	c-47.83,20.87-107.72,21.58-132.22-9.39c-3.61-4.57-6.22-9.99-7.88-16.03"/>
<path class="st1" d="M245.46,34.23c-3.18,10.18-7.76,22.33-14.35,34.65c-18.01,33.7-48.07,70.19-88.4,87.72
	C94.46,177.55,33.8,177.74,9.85,145.74c-3.55-4.74-6.06-10.33-7.59-16.57"/>
</svg>
