<?xml version="1.0" encoding="utf-8"?>
<!-- Generator: Adobe Illustrator 25.0.1, SVG Export Plug-In . SVG Version: 6.00 Build 0)  -->
<svg version="1.1" xmlns="http://www.w3.org/2000/svg" xmlns:xlink="http://www.w3.org/1999/xlink" x="0px" y="0px"
	 viewBox="0 0 1280 1024" style="enable-background:new 0 0 1280 1024;" xml:space="preserve">
<style type="text/css">
	.st0{fill:none;stroke:#9C8CA8;stroke-width:0.75;stroke-miterlimit:10;}
	.st1{fill:none;stroke:#29415E;stroke-width:0.75;stroke-miterlimit:10;}
	.food{fill:none;stroke:#61544A;stroke-width:0.75;stroke-miterlimit:10;}
	.food{fill:none;stroke:#61544A;stroke-width:0.75;stroke-miterlimit:10;stroke-dasharray:1,2;}
	.problems{fill:none;stroke:#4D6B40;stroke-width:0.75;stroke-miterlimit:10;}
	.st5{fill:none;stroke:#C1771E;stroke-width:0.75;stroke-miterlimit:10;}
	.st6{fill:none;stroke:#C1771E;stroke-width:0.75;stroke-miterlimit:10;stroke-dasharray:1,2;}
	.obesity{fill:none;stroke:#A94044;stroke-width:0.75;stroke-miterlimit:10;}
	.obesity{fill:none;stroke:#A94044;stroke-width:0.75;stroke-miterlimit:10;stroke-dasharray:1,2;}
	.america{fill:none;stroke:#578E8A;stroke-width:0.75;stroke-miterlimit:10;}
</style>
<g id="grotesque">
	<g id="education">
		<g>
			<path class="education" d="M853.53,305.52c9.86-164,109.85-195.87,227.11-194.47c108.93,1.3,205.26-0.64,199.86,110.13"/>
			<path class="education" d="M853.52,305.53c4.93-165.63,102.97-200.06,220.55-199.37c113.42,0.67,213.7-1.65,206.43,114.85"/>
			<path class="education" d="M853.52,305.53c5.2,117.82,103.35-35.85,220.92-35.11c113.17,0.71,197.05,50.96,206.06-49.4"/>
			<path class="education" d="M853.54,305.52c10.41,102.87,110.61-41.06,227.84-39.58c108.43,1.37,189.09,48.93,199.13-44.74"/>
			<path class="education" id="education_mouse" d="M1074.07,106.16c-117.58-0.69-215.62,33.75-220.55,199.37l0,0c5.2,117.82,103.35-35.85,220.92-35.11
				c112.47,0.7,195.99,50.3,205.87-47.58c-0.01,0.03-0.02,0.07-0.03,0.1c-11.78,84.87-88.91,40.51-191.97,38.53
				c-116.89-2.24-219.14,131.97-234.76,44.05l0,0c14.79-162.38,116.72-191.69,233.66-189.56c104.29,1.89,196.57,0.38,193.29,104.99
				c0-0.13,0.01-0.26,0.01-0.39C1287.5,104.52,1187.34,106.83,1074.07,106.16z"/>
		</g>
	</g>
	<g id="science">
		<g>
			<path class="science" d="M853.62,305.49c34.51-155.88,144.15-175.15,259.88-169.95c86.43,3.88,163.08,4.41,167,86.51"/>
			<path class="science" d="M853.6,305.5c29.58-157.5,137.3-179.25,253.33-174.86c90.93,3.44,171.52,3.4,173.57,91.23"/>
			<path class="science" d="M853.59,305.51c24.65-159.13,130.44-183.37,246.77-179.76c95.43,2.97,179.95,2.39,180.14,95.95"/>
			<path class="science" d="M853.57,305.51c19.72-160.75,123.58-187.52,240.22-184.66c99.93,2.45,188.39,1.38,186.71,100.68"/>
			<path class="science" d="M853.55,305.52c14.79-162.38,116.72-191.69,233.66-189.56c104.43,1.9,196.83,0.37,193.28,105.4"/>
			<path class="science" d="M853.56,305.52c15.61,87.92,117.86-46.3,234.76-44.05c103.68,1.99,181.14,46.91,192.19-40.08"/>
			<path class="science" d="M853.57,305.51c20.82,72.97,125.11-51.55,241.67-48.52c98.93,2.57,173.19,44.88,185.25-35.42"/>
			<path class="science" d="M853.59,305.5c26.02,58.01,132.35-56.82,248.59-53c94.18,3.1,165.23,42.86,178.32-30.76"/>
			<path class="science" d="M853.61,305.5c31.22,43.06,139.58-62.12,255.51-57.47c89.43,3.59,157.28,40.83,171.38-26.1"/>
			<path class="science" id="science_mouse" d="M1116.06,243.55c-115.62-5.51-226,90.04-262.43,61.94l0.01,0c39.44-154.25,150.99-171.07,266.44-165.05
				c81.74,4.26,154.31,5.42,160.38,81.27c0.01-0.11,0.03-0.21,0.05-0.32v-0.03c3.54-105.03-88.85-103.51-193.28-105.4
				c-116.95-2.12-218.87,27.19-233.66,189.56l0,0c15.61,87.92,117.86-46.3,234.76-44.05c103.05,1.98,180.19,46.34,191.97-38.53
				C1264.78,282.03,1200.34,247.57,1116.06,243.55z"/>
		</g>
	</g>
	<g id="lifestyle_solid">
		<path class="lifestyle" d="M853.81,305.43c88.74-138,219.83-134.11,331.98-116.02c37.06,5.98,70.28,15.52,94.71,34.54"/>
		<path class="lifestyle" d="M853.8,305.43c83.81-139.63,212.82-137.18,325.43-120.92c41.51,5.99,78.72,14.51,101.28,39.27"/>
		<path class="lifestyle" d="M853.78,305.44c78.88-141.25,205.88-140.49,318.87-125.83c45.97,5.96,87.15,13.5,107.85,43.99"/>
		<path class="lifestyle" d="M853.76,305.45c73.95-142.88,198.97-143.98,312.32-130.73c50.44,5.9,95.59,12.49,114.42,48.72"/>
		<path class="lifestyle" d="M853.74,305.45c69.02-144.5,192.09-147.61,305.76-135.63c54.93,5.79,104.03,11.48,120.99,53.44"/>
		<path class="lifestyle" d="M853.73,305.46c64.09-146.13,185.23-151.36,299.21-140.54c59.42,5.64,112.46,10.47,127.57,58.16"/>
		<path class="lifestyle" d="M853.71,305.46c59.16-147.75,178.37-155.18,292.65-145.44c63.91,5.45,120.9,9.46,134.14,62.89"/>
		<path class="lifestyle" d="M853.69,305.47c54.23-149.38,171.53-159.08,286.1-150.34c68.41,5.22,129.34,8.45,140.71,67.61"/>
		<path class="lifestyle" d="M853.67,305.48c49.3-151,164.68-163.03,279.55-155.24c72.92,4.94,137.77,7.44,147.28,72.33"/>
		<path class="lifestyle" d="M853.64,305.49c39.44-154.25,150.99-171.07,266.44-165.05c81.92,4.27,154.65,5.42,160.43,81.78"/>
		<path class="lifestyle" d="M853.63,305.49c36.43,28.11,146.81-67.45,262.43-61.94c84.68,4.04,149.33,38.81,164.44-21.44"/>
		<path class="lifestyle" d="M853.67,305.48c46.83-1.8,161.26-78.21,276.27-70.88c75.17,4.79,133.42,34.76,150.57-12.12"/>
		<path class="lifestyle" d="M853.68,305.47c52.04-16.75,168.49-83.66,283.19-75.35c70.41,5.1,125.47,32.73,143.63-7.46"/>
		<path class="lifestyle" d="M853.7,305.47c57.24-31.71,175.71-89.17,290.11-79.82c65.66,5.36,117.52,30.71,136.69-2.8"/>
		<path class="lifestyle" d="M853.72,305.46c62.45-46.66,182.94-94.74,297.02-84.29c60.92,5.58,109.56,28.68,129.76,1.86"/>
		<path class="lifestyle" d="M853.74,305.45c67.65-61.61,190.18-100.41,303.94-88.76c56.18,5.75,101.61,26.66,122.82,6.52"/>
		<path class="lifestyle" d="M853.76,305.45c72.85-76.56,197.44-106.19,310.86-93.23c51.44,5.88,93.66,24.63,115.88,11.18"/>
		<path class="lifestyle" d="M853.78,305.44c78.06-91.52,204.73-112.12,317.78-97.7c46.72,5.96,85.7,22.61,108.95,15.84"/>
		<path class="lifestyle" d="M853.8,305.43c83.26-106.47,212.05-118.24,324.7-102.18c42,5.99,77.75,20.58,102.01,20.5"/>
		<path class="lifestyle" d="M853.81,305.43c88.46-121.42,219.44-124.62,331.62-106.65c37.31,5.98,69.8,18.56,95.07,25.16"/>
		
	</g>
	<g id="lifestyle_dotted">
		<path class="lifestyle" d="M853.83,305.42c93.67-136.38,226.93-131.37,338.54-111.12c32.64,5.92,61.85,16.53,88.14,29.82"/>
		<path class="lifestyle" d="M853.66,305.48c44.37-152.63,157.84-167.03,272.99-160.15c77.42,4.63,146.21,6.43,153.85,77.06"/>
		<path class="lifestyle" d="M853.65,305.49c41.63,13.15,154.04-72.81,269.35-66.41c79.92,4.44,141.38,36.78,157.5-16.78"/>
		<path class="lifestyle" id="lifestyle_mouse" d="M1120.08,140.44c-115.44-6.02-227,10.8-266.44,165.05l-0.01,0c36.43,28.11,146.81-67.45,262.43-61.94
			c84.66,4.04,149.31,38.8,164.43-21.41C1274.67,145.86,1201.97,144.71,1120.08,140.44z"/>
	</g>
	<g id="children">
		<g>
			<path class="children" d="M427.5,669.49c2.15-331.4,153.02-239.93,180.5-387.69C626.08,184.55,716.22,34.39,814.43,65.2
				c80.04,25.39,47.85,94.52,39.08,246.29"/>
			<path class="children" d="M427.5,669.49c1.07-336.7,152.75-243.92,179.25-393.35c17.7-97.93,108.84-249.87,208.22-217.3
				c81.02,26.69,47.93,97.76,38.54,252.65"/>
			<path class="children" d="M427.5,669.49c1.06,163.05,104.77,327.62,221.61,326.98c260.13-0.7,367.89-242.02,228.94-594.75
				c-17.23-43.73-25-23.41-24.54-90.22"/>
			<path class="children" d="M427.5,669.49c2.11,160.92,106.22,322.91,222.22,321.95c257.26-2.11,361.82-239.08,226.87-588.51
				c-16.96-43.91-24-24.82-23.08-91.44"/>
			<path class="children" id="children_mouse" d="M878.05,401.72c-17.17-43.58-24.94-23.56-24.54-89.54c0-0.01,0-0.01,0-0.02c0,0,0,0,0,0
				c-1.32,65.64,5.01,48.06,21.64,92c130.99,346.1,29.57,579.1-224.81,582.26c-115.16,1.43-219.65-158.13-222.82-316.93l0,0
				c0,0,0,0,0,0l0,0c3.22-326.1,153.54-235.89,181.75-382.04C627.88,190.91,716.91,42.27,813.9,71.56
				c78.82,23.8,48.03,90.77,39.72,238.23c9.53-153.69,42.07-224.34-38.65-250.94c-99.37-32.57-190.52,119.37-208.22,217.3
				c-26.5,149.43-178.18,56.65-179.25,393.35l0,0c1.06,163.05,104.77,327.62,221.61,326.98
				C909.24,995.78,1016.99,754.45,878.05,401.72z M427.5,669.49L427.5,669.49L427.5,669.49L427.5,669.49z"/>
		</g>
	</g>
	<g id="problems">
		<path class="problems" d="M427.51,669.45c8.58-299.6,156.21-215.75,187.99-353.78c21.42-93,104.61-233.26,195.72-212.36
			c74.29,17.04,47.42,75.09,42.32,208.17"/>
		<path class="problems" d="M427.5,669.46c7.51-304.9,155.66-219.78,186.75-359.43c20.86-93.7,105.23-235.64,197.51-213.07
			c75.26,18.41,47.49,78.33,41.78,214.52"/>
		<path class="problems" d="M427.5,669.46c6.44-310.2,155.12-223.8,185.5-365.08c20.3-94.4,105.84-238.02,199.29-213.77
			c76.23,19.78,47.56,81.57,41.24,220.88"/>
		<path class="problems" d="M427.5,669.47c5.36-315.5,154.59-227.83,184.25-370.73C631.49,203.62,718.2,58.33,812.83,84.26
			c77.2,21.15,47.64,84.8,40.7,227.23"/>
		<path class="problems" d="M427.5,669.48c4.29-320.8,154.06-231.86,183-376.39C629.68,197.27,717.56,50.3,813.36,77.91
			c78.16,22.52,47.71,88.04,40.16,233.59"/>
		<path class="problems" d="M427.5,669.48c3.22-326.1,153.54-235.89,181.75-382.04C627.88,190.91,716.91,42.27,813.9,71.56
			c79.12,23.89,47.78,91.28,39.62,239.94"/>
		<path class="problems" d="M427.5,669.48c3.17,158.8,107.66,318.36,222.82,316.93c254.38-3.16,355.8-236.17,224.81-582.26
			c-16.69-44.09-23-26.23-21.62-92.65"/>
		<path class="problems" d="M427.5,669.48c4.23,156.67,109.1,313.82,223.43,311.91c251.5-4.21,349.83-233.29,222.75-576.02
			c-16.41-44.27-22-27.64-20.16-93.87"/>
		<path class="problems" d="M427.5,669.47c5.29,154.54,110.54,309.28,224.04,306.88c248.62-5.24,343.91-230.45,220.68-569.77
			c-16.14-44.46-21-29.05-18.7-95.09"/>
		<path class="problems" d="M427.5,669.46c6.34,152.42,111.98,304.74,224.65,301.86c245.74-6.27,338.04-227.65,218.62-563.53
			c-15.87-44.65-20-30.46-17.25-96.31"/>
		<path class="problems" d="M427.5,669.46c7.4,150.29,113.42,300.2,225.26,296.84c242.85-7.3,332.22-224.87,216.56-557.28
			c-15.6-44.84-19-31.87-15.79-97.53"/>
		<path class="problems" id="problems_mouse" d="M875.14,404.15c-16.63-43.94-22.95-26.36-21.64-92c0,0,0,0,0-0.01c-3.61,64.72-0.92,53.2,14.36,98.08
			c111.95,328.9,25.47,542.72-214.5,551.04c-111.01,3.85-217.41-143.65-225.86-291.82l0,0c0,0,0,0,0-0.01l0,0c0,0,0,0,0,0l0,0
			c9.66-294.3,156.76-211.73,189.24-348.12c21.98-92.3,103.99-230.88,193.94-211.66c73.07,15.62,47.52,71.48,42.9,200.5
			c0,0,0-0.01,0-0.01c0-0.02,0-0.04,0-0.05c0-0.02,0-0.04,0-0.06c0-0.02,0-0.04,0-0.06c0-0.02,0-0.04,0-0.07
			c8.3-147.55,39.13-214.55-39.71-238.36c-96.98-29.29-186.01,119.36-204.65,215.89c-28.21,146.15-178.53,55.94-181.75,382.04l0,0
			c0,0,0,0,0,0l0,0c3.17,158.8,107.66,318.36,222.82,316.93C904.71,983.25,1006.13,750.25,875.14,404.15z"/>
	</g>
	<g id="disease_solid">
		<path class="disease" d="M427.52,669.32c32.19-183,170.02-127.47,215.48-229.41c34.75-77.93,90.19-180.57,156.46-196.86
			c52.28-12.85,45.82,3.83,54.18,68.39"/>
		<path class="disease" d="M427.52,669.33c31.11-188.3,169.3-131.48,214.23-235.06c34.1-78.61,90.89-183,158.25-197.56
			c53.31-11.53,45.89,7.07,53.64,74.74"/>
		<path class="disease" d="M427.52,669.33c30.04-193.6,168.6-135.49,212.98-240.72c33.44-79.29,91.58-185.42,160.03-198.27
			c54.34-10.19,45.96,10.31,53.1,81.1"/>
		<path class="disease" d="M427.52,669.34c28.97-198.9,167.9-139.51,211.73-246.37c32.8-79.96,92.26-187.84,161.82-198.97
			c55.37-8.86,46.03,13.55,52.57,87.45"/>
		<path class="disease" d="M427.52,669.35C455.41,465.15,594.73,525.83,638,417.32c32.16-80.64,92.95-190.26,163.6-199.68
			c56.39-7.52,46.11,16.79,52.03,93.8"/>
		<path class="disease" d="M427.52,669.35c26.82-209.5,166.53-147.53,209.23-257.68c31.53-81.32,93.63-192.67,165.39-200.38
			c57.41-6.17,46.18,20.02,51.49,100.16"/>
		<path class="disease" d="M427.52,669.36c25.75-214.8,165.86-151.54,207.98-263.33c30.9-82,94.31-195.07,167.17-201.08
			c58.43-4.82,46.25,23.26,50.95,106.51"/>
		<path class="disease" d="M427.51,669.36c24.68-220.1,165.2-155.55,206.74-268.98c30.27-82.68,94.98-197.47,168.96-201.79
			c59.44-3.47,46.33,26.5,50.41,112.87"/>
		<path class="disease" d="M427.51,669.37c23.6-225.4,164.55-159.56,205.49-274.63c29.65-83.35,95.65-199.87,170.74-202.49
			c60.45-2.11,46.4,29.74,49.87,119.22"/>
		<path class="disease" d="M427.51,669.38c21.46-236,163.27-167.57,202.99-285.94c28.43-84.72,97.07-207.74,174.31-203.9
			c62.39,3.1,46.54,36.22,48.79,131.93"/>
		<path class="disease" d="M427.51,669.39c20.38-241.3,162.64-171.58,201.74-291.59c27.82-85.4,97.63-207.05,176.09-204.61
			c63.47,1.97,46.62,39.46,48.25,138.28"/>
		<path class="disease" d="M427.51,669.39C446.82,422.79,589.53,493.8,628,372.15c27.22-86.08,98.29-209.43,177.88-205.31
			c64.46,3.34,46.69,42.7,47.71,144.63"/>
		<path class="disease" d="M427.51,669.4c18.24-251.9,161.4-179.6,199.24-302.9c26.63-86.77,98.94-211.82,179.66-206.02
			c65.46,4.7,46.76,45.94,47.17,150.99"/>
		<path class="disease" d="M427.51,669.4c17.17-257.2,160.8-183.62,197.99-308.55c26.03-87.45,99.58-214.2,181.45-206.72
			c66.45,6.07,46.83,49.18,46.63,157.34"/>
		<path class="disease" d="M427.51,669.41c16.09-262.5,160.2-187.63,196.74-314.21c25.44-88.14,100.22-216.59,183.23-207.43
			c67.44,7.44,46.91,52.41,46.09,163.69"/>
		<path class="disease" d="M427.51,669.42C442.53,401.62,587.12,477.77,623,349.56c24.86-88.83,100.86-218.97,185.02-208.13
			c68.43,8.81,46.98,55.65,45.55,170.05"/>
		<path class="disease" d="M427.51,669.42c13.95-273.1,159.03-195.66,194.24-325.51c24.28-89.52,101.49-221.35,186.8-208.84
			c69.41,10.18,47.05,58.89,45.01,176.4"/>
		<path class="disease" d="M427.51,669.43c12.87-278.4,158.45-199.67,192.99-331.16c23.7-90.21,102.12-223.73,188.59-209.54
			c70.39,11.55,47.13,62.13,44.47,182.76"/>
		<path class="disease" d="M427.51,669.44c10.73-289,157.31-207.71,190.49-342.47c22.55-91.6,103.37-228.5,192.15-210.95
			c72.35,14.3,47.27,68.61,43.39,195.46"/>
		<path class="disease" d="M427.51,669.45c9.66-294.3,156.76-211.73,189.24-348.12c21.98-92.3,103.99-230.88,193.94-211.66
			c73.32,15.67,47.34,71.85,42.85,201.82"/>
		<path class="disease" d="M427.51,669.45c8.46,148.16,114.85,295.66,225.86,291.81c239.96-8.31,326.45-222.13,214.5-551.04
			c-15.33-45.04-17.99-33.28-14.33-98.74"/>
		<path class="disease" d="M427.51,669.45c9.52,146.03,116.29,291.13,226.47,286.79c237.07-9.33,320.73-219.43,212.43-544.79
			c-15.06-45.24-16.99-34.69-12.87-99.96"/>
		<path class="disease" d="M427.51,669.44c10.57,143.91,117.72,286.59,227.08,281.77c234.18-10.33,315.06-216.75,210.37-538.55
			c-14.79-45.45-15.99-36.09-11.41-101.18"/>
		<path class="disease" d="M427.51,669.43c12.69,139.65,120.58,277.53,228.3,271.72c228.39-12.31,303.88-211.49,206.24-526.06
			c-14.24-45.88-13.99-38.91-8.49-103.62"/>
		<path class="disease" d="M427.51,669.42c13.75,137.53,122,273,228.9,266.7c225.49-13.29,298.37-208.9,204.18-519.81
			c-13.97-46.1-12.99-40.32-7.03-104.84"/>
		<path class="disease" d="M427.51,669.42c14.8,135.4,123.43,268.48,229.51,261.68c222.58-14.27,292.92-206.34,202.12-513.57
			c-13.69-46.32-11.99-41.73-5.57-106.05"/>
		<path class="disease" d="M427.51,669.41c15.86,133.27,124.85,263.95,230.12,256.65c219.68-15.23,287.51-203.82,200.05-507.32
			c-13.41-46.55-10.99-43.14-4.11-107.27"/>
		<path class="disease" d="M427.51,669.41c16.92,131.14,126.27,259.43,230.73,251.63c216.77-16.19,282.16-201.32,197.99-501.08
			c-13.13-46.78-9.99-44.55-2.65-108.49"/>
		<path class="disease" d="M427.51,669.4c17.97,129.02,127.69,254.91,231.34,246.61c213.86-17.14,276.86-198.84,195.93-494.83
			c-12.85-47.02-8.99-45.96-1.19-109.71"/>
		<path class="disease" d="M427.51,669.39c19.03,126.89,129.11,250.4,231.95,241.58C870.4,892.9,931.07,714.58,853.32,422.39
			c-12.57-47.25-7.99-47.37,0.26-110.93"/>
		<path class="disease" d="M427.51,669.39c20.09,124.76,130.53,245.88,232.55,236.56c208.03-19.01,266.42-193.97,191.8-482.34
			c-12.29-47.5-6.99-48.78,1.72-112.14"/>
		<path class="disease" d="M427.51,669.38c21.15,122.64,131.94,241.37,233.16,231.54c205.11-19.93,261.28-191.58,189.74-476.09
			c-12-47.74-5.99-50.19,3.18-113.36"/>
		<path class="disease" d="M427.51,669.37c23.26,118.38,134.76,232.36,234.38,221.49c199.27-21.74,251.15-186.86,185.61-463.6
			c-11.43-48.25-3.98-53.01,6.1-115.8"/>
		<path class="disease" d="M427.51,669.37c24.32,116.25,136.17,227.86,234.99,216.47C858.85,863.2,908.67,701.3,846.05,428.48
			c-11.13-48.5-2.98-54.42,7.56-117.02"/>
		<path class="disease" d="M427.52,669.36C452.89,783.49,565.1,892.72,663.11,880.8c193.42-23.51,241.24-182.23,181.49-451.11
			c-10.84-48.76-1.98-55.83,9.02-118.24"/>
		<path class="disease" d="M427.52,669.35c26.43,112,138.99,218.86,236.2,206.42c190.5-24.38,236.36-179.94,179.42-444.87
			c-10.54-49.03-0.98-57.24,10.48-119.45"/>
		<path class="disease" d="M427.52,669.35c27.49,109.87,140.39,214.37,236.81,201.4c187.57-25.24,231.54-177.68,177.36-438.62
			c-10.24-49.3,0.02-58.65,11.94-120.67"/>
		<path class="disease" d="M427.52,669.34c28.55,107.75,141.79,209.89,237.42,196.38c184.64-26.09,226.77-175.44,175.3-432.38
			c-9.93-49.57,1.02-60.06,13.4-121.89"/>
		<path class="disease" d="M427.52,669.34c29.61,105.62,143.2,205.4,238.03,191.35c181.7-26.92,222.05-173.22,173.23-426.13
			c-9.62-49.84,2.02-61.47,14.86-123.11"/>
		<path class="disease" d="M427.52,669.33c30.66,103.49,144.6,200.92,238.63,186.33c178.77-27.75,217.38-171.01,171.17-419.89
			c-9.31-50.12,3.02-62.87,16.32-124.33"/>
		<path class="disease" d="M427.52,669.32c31.72,101.36,145.99,196.45,239.24,181.31c175.84-28.56,212.76-168.82,169.11-413.64
			c-8.99-50.4,4.02-64.28,17.77-125.54"/>
		
	</g>
	<g id="disease_dotted">
		<path class="disease" d="M427.51,669.38c22.53-230.7,163.9-163.56,204.24-280.29c29.04-84.03,96.35-205.49,172.52-203.2
			c61.44,1.85,46.47,32.98,49.33,125.57"/>
		<path class="disease" d="M427.51,669.43c11.8-283.7,157.88-203.69,191.74-336.82C642.37,241.71,722,106.5,809.62,122.37
			c71.37,12.93,47.2,65.37,43.93,189.11"/>
		<path class="disease" d="M427.51,669.44C439.14,811.22,546.66,951.5,655.2,946.18c231.28-11.32,309.45-214.1,208.31-532.3
			c-14.51-45.66-14.99-37.5-9.95-102.4"/>
		<path class="disease" d="M427.51,669.38c22.2,120.51,133.35,236.86,233.77,226.51c202.19-20.84,256.19-189.2,187.68-469.85
			c-11.72-47.99-4.99-51.6,4.64-114.58"/>
		<path class="disease" id="disease_mouse" d="M867.87,410.23c-15.28-44.89-17.98-33.36-14.36-98.11c0,0,0,0,0,0c0-0.01,0-0.01,0-0.02c0,0,0,0,0-0.01
			c0,0,0,0,0-0.01c0,0,0,0,0-0.01c0,0,0-0.01,0-0.01c0,0,0,0,0-0.01c0,0,0,0,0-0.01c0,0,0-0.01,0-0.01c0,0,0,0,0-0.01c0,0,0,0,0-0.01
			c0,0,0-0.01,0-0.01c0,0,0,0,0-0.01c0,0,0-0.01,0-0.01c0,0,0-0.01,0-0.01c0,0,0,0,0,0c0,0,0,0,0-0.01c0,0,0-0.01,0-0.01c0,0,0,0,0,0
			c0,0,0,0,0,0c-14.17,60.61-27.74,75.69-19.11,126.22c41.15,240.75,5.85,378.04-167.05,407.4
			c-92.46,15.7-207.07-77.05-239.85-176.28l0,0c0,0,0,0,0,0l0,0c0,0,0,0,0,0c0,0,0,0,0,0l0,0c0,0,0,0,0,0l0,0c0,0,0,0,0,0
			c0,0,0,0,0,0l0,0c0,0,0,0,0,0l0,0c0,0,0,0,0,0c0,0,0,0,0,0l0,0c0,0,0,0,0,0l0,0c0,0,0,0,0,0c0,0,0,0,0,0l0,0c0,0,0,0,0,0l0,0
			c0,0,0,0,0,0c0,0,0,0,0,0l0,0c0,0,0,0,0,0l0,0c0,0,0,0,0,0c0,0,0,0,0,0l0,0c0,0,0,0,0,0c0,0,0,0,0,0l0,0c0,0,0,0,0,0c0,0,0,0,0,0
			l0,0c0,0,0,0,0,0c0,0,0,0,0,0l0,0c0,0,0,0,0,0c0,0,0,0,0,0l0,0c0,0,0,0,0,0c0,0,0,0,0,0l0,0c0,0,0,0,0,0c0,0,0,0,0,0l0,0
			c0,0,0,0,0,0c0,0,0,0,0,0l0,0c0,0,0,0,0,0c0,0,0,0,0,0l0,0c0,0,0,0,0,0c0,0,0,0,0,0l0,0c0,0,0,0,0,0c0,0,0,0,0,0l0,0c0,0,0,0,0,0
			c0,0,0,0,0,0l0,0c0,0,0,0,0,0c0,0,0,0,0,0l0,0c0,0,0,0,0,0c0,0,0,0,0,0l0,0c0,0,0,0,0,0c0,0,0,0,0,0l0,0c0,0,0,0,0,0c0,0,0,0,0,0
			l0,0c0,0,0,0,0,0c0,0,0,0,0,0l0,0c0,0,0,0,0,0c0,0,0,0,0,0l0,0c0,0,0,0,0,0c0,0,0,0,0,0l0,0c0,0,0,0,0,0c0,0,0,0,0,0l0,0
			c0,0,0,0,0,0c0,0,0,0,0,0l0,0c0,0,0,0,0,0c0,0,0,0,0,0l0,0c0,0,0,0,0,0c0,0,0,0,0,0l0,0c0,0,0,0,0,0c0,0,0,0,0,0l0,0c0,0,0,0,0,0
			c0,0,0,0,0,0l0,0c0,0,0,0,0,0c0,0,0,0,0,0l0,0c0,0,0,0,0,0c0,0,0,0,0,0l0,0c0,0,0,0,0,0c0,0,0,0,0,0l0,0c0,0,0,0,0,0c0,0,0,0,0,0
			l0,0c0,0,0,0,0,0c0,0,0,0,0,0l0,0c0,0,0,0,0,0c0,0,0,0,0,0l0,0c0,0,0,0,0,0c0,0,0,0,0,0l0,0c0,0,0,0,0,0c0,0,0,0,0,0l0,0
			c0,0,0,0,0,0l0,0c0,0,0,0,0,0c0,0,0,0,0,0l0,0c0,0,0,0,0,0l0,0c0,0,0,0,0,0c0,0,0,0,0,0l0,0c0,0,0,0,0,0c0,0,0,0,0,0l0,0
			c0,0,0,0,0,0c0,0,0,0,0,0l0,0c0,0,0,0,0,0l0,0c0,0,0,0,0,0c0,0,0,0,0,0l0,0c0,0,0,0,0,0l0,0c0,0,0,0,0,0c0,0,0,0,0,0l0,0
			c0,0,0,0,0,0l0,0c0,0,0,0,0,0c0,0,0,0,0,0l0,0c0,0,0,0,0,0l0,0c0,0,0,0,0,0c0,0,0,0,0,0l0,0c0,0,0,0,0,0l0,0c0,0,0,0,0,0
			c0,0,0,0,0,0l0,0c0,0,0,0,0,0l0,0c0,0,0,0,0,0c0,0,0,0,0,0l0,0c0,0,0,0,0,0l0,0c0,0,0,0,0,0c0,0,0,0,0,0l0,0c0,0,0,0,0,0l0,0
			c0,0,0,0,0,0c0,0,0,0,0,0l0,0v0l0,0c0,0,0,0,0,0c0,0,0,0,0,0l0,0c0,0,0,0,0,0l0.01,0c0,0,0,0,0,0c0,0,0,0,0,0l0,0v0l0.01,0
			c0,0,0,0,0,0c0,0,0,0,0,0l0,0h0l0.01,0c0,0,0,0,0,0l0.02-0.02c33.34-177.41,170.72-123.26,216.68-223.52
			c35.42-77.25,89.5-178.13,154.68-196.15c51.17-14.15,45.76,0.54,54.68,61.73c0-0.01,0-0.02,0-0.03c0-0.01,0-0.02,0-0.03
			c0-0.01,0-0.02,0-0.03c0-0.01,0-0.02,0-0.03c0-0.01,0-0.02,0-0.03c0-0.01,0-0.02,0-0.03c0-0.01,0-0.02,0-0.04c0-0.01,0-0.03,0-0.04
			c0-0.01,0-0.02,0-0.03c0-0.01,0-0.02,0-0.04c0-0.01,0-0.03,0-0.04c0-0.02,0-0.03,0-0.05c0-0.01,0-0.03,0-0.04c0-0.02,0-0.03,0-0.05
			c0-0.02,0-0.03,0-0.05c0-0.02,0-0.03,0-0.05c0-0.02,0-0.03,0-0.05c0-0.02,0-0.03,0-0.05c0-0.02,0-0.04,0-0.05c0-0.02,0-0.03,0-0.05
			c0-0.02,0-0.04,0-0.06c4.61-129.1,30.19-184.99-42.9-200.6c-89.95-19.22-171.95,119.36-193.94,211.66
			c-32.49,136.39-179.59,53.82-189.24,348.12l0,0c0,0,0,0,0,0l0,0c0,0,0,0,0,0.01l0,0c8.46,148.16,114.85,295.66,225.86,291.82
			C893.33,952.95,979.82,739.13,867.87,410.23z"/>
	</g>
	<g id="obesity_solid">
		<path class="obesity" d="M427.54,669.1c71.88,13.1,202.24,25.22,261.71-20.25c64.09-49.01,67.62-87.46,90.43-170.78
			c16.47-59.58,43.12-116.01,74.14-166.7"/>
		<path class="obesity" d="M427.54,669.11c70.81,7.8,201.3,20.91,260.46-25.9c63.19-50,68.04-89.98,92.22-171.48
			c17.3-58.32,43.19-112.78,73.6-160.34"/>
		<path class="obesity" d="M427.54,669.11c69.74,2.5,200.35,16.61,259.21-31.55c62.29-50.97,68.56-92.48,94-172.19
			c18.21-57.04,43.27-109.54,73.06-153.99"/>
		<path class="obesity" d="M427.54,669.12c68.66-2.8,199.4,12.33,257.96-37.21c61.39-51.93,69.09-94.98,95.79-172.89
			c19.11-55.76,43.34-106.3,72.52-147.64"/>
		<path class="obesity" d="M427.54,669.13c67.59-8.1,198.45,8.05,256.71-42.86c60.49-52.87,69.61-97.49,97.57-173.6
			c20.02-54.49,43.41-103.06,71.98-141.28"/>
		<path class="obesity" d="M427.54,669.13c66.52-13.4,197.5,3.8,255.46-48.51c59.6-53.79,70.14-100,99.36-174.3
			c20.93-53.22,43.49-99.82,71.45-134.93"/>
		<path class="obesity" d="M427.54,669.14c65.45-18.7,196.55-0.45,254.21-54.17c58.71-54.7,70.67-102.52,101.14-175.01
			c21.84-51.95,43.56-96.58,70.91-128.57"/>
		<path class="obesity" d="M427.54,669.14c64.37-24,195.6-4.68,252.96-59.82c57.83-55.59,71.2-105.04,102.93-175.71
			c22.75-50.69,43.63-93.34,70.37-122.22"/>
		<path class="obesity" d="M427.54,669.15c63.3-29.3,194.66-8.9,251.71-65.47c56.95-56.47,71.74-107.56,104.71-176.42
			c23.67-49.43,43.7-90.1,69.83-115.87"/>
		<path class="obesity" d="M427.54,669.16c61.15-39.9,192.77-17.31,249.21-76.78c55.22-58.18,72.83-112.62,108.28-177.83
			c25.51-46.92,43.85-83.62,68.75-103.16"/>
		<path class="obesity" d="M427.54,669.17c60.08-45.2,191.83-21.49,247.96-82.43c54.36-59.02,73.38-115.16,110.06-178.53
			c26.44-45.67,43.92-80.39,68.21-96.81"/>
		<path class="obesity" d="M427.54,669.17c59.01-50.5,190.9-25.66,246.71-88.09c53.51-59.84,73.94-117.7,111.85-179.24
			c27.37-44.43,43.99-77.15,67.67-90.45"/>
		<path class="obesity" d="M427.53,669.18c57.94-55.8,189.97-29.83,245.47-93.74c52.66-60.65,74.5-120.24,113.63-179.94
			c28.3-43.18,44.07-73.91,67.13-84.1"/>
		<path class="obesity" d="M427.53,669.19c56.86-61.1,189.04-33.98,244.22-99.39c51.83-61.45,75.08-122.79,115.42-180.65
			c29.24-41.94,44.14-70.67,66.59-77.75"/>
		<path class="obesity" d="M427.53,669.19c55.79-66.4,188.13-38.12,242.97-105.04c51-62.24,75.66-125.34,117.2-181.35
			c30.19-40.7,44.21-67.43,66.05-71.39"/>
		<path class="obesity" d="M427.53,669.2c54.72-71.7,187.21-42.25,241.72-110.7c50.18-63.02,76.24-127.89,118.99-182.06
			c31.14-39.46,44.29-64.19,65.51-65.04"/>
		<path class="obesity" d="M427.53,669.2c53.64-77,186.31-46.37,240.47-116.35c49.37-63.79,76.84-130.44,120.77-182.76
			c32.1-38.23,44.36-60.95,64.97-58.68"/>
		<path class="obesity" d="M427.53,669.21c52.57-82.3,185.41-50.49,239.22-122c48.56-64.55,77.44-132.99,122.56-183.46
			c33.06-36.99,44.43-57.71,64.43-52.33"/>
		<path class="obesity" d="M427.53,669.22c50.43-92.9,183.64-58.69,236.72-133.31c46.98-66.04,78.68-138.09,126.13-184.87
			c35-34.51,44.58-51.23,63.35-39.62"/>
		<path class="obesity" d="M427.53,669.23c49.35-98.2,182.76-62.78,235.47-138.96c46.2-66.78,79.31-140.64,127.91-185.58
			c35.99-33.28,44.65-48,62.81-33.27"/>
		<path class="obesity" d="M427.53,669.23c48.28-103.5,181.9-66.86,234.22-144.61c45.43-67.51,79.95-143.18,129.69-186.28
			c36.97-32.04,44.72-44.76,62.27-26.92"/>
		<path class="obesity" d="M427.53,669.24c47.21-108.8,181.04-70.94,232.97-150.27c44.66-68.23,80.59-145.72,131.48-186.99
			c37.97-30.79,44.8-41.52,61.74-20.56"/>
		<path class="obesity" d="M427.53,669.24c46.13-114.1,180.19-75,231.72-155.92c43.91-68.95,81.25-148.26,133.26-187.69
			c38.97-29.55,44.87-38.28,61.2-14.21"/>
		<path class="obesity" d="M427.53,669.25c45.06-119.4,179.35-79.07,230.47-161.57c43.16-69.66,81.91-150.79,135.05-188.4
			c39.97-28.3,44.94-35.04,60.66-7.85"/>
		<path class="obesity" d="M427.53,669.26c43.99-124.7,178.52-83.12,229.22-167.23c42.42-70.36,82.58-153.31,136.83-189.1
			c40.98-27.04,45.01-31.8,60.12-1.5"/>
		<path class="obesity" d="M427.53,669.26c42.92-130,177.7-87.17,227.97-172.88c41.69-71.07,83.26-155.83,138.62-189.81
			c42-25.78,45.09-28.56,59.58,4.85"/>
		<path class="obesity" d="M427.53,669.27c41.84-135.3,176.89-91.22,226.72-178.53c40.96-71.77,83.94-158.33,140.4-190.51
			c43.02-24.52,45.16-25.32,59.04,11.21"/>
		<path class="obesity" d="M427.52,669.28c39.7-145.9,175.3-99.3,224.23-189.84c39.53-73.15,85.32-163.33,143.97-191.92
			c45.07-21.97,45.31-18.84,57.96,23.91"/>
		<path class="obesity" d="M427.52,669.29c38.62-151.2,174.51-103.33,222.98-195.49c38.83-73.84,86.01-165.82,145.76-192.63
			c46.1-20.69,45.38-15.6,57.42,30.27"/>
		<path class="obesity" d="M427.52,669.29c37.55-156.5,173.74-107.36,221.73-201.14c38.13-74.53,86.71-168.29,147.54-193.33
			c47.13-19.4,45.45-12.37,56.88,36.62"/>
		<path class="obesity" d="M427.52,669.3C464,507.5,600.5,557.91,648,462.5c37.44-75.21,87.4-170.76,149.32-194.04
			c48.16-18.1,45.52-9.13,56.34,42.97"/>
		<path class="obesity" d="M427.52,669.3c35.41-167.1,172.22-115.41,219.23-212.45c36.76-75.89,88.1-173.23,151.11-194.74
			c49.19-16.8,45.6-5.89,55.8,49.33"/>
		<path class="obesity" d="M427.52,669.31C461.85,496.91,599,549.88,645.5,451.21c36.09-76.57,88.8-175.68,152.89-195.45
			c50.22-15.49,45.67-2.65,55.26,55.68"/>
		<path class="obesity" d="M427.52,669.32c33.26-177.7,170.75-123.45,216.73-223.76c35.42-77.25,89.5-178.13,154.68-196.15
			c51.25-14.17,45.74,0.59,54.72,62.04"/>
		<path class="obesity" d="M427.52,669.32C460.3,768.56,574.91,861.3,667.37,845.6c172.9-29.35,208.2-166.65,167.05-407.4
			c-8.66-50.68,5.02-65.69,19.23-126.76"/>
		<path class="obesity" d="M427.52,669.31c33.83,97.11,148.79,187.52,240.46,171.26c169.96-30.14,203.68-164.49,164.98-401.15
			c-8.33-50.97,6.02-67.1,20.69-127.98"/>
		<path class="obesity" d="M427.52,669.31c34.89,94.98,150.18,183.06,241.07,166.24c167.03-30.91,199.21-162.35,162.92-394.9
			c-8-51.26,7.02-68.51,22.15-129.2"/>
		<path class="obesity" d="M427.52,669.3c35.95,92.86,151.58,178.6,241.67,161.21c164.09-31.67,194.8-160.23,160.86-388.66
			c-7.66-51.55,8.02-69.92,23.61-130.42"/>
		<path class="obesity" d="M427.52,669.3c37.01,90.73,152.97,174.15,242.28,156.19c161.15-32.41,190.43-158.11,158.79-382.41
			c-7.31-51.84,9.02-71.33,25.07-131.63"/>
		<path class="obesity" d="M427.52,669.29c38.06,88.6,154.37,169.71,242.89,151.17c158.21-33.14,186.12-156.01,156.73-376.17
			c-6.96-52.14,10.03-72.74,26.53-132.85"/>
		<path class="obesity" d="M427.52,669.28c39.12,86.47,155.76,165.28,243.5,146.14C826.3,781.57,852.87,661.51,825.69,445.5
			c-6.6-52.44,11.03-74.15,27.99-134.07"/>
		<path class="obesity" d="M427.52,669.28c40.18,84.35,157.15,160.85,244.11,141.12c152.34-34.56,177.63-151.84,152.6-363.68
			c-6.23-52.74,12.03-75.56,29.45-135.29"/>
		<path class="obesity" d="M427.53,669.27c42.29,80.09,159.94,152.01,245.32,131.07c146.47-35.91,169.33-147.71,148.48-351.19
			c-5.47-53.35,14.03-78.38,32.37-137.73"/>
		<path class="obesity" d="M427.53,669.26c43.35,77.96,161.33,147.6,245.93,126.05c143.53-36.57,165.25-145.65,146.42-344.94
			c-5.07-53.66,15.03-79.79,33.83-138.94"/>
		<path class="obesity" d="M427.53,669.25c44.41,75.84,162.72,143.21,246.54,121.03c140.6-37.2,161.22-143.61,144.35-338.7
			c-4.67-53.97,16.03-81.2,35.28-140.16"/>
		<path class="obesity" d="M427.53,669.25c45.47,73.71,164.12,138.82,247.15,116.01c137.68-37.83,157.23-141.57,142.29-332.45
			c-4.25-54.28,17.03-82.61,36.74-141.38"/>
		<path class="obesity" d="M427.53,669.24c46.52,71.58,165.52,134.44,247.75,110.98C810.03,741.8,828.58,640.7,815.51,454.02
			c-3.82-54.59,18.03-84.02,38.2-142.6"/>
		<path class="obesity" d="M427.53,669.24c47.58,69.46,166.92,130.06,248.36,105.96c131.83-39.02,149.4-137.49,138.16-319.96
			c-3.38-54.91,19.03-85.43,39.66-143.82"/>
		<path class="obesity" d="M427.53,669.23c48.64,67.33,168.32,125.7,248.97,100.94c128.91-39.58,145.54-135.46,136.1-313.72
			c-2.93-55.22,20.03-86.84,41.12-145.03"/>
		<path class="obesity" d="M427.53,669.22c49.69,65.2,169.72,121.35,249.58,95.91c126-40.14,141.73-133.43,134.04-307.47
			c-2.46-55.53,21.03-88.25,42.58-146.25"/>
		<path class="obesity" d="M427.53,669.22c50.75,63.07,171.13,117.01,250.19,90.89c123.09-40.67,137.97-131.4,131.97-301.23
			c-1.97-55.85,22.03-89.65,44.04-147.47"/>
		<path class="obesity" d="M427.53,669.21c52.87,58.82,173.95,108.37,251.4,80.84c117.29-41.68,130.56-127.33,127.85-288.73
			c-0.95-56.48,24.04-92.47,46.96-149.91"/>
		<path class="obesity" d="M427.53,669.2c53.92,56.69,175.37,104.06,252.01,75.82c114.41-42.16,126.91-125.29,125.78-282.49
			c-0.41-56.79,25.04-93.88,48.42-151.12"/>
		<path class="obesity" d="M427.53,669.2c54.98,54.57,176.8,99.77,252.62,70.8c111.53-42.62,123.31-123.25,123.72-276.24
			c0.15-57.1,26.04-95.29,49.88-152.34"/>
		<path class="obesity" d="M427.53,669.19c56.04,52.44,178.23,95.5,253.23,65.77c108.66-43.07,119.74-121.19,121.66-270
			c0.74-57.41,27.04-96.7,51.34-153.56"/>
		<path class="obesity" d="M427.53,669.18c57.1,50.31,179.67,91.24,253.84,60.75c105.8-43.49,116.21-119.13,119.6-263.75
			c1.35-57.71,28.04-98.11,52.79-154.78"/>
		<path class="obesity" d="M427.54,669.18c58.15,48.18,181.12,86.99,254.44,55.73c102.95-43.9,112.72-117.05,117.53-257.51
			c1.99-58.01,29.04-99.52,54.25-156"/>
		<path class="obesity" d="M427.54,669.17c59.21,46.06,182.58,82.76,255.05,50.7c100.11-44.28,109.27-114.96,115.47-251.26
			c2.65-58.31,30.04-100.93,55.71-157.22"/>
		<path class="obesity" d="M427.54,669.17c60.27,43.93,184.05,78.55,255.66,45.68c97.29-44.66,105.85-112.86,113.41-245.02
			c3.35-58.6,31.04-102.34,57.17-158.43"/>
		<path class="obesity" d="M427.54,669.16c61.33,41.8,185.54,74.35,256.27,40.66c94.48-45.01,102.46-110.73,111.34-238.77
			c4.08-58.88,32.04-103.75,58.63-159.65"/>
		<path class="obesity" d="M427.54,669.15c63.44,37.55,188.55,66.02,257.48,30.61c88.92-45.67,95.79-106.41,107.22-226.28
			c5.66-59.42,34.04-106.57,61.55-162.09"/>
		<path class="obesity" d="M427.54,669.14c64.5,35.42,190.07,61.88,258.09,25.59c86.16-45.97,92.5-104.21,105.15-220.04
			c6.52-59.67,35.04-107.98,63.01-163.31"/>
		<path class="obesity" d="M427.54,669.14c65.55,33.29,191.62,57.76,258.7,20.57c83.43-46.26,89.24-101.98,103.09-213.79
			c7.42-59.91,36.04-109.39,64.47-164.52"/>
		<path class="obesity" d="M427.54,669.13c66.61,31.17,193.19,53.67,259.31,15.54c80.71-46.54,86-99.71,101.03-207.55
			c8.38-60.13,37.04-110.8,65.93-165.74"/>
		<path class="obesity" d="M427.54,669.13c67.67,29.04,194.79,49.59,259.92,10.52c78.02-46.8,82.79-97.4,98.97-201.3
			c9.39-60.33,38.04-112.21,67.39-166.96"/>
		<path class="obesity" d="M427.54,669.12c68.73,26.91,196.4,45.54,260.52,5.5c75.36-47.06,79.6-95.04,96.9-195.05
			c10.47-60.51,39.05-113.62,68.85-168.18"/>
		<path class="obesity" d="M427.54,669.11c69.78,24.79,198.05,41.5,261.13,0.47c72.72-47.3,76.43-92.62,94.84-188.81
			c11.61-60.66,40.05-115.03,70.3-169.4"/>
		<path class="obesity" d="M427.54,669.11c70.84,22.66,199.73,37.5,261.74-4.55c70.12-47.54,73.28-90.15,92.78-182.56
			c12.82-60.78,41.05-116.43,71.76-170.61"/>
		<path class="obesity" d="M427.54,669.1c71.9,20.53,201.44,33.51,262.35-9.57c67.54-47.77,70.13-87.61,90.71-176.32
			c14.12-60.85,42.05-117.84,73.22-171.83"/>
		
	</g>
	<g id="obesity_dotted">
		<path class="obesity" d="M427.54,669.1c72.96,18.4,203.18,29.54,262.96-14.6c65-48,67-85,88.65-170.07
			c15.5-60.89,43.05-119.25,74.68-173.05"/>
		<path class="obesity" d="M427.54,669.16c62.23-34.6,193.71-13.11,250.46-71.13c56.08-57.33,72.28-110.09,106.5-177.12
			c24.59-48.17,43.78-86.86,69.29-109.51"/>
		<path class="obesity" d="M427.53,669.21c51.5-87.6,184.52-54.59,237.97-127.66c47.77-65.3,78.06-135.54,124.34-184.17
			c34.03-35.75,44.5-54.47,63.89-45.98"/>
		<path class="obesity" d="M427.52,669.27c40.77-140.6,176.09-95.26,225.48-184.19c40.24-72.46,84.63-160.84,142.19-191.22
			c44.04-23.25,45.23-22.08,58.5,17.56"/>
		<path class="obesity" d="M427.52,669.27c41.24,82.22,158.54,156.43,244.71,136.1c149.4-35.25,173.46-149.77,150.54-357.43
			c-5.85-53.05,13.03-76.97,30.91-136.51"/>
		<path class="obesity" d="M427.53,669.21c51.81,60.95,172.54,112.68,250.79,85.87c120.19-41.18,134.24-129.37,129.91-294.98
			c-1.47-56.16,23.03-91.06,45.5-148.69"/>
		<path class="obesity" d="M427.54,669.15c62.38,39.68,187.03,70.18,256.88,35.64c91.69-45.35,99.11-108.59,109.28-232.53
			c4.85-59.16,33.04-105.16,60.09-160.87"/>
		<path class="obesity" id="obesity_mouse" d="M853.53,311.97c0,0,0-0.01,0-0.01c0,0,0,0,0,0c0,0,0-0.01,0-0.01c0-0.02,0.01-0.03,0.01-0.05c0,0,0,0,0,0
			c0,0,0,0,0,0c0,0,0-0.01,0-0.01c0,0,0,0,0,0c0,0,0-0.01,0.01-0.01c0,0,0,0,0-0.01c0,0,0,0,0,0c0,0,0-0.01,0-0.01c0,0,0,0,0,0
			c0,0,0-0.01,0-0.01c0,0,0-0.01,0-0.01c0,0,0,0,0,0c0,0,0,0,0,0c0,0,0-0.01,0-0.01c0,0,0,0,0,0c0,0,0-0.01,0-0.01c0,0,0,0,0,0
			c0,0,0-0.01,0.01-0.01c0,0,0,0,0,0c0,0,0,0,0,0c0,0,0,0,0-0.01c0,0,0,0,0,0c0,0,0,0,0-0.01c0.08-0.13,0.15-0.27,0.23-0.4
			l-0.01,0.01c0,0,0,0,0,0l0,0v0l-0.01,0.01c0,0,0,0,0,0l0,0c0,0,0,0,0,0l-0.01,0.01c0,0,0,0,0,0l0,0c0,0,0,0,0,0l-0.01,0.01
			c0,0,0,0,0,0l0,0c0,0,0,0,0,0l-0.01,0.01c0,0,0,0,0,0l0,0c0,0,0,0,0,0l-0.01,0.01c0,0,0,0,0,0l0,0c0,0,0,0,0,0l-0.01,0.01
			c0,0,0,0,0,0l0,0c0,0,0,0,0,0l-0.01,0.01c0,0,0,0,0,0l0,0c0,0,0,0,0,0l-0.01,0c0,0,0,0,0,0l0,0c0,0,0,0,0,0l-0.01,0c0,0,0,0,0,0
			l-0.01,0c0,0,0,0,0,0l-0.01,0c0,0,0,0,0,0l-0.01,0.01c0,0,0,0,0,0l0.01,0c0,0,0,0-0.01,0c0,0,0,0,0,0l-0.01,0.01c0,0,0,0,0,0
			l0.01,0c0,0,0,0,0,0c0,0,0,0,0,0l-0.01,0.01c0,0,0,0,0,0l0.01,0c0,0,0,0,0,0c0,0,0,0,0,0l0,0c0,0,0,0,0,0l0,0c0,0,0,0,0,0
			c0,0,0,0,0,0l0,0c0,0,0,0,0,0l0,0c0,0,0,0-0.01,0c0,0-0.01,0-0.01,0c0,0-0.01,0-0.01,0c0,0-0.01,0-0.01,0c0,0-0.01,0-0.01,0
			c0,0-0.01,0-0.01,0c0,0-0.01,0-0.01,0c0,0-0.01,0-0.01-0.01c0,0-0.01,0-0.01-0.01c0,0,0-0.01-0.01-0.01c0,0,0-0.01-0.01-0.01
			c0,0,0-0.01-0.01-0.01c0,0,0-0.01,0-0.01c0-0.01-0.01-0.01-0.01-0.02c0-0.01,0-0.01-0.01-0.02c0-0.01,0-0.01-0.01-0.02
			c0-0.01,0-0.01-0.01-0.02c0-0.01,0-0.01-0.01-0.02c0-0.01,0-0.01,0-0.02c0-0.01,0-0.01,0-0.02c0-0.01,0-0.02,0-0.02
			c0-0.01,0-0.02,0-0.03c-8.92-61.21-3.51-75.91-54.68-61.76c-65.18,18.03-119.26,118.9-154.68,196.15
			c-45.96,100.26-183.35,46.11-216.68,223.52l-0.02,0.02c0,0,0,0,0,0l-0.01,0h0l0,0c0,0,0,0,0,0c0,0,0,0,0,0l-0.01,0v0l0,0
			c0,0,0,0,0,0c0,0,0,0,0,0l-0.01,0c0,0,0,0,0,0l0,0c0,0,0,0,0,0c0,0,0,0,0,0l0,0v0l0,0c0,0,0,0,0,0c0,0,0,0,0,0l0,0c0,0,0,0,0,0l0,0
			c0,0,0,0,0,0c0,0,0,0,0,0l0,0c0,0,0,0,0,0l0,0c0,0,0,0,0,0c0,0,0,0,0,0l0,0c0,0,0,0,0,0l0,0c0,0,0,0,0,0c0,0,0,0,0,0l0,0
			c0,0,0,0,0,0l0,0c0,0,0,0,0,0c0,0,0,0,0,0l0,0c0,0,0,0,0,0l0,0c0,0,0,0,0,0c0,0,0,0,0,0l0,0c0,0,0,0,0,0l0,0c0,0,0,0,0,0
			c0,0,0,0,0,0l0,0c0,0,0,0,0,0l0,0c0,0,0,0,0,0c0,0,0,0,0,0l0,0c0,0,0,0,0,0l0,0c0,0,0,0,0,0c0,0,0,0,0,0l0,0c0,0,0,0,0,0l0,0
			c0,0,0,0,0,0c0,0,0,0,0,0l0,0c0,0,0,0,0,0c0,0,0,0,0,0l0,0c0,0,0,0,0,0l0,0c0,0,0,0,0,0c0,0,0,0,0,0l0,0c0,0,0,0,0,0l0,0
			c0,0,0,0,0,0c0,0,0,0,0,0l0,0c0,0,0,0,0,0c0,0,0,0,0,0l0,0c0,0,0,0,0,0c0,0,0,0,0,0l0,0c0,0,0,0,0,0c0,0,0,0,0,0l0,0c0,0,0,0,0,0
			c0,0,0,0,0,0l0,0c0,0,0,0,0,0c0,0,0,0,0,0l0,0c0,0,0,0,0,0c0,0,0,0,0,0l0,0c0,0,0,0,0,0c0,0,0,0,0,0l0,0c0,0,0,0,0,0c0,0,0,0,0,0
			l0,0c0,0,0,0,0,0c0,0,0,0,0,0l0,0c0,0,0,0,0,0c0,0,0,0,0,0l0,0c0,0,0,0,0,0c0,0,0,0,0,0l0,0c0,0,0,0,0,0c0,0,0,0,0,0l0,0
			c0,0,0,0,0,0c0,0,0,0,0,0l0,0c0,0,0,0,0,0c0,0,0,0,0,0l0,0c0,0,0,0,0,0c0,0,0,0,0,0l0,0c0,0,0,0,0,0c0,0,0,0,0,0l0,0c0,0,0,0,0,0
			c0,0,0,0,0,0l0,0c0,0,0,0,0,0c0,0,0,0,0,0l0,0c0,0,0,0,0,0c0,0,0,0,0,0l0,0c0,0,0,0,0,0c0,0,0,0,0,0l0,0c0,0,0,0,0,0c0,0,0,0,0,0
			l0,0c0,0,0,0,0,0c0,0,0,0,0,0l0,0c0,0,0,0,0,0c0,0,0,0,0,0l0,0c0,0,0,0,0,0c0,0,0,0,0,0l0,0c0,0,0,0,0,0c0,0,0,0,0,0l0,0
			c0,0,0,0,0,0c0,0,0,0,0,0l0,0c0,0,0,0,0,0c0,0,0,0,0,0l0,0c0,0,0,0,0,0c0,0,0,0,0,0l0,0c0,0,0,0,0,0c0,0,0,0,0,0l0,0c0,0,0,0,0,0
			c0,0,0,0,0,0l0,0c0,0,0,0,0,0c0,0,0,0,0,0l0,0c0,0,0,0,0,0c0,0,0,0,0,0l0,0c0,0,0,0,0,0l0,0c0,0,0,0,0,0c0,0,0,0,0,0l0,0
			c0,0,0,0,0,0l0,0c0,0,0,0,0,0c0,0,0,0,0,0l0,0c0,0,0,0,0,0l0,0c0,0,0,0,0,0c0,0,0,0,0,0l0,0c0,0,0,0,0,0l0,0c0,0,0,0,0,0
			c0,0,0,0,0,0l0,0c0,0,0,0,0,0l0,0c0,0,0,0,0,0c0,0,0,0,0,0l0,0c0,0,0,0,0,0l0,0C460.3,768.56,574.91,861.3,667.37,845.6
			c172.9-29.36,208.19-166.65,167.05-407.4C825.78,387.67,839.36,372.59,853.53,311.97z"/>
	</g>
	<g id="america">
		<g>
			<path class="america" d="M0.5,400.45c7.43-101.49,112.53-78.12,223.91,74.53c67.61,92.66,169.4,54.9,203.1,194.41"/>
			<path class="america" d="M0.5,400.46c6.37-108.71,115.32-86.61,229.38,72.19c67.45,93.9,168.74,51.79,197.63,196.77"/>
			<path class="america" d="M0.5,400.46c5.31-115.92,118.15-95.12,234.85,69.84c67.3,95.13,168.09,48.67,192.16,199.12"/>
			<path class="america" d="M0.5,400.47c4.25-123.13,121.04-103.65,240.31,67.49c67.16,96.37,167.43,45.56,186.69,201.48"/>
			<path class="america" d="M0.5,400.48c3.19-130.34,123.96-112.21,245.78,65.14c67.04,97.6,166.78,42.45,181.22,203.84"/>
			<path class="america" d="M0.5,400.49c2.12-137.55,126.93-120.79,251.25,62.79c66.93,98.83,166.12,39.34,175.76,206.19"/>
			<path class="america" d="M0.5,400.49c1.06-144.76,129.95-129.38,256.72,60.44C324.04,561,422.69,497.16,427.5,669.49"/>
			<path class="america" d="M0.5,400.49c1.02,199.2,8.68,252.7,110.4,307.57c102.8,55.73,311.96,134.89,316.61-38.57"/>
			<path class="america" d="M0.5,400.49c2.05,193.41,10.96,246.23,110.55,300.67c102,55.76,307.17,134.23,316.45-31.69"/>
			<path class="america" d="M0.5,400.48c3.07,187.61,13.17,239.88,110.7,293.78c101.13,55.89,302.37,133.57,316.3-24.81"/>
			<path class="america" d="M0.5,400.47C4.59,582.29,15.88,634,111.36,687.36c100.27,56.04,297.58,132.91,316.15-17.92"/>
			<path class="america" d="M0.5,400.46c5.12,176.02,17.59,227.19,111.01,280c99.4,56.19,292.78,132.26,316-11.04"/>
			<path class="america" d="M0.5,400.46c6.14,170.22,19.8,220.86,111.17,273.11c98.53,56.35,287.98,131.6,315.85-4.15"/>
			<path class="america" d="M0.5,400.45c7.17,164.43,22,214.53,111.32,266.22c97.65,56.51,283.19,130.94,315.69,2.73"/>
			<path class="america" d="M0.5,400.44c8.19,158.63,24.2,208.22,111.47,259.33c96.78,56.68,278.39,130.28,315.54,9.61"/>
			<path class="america" id="america_mouse" d="M427.51,669.4C427.51,669.39,427.51,669.39,427.51,669.4c0-0.01,0-0.01,0-0.01l0,0
				c-41.8,113.11-219.49,40.34-315.38-16.51C27.01,602.41,9.76,553.4,0.53,401.03c0.05-0.57,0.14-1.87,0.24-3.13
				c10.09-91.26,110.5-65.78,218.17,79.42c67.72,91.34,169.86,58.07,208.46,191.68l0.08,0.05c-4.97-171.79-103.5-108.15-170.27-208.13
				C130.5,271.19,1.67,255.75,0.5,400.31l0.01,0.01c0-0.02,0-0.04,0.01-0.06c0,0.14,0,0.28-0.01,0.41c0-0.07-0.01-0.15-0.01-0.22l0,0
				c0,0,0,0,0,0c0,0,0,0,0,0l0,0c0,0,0,0,0,0l0,0c0,0,0,0,0,0c0,0,0,0,0,0l0,0c0,0,0,0,0,0l0,0c0,0,0,0,0,0.01c0,0,0,0,0,0h0
				c0,0,0,0,0,0c0,0,0,0,0,0.01c0,0.01,0,0.01,0,0.02c0,0.01,0,0.01,0,0.02c0,0,0,0,0,0c0,0.24,0,0.46,0,0.7c0,0.03,0,0.06,0,0.1l0,0
				C1.55,599.84,9.32,653.27,110.9,708.06c102.8,55.73,311.95,134.88,316.61-38.55c0-0.01,0-0.02,0-0.03c0-0.01,0-0.01,0-0.02l0,0
				c0,0,0,0,0,0l0,0c0,0,0,0,0,0c0,0,0-0.01,0-0.01l0,0c0,0,0,0,0,0l0,0c0,0,0,0,0,0c0,0,0-0.01,0-0.01l0,0c0,0,0,0,0,0l0,0
				c0,0,0,0,0,0c0,0,0-0.01,0-0.01l0,0c0,0,0,0,0,0l0,0c0,0,0,0,0,0C427.51,669.4,427.51,669.4,427.51,669.4L427.51,669.4
				C427.51,669.4,427.51,669.4,427.51,669.4L427.51,669.4z"/>
		</g>
	</g>
	<g id="food_solid">
		<g>
			<path class="food" d="M0.49,400.31c27.61,35.5,68.96,76.1,120.02,119.16c76.65,64.64,181.83,114.02,307.03,149.64"/>
			<path class="food" d="M0.49,400.32c26.54,28.29,70.84,68.47,125.49,116.81c75.56,66.84,181.17,110.91,301.56,152"/>
			<path class="food" d="M0.49,400.32c25.48,21.08,72.75,60.76,130.96,114.46c74.6,68.83,180.52,107.8,296.09,154.35"/>
			<path class="food" d="M0.49,400.33c24.42,13.87,74.69,52.98,136.43,112.11c73.77,70.66,179.86,104.69,290.62,156.71"/>
			<path class="food" d="M0.49,400.34C23.85,407,77.17,445.47,142.39,510.1c73.02,72.37,179.21,101.57,285.15,159.07"/>
			<path class="food" d="M0.5,400.35c22.3-0.55,78.71,37.22,147.36,107.42c72.36,73.99,178.56,98.46,279.68,161.42"/>
			<path class="food" d="M0.5,400.35c21.24-7.76,80.79,29.26,152.83,105.07c71.77,75.53,177.9,95.35,274.21,163.78"/>
			<path class="food" d="M0.5,400.36c20.17-14.97,82.92,21.24,158.3,102.72c71.24,77.01,177.25,92.24,268.74,166.14"/>
			<path class="food" d="M0.5,400.37c19.11-22.18,85.1,13.17,163.76,100.37c70.76,78.44,176.59,89.13,263.27,168.49"/>
			<path class="food" d="M0.5,400.38c16.99-36.6,89.62-3.1,174.7,95.67c69.93,81.19,175.28,82.9,252.33,173.2"/>
			<path class="food" d="M0.5,400.39c15.93-43.81,91.96-11.29,180.17,93.32c69.57,82.52,174.63,79.79,246.86,175.56"/>
			<path class="food" d="M0.5,400.4c14.86-51.02,94.35-19.53,185.64,90.98c69.25,83.83,173.98,76.68,241.39,177.92"/>
			<path class="food" d="M0.5,400.41c13.8-58.23,96.8-27.81,191.1,88.63c68.95,85.12,173.32,73.57,235.92,180.27"/>
			<path class="food" d="M0.5,400.41c12.74-65.44,99.29-36.11,196.57,86.28c68.67,86.4,172.67,70.46,230.45,182.63"/>
			<path class="food" d="M0.5,400.42c11.68-72.65,101.84-44.46,202.04,83.93c68.42,87.67,172.01,67.34,224.98,184.99"/>
			<path class="food" d="M0.5,400.43C11.12,320.56,104.94,347.6,208,482.01c68.19,88.93,171.36,64.23,219.51,187.34"/>
			<path class="food" d="M0.5,400.43c9.56-87.07,107.09-61.23,212.97,79.23c67.98,90.18,170.7,61.12,214.04,189.7"/>
			<path class="food" d="M0.5,400.44c8.49-94.28,109.78-69.67,218.44,76.88c67.79,91.42,170.05,58.01,208.57,192.06"/>
			<path class="food" d="M0.5,400.44c9.21,152.84,26.4,201.91,111.63,252.44c95.9,56.85,273.6,129.63,315.39,16.5"/>
			<path class="food" d="M0.5,400.43c10.24,147.04,28.59,195.61,111.78,245.55c95.02,57.04,268.8,128.97,315.24,23.38"/>
			<path class="food" d="M0.5,400.42c11.26,141.24,30.78,189.32,111.94,238.66c94.13,57.23,264.01,128.31,315.08,30.26"/>
			<path class="food" d="M0.5,400.42c12.29,135.45,32.96,183.03,112.09,231.76c93.24,57.42,259.21,127.65,314.93,37.15"/>
			<path class="food" d="M0.5,400.41c13.31,129.65,35.14,176.75,112.24,224.87c92.35,57.63,254.42,127,314.78,44.03"/>
			<path class="food" d="M0.5,400.4c14.33,123.86,37.31,170.49,112.4,217.98c91.45,57.85,249.62,126.34,314.63,50.91"/>
			<path class="food" d="M0.5,400.39c15.36,118.06,39.48,164.23,112.55,211.09c90.54,58.07,244.82,125.68,314.48,57.8"/>
			<path class="food" d="M0.5,400.39c16.38,112.26,41.64,157.98,112.71,204.2c89.63,58.31,240.03,125.02,314.32,64.68"/>
			<path class="food" d="M0.5,400.38C17.9,506.85,44.3,552.11,113.36,597.69c88.72,58.55,235.23,124.37,314.17,71.56"/>
			<path class="food" d="M0.5,400.37c19.45,94.88,48.1,139.28,113.17,183.53c86.86,59.07,225.64,123.05,313.87,85.33"/>
			<path class="food" d="M0.5,400.36C20.97,489.44,50.74,533.42,113.82,577c85.92,59.36,220.85,122.39,313.71,92.22"/>
			<path class="food" d="M0.5,400.35C22,483.64,52.87,527.2,113.97,570.1c84.97,59.65,216.05,121.74,313.56,99.1"/>
			<path class="food" d="M0.5,400.35C23.02,477.83,55,521,114.12,563.2c84.01,59.96,211.25,121.08,313.41,105.98"/>
			<path class="food" d="M0.49,400.34C24.04,472.03,57.12,514.8,114.28,556.3c83.03,60.28,206.46,120.42,313.26,112.87"/>
			<path class="food" d="M0.49,400.33c24.57,65.9,58.73,108.28,113.94,149.07c82.04,60.62,201.66,119.76,313.11,119.75"/>
			<path class="food" d="M0.49,400.32c25.6,60.1,60.84,102.11,114.09,142.18c81.04,60.98,196.87,119.11,312.95,126.63"/>
			<path class="food" d="M0.49,400.32c26.62,54.31,62.93,95.94,114.25,135.29c80.02,61.36,192.07,118.45,312.8,133.52"/>
			<path class="food" d="M0.49,400.31c27.64,48.51,65.02,89.79,114.4,128.4c78.97,61.75,187.28,117.79,312.65,140.4"/>
			
		</g>
	</g>
	<g id="food_dotted">
		<path class="food" d="M0.49,400.3c28.67,42.71,67.09,83.64,114.55,121.51c77.91,62.17,182.48,117.13,312.5,147.28"/>
		<path class="food" d="M0.5,400.38c18.05-29.39,87.34,5.06,169.23,98.02c70.33,79.83,175.94,86.01,257.8,170.85"/>
		<path class="food" d="M0.5,400.37c18.43,100.67,45.96,145.5,113.01,190.42c87.79,58.81,230.44,123.71,314.02,78.45"/>
		<path class="food" id="food_mouse" d="M427.5,669.09c0.01,0,0.03,0.01,0.04,0.01l-0.14-0.09C388.8,535.4,286.66,568.66,218.94,477.33
				C110.33,330.84,9.09,306.18,0.51,400.31l-0.02-0.01c0,0,0.01,0.01,0.01,0.01l-0.01-0.01c0,0,0,0,0,0l0,0c0,0,0,0,0,0
				c0,0,0,0.01,0.01,0.01l-0.01,0c0,0,0,0,0,0l0,0c0,0,0,0,0,0c0,0,0,0.01,0,0.01l0,0c0,0,0,0,0,0l0,0c0,0,0,0,0,0c0,0,0,0.01,0,0.01
				l0,0c0,0,0,0,0,0c0,0,0,0,0,0l0,0c0,0,0,0.01,0,0.01l0,0c0,0,0,0,0,0c0,0,0,0,0,0l0,0c0,0,0,0,0,0.01c0,0,0,0,0,0l0,0c0,0,0,0,0,0
				c0,0,0,0,0,0l0,0c0,0,0,0,0,0.01c0,0,0,0,0,0l0,0c0,0,0,0,0,0c0,0,0,0,0,0l0,0c0,0,0,0,0,0.01c0,0,0,0,0,0l0,0c0,0,0,0,0,0
				c0,0,0,0,0,0l0,0c0,0,0,0,0,0.01c0,0,0,0,0,0l0,0c0,0,0,0,0,0c0,0,0,0,0,0l0,0c0,0,0,0,0,0.01c0,0,0,0,0,0l0,0c0,0,0,0,0,0
				c0,0,0,0,0,0l0,0c0,0,0,0,0,0l0,0l0,0c0,0,0,0,0,0c0,0,0,0,0,0l0,0c0,0,0,0,0,0l0,0c0,0,0,0,0,0c0,0,0,0,0,0l0,0c0,0,0,0,0,0l0,0
				c0,0,0,0,0,0c0,0,0,0,0,0l0,0c0,0,0,0,0,0l0,0c0,0,0,0,0,0c0,0,0,0,0,0l0,0c0,0,0,0,0,0l0,0c0,0,0,0,0,0c0,0,0,0,0,0l0,0
				c0,0,0,0,0,0l0,0c0,0,0,0,0,0c0,0,0,0,0,0l0,0c0,0,0,0,0,0l0,0c0,0,0,0,0,0c0,0,0,0,0,0l0,0c0,0,0,0,0,0l0,0c0,0,0,0,0,0
				c0,0,0,0,0,0l0,0c0,0,0,0,0,0l0,0c0,0,0,0,0,0c0,0,0,0,0,0l0,0c9.21,152.83,26.4,201.9,111.63,252.43
				c95.9,56.85,273.59,129.62,315.39,16.51l0,0c0,0,0,0,0,0c0,0,0,0,0-0.01l0,0c0,0,0,0,0,0l0,0c0,0,0,0,0,0c0,0,0,0,0-0.01l0,0
				c0,0,0,0,0,0l0,0c0,0,0,0,0,0c0,0,0,0,0,0l-0.01,0c0,0,0,0,0,0l0,0c0,0,0,0,0,0c0,0,0,0,0,0l-0.01,0c0,0,0,0,0,0l0,0c0,0,0,0,0,0
				c0,0,0,0,0,0l-0.01,0c0,0,0,0,0,0l0,0c0,0,0,0,0,0c0,0,0,0,0,0l-0.01-0.01c0,0,0,0,0.01,0l0,0c0,0,0,0,0,0c0,0,0,0,0,0l-0.01-0.01
				c0,0,0,0,0.01,0l0,0c0,0,0,0,0,0c0,0,0,0,0,0l-0.01-0.01c0,0,0,0,0.01,0l0,0c0,0,0,0,0,0c0,0,0,0,0,0l-0.01-0.01c0,0,0.01,0,0.01,0
				l0,0c0,0,0,0,0,0c0,0,0,0,0,0l-0.01-0.01c0,0,0.01,0,0.01,0l0,0c0,0,0,0,0,0c0,0,0,0,0,0l-0.01-0.01c0,0,0.01,0,0.01,0l0,0
				c0,0,0,0,0,0c0,0,0,0,0,0l-0.02-0.01c0,0,0.01,0,0.01,0l0,0c0,0,0,0,0,0c0,0,0,0,0,0l-0.02-0.01c0.01,0,0.01,0,0.02,0c0,0,0,0,0,0
				l0,0c0,0,0,0,0,0l-0.02-0.01c0.01,0,0.01,0,0.02,0c0,0,0,0,0,0l0,0c0,0,0,0,0,0l-0.02-0.01c0.01,0,0.01,0,0.02,0c0,0,0,0,0,0l0,0
				c0,0,0,0,0,0l-0.03-0.02c0.01,0,0.02,0,0.02,0c0,0,0,0,0,0l0,0c0,0,0,0,0,0l-0.03-0.02c0.01,0,0.02,0,0.03,0c0,0,0,0,0,0l0,0
				c0,0,0,0,0,0l-0.03-0.02c0.01,0,0.02,0,0.03,0.01c0,0,0,0,0.01,0l0,0c0,0,0,0,0,0L427.5,669.09z"/>
	</g>
</g>
</svg>
