<?xml version="1.0" encoding="utf-8"?>
<!-- Generator: Adobe Illustrator 25.0.1, SVG Export Plug-In . SVG Version: 6.00 Build 0)  -->
<svg version="1.1" id="Layer_1" xmlns="http://www.w3.org/2000/svg" xmlns:xlink="http://www.w3.org/1999/xlink" x="0px" y="0px"
	 viewBox="0 0 26 129" style="enable-background:new 0 0 26 129;" xml:space="preserve">
<style type="text/css">
	.st0{fill:none;stroke:#4D6B40;stroke-width:0.5;stroke-miterlimit:10;}
</style>
<g>
	<g>
		<path class="st0" d="M0.43,129.17c0-26.52,24.44-29.01,24.44-64.8S0.43,26.09,0.43-0.43"/>
		<path class="st0" d="M0.43,129.17c0-23.57,21.72-32.99,21.72-64.8S0.43,23.14,0.43-0.43"/>
		<path class="st0" d="M0.43,129.17c0-20.62,19.01-36.96,19.01-64.8S0.43,20.2,0.43-0.43"/>
		<path class="st0" d="M0.43,129.17c0-17.68,16.29-40.94,16.29-64.8c0-23.86-16.29-47.12-16.29-64.8"/>
		<path class="st0" d="M0.43,129.17c0-14.73,13.58-44.92,13.58-64.8S0.43,14.31,0.43-0.43"/>
		<path class="st0" d="M0.43,129.17c0-11.79,10.86-48.89,10.86-64.8c0-15.91-10.86-53.01-10.86-64.8"/>
		<path class="st0" d="M0.43,129.17c0-8.84,8.15-52.87,8.15-64.8c0-11.93-8.15-55.96-8.15-64.8"/>
		<path class="st0" d="M0.43,129.17c0-5.89,5.43-56.85,5.43-64.8S0.43,5.47,0.43-0.43"/>
		<path class="st0" d="M0.43,129.17c0-2.95,2.72-60.82,2.72-64.8c0-3.98-2.72-61.85-2.72-64.8"/>
		<line class="st0" x1="0.43" y1="129.17" x2="0.43" y2="-0.43"/>
	</g>
</g>
</svg>
